<svg xmlns="http://www.w3.org/2000/svg" viewBox="0 0 171.61234 155.70959"><title>pirate-flag</title><path d="M77.34088,10.04285C35.15131.39032,13.9436,16.43317,6.8454,30.26648l24.2987,86.92444S46.394,96.21875,104.59973,96.65729c57.978.43689,66.80377-22.53052,66.80377-22.53052L150.76343.29041S116.53,19.00885,77.34088,10.04285Zm29.23163,15.695A6.12874,6.12874,0,1,1,118.71625,26.795a5.12737,5.12737,0,1,1-4.92206,7.51862l-4.54462,3.99158a11.41353,11.41353,0,0,0-2.519-2.41492,14.10412,14.10412,0,0,0-2.90851-1.7406L108.72083,30.28A6.10825,6.10825,0,0,1,106.57251,25.73785ZM56.2088,42.29633a5.12676,5.12676,0,0,1,2.98779-6.21454,6.12832,6.12832,0,1,1,11.25409-4.68244,6.107,6.107,0,0,1-.67242,4.97888L75.61865,38.584a14.07484,14.07484,0,0,0-2.24536,2.53913,11.41293,11.41293,0,0,0-1.6701,3.06439L66.1637,41.7583a5.1255,5.1255,0,0,1-9.9549.538ZM78.06061,84.3114a6.12845,6.12845,0,1,1-12.164-.788,5.12729,5.12729,0,1,1,4.75482-7.62573l6.32434-5.75007a12.53241,12.53241,0,0,0,2.3418,2.22162,15.04242,15.04242,0,0,0,3.06524,1.50415l-6.56994,5.94477A6.10827,6.10827,0,0,1,78.06061,84.3114Zm28.26208-15.05395c.08319,1.10772-.376,3.14953-1.34631,3.69146-6.10553,3.40839-11.64923,4.31177-18.31366,2.86176a3.72774,3.72774,0,0,1-2.29443-2.61817c-.04175-.16833-.09272-.41-.11536-.48626-3.33954-.80786-4.87476-2.29138-5.81232-4.15821a3.77554,3.77554,0,0,1-.13513-3.11077,4.614,4.614,0,0,1-2.432-3.10309,4.155,4.155,0,0,1,.8191-2.98725c-5.94416-3.23584-5.46839-11.81109-2.22034-16.887,2.959-4.62427,8.113-7.52808,13.46808-8.73712,5.58337-1.25989,11.72094-.77008,16.59564,2.23035a16.799,16.799,0,0,1,6.66766,7.97338c1.33149,3.47529,1.16333,7.27784-1.71539,10.29444a4.15925,4.15925,0,0,1,1.69043,2.59607,4.61452,4.61452,0,0,1-1.36938,3.6972,3.82331,3.82331,0,0,1,.87023,2.99585C110.395,65.45667,108.99561,67.469,106.32269,69.25745Zm20.819,4.56842a6.12918,6.12918,0,1,1-10.58093-.2959L108.42,70.03174a15.06179,15.06179,0,0,0,2.41309-2.41522A12.53333,12.53333,0,0,0,112.33,64.75623L120.17505,68.15a5.12614,5.12614,0,1,1,6.96661,5.67591Z" transform="translate(0.20884 -0.29041)" style="fill:#2b2f30"/><path d="M6.55347,16.42816A3.4443,3.4443,0,0,0-.08081,18.28265L38.41638,156h7.15277Z" transform="translate(0.20884 -0.29041)" style="fill:#2b2f30"/><path d="M97.81293,56.543c-1.52137,1.238-2.60211,7.12231-1.0633,8.73956,1.53882,1.6167,7.63465,1.76,8.72974.18323,1.69879-2.44537.37549-7.751-1.1413-9.22839C102.821,54.76013,99.33392,55.30511,97.81293,56.543Z" transform="translate(0.20884 -0.29041)" style="fill:#2b2f30"/><path d="M94.90521,67.31689c-.00775-.00134-.01495-.00708-.02435-.00817a.12286.12286,0,0,0-.01642.00256,1.63145,1.63145,0,0,0-.25293.03949.14831.14831,0,0,0-.01648.00262.16766.16766,0,0,0-.02069.01514,3.544,3.544,0,0,0-1.46576,2.371c-.34228,1.40515-.10254,2.59564.53418,2.65839.48944.04864,1.06915-.58344,1.46735-1.51441a.231.231,0,0,1,.35718-.05584c.66363.76507,1.40826,1.19024,1.86.99444.58667-.25384.45178-1.46069-.30286-2.69464A3.5433,3.5433,0,0,0,94.90521,67.31689Z" transform="translate(0.20884 -0.29041)" style="fill:#2b2f30"/><path d="M88.5235,57.90125c-1.84137-.72083-5.3573-.17157-6.35956,1.71356-1.00214,1.88562-.66833,7.71631,1.762,9.31805,1.61615,1.06537,7.32642-.94134,8.30664-2.96747S90.36505,58.6217,88.5235,57.90125Z" transform="translate(0.20884 -0.29041)" style="fill:#2b2f30"/></svg>