<?xml version="1.0" encoding="utf-8"?>
<!-- Generator: Adobe Illustrator 23.0.2, SVG Export Plug-In . SVG Version: 6.00 Build 0)  -->
<svg version="1.1" id="Layer_1" xmlns="http://www.w3.org/2000/svg" xmlns:xlink="http://www.w3.org/1999/xlink" x="0px" y="0px"
	 viewBox="0 0 373 167.8" style="enable-background:new 0 0 373 167.8;" xml:space="preserve">
<style type="text/css">
	.st0{fill:#1A1719;}
</style>
<path class="st0" d="M328.7,138.7V80.8v-9.2V31.3H194.2V0h-83.6v71.6H2.4L50.1,141c-0.1,0-0.1-0.1-0.2-0.1C37.7,136,25,131,0,131
	v18.4c21.5,0,32.1,4.1,43.2,8.5c12.2,4.8,24.9,9.8,50,9.8s37.7-5,50-9.8c11.2-4.4,21.7-8.5,43.3-8.5s32.1,4.1,43.3,8.5
	c12.3,4.8,25,9.8,50,9.8c25.1,0,37.8-5,50-9.8c11.1-4.4,21.7-8.5,43.3-8.5V131C351.8,131,339.4,134.6,328.7,138.7 M310.3,71.6H194.2
	V49.7h116.1V71.6z M128.9,49.7h30.1V31.3h-30.1V18.4h46.9v53.2h-46.9V49.7z M77.7,148.5L37.4,90h109.8c-21.3,11-36.1,32.8-36.5,58.2
	c-5,0.7-10.6,1.2-17.5,1.2C87.2,149.4,82.2,149.1,77.7,148.5 M136.4,140.9c-2.3,0.9-4.5,1.8-6.9,2.6c3-24,23.3-42.7,48-42.7
	c22.3,0,41,15.2,46.7,35.7c-9.4-3-20.7-5.4-37.9-5.4C161.3,131,148.7,136,136.4,140.9 M244.1,143.8c-2-23.5-16-43.5-36.1-53.8h102.3
	v55.2h0.6c-7.9,2.4-17.2,4.2-31.3,4.2C263,149.4,252.9,146.9,244.1,143.8"/>
</svg>
