<svg xmlns="http://www.w3.org/2000/svg" viewBox="0 0 500.37288 336.87116"><title>sunset</title><path d="M407.49647,236.83611c-1.37469-85.83736-71.52422-155.27169-157.67254-155.27169-86.16906,0-156.31859,69.43433-157.69328,155.27169H-.37288v63.6842H500v-63.6842ZM249.82393,145.24862c51.01913,0,92.47761,40.88579,93.86008,91.58749H155.94312C157.32558,186.13441,198.78406,145.24862,249.82393,145.24862Zm69.28144,213.87691H98.65688a15.92105,15.92105,0,1,1,0-31.8421H319.10537a15.92105,15.92105,0,0,1,0,31.8421Zm103.38317-15.92105a15.92517,15.92517,0,0,1-15.921,15.92105H369.48056a15.921,15.921,0,1,1,0-31.8421h37.08693A15.92516,15.92516,0,0,1,422.48854,343.20448Zm-19.59036,59.31a15.92515,15.92515,0,0,1-15.92105,15.92105H249.82393a15.92105,15.92105,0,1,1,0-31.8421h137.1532A15.92516,15.92516,0,0,1,402.89818,402.51453Zm-198.03878,0a15.92515,15.92515,0,0,1-15.921,15.92105h-56.698a15.92105,15.92105,0,0,1,0-31.8421h56.698A15.92516,15.92516,0,0,1,204.8594,402.51453Z" transform="translate(0.37288 -81.56442)" style="fill:#1f1e1f"/></svg>