<?xml version="1.0" encoding="utf-8"?>
<!-- Generator: Adobe Illustrator 24.1.2, SVG Export Plug-In . SVG Version: 6.00 Build 0)  -->
<svg version="1.1" id="Layer_1" xmlns="http://www.w3.org/2000/svg" xmlns:xlink="http://www.w3.org/1999/xlink" x="0px" y="0px"
	 viewBox="0 0 500.4 336.9" style="enable-background:new 0 0 500.4 336.9;" xml:space="preserve">
<style type="text/css">
	.st0{fill:#FFFFFF;}
</style>
<path class="st0" d="M407.9,155.3C406.5,69.4,336.3,0,250.2,0C164,0,93.9,69.4,92.5,155.3H0V219h500.4v-63.7L407.9,155.3z
	 M250.2,63.7c51,0,92.5,40.9,93.9,91.6H156.3C157.7,104.6,199.2,63.7,250.2,63.7z M319.5,277.6H99c-8.8,0-15.9-7.1-15.9-15.9
	s7.1-15.9,15.9-15.9h220.4c8.8,0,15.9,7.1,15.9,15.9S328.3,277.6,319.5,277.6z M422.9,261.6c0,8.8-7.1,15.9-15.9,15.9h-37.1
	c-8.8,0-15.9-7.1-15.9-15.9s7.1-15.9,15.9-15.9h37.1C415.7,245.7,422.9,252.8,422.9,261.6L422.9,261.6z M403.3,321
	c0,8.8-7.1,15.9-15.9,15.9H250.2c-8.8,0-15.9-7.1-15.9-15.9s7.1-15.9,15.9-15.9h137.2C396.1,305,403.3,312.2,403.3,321L403.3,321z
	 M205.2,321c0,8.8-7.1,15.9-15.9,15.9h-56.7c-8.8,0-15.9-7.1-15.9-15.9s7.1-15.9,15.9-15.9h56.7C198.1,305,205.2,312.2,205.2,321
	L205.2,321z"/>
</svg>
