<?xml version="1.0" encoding="utf-8"?>
<!-- Generator: Adobe Illustrator 24.1.2, SVG Export Plug-In . SVG Version: 6.00 Build 0)  -->
<svg version="1.1" id="Capa_1" xmlns="http://www.w3.org/2000/svg" xmlns:xlink="http://www.w3.org/1999/xlink" x="0px" y="0px"
	 viewBox="0 0 191.8 191.8" style="enable-background:new 0 0 191.8 191.8;" xml:space="preserve">
<style type="text/css">
	.st0{fill:#F0CF3C;}
	.st1{fill:#1D1D1B;}
</style>
<g>
	<path class="st0" d="M95.9,0C43,0,0,43,0,95.9s43,95.9,95.9,95.9s95.9-43,95.9-95.9S148.8,0,95.9,0z"/>
	<path class="st1" d="M95.9,121c6.9,0,12.5-5.6,12.5-12.5v-57c0-6.9-5.6-12.5-12.5-12.5s-12.5,5.6-12.5,12.5v57
		C83.4,115.4,89,121,95.9,121z"/>
	<path class="st1" d="M95.9,127.8c-3.3,0-6.5,1.3-8.8,3.7c-2.3,2.3-3.7,5.5-3.7,8.8s1.3,6.5,3.7,8.8c2.3,2.3,5.6,3.7,8.8,3.7
		s6.5-1.3,8.8-3.7c2.3-2.3,3.7-5.6,3.7-8.8s-1.3-6.5-3.7-8.8C102.4,129.1,99.2,127.8,95.9,127.8z"/>
</g>
</svg>
