<?xml version="1.0" encoding="utf-8"?>
<!-- Generator: Adobe Illustrator 24.2.0, SVG Export Plug-In . SVG Version: 6.00 Build 0)  -->
<svg version="1.1" id="Layer_1" xmlns="http://www.w3.org/2000/svg" xmlns:xlink="http://www.w3.org/1999/xlink" x="0px" y="0px"
	 viewBox="0 0 120 120" style="enable-background:new 0 0 120 120;" xml:space="preserve">
<path d="M111.7,113l-4.1-1.8c-2.7-1.1-5.6-1.5-8.4-1.1l0.4-0.1l-6.9-27c5-1.7,9.3-5,12-9.5c3.1-5.1,4-11,2.5-16.8L98,20.1
	c-0.3-1.3-1.1-2.3-2.3-3c-1.1-0.7-2.5-0.9-3.7-0.5l-34.1,8.4c-2.7,0.7-4.3,3.3-3.6,5.9l9.3,36.6c2.5,10.1,11.8,16.8,21.9,16.8
	c1.2,0,2.3-0.1,3.5-0.3l6.8,27l0.5-0.1c-2.6,0.9-5.1,2.6-6.9,4.8l-2.8,3.5c-0.3,0.4,0.1,1,0.6,0.9l24.5-6
	C112.1,113.8,112.2,113.1,111.7,113 M90,79.9c-10,2.4-20.1-3.6-22.6-13.4l-9.3-36.6c-0.2-0.6,0.2-1.2,0.8-1.3l34.1-8.4
	c0.1,0,0.2,0,0.3,0c0.2,0,0.4,0,0.6,0.2c0.2,0.2,0.4,0.4,0.5,0.7l9.3,36.6c1.2,4.8,0.5,9.7-2.1,13.9C98.9,75.7,94.8,78.7,90,79.9
	 M88.7,74.9c-7.7,1.9-15.5-2.7-17.4-10.3l-4-15.7c-0.9-3.4-0.9-7.4,4.4-8.7c5.8-1.4,7.9,11.1,15.6,9.2l5.5-1.4c2-0.5,4,0.7,4.5,2.7
	l1.8,7.1C101.1,65.4,96.4,73.1,88.7,74.9 M48.3,40.2c1.3,0.3,2.3,0.8,3.1,1.5l1.6,5.9c-0.1,0.4-0.2,0.9-0.3,1.3l-4,15.7
	c-1.9,7.6-9.7,12.2-17.4,10.3s-12.4-9.5-10.5-17.1l1.8-7.1c0.5-2,2.6-3.1,4.5-2.7l5.5,1.4C40.4,51.3,42.5,38.8,48.3,40.2 M55.2,56.4
	l2,7.7l-0.8,3.3C55,73.2,51.3,78,46.2,81.1c-3.6,2.1-7.5,3.1-11.6,3.1c-1.2,0-2.4-0.1-3.6-0.3l-6.8,27l0,0.1c2.5,1,4.7,2.5,6.5,4.7
	l2.8,3.5c0.3,0.4-0.1,1-0.5,0.9l-24.5-6c-0.5-0.1-0.5-0.8-0.1-1l4.1-1.8c2.6-1.1,5.3-1.4,8-1.1l0,0l6.8-27
	C16.3,79.3,9.8,67.9,12.7,56.7L22,20.1c0.7-2.6,3.4-4.2,6-3.6l22.4,5.5c-1.2,0.8-2,2-2.4,3.3l-21-5.1c-0.1,0-0.2,0-0.2,0
	c-0.5,0-1,0.3-1.1,0.8l-9.3,36.6C14,67.5,20.1,77.4,30,79.9h0c4.8,1.2,9.8,0.4,14.1-2.1c4.3-2.5,7.3-6.5,8.5-11.3L55.2,56.4z
	 M45,16.4L33.6,6l2.6-2.8l11.5,10.4L45,16.4z M55.1,11l0-11l3.9,0l0,11H55.1z M71.8,17.4l-2.5-2.9L78,7.3l2.5,2.9L71.8,17.4z"/>
</svg>
