<svg xmlns="http://www.w3.org/2000/svg" viewBox="0 0 850 510"><title>Kisfaludy Logo</title><path d="M727.86075,243.42627H122.15022L133.7985,259.249h582.414ZM565.569,297.106,477.371,273.4734a52.63775,52.63775,0,0,1-3.88063,15.33873L561.44,312.37772A142.13622,142.13622,0,0,0,565.569,297.106ZM430.84721,319.99839l23.60516,88.08842a143.45083,143.45083,0,0,0,15.26934-4.12347l-23.537-87.84558A52.68286,52.68286,0,0,1,430.84721,319.99839Zm95.72066,49.19567c1.87946-1.88006,3.55928-3.90194,5.32187-5.866l-64.38345-64.38041a53.11929,53.11929,0,0,1-11.18421,11.18665l64.36885,64.37006C522.658,372.7436,524.67868,371.082,526.56787,369.19406ZM425.00435,298.63483a31.00086,31.00086,0,0,1-31.00124-31.00429H380.19449a44.80986,44.80986,0,1,0,89.61973,0H456.01047A31.005,31.005,0,0,1,425.00435,298.63483Zm-48.486-9.82331a52.63868,52.63868,0,0,1-3.88063-15.33812l-88.198,23.63255a142.13626,142.13626,0,0,0,4.129,15.27177ZM592.20754,304.244a172.19694,172.19694,0,0,0,3.93419-36.61343H578.78357a153.8133,153.8133,0,1,1-307.62659,0H253.64787a172.61858,172.61858,0,0,0,4.03157,36.6463l-31.15218,8.34738,14.21763,12.56762,20.97587-5.62071a170.06871,170.06871,0,0,0,36.79541,63.35913l-22.904,22.90523,18.59977,3.77473,15.49332-15.4921a170.09057,170.09057,0,0,0,63.361,36.79845l-8.33582,31.09924,17.996-6.03093,5.63349-21.027a168.66547,168.66547,0,0,0,73.289.0006l8.35042,31.15158,12.567-14.22006-5.61889-20.97222a170.08334,170.08334,0,0,0,63.36095-36.79541l22.89914,22.89975,3.77839-18.59855-15.49819-15.49941a170.04032,170.04032,0,0,0,36.66882-63.38773l31.235,8.36868-6.03275-17.99418Zm-173.046,15.75442a52.6641,52.6641,0,0,1-15.3375-3.88124l-23.537,87.84193a143.54273,143.54273,0,0,0,15.27421,4.12408Zm-89.84371,54.50537,64.36884-64.37006a53.11948,53.11948,0,0,1-11.1842-11.18665L318.119,363.32868c1.7626,1.964,3.44242,3.98532,5.32188,5.86538C325.33,371.082,327.35555,372.743,329.31778,374.50376Zm95.68657-90.61A16.28,16.28,0,0,0,441.267,267.63054H408.74173A16.2831,16.2831,0,0,0,425.00435,283.89378ZM70.99914,214.50535V168.78611h4.57178V210.3657H94.47619v4.13965Zm59.9873,0V208.5742h-.12353a15.55724,15.55724,0,0,1-13.15967,6.73438c-10.13281,0-18.16455-7.66114-18.16455-17.79346s8.27881-17.66992,18.16455-17.66992a15.22979,15.22979,0,0,1,13.15967,6.79589h.12353v-5.93115h4.32471v33.79541Zm.24707-16.8667a13.7388,13.7388,0,0,0-13.59228-13.90136,13.84224,13.84224,0,1,0,13.59228,13.90136Zm14.32862,28.729V180.70994h4.3247v5.93115h.12354A15.63615,15.63615,0,0,1,163.17,179.8452c10.25634,0,18.16455,7.84619,18.16455,17.66992,0,9.94678-7.78467,17.79346-18.16455,17.79346a15.73275,15.73275,0,0,1-13.15967-6.73438h-.12354v17.79346Zm17.54638-42.63037a13.75728,13.75728,0,0,0-13.46875,13.90136,13.68708,13.68708,0,1,0,13.46875-13.90136ZM220.253,214.50535V208.5742h-.12353a15.55721,15.55721,0,0,1-13.15967,6.73438c-10.13281,0-18.16455-7.66114-18.16455-17.79346s8.27881-17.66992,18.16455-17.66992a15.22979,15.22979,0,0,1,13.15967,6.79589h.12353v-5.93115h4.32471v33.79541Zm.24707-16.8667a13.7388,13.7388,0,0,0-13.59228-13.90136,13.84224,13.84224,0,1,0,13.59228,13.90136Zm-17.917-21.377-2.03906-3.5835,12.29492-6.73437,1.97705,3.707Zm36.26172,38.24365V184.60252h-7.10547v-3.89258h7.10547V168.78611h4.32471v11.92383h8.09326v3.89258h-8.09326v29.90283Zm40.6499,0-11.12109-13.34521-5.437,6.91992v6.42529h-4.32471V168.78611h4.32471v32.55957h.12353l15.75489-20.63574h5.56054l-13.34521,17.05225,14.0249,16.74316Zm13.83643-15.32226c.37109,6.73437,6.54932,12.23291,13.09814,12.23291a12.80591,12.80591,0,0,0,12.10938-7.96973h4.57178a17.63425,17.63425,0,1,1-16.68116-23.60107c10.13233,0,17.73194,8.71142,17.73194,18.04052,0,.43262-.062.86524-.062,1.29737Zm26.38135-3.89209c-1.23535-6.79639-6.61084-11.55371-13.28321-11.55371A13.39375,13.39375,0,0,0,293.33117,195.291Zm13.46435,19.21435V180.70994h4.32471v4.88086h.12353c1.48291-3.52148,4.07764-5.43652,9.51465-5.7456V184.417h-.062c-6.24023.61817-9.57617,4.6958-9.57617,10.13233v19.95605Zm23.41358-15.32226c.37109,6.73437,6.54931,12.23291,13.09814,12.23291a12.80591,12.80591,0,0,0,12.10938-7.96973h4.57226a17.63445,17.63445,0,1,1-16.68164-23.60107c10.13233,0,17.73193,8.71142,17.73193,18.04052,0,.43262-.062.86524-.062,1.29737Zm26.38134-3.89209c-1.23535-6.79639-6.61084-11.55371-13.2832-11.55371A13.39374,13.39374,0,0,0,356.59045,195.291Zm34.65528,19.21435L406.506,201.16014l-5.437,6.91992v6.42529h-4.32471V168.78611H401.069v32.55957h.12354l15.75488-20.63574h5.56055l-13.34522,17.05225,14.0249,16.74316Zm13.83642-15.32226c.3711,6.73437,6.54932,12.23291,13.09815,12.23291a12.80542,12.80542,0,0,0,12.10937-7.96973h4.57227a17.63445,17.63445,0,1,1-16.68164-23.60107c10.13281,0,17.73144,8.71142,17.73144,18.04052,0,.43262-.06152.86524-.06152,1.29737Zm26.38135-3.89209c-1.23535-6.79639-6.61035-11.55371-13.2832-11.55371A13.39376,13.39376,0,0,0,431.46349,195.291Zm26.43848-6.24024c-.24707-3.27441-2.28614-5.31347-5.06641-5.31347a5.025,5.025,0,0,0-5.12793,5.0664c0,2.47119,1.73047,4.20117,5.86914,5.56055,8.21778,2.71826,9.82422,5.99268,9.82422,10.812,0,6.17822-4.13965,10.13233-10.62695,10.13233-5.80762,0-10.37989-4.13965-10.37989-10.565v-.24707h4.3252c.06152,4.51026,2.40918,6.91944,6.05469,6.91944,3.89258,0,6.30176-2.16211,6.30176-6.05469,0-3.27441-2.10059-5.06592-5.99317-6.48682-5.93066-2.16259-9.69922-3.83056-9.69922-9.63818,0-5.437,4.07715-9.39111,9.6377-9.39111a9.03574,9.03574,0,0,1,9.20605,9.20556Zm49.17383,8.58789V193.499h31.01464a23.96247,23.96247,0,0,1-24.15722,21.80958c-12.542,0-24.52735-10.00879-24.52735-23.66309,0-13.09766,11.0586-23.6626,24.46582-23.6626,10.25586,0,18.9668,6.54883,21.624,12.97461h-5.31348c-3.15137-5.37549-9.70019-8.835-16.249-8.835-10.75,0-19.95606,8.64941-19.95606,19.585,0,11.05908,9.26758,19.46143,20.1416,19.46143,8.27832,0,16.37207-5.62207,18.47266-13.53028Zm38.793.18555a17.67047,17.67047,0,1,1,17.6084,17.48438A17.88147,17.88147,0,0,1,572.25011,197.8242Zm31.01465-.43262a13.60684,13.60684,0,0,0-13.40625-13.65429c-7.35254,0-13.2832,6.36377-13.2832,14.0249A13.59564,13.59564,0,0,0,589.92,211.416C597.51965,211.416,603.26476,205.11424,603.26476,197.39158Zm-20.14062-19.647-2.34766-2.84228,9.94727-8.34034,2.53222,2.8418Zm10.81152,0-2.34766-2.84228,10.00879-8.34034,2.47168,2.8418Zm19.27246,36.76074V210.7368l18.71973-26.13428H613.82531v-3.89258h23.292v3.89258l-18.53418,26.01074h19.64649v3.89209Zm57.33008,0V195.6616c0-7.59912-4.57227-11.92431-10.50391-11.92431-6.54882,0-10.56445,5.00439-10.56445,11.61523v19.15283h-4.32519V168.78611h4.32519v16.249h.124a12.1628,12.1628,0,0,1,10.37891-5.18994c9.3291,0,14.88965,6.42529,14.88965,15.8164v18.84375Zm44.97266,0V208.5742h-.12305a15.55746,15.55746,0,0,1-13.16016,6.73438c-10.13183,0-18.16406-7.66114-18.16406-17.79346s8.2793-17.66992,18.16406-17.66992a15.23065,15.23065,0,0,1,13.16016,6.79589h.12305v-5.93115h4.32519v33.79541Zm.24707-16.8667a13.7384,13.7384,0,0,0-13.5918-13.90136,13.84224,13.84224,0,1,0,13.5918,13.90136Zm7.65625,28.729v-4.26319h.124c3.39746,0,6.73438-1.60595,6.73438-9.26709V180.70994h4.32421v33.48633c0,8.897-5.93066,12.17139-10.75,12.17139Zm6.8584-49.79688v-7.78467h4.32421v7.78467ZM743.7384,197.8242a17.67046,17.67046,0,1,1,17.60839,17.48438A17.88146,17.88146,0,0,1,743.7384,197.8242Zm31.01464-.43262a13.60684,13.60684,0,0,0-13.40625-13.65429c-7.35254,0-13.2832,6.36377-13.2832,14.0249A13.59564,13.59564,0,0,0,761.40832,211.416C769.00793,211.416,774.753,205.11424,774.753,197.39158ZM758.505,176.2617l-2.03907-3.5835,12.29493-6.73437,1.97656,3.707ZM321.75761,157.22117v2.55468H278.884v-2.55468c2.307,0,9.02645-4.94943,9.02645-14.96264s-.16265-65.26069-.16265-73.45077c0-4.23965-4.48873-4.57243-4.48873-4.57243v-2.224h68.49522c.03879.10073,5.4326,14.05686,5.4326,26.98474h-2.635a53.33781,53.33781,0,0,0-15.56287-16.423c-10.03226-6.58-20.50345-6.12266-26.25725-6.12266v35.55183c0,2.27907.96361,2.95074,6.36832,2.95074,5.40539,0,21.448-3.68842,21.448-15.46282h2.799V126.188h-2.799s-2.23007-15.29677-21.25611-15.29677c-5.01679,0-6.56022.228-6.56022,3.093v28.27432c0,10.01321,6.72015,14.96264,9.02576,14.96264M185.2313,142.25853c0-10.0132.16332-65.26069.16332-73.45077,0-4.23965,4.488-4.57243,4.488-4.57243v-2.224H155.75922v2.224s4.4874.33278,4.4874,4.57243c0,8.19008.164,63.43757.164,73.45077s-6.72015,14.96264-9.02642,14.96264v2.55468h42.87355v-2.55468c-2.307,0-9.02643-4.94943-9.02643-14.96264M91.22465,157.05989s-9.53408-3.68435-9.53408-15.81874V115.69777c0-5.089,7.02025-5.22505,10.3201,2.1797,3.29985,7.40544,15.83846,41.8664,15.83846,41.8664h36.94008v-2.59415c-9.35988,0-19.5616-26.93166-25.19223-38.45562-5.63129-11.52464-18.83821-12.32289-24.81862-12.32289H88.47058s25.48418-26.9058,32.58613-33.67019c7.10125-6.76438,12.56175-8.46909,12.56175-8.46909V62.01138H99.62231v2.22055c3.90959,0,6.51189,4.4826,6.51189,6.82563a10.84649,10.84649,0,0,1-3.027,8.22411c-2.48592,2.79082-21.78347,24.083-21.78347,24.083v-33.824c0-3.83542,5.29718-5.30875,5.29718-5.30875V62.01138H50.39129v2.22055s5.29718,1.47333,5.29718,5.30875h-.01291v71.78758c0,11.311-7.38232,15.73163-7.38232,15.73163v2.684l21.46572.032,21.46569-.032Zm184.529-29.89465c0-16.65781-9.84988-28.33081-29.90621-28.33081-14.80679,0-22.28028-8.42078-22.28028-14.9885,0-4.79632.67844-15.02048,14.78839-15.02048,16.617,0,20.69266,19.91207,20.69266,19.91207H262.099l2.36278-22.32044s-10.4365-4.4057-26.1062-4.4057c-15.671,0-37.69138,8.95091-37.69138,30.03756,0,26.93915,28.31651,28.35735,34.25338,28.35735s10.76042.30284,15.08176,5.23662c4.32267,4.9331,8.67458,27.68908-13.19059,27.68908s-27.82244-25.11058-27.82244-25.11058H206.8188l-2.25049,26.76425s10.81351,4.79019,32.24588,4.79019c18.07329,0,38.93945-10.9217,38.93945-32.61061m247.96382,32.14718,7.353-33.56743h-2.38863c-10.43786,15.8793-18.87631,26.93029-32.03147,26.93029-4.75007,0-10.13706-2.571-10.13706-10.55285,0-9.99619.16262-65.14977.16262-73.32624,0-4.23216,4.48735-4.56494,4.48735-4.56494V62.01138H456.226v2.21987s4.48736.33278,4.48736,4.56494c0,8.17647.16336,14.78026.16336,24.77712l-.00137,48.54912c0,11.80229-8.11933,14.93746-8.11933,14.93746v2.716h70.38435a.59059.59059,0,0,0,.5771-.46343m152.083.46343H631.50123v-2.85751c2.43628,0,6.5759-5.37272,6.5759-14.65981,0-10.0132-.16332-65.26069-.16332-73.45077,0-4.23965-4.49487-4.57243-4.49487-4.57243v-2.224h47.30583c24.15512.1,41.309,16.16785,41.309,46.98052,0,26.21983-14.214,50.78395-46.23329,50.78395m19.039-47.30648c0-37.3559-8.022-45.64193-21.92233-45.64193a55.29422,55.29422,0,0,0-8.35545.392.66525.66525,0,0,0-.55393.65807c-.00544,9.84374-.16265,64.75234-.16265,74.57908,0,10.43852.80575,12.18406,8.58955,12.18406,5.81576,0,22.40481-4.46762,22.40481-42.17126M445.30159,157.05989v2.716H399.20644v-2.716c3.70815,0,8.22546-3.64079,8.22546-7.41089,0-1.94969-1.21609-4.80516-2.82282-9.30137-1.60739-4.49621-6.85759-19.04032-6.85759-19.04032H378.12933s-5.21145,13.54919-7.12779,20.81512c-1.91773,7.26661.39063,14.93746,7.02094,14.93746v2.716H346.65585v-2.54107s6.3799-.97042,12.98641-15.11235c6.59629-14.11947,36.60391-79.90961,36.69579-80.11105h2.54786c.08781.20144,31.90354,73.70666,34.65354,80.11105,2.75341,6.41324,5.50881,14.93746,11.76214,14.93746m-49.904-42.091L388.395,94.69141l-8.09277,20.27752ZM776.35646,142.134V117.16225s18.02229-31.14953,22.67637-38.78295c4.65541-7.63274,11.345-14.08612,15.60092-14.08612V62.07059H781.44808v2.22259s6.51539-.13,6.51539,10.43784c0,5.80281-15.67452,34.59229-15.67452,34.59229s-15.4798-35.46132-16.20186-37.4042c-1.9177-5.157,2.85409-7.62593,6.20163-7.62593V62.07059l-40.6462-.05921h-3.25088v2.2818s4.23831-.29058,8.76991,8.78689c4.53092,9.07681,22.64774,45.36836,22.64774,45.36836V142.134c0,7.43538-5.07666,14.92725-9.65386,14.92725v2.7146h45.89639v-2.7146s-9.69536-3.13245-9.69536-14.92725M609.43262,121.71562V94.59206c0-22.22041,8.333-30.46289,13.27561-30.46289V62.04949H589.69814v2.17768s12.11943,5.962,12.11943,15.56626v42.57481c0,15.02184-2.24235,28.61935-20.58853,28.61935-14.89186,0-16.01474-12.03979-16.01474-39.42332V77.724c0-6.48878,6.14921-13.49679,10.297-13.49679V62.01138H534.23286v2.21579s7.03458,2.0123,7.03458,8.663v59.86007c0,19.43435,9.46334,27.02557,34.60656,27.02557,27.74556,0,33.55862-13.62541,33.55862-38.06023"/></svg>