<svg xmlns="http://www.w3.org/2000/svg" xmlns:xlink="http://www.w3.org/1999/xlink" version="1.0" x="0px" y="0px" width="48px" height="48px" viewBox="0 0 250 500" style="null" class="logo-svg" >
<title>kisfaludy_logo</title>
<path class="logo-emblem" d="M679.56751,181.41489H73.857l11.64828,15.82275h582.414ZM517.27572,235.09456l-88.198-23.63254a52.63769,52.63769,0,0,1-3.88063,15.33872l87.94965,23.5656A142.13576,142.13576,0,0,0,517.27572,235.09456ZM382.554,257.987l23.60515,88.08842a143.45494,143.45494,0,0,0,15.26934-4.12347l-23.537-87.84558A52.68311,52.68311,0,0,1,382.554,257.987Zm95.72065,49.19567c1.87946-1.88007,3.55928-3.90194,5.32187-5.866l-64.38345-64.38041a53.11943,53.11943,0,0,1-11.1842,11.18664L472.39769,312.493C474.36479,310.73221,476.38544,309.07065,478.27463,307.18268ZM376.71112,236.62344a31.00086,31.00086,0,0,1-31.00125-31.00428H331.90125a44.80987,44.80987,0,1,0,89.61973,0H407.71723A31.005,31.005,0,0,1,376.71112,236.62344Zm-48.486-9.8233a52.63868,52.63868,0,0,1-3.88063-15.33812l-88.198,23.63254a142.13576,142.13576,0,0,0,4.129,15.27178ZM543.9143,242.23259a172.197,172.197,0,0,0,3.93419-36.61343H530.49033a153.8133,153.8133,0,1,1-307.62659,0H205.35463a172.618,172.618,0,0,0,4.03158,36.6463L178.234,250.61283l14.21763,12.56763,20.97587-5.62071a170.06871,170.06871,0,0,0,36.79541,63.35913l-22.904,22.90523,18.59977,3.77473,15.49332-15.4921a170.09071,170.09071,0,0,0,63.361,36.79845l-8.33582,31.09923,17.996-6.03092,5.63349-21.027a168.66527,168.66527,0,0,0,73.289.00061l8.35042,31.15158,12.567-14.22007-5.61889-20.97221a170.0834,170.0834,0,0,0,63.361-36.79541l22.89915,22.89975,3.77838-18.59856-15.49819-15.4994a170.0404,170.0404,0,0,0,36.66882-63.38773l31.235,8.36868-6.03276-17.99418ZM370.86825,257.987a52.6645,52.6645,0,0,1-15.3375-3.88124l-23.537,87.84192a143.5404,143.5404,0,0,0,15.27421,4.12409Zm-89.84371,54.50537,64.36884-64.37006a53.11971,53.11971,0,0,1-11.1842-11.18665L269.82573,301.3173c1.76259,1.964,3.44241,3.98531,5.32187,5.86538C277.03679,309.07065,279.06231,310.73161,281.02454,312.49238Zm95.68658-90.61a16.28,16.28,0,0,0,16.26262-16.26324H360.44849A16.2831,16.2831,0,0,0,376.71112,221.8824ZM22.7059,152.494V106.77473h4.57178v41.57959H46.183V152.494Zm59.9873,0v-5.93115h-.12353A15.55722,15.55722,0,0,1,69.41,153.29719c-10.13281,0-18.16455-7.66113-18.16455-17.79345S59.52426,117.83381,69.41,117.83381a15.2298,15.2298,0,0,1,13.15967,6.7959h.12353v-5.93115h4.32471V152.494Zm.24707-16.8667A13.73881,13.73881,0,0,0,69.348,121.7259a13.84224,13.84224,0,1,0,13.59228,13.90137Zm14.32862,28.729V118.69856h4.3247v5.93115h.12354a15.63616,15.63616,0,0,1,13.15967-6.7959c10.25634,0,18.16455,7.8462,18.16455,17.66993,0,9.94677-7.78467,17.79345-18.16455,17.79345a15.73274,15.73274,0,0,1-13.15967-6.73437h-.12354v17.79345Zm17.54638-42.63037a13.75728,13.75728,0,0,0-13.46875,13.90137,13.68708,13.68708,0,1,0,13.46875-13.90137ZM171.95981,152.494v-5.93115h-.12354a15.5572,15.5572,0,0,1-13.15967,6.73437c-10.13281,0-18.16455-7.66113-18.16455-17.79345s8.27881-17.66993,18.16455-17.66993a15.2298,15.2298,0,0,1,13.15967,6.7959h.12354v-5.93115h4.3247V152.494Zm.24707-16.8667a13.73882,13.73882,0,0,0-13.59229-13.90137,13.84224,13.84224,0,1,0,13.59229,13.90137Zm-17.917-21.377-2.03906-3.5835,12.29492-6.73437,1.977,3.707ZM190.5516,152.494V122.59114h-7.10547v-3.89258h7.10547V106.77473h4.32471v11.92383h8.09326v3.89258h-8.09326V152.494Zm40.6499,0-11.12109-13.34521-5.437,6.91992V152.494h-4.32471V106.77473h4.32471V139.3343h.12353l15.75489-20.63574h5.56054l-13.34521,17.05225,14.0249,16.74316Zm13.83643-15.32227c.37109,6.73438,6.54932,12.23291,13.09814,12.23291a12.80591,12.80591,0,0,0,12.10938-7.96972h4.57178a17.63425,17.63425,0,1,1-16.68116-23.60108c10.13233,0,17.73194,8.71143,17.73194,18.04053,0,.43262-.062.86524-.062,1.29736Zm26.38135-3.89209c-1.23535-6.79638-6.61084-11.55371-13.28321-11.55371a13.39376,13.39376,0,0,0-13.09814,11.55371ZM284.88363,152.494V118.69856h4.32471v4.88086h.12354c1.48291-3.52149,4.07763-5.43652,9.51464-5.74561v4.57178h-.062c-6.24023.61817-9.57617,4.6958-9.57617,10.13233v19.956Zm23.41358-15.32227c.37109,6.73438,6.54931,12.23291,13.09814,12.23291a12.80591,12.80591,0,0,0,12.10938-7.96972H338.077a17.63445,17.63445,0,1,1-16.68164-23.60108c10.13233,0,17.73194,8.71143,17.73194,18.04053,0,.43262-.062.86524-.062,1.29736Zm26.38135-3.89209c-1.23536-6.79638-6.61084-11.55371-13.28321-11.55371a13.39375,13.39375,0,0,0-13.09814,11.55371ZM369.33383,152.494l-11.1211-13.34521-5.437,6.91992V152.494H348.451V106.77473h4.3247V139.3343h.12354l15.75488-20.63574h5.56055l-13.34522,17.05225L374.89438,152.494Zm13.83642-15.32227c.3711,6.73438,6.54932,12.23291,13.09815,12.23291a12.80542,12.80542,0,0,0,12.10937-7.96972H412.95a17.63445,17.63445,0,1,1-16.68164-23.60108c10.13281,0,17.73144,8.71143,17.73144,18.04053,0,.43262-.06152.86524-.06152,1.29736Zm26.38135-3.89209c-1.23535-6.79638-6.61035-11.55371-13.2832-11.55371a13.39377,13.39377,0,0,0-13.09815,11.55371Zm26.43848-6.24023c-.24707-3.27441-2.28613-5.31348-5.06641-5.31348a5.02505,5.02505,0,0,0-5.12793,5.06641c0,2.47119,1.73047,4.20117,5.86914,5.56055,8.21778,2.71826,9.82422,5.99267,9.82422,10.812,0,6.17822-4.13965,10.13232-10.627,10.13232-5.80762,0-10.37988-4.13965-10.37988-10.56494v-.24707h4.32519c.06152,4.51025,2.40918,6.91943,6.05469,6.91943,3.89258,0,6.30176-2.1621,6.30176-6.05468,0-3.27442-2.10059-5.06592-5.99317-6.48682-5.93066-2.1626-9.69922-3.83057-9.69922-9.63818,0-5.437,4.07715-9.39112,9.6377-9.39112a9.03575,9.03575,0,0,1,9.20605,9.20557Zm49.17383,8.58789v-4.13965h31.01465a23.96249,23.96249,0,0,1-24.15723,21.80957c-12.542,0-24.52735-10.00879-24.52735-23.66308,0-13.09766,11.0586-23.6626,24.46583-23.6626,10.25585,0,18.96679,6.54883,21.624,12.97461h-5.31348c-3.15137-5.37549-9.70019-8.835-16.249-8.835-10.75,0-19.95606,8.64941-19.95606,19.585,0,11.05908,9.26758,19.46142,20.14161,19.46142,8.27832,0,16.37207-5.62207,18.47265-13.53027Zm38.793.18555a17.67046,17.67046,0,1,1,17.60839,17.48437A17.88147,17.88147,0,0,1,523.95688,135.81282Zm31.01464-.43262a13.60685,13.60685,0,0,0-13.40625-13.6543c-7.35254,0-13.2832,6.36377-13.2832,14.02491a13.59564,13.59564,0,0,0,13.34473,13.6538C549.22641,149.40461,554.97152,143.10286,554.97152,135.3802Zm-20.14062-19.647-2.34766-2.84229,9.94727-8.34033,2.53222,2.8418Zm10.81152,0-2.34765-2.84229,10.00879-8.34033,2.47167,2.8418ZM564.91488,152.494v-3.76855l18.71973-26.13428H565.53207v-3.89258h23.292v3.89258l-18.53418,26.01074h19.64649V152.494Zm57.33008,0V133.65022c0-7.59912-4.57226-11.92432-10.5039-11.92432-6.54883,0-10.56446,5.0044-10.56446,11.61524V152.494h-4.32519V106.77473h4.32519v16.249h.124a12.16275,12.16275,0,0,1,10.3789-5.18995c9.3291,0,14.88965,6.4253,14.88965,15.81641V152.494Zm44.97266,0v-5.93115h-.12305a15.55746,15.55746,0,0,1-13.16016,6.73437c-10.13183,0-18.16406-7.66113-18.16406-17.79345s8.2793-17.66993,18.16406-17.66993a15.23066,15.23066,0,0,1,13.16016,6.7959h.12305v-5.93115h4.32519V152.494Zm.24707-16.8667a13.7384,13.7384,0,0,0-13.5918-13.90137,13.84224,13.84224,0,1,0,13.5918,13.90137Zm7.65625,28.729v-4.26318h.124c3.39746,0,6.73438-1.606,6.73438-9.26709V118.69856h4.32422v33.48633c0,8.897-5.93067,12.17138-10.75,12.17138Zm6.8584-49.79687v-7.78467h4.32422v7.78467Zm13.46582,21.25342a17.67046,17.67046,0,1,1,17.6084,17.48437A17.88147,17.88147,0,0,1,695.44516,135.81282Zm31.01465-.43262a13.60686,13.60686,0,0,0-13.40625-13.6543c-7.35254,0-13.28321,6.36377-13.28321,14.02491a13.59564,13.59564,0,0,0,13.34473,13.6538C720.71469,149.40461,726.45981,143.10286,726.45981,135.3802Zm-16.248-21.12988-2.03906-3.5835,12.29492-6.73437,1.97656,3.707ZM273.46437,95.20979v2.55468H230.5908V95.20979c2.307,0,9.02645-4.94944,9.02645-14.96264s-.16265-65.26069-.16265-73.45078c0-4.23965-4.48873-4.57242-4.48873-4.57242V0h68.49522c.03879.10072,5.4326,14.05686,5.4326,26.98474h-2.635a53.3379,53.3379,0,0,0-15.56287-16.423c-10.03226-6.58-20.50345-6.12265-26.25725-6.12265V39.99088c0,2.27907.96361,2.95074,6.36833,2.95074,5.40538,0,21.448-3.68843,21.448-15.46282h2.799V64.17663h-2.799s-2.23007-15.29678-21.25611-15.29678c-5.01679,0-6.56022.228-6.56022,3.093V80.24715c0,10.0132,6.72015,14.96264,9.02576,14.96264M136.93806,80.24715c0-10.0132.16332-65.26069.16332-73.45078,0-4.23965,4.488-4.57242,4.488-4.57242V0H107.466V2.224s4.4874.33277,4.4874,4.57242c0,8.19009.164,63.43758.164,73.45078s-6.72016,14.96264-9.02643,14.96264v2.55468h42.87355V95.20979c-2.307,0-9.02643-4.94944-9.02643-14.96264M42.93141,95.0485s-9.53408-3.68434-9.53408-15.81873V53.68638c0-5.08894,7.02025-5.22505,10.3201,2.17971,3.29985,7.40544,15.83846,41.86639,15.83846,41.86639H96.496V95.13833c-9.35988,0-19.5616-26.93165-25.19223-38.45561C65.67245,45.15808,52.46553,44.35983,46.48512,44.35983H40.17734S65.66152,17.454,72.76347,10.68964c7.10125-6.76439,12.56175-8.4691,12.56175-8.4691V0H51.32907V2.22054c3.90959,0,6.51189,4.48261,6.51189,6.82564a10.84649,10.84649,0,0,1-3.027,8.22411c-2.48591,2.79082-21.78347,24.083-21.78347,24.083V7.5293c0-3.83542,5.29718-5.30876,5.29718-5.30876V0H2.09805V2.22054S7.39524,3.69388,7.39524,7.5293H7.38232V79.31688C7.38232,90.62784,0,95.0485,0,95.0485v2.684l21.46572.032,21.46569-.032Zm184.529-29.89464c0-16.65782-9.84988-28.33082-29.90621-28.33082-14.80679,0-22.28028-8.42078-22.28028-14.98849,0-4.79632.67844-15.02048,14.78839-15.02048,16.617,0,20.69266,19.91207,20.69266,19.91207h3.05076L216.16851,4.4057S205.732,0,190.0623,0c-15.671,0-37.69138,8.95091-37.69138,30.03756,0,26.93914,28.31651,28.35735,34.25338,28.35735s10.76042.30284,15.08176,5.23662c4.32267,4.9331,8.67458,27.68908-13.19059,27.68908S160.693,66.21,160.693,66.21h-2.16746l-2.25049,26.76424s10.8135,4.7902,32.24587,4.7902c18.07329,0,38.93945-10.9217,38.93945-32.61061M475.42422,97.301l7.353-33.56742h-2.38863C469.95076,79.6129,461.51231,90.6639,448.35715,90.6639c-4.75007,0-10.137-2.571-10.137-10.55285,0-9.99619.16261-65.14977.16261-73.32625,0-4.23216,4.48736-4.56493,4.48736-4.56493V0H407.93276V2.21987s4.48735.33277,4.48735,4.56493c0,8.17648.16336,14.78026.16336,24.77713l-.00137,48.54912c0,11.80229-8.11933,14.93745-8.11933,14.93745v2.716h70.38435a.59058.59058,0,0,0,.5771-.46344m152.083.46344H583.208V94.907c2.43628,0,6.5759-5.37273,6.5759-14.65981,0-10.0132-.16332-65.26069-.16332-73.45078,0-4.23965-4.49487-4.57242-4.49487-4.57242V0h47.30583c24.15512.1,41.309,16.16784,41.309,46.98052,0,26.21983-14.214,50.784-46.23329,50.784m19.039-47.30649c0-37.35589-8.022-45.64192-21.92232-45.64192a55.29662,55.29662,0,0,0-8.35546.392.66525.66525,0,0,0-.55392.65808c-.00545,9.84374-.16266,64.75234-.16266,74.57907,0,10.43853.80575,12.18407,8.58956,12.18407,5.81575,0,22.4048-4.46763,22.4048-42.17127M397.00835,95.0485v2.716H350.91321v-2.716c3.70814,0,8.22545-3.64079,8.22545-7.41088,0-1.9497-1.21609-4.80517-2.82281-9.30137-1.6074-4.49621-6.8576-19.04033-6.8576-19.04033H329.83609s-5.21145,13.5492-7.12779,20.81513c-1.91772,7.26661.39063,14.93745,7.02094,14.93745v2.716H298.36261V95.2234s6.3799-.97042,12.98641-15.11235C317.94531,65.99158,347.95293.20144,348.04481,0h2.54786c.08781.20144,31.90354,73.70666,34.65354,80.11105,2.75341,6.41324,5.50881,14.93745,11.76214,14.93745m-49.904-42.091L340.10176,32.68,332.009,52.95754ZM728.06322,80.12262V55.15086s18.02229-31.14953,22.67637-38.78294C755.395,8.73518,762.08459,2.2818,766.34051,2.2818V.05921H733.15484V2.2818s6.51539-.13,6.51539,10.43784c0,5.80281-15.67452,34.59229-15.67452,34.59229s-15.4798-35.46132-16.20186-37.40421c-1.9177-5.157,2.85409-7.62592,6.20163-7.62592V.05921L673.34928,0H670.0984V2.2818s4.23831-.29059,8.76991,8.78689c4.53093,9.0768,22.64775,45.36836,22.64775,45.36836V80.12262c0,7.43538-5.07667,14.92725-9.65387,14.92725v2.7146h45.8964v-2.7146s-9.69537-3.13245-9.69537-14.92725M561.13938,59.70424V32.58067c0-22.2204,8.333-30.46289,13.27562-30.46289V.03811H541.4049V2.21579s12.11943,5.962,12.11943,15.56625V60.35686c0,15.02184-2.24235,28.61935-20.58853,28.61935-14.89186,0-16.01473-12.0398-16.01473-39.42332V15.71257c0-6.48877,6.1492-13.49678,10.297-13.49678V0H485.93962V2.21579s7.03458,2.0123,7.03458,8.663V70.7389c0,19.43434,9.46334,27.02557,34.60656,27.02557,27.74556,0,33.55862-13.62541,33.55862-38.06023"/></svg>