<svg xmlns="http://www.w3.org/2000/svg" xmlns:xlink="http://www.w3.org/1999/xlink" viewBox="0 0 190 190"><defs><style>.a{filter:url(#d);}.b,.g{fill:none;}.c{clip-path:url(#a);}.d{fill:#dbdcdd;}.e{clip-path:url(#b);}.f{fill:#181719;}.g{stroke:#fff;stroke-miterlimit:10;stroke-width:4px;}.h{fill:#fff;}.i{mask:url(#c);}</style><clipPath id="a"><rect class="b" x="-1950" y="360" width="1200" height="1200"/></clipPath><clipPath id="b"><rect class="b" x="-450" y="360" width="1843.80851" height="2073.85106"/></clipPath><filter id="d" x="45.19214" y="47.93565" width="64.2761" height="108.92768" filterUnits="userSpaceOnUse" color-interpolation-filters="sRGB"><feFlood flood-color="#fff" result="bg"/><feBlend in="SourceGraphic" in2="bg"/></filter><mask id="c" x="45.19214" y="47.93565" width="64.2761" height="108.92768" maskUnits="userSpaceOnUse"><path class="a" d="M97.39823,102.95338,86.54485,60.87273a6.63521,6.63521,0,0,1,4.76175-8.08049l18.16164-4.70256Z"/></mask></defs><g class="c"><path class="d" d="M1915.08906-1914.42857c-195.544,105.293-285.79514,150.41849-481.33919,75.20925S606.44815-1718.88453,215.36006-1523.34048-1318.9086-801.3317-1484.36894-711.08061s-165.46035,165.46035-165.46035,240.6696S-1679.913-169.574-1679.913-139.49032s-60.1674,105.29294-90.2511,120.33479-240.6696,105.293-270.75329,120.3348-15.04185,90.2511,45.12554,195.544,260.13338,462.06795,292.92818,525.31507,124.15176,37.47978,180.37142,28.10983,435.7024-100.7269,466.15472-100.7269,58.56215-4.685,74.95955,28.10984,166.31651,327.948,175.68645,351.3729-23.42486,86.672-121.80927,105.41187-588.53191,112.43933-624.55648,112.43933-93.17123-38.04153-108.64164-74.95956c-103.06938-245.961-210.82374-496.607-278.75583-644.18365s-234.24861-452.0998-262.35844-508.31946-119.46678-79.64453-140.54916-77.302-262.35843,117.1243-290.46826,126.49425-79.64453,18.73988-96.04193,2.34248-81.987-107.75436-107.75435-117.1243-163.974,49.19221-171.00148,70.27458,2.34248,131.17922,37.47977,180.37142,215.50872,187.39888,229.56363,229.56363,53.87718,119.46679,53.87718,166.31651-23.42486,135.86419-39.82226,163.974-124.15176,124.15176-149.91911,140.54916-126.49424,18.73989-145.23413,16.3974-234.2486-128.83673-255.331-133.5217-96.04193,18.73989-119.46679,37.47977-794.10276,616.07382-810.50016,637.1562,0,44.50723,16.3974,70.27458,145.23414,189.74137,163.974,208.48125,21.08238,70.27458,2.34249,89.01447-302.18069,163.974-342.003,187.39888-578.594,440.38737-648.86862,459.12726-534.36113,405.546-576.87814,405.546,0-6352.04255,0-6352.04255H1915.08906Z"/></g><path class="f" d="M94.45672,188.90576a94.45288,94.45288,0,1,1,94.449-94.4566,94.5641,94.5641,0,0,1-94.449,94.4566"/><path class="g" d="M130.42808,116.59628h0a21.28708,21.28708,0,0,0,15.505-25.80459L136.341,52.32a3.14429,3.14429,0,0,0-3.81156-2.29022l-35.20783,8.7783a3.14429,3.14429,0,0,0-2.29021,3.81156l9.59206,38.47167A21.2871,21.2871,0,0,0,130.42808,116.59628Z"/><line class="g" x1="130.42808" y1="116.59628" x2="137.96699" y2="146.83321"/><path class="h" d="M127.00672,156.84539l25.33809-6.3175a.56287.56287,0,0,0,.08852-1.06222l-4.2761-1.86175a15.92574,15.92574,0,0,0-18.82582,4.6938l-2.90153,3.65134A.56287.56287,0,0,0,127.00672,156.84539Z"/><path class="h" d="M137.59331,84.04624a3.85907,3.85907,0,0,0-4.678-2.81084l-5.71519,1.425c-7.93229,1.97774-10.11608-11.18867-16.12689-9.69-5.41957,1.35125-5.39765,5.637-4.5132,9.18434l4.12139,16.53a14.82691,14.82691,0,0,0,17.97346,10.79954h0a14.82693,14.82693,0,0,0,10.79955-17.97346Z"/><g class="i"><path class="g" d="M67.53565,116.59628H67.5356a21.2871,21.2871,0,0,1-15.505-25.80459L61.62271,52.32a3.14428,3.14428,0,0,1,3.81155-2.29022l35.20783,8.7783a3.14428,3.14428,0,0,1,2.29021,3.81156l-9.59206,38.47167A21.28708,21.28708,0,0,1,67.53565,116.59628Z"/><line class="g" x1="67.53565" y1="116.59628" x2="59.99673" y2="146.83321"/><path class="h" d="M70.957,156.84539l-25.33808-6.3175a.56286.56286,0,0,1-.08852-1.06222l4.2761-1.86175a15.92572,15.92572,0,0,1,18.82581,4.6938l2.90153,3.65134A.56287.56287,0,0,1,70.957,156.84539Z"/><path class="h" d="M60.37042,84.04624a3.85906,3.85906,0,0,1,4.678-2.81084l5.71519,1.425c7.93229,1.97774,10.11609-11.18867,16.12689-9.69,5.41958,1.35125,5.39766,5.637,4.5132,9.18434l-4.12139,16.53a14.8269,14.8269,0,0,1-17.97345,10.79954h0A14.82691,14.82691,0,0,1,58.50931,91.51075Z"/></g><line class="g" x1="84.88547" y1="46.43003" x2="73.02604" y2="35.50614"/><line class="g" x1="95.9018" y1="42.28285" x2="95.85989" y2="30.6763"/><line class="g" x1="109.88128" y1="47.38298" x2="118.88128" y2="39.91489"/></svg>