<svg xmlns="http://www.w3.org/2000/svg" xmlns:xlink="http://www.w3.org/1999/xlink" viewBox="0 0 190 190"><defs><style>.a,.f,.g,.h{fill:none;}.b{clip-path:url(#a);}.c{fill:#dbdcdd;}.d{clip-path:url(#b);}.e{fill:#181719;}.f,.g,.h{stroke:#fff;stroke-miterlimit:10;stroke-width:4px;}.g{stroke-linecap:round;}.h{opacity:0.97;}</style><clipPath id="a"><rect class="a" x="-1500" y="360" width="1200" height="1200"/></clipPath><clipPath id="b"><rect class="a" y="360" width="1843.80851" height="2073.85106"/></clipPath></defs><g class="b"><path class="c" d="M2365.08906-1914.42857c-195.544,105.293-285.79514,150.41849-481.33919,75.20925s-827.30172,120.33479-1218.38981,315.87884S-868.9086-801.3317-1034.36894-711.08061s-165.46035,165.46035-165.46035,240.6696S-1229.913-169.574-1229.913-139.49032s-60.1674,105.29294-90.2511,120.33479-240.6696,105.293-270.75329,120.3348-15.04185,90.2511,45.12554,195.544,260.13338,462.06795,292.92818,525.31507,124.15176,37.47978,180.37142,28.10983,435.7024-100.7269,466.15472-100.7269,58.56215-4.685,74.95955,28.10984,166.31651,327.948,175.68645,351.3729-23.42486,86.672-121.80927,105.41187-588.53191,112.43933-624.55648,112.43933-93.17123-38.04153-108.64164-74.95956c-103.06938-245.961-210.82374-496.607-278.75583-644.18365s-234.24861-452.0998-262.35844-508.31946-119.46678-79.64453-140.54916-77.302-262.35843,117.1243-290.46826,126.49425-79.64453,18.73988-96.04193,2.34248-81.987-107.75436-107.75435-117.1243-163.974,49.19221-171.00148,70.27458,2.34248,131.17922,37.47977,180.37142,215.50872,187.39888,229.56363,229.56363,53.87718,119.46679,53.87718,166.31651-23.42486,135.86419-39.82226,163.974-124.15176,124.15176-149.91911,140.54916-126.49424,18.73989-145.23413,16.3974-234.2486-128.83673-255.331-133.5217-96.04193,18.73989-119.46679,37.47977-794.10276,616.07382-810.50016,637.1562,0,44.50723,16.3974,70.27458,145.23414,189.74137,163.974,208.48125,21.08238,70.27458,2.34249,89.01447-302.18069,163.974-342.003,187.39888-578.594,440.38737-648.86862,459.12726-534.36113,405.546-576.87814,405.546,0-6352.04255,0-6352.04255H2365.08906Z"/></g><path class="e" d="M95.00386,190A95,95,0,1,1,190,94.99626,95.11186,95.11186,0,0,1,95.00386,190"/><path class="f" d="M108.328,137.34292H71.91763a6.11871,6.11871,0,0,1-4.37741-1.84356h0A48.90561,48.90561,0,0,1,54.821,112.09069L49.46681,88.356a1.01265,1.01265,0,0,1,.98783-1.23549H129.791a1.01264,1.01264,0,0,1,.98783,1.23549l-5.35419,23.73466a48.90574,48.90574,0,0,1-12.71917,23.40858l-.00008.00008A6.11876,6.11876,0,0,1,108.328,137.34292Z"/><path class="g" d="M68.883,119.95341a48.90177,48.90177,0,0,1-3.556-10.27289L62.22971,95.9503"/><path class="g" d="M73.71424,129.20512c-.53792-.7273-.694-.92733-1.19-1.68218"/><path class="h" d="M129.93325,92.10457l-4.50879,19.98615a48.84309,48.84309,0,0,1-1.69877,5.76286h14.13608a12.87449,12.87449,0,0,0,12.8745-12.87449v0a12.8745,12.8745,0,0,0-12.8745-12.8745Z"/><line class="g" x1="55.19235" y1="146.77574" x2="125.0533" y2="146.77574"/><path class="g" d="M73.84139,37.18951c0,6.81717-6,6.81717-6,13.63434,0,6.82185,6,6.82186,6,13.64371s-6,6.82186-6,13.64371"/><path class="g" d="M112.40425,37.18951c0,6.81717-6,6.81717-6,13.63434,0,6.82185,6,6.82186,6,13.64371s-6,6.82186-6,13.64371"/><path class="g" d="M93.12282,37.18951c0,4.92066-6,4.92066-6,9.84133,0,4.924,6,4.924,6,9.84809s-6,4.92405-6,9.84809"/></svg>