<svg xmlns="http://www.w3.org/2000/svg" xmlns:xlink="http://www.w3.org/1999/xlink" viewBox="0 0 1843.80851 2073.85106"><defs><style>.a{filter:url(#d);}.b,.e{stroke:#000;}.aa,.ab,.ac,.ad,.b,.d,.e,.l,.n,.r,.s,.t,.v,.w,.x,.z{stroke-miterlimit:10;}.ab,.b,.x{stroke-width:10px;}.b{filter:url(#f);}.c{filter:url(#h);}.d{stroke:#191813;stroke-width:0.62127px;}.aa,.e,.f,.l,.n,.s,.v,.w{fill:none;}.aa,.ac,.e,.r,.s,.t,.v,.w,.z{stroke-width:4px;}.g{clip-path:url(#a);}.h{fill:#dbdcdd;}.i{clip-path:url(#b);}.j{fill:#9dddf4;}.k{mask:url(#c);}.aa,.ab,.ac,.ad,.l,.x,.z{stroke:#181719;}.l,.v{stroke-linecap:round;}.l{stroke-width:3px;stroke-dasharray:12 20;}.ab,.ac,.m,.t{fill:#fff;}.n,.r{stroke:#e7e7e6;}.n{stroke-width:2px;}.o{fill:#dae0e5;}.p{mask:url(#e);}.ad,.q,.z{fill:#181719;}.s,.t,.v,.w{stroke:#fff;}.u{mask:url(#g);}.w{opacity:0.97;}.x{fill:#f0cf3c;}.y{mask:url(#i);}.ae{font-size:90.04436px;font-family:Lato-Black, Lato;font-weight:800;letter-spacing:-0.00701em;}.ae,.ag{fill:#191813;}.af{letter-spacing:0.00001em;}.ag{font-size:60.02964px;font-family:Lato-Regular, Lato;}.ah{letter-spacing:-0.007em;}.ai{letter-spacing:-0.02001em;}.aj{letter-spacing:0.00002em;}.ak{filter:url(#j);}</style><clipPath id="a"><rect class="f" x="-1500" width="1200" height="1200"/></clipPath><clipPath id="b"><rect class="f" width="1843.80851" height="2073.85106"/></clipPath><filter id="d" x="716.40994" y="376.48936" width="803.76031" height="1111.33607" filterUnits="userSpaceOnUse" color-interpolation-filters="sRGB"><feFlood flood-color="#fff" result="bg"/><feBlend in="SourceGraphic" in2="bg"/></filter><mask id="c" x="716.40994" y="376.48936" width="803.76031" height="1111.33607" maskUnits="userSpaceOnUse"><polygon class="a" points="990.149 451.553 1066.745 606.277 1163.255 560.319 1059.085 376.489 990.149 451.553"/></mask><filter id="f" x="973.16181" y="345.26183" width="258.87394" height="212.23116" filterUnits="userSpaceOnUse" color-interpolation-filters="sRGB"><feFlood flood-color="#fff" result="bg"/><feBlend in="SourceGraphic" in2="bg"/></filter><mask id="e" x="973.16181" y="345.26183" width="258.87394" height="212.23116" maskUnits="userSpaceOnUse"><path class="b" d="M1127.44718,549.43922a99.5887,99.5887,0,1,1,99.58857-99.5887,99.70311,99.70311,0,0,1-99.58857,99.5887"/></mask><filter id="h" x="1436.83043" y="865.87374" width="64.2761" height="108.92768" filterUnits="userSpaceOnUse" color-interpolation-filters="sRGB"><feFlood flood-color="#fff" result="bg"/><feBlend in="SourceGraphic" in2="bg"/></filter><mask id="g" x="1436.83043" y="865.87374" width="64.2761" height="108.92768" maskUnits="userSpaceOnUse"><path class="c" d="M1489.03652,920.89147l-10.85338-42.08065a6.63521,6.63521,0,0,1,4.76175-8.08049l18.16165-4.70257Z"/></mask><filter id="j" x="1054.95526" y="400.82294" width="148.78399" height="107.86705" filterUnits="userSpaceOnUse" color-interpolation-filters="sRGB"><feFlood flood-color="#fff" result="bg"/><feBlend in="SourceGraphic" in2="bg"/></filter><mask id="i" x="1054.95526" y="400.82294" width="148.78399" height="107.86705" maskUnits="userSpaceOnUse"><g class="ak"><path class="d" d="M1203.42862,479.51956c-14.81744,0-14.81744-8.44038-29.63489-8.44038s-14.81744,8.44038-29.63489,8.44038c-14.81541,0-14.81541-8.44038-29.63081-8.44038-14.81588,0-14.81588,8.44038-29.63175,8.44038-14.81519,0-14.81519-8.44038-29.63038-8.44038v37.30018h148.16272Z"/><circle class="e" cx="1120.67277" cy="478.14691" r="23.81067"/><line class="e" x1="1092.21277" y1="433.17021" x2="1118.19519" y2="433.17021"/><line class="e" x1="1138.87234" y1="446.07986" x2="1188.40795" y2="446.07986"/><line class="e" x1="1121.48175" y1="408.49558" x2="1137.21277" y2="408.49558"/></g></mask></defs><g class="g"><path class="h" d="M2365.08906-2274.42857c-195.544,105.293-285.79514,150.4185-481.33919,75.20925s-827.30172,120.3348-1218.38981,315.87884S-868.9086-1161.3317-1034.36894-1071.0806-1199.82929-905.62026-1199.82929-830.411-1229.913-529.574-1229.913-499.49032s-60.1674,105.293-90.2511,120.3348-240.6696,105.29294-270.75329,120.33479-15.04185,90.2511,45.12554,195.54405,260.13338,462.06794,292.92818,525.31507,124.15176,37.47977,180.37142,28.10983,435.7024-100.7269,466.15472-100.7269,58.56215-4.685,74.95955,28.10983,166.31651,327.948,175.68645,351.3729-23.42486,86.672-121.80927,105.41187-588.53191,112.43933-624.55648,112.43933-93.17123-38.04153-108.64164-74.95955c-103.06938-245.961-210.82374-496.607-278.75583-644.18365s-234.24861-452.0998-262.35844-508.31947-119.46678-79.64452-140.54916-77.302-262.35843,117.1243-290.46826,126.49424-79.64453,18.73989-96.04193,2.34249-81.987-107.75436-107.75435-117.1243-163.974,49.1922-171.00148,70.27458,2.34248,131.17921,37.47977,180.37142,215.50872,187.39888,229.56363,229.56363,53.87718,119.46678,53.87718,166.3165-23.42486,135.86419-39.82226,163.974-124.15176,124.15176-149.91911,140.54916-126.49424,18.73989-145.23413,16.39741-234.2486-128.83673-255.331-133.52171-96.04193,18.73989-119.46679,37.47978-794.10276,616.07382-810.50016,637.15619,0,44.50724,16.3974,70.27458,145.23414,189.74137,163.974,208.48126,21.08238,70.27458,2.34249,89.01447-302.18069,163.974-342.003,187.39888-578.594,440.38737-648.86862,459.12725-534.36113,405.546-576.87814,405.546,0-6352.04255,0-6352.04255H2365.08906Z"/></g><g class="i"><rect class="j" x="-278.69751" y="-21.66886" width="2550.55396" height="2963.89542"/><g class="k"><path class="l" d="M1137.76909,485.12784c-140.90552-49.30549-513.175,378.19263-398.11334,653.37915,118.47815,283.35763,578.34322,482.36977,717.51672,236.9035C1611.40456,1103.38474,1464.7493,599.54437,1137.76909,485.12784Z"/></g><path class="m" d="M1709.922-41.36379C1704.1364-1.58646,1691.3878,10.382,1679.802,23.51343S1636.168,80.279,1636.168,80.279V99.96863l19.307,25.10723-3.86452,16.98844h-16.98821l14.287-15.45005-23.93683-31.27543-14.29454,11.58576,26.25552,22.00824L1624.19212,133.18l-23.54662-19.307s-104.6542,78.39113-106.59013,79.93684c-1.92092,1.546-39.38688,5.41024-40.93271,5.41024s-60.23974-10.03983-62.55842-10.81291c-2.31113-.77286-26.25541-19.69723-29.34695-20.86029-3.09155-1.15551-28.95675-3.08387-30.50258-2.70122-1.54571.3902-132.07267,33.594-137.09258,34.37442-5.02.77285-82.25564,38.22382-82.25564,38.22382s-1.92092,16.22314-2.31113,17.7613c-.38265,1.54571-14.66976,13.90434-14.66976,13.90434l12.74128,29.35462,27.411-4.25473,6.19053,19.307-33.99177,4.63737-19.307-47.88122-29.347-4.63715,4.63726,36.29523h-25.10734l-32.04829,25.49011s7.331,14.67742,7.331,15.83293c0,1.16307-86.88535,56.38289-86.88535,56.38289H899.75451l-23.55406,13.51413h-9.26708s-51.74551,46.34283-54.0642,49.80959c-2.31113,3.48163-23.93683,49.81691-23.93683,49.81691l3.084,44.02426L763.44223,579.5828s5.36524,18.56415,5.36524,19.75722-14.3471-2.79145-14.3471-2.79145l-29.07686,16.33558,8.76432,19.52479-21.51315-19.52479L707.05946,626.826l-25.10734,23.90684v19.11946L652.87527,698.539s-55.78258,15.54028-57.771,16.33558-72.50825,46.613-74.49673,47.80611c-1.996,1.20062-42.63609,6.37064-42.63609,6.37064l7.97646,9.56717-13.55169,16.73334-21.9108-16.33557,12.35107-16.33558-8.36667-7.969-23.50151,28.28911-15.93793-3.98451,16.328,19.91476-21.513-4.382L350.491,863.08027V895.3461s-48.21132,38.644-50.1998,40.24241c-1.99591,1.59083-42.23077,80.46971-42.23077,80.46971l-34.262,40.63995-36.65555,31.47054v49.40438l3.992,37.84873s11.54821,21.9108,13.53669,25.89519c1.99592,3.98451,40.64006,35.0574,42.23077,37.84873,1.59839,2.78389,15.93793,28.28144,15.93793,28.28144s30.67512,27.09593,32.27339,29.48206c1.59083,2.39368,8.76432,7.57126,8.76432,7.57126s28.289,7.57125,28.6792,9.162c.39765,1.59082,6.3782,38.64414,7.1735,41.43547s80.47726,35.8527,113.14842,35.8527c32.6636,0,122.30283-13.9419,135.05911-15.93038,12.74127-1.99591,91.23006-1.99591,98.80132-.80285,7.5637,1.20062,119.51138,29.08429,125.88958,30.68268,6.37808,1.59071,32.27339,14.33954,34.26187,17.12343,1.996,2.79133,36.65566,30.68256,38.24637,33.87166,1.59083,3.18166,74.09908,124.29887,77.28817,129.07124,3.1891,4.78736,28.439,27.89123,35.33494,30.27747,6.896,2.40112,15.26251,3.1891,19.247,4.78736,3.98451,1.59072,41.03771,19.11936,41.03771,19.11936l6.37064,13.94189,21.51315-17.52864h10.7528l36.2579,29.88727h-10.35515L1095.091,1640.749l-8.36667.7953-17.9264,16.73334s-1.59072,9.55974-2.39369,12.74872c-.78785,3.1891,2.39369,23.90683,1.996,26.29307s-5.185,22.316-5.185,22.316l6.78329,17.91885s-14.3471,11.55565-17.131,14.74475c-2.79878,3.1891-5.185,13.54413-5.185,13.54413s5.185,7.969,6.7684,11.158c1.59827,3.1891,15.1424,9.16209,15.1424,9.16209l13.9419,1.98847,7.9689,8.76433s-5.17,17.13843-6.37063,19.92232c-1.20062,2.79133,1.98847,25.0999,1.98847,25.0999s18.32406,37.05331,18.32406,40.24241-9.15453,45.81-10.355,48.60141c-1.19317,2.78389-19.92244,20.31253-19.92244,20.31253s-3.189,27.09582-13.53668,40.64018l7.166,9.16185-3.18154,23.90684s27.486,54.9796,56.96808,89.24158c29.47462,34.262,52.18827,75.29214,85.25708,102.388,12.74883,10.75291,13.94189,25.89542,13.14659,29.8797-.803,3.97719-19.91488,48.6092-21.91091,60.15741-1.99592,11.55554-.40521,29.47439,6.7684,42.23078,7.17349,12.74883,15.14251,30.27747,15.14251,30.27747s-16.33558-15.938-20.32009-16.73334-12.74883-2.38613-12.74883-2.38613l-1.59071,7.57126,17.91885,5.97287-19.51712,1.59083-.79541,6.77573,17.92629,4.38227-21.9108,7.96147-.39765,7.97634,10.76024,1.981,7.57125,13.14637-15.93781,47.4159h-19.127s-2.78377,9.16208-3.189,11.95353c-.39776,2.79145,5.57523,40.23486,5.57523,42.62854s-18.3165,44.21937-19.91489,49.39694c-1.59071,5.1849-1.19306,23.50907-1.19306,27.49358,0,3.98428,3.5793,19.11924,3.5793,19.11924s0,11.95353-.3902,13.55169c-.39765,1.59082-15.93793,35.44749-16.74079,37.84873-.78785,2.38612-1.19306,20.71029-1.19306,22.30112,0,1.59815-19.11947,31.47786-24.297,37.84873-5.185,6.378-16.74067,16.33534-17.93385,18.7217-1.19306,2.401-15.5326,5.59022-15.5326,5.59022s-2.39369,11.15045-4.38217,14.72964c-1.996,3.587-12.75627,17.13866-12.75627,17.13866l-8.75688-11.95353-11.95341-2.79145-9.162,5.17758s-2.79145,30.27747-2.79145,27.49358c0-2.79122-7.96891-30.27747-7.96891-30.27747s-54.4694.79552-65.2822,1.98859c-10.80535,1.20062-86.9079-8.35923-86.9079-8.35923l-23.10386,12.34374-1.996-10.76047-20.32-1.58327-13.93445,5.17024-.79541,7.9688,26.68316,4.38227-.78785,5.97287-16.33558,5.59023-15.1424-8.77188s-7.969-25.0999-10.7528-30.2848c-2.79144-5.17-34.65963-13.5368-76.89052-15.53272s-68.92894-23.50907-104.384-52.98369c-35.45505-29.48194-79.68186-80.0795-100.79724-96.41508-21.108-16.33557-208.85809-167.09251-269.61558-206.35185-60.74249-39.25933-180.76419-126.69255-187.435-128.17071s-43.709-11.84842-60.00707-28.154c-16.298-16.298-51.12276-24.447-52.601-28.89663-1.48571-4.43472-13.334-51.85818-12.59861-56.30045.74286-4.442-7.40626-141.50486-8.14912-157.06-.7353-15.55516-43.709-131.13459-55.56492-151.13947s-71.86282-67.41334-75.56223-74.08407c-3.70674-6.67085-12.59884-15.56272-19.26946-20.74774-6.6633-5.18513-61.49291-28.88931-61.49291-28.88931V-51.3285Z"/><path class="n" d="M632.01708,1603.50644c24.02969,48.12794,50.533,85.90615,20.21321,102.07672s-70.74625,40.42643-77.82087,93.99144-3.032,90.95946,25.26652,90.95946,56.597-21.22387,69.73558-64.68228,26.27718-76.81021,40.42643-67.71426,21.22387,18.19189,52.55435,12.12792,83.88483,0,121.27928,39.41577,83.88483,111.17267,96.01276,114.20465,33.68518-3.64878,19.20255-61.6503-17.18123-119.258-17.18123-150.58843-19.20255-41.43709-47.501-71.75691-45.47973-84.89549-118.2473-133.4072-129.36456-42.44775-159.68438-46.49039-71.7569,0-71.7569,23.24519S607.82285,1555.049,632.01708,1603.50644Z"/><path class="n" d="M772.49891,1572.176c-12.84579-12.10469-19.20256-52.55436-53.565-66.7036s-39.41576,18.19189-37.39444,34.36246,10.1066,58.61831,41.43708,92.98078,74.78889,50.533,92.98078,33.3518S825.05326,1621.69833,772.49891,1572.176Z"/><path class="n" d="M-27.57177,1616.25106c40.02311-69.45188,87.10913-69.45188,121.24649-50.61747s35.31451,60.03467,30.60591,88.28628-16.48011,97.70348-5.88575,127.13224,65.92042,136.54945,91.81773,188.34406,55.32607,67.09758,84.75483,57.68037,84.75482-1.17715,103.58923,0,21.18871-48.26316,36.49166-51.79461,62.389,31.78306,62.389-14.12581,11.77151-25.89731,31.78306-131.84084-32.96021-161.26961-62.389-200.11557-64.74327-44.73171-74.16047-44.73171-34.13736,23.543-54.14892,23.543-34.13736,27.07446-48.26317,30.60591-34.13736-27.07446-34.13736-27.07446-61.21182-2.3543-61.21182-8.24-9.4172-34.13736-25.89731-51.79462-25.8973-41.20026-15.30295-63.56612,30.60591-65.92042,54.14892-75.33762,102.41208-11.77151,168.3325,10.59435,114.18359,27.07446,145.96665,7.0629,130.6637-17.65725,228.36718,1.17715,124.77794,75.33763,124.77794,75.33763c47.82508,70.73457,56.70363,96.20041,77.56554,124.42534s65.04005,30.67927,68.72156,74.85743,14.726,174.25826-1.22717,228.25378-7.363,166.89524-7.363,166.89524"/><path class="n" d="M1384.25547-42.979c-7.681,64.0641-15.34058,90.10665-88.87249,97.76622s-168.51064,90.383-208.34043,121.02128-47.48936,58.21277-75.06383,58.21277-56.68085-6.12766-76.59574,16.85106-26.04255,32.17021-82.72341,62.80851S751.55319,351.97872,737.766,333.59574s-35.234-6.12765-47.48936,22.97873-45.95745,49.02127-82.72341,29.10638-30.6383,33.70213-30.6383,45.95745-7.65957,79.65957-33.70212,78.12766-53.617-18.33157-65.87234.0257-33.70213-26.06826-41.36171-27.60017-7.65957,34.97036-26.04255,32.03837-16.85106-61.14475-41.3617-71.86816-82.72341-4.59574-82.72341,26.04256S316.48936,531.21277,299.6383,545s-41.3617,9.19149-47.48936,32.17021-56.68085,50.55319-111.82979,45.95745S72.91489,638.44681,48.40426,670.617s-79.65958,88.85107-79.65958,88.85107V191.12766s114.04657-24.7175,154.72341-52.08511,99.57446-12.25532,121.02127-38.29787,52.08511-56.68085,99.57447-68.93617S443.6383-31,443.6383-31L95.89362-95.34043s16.85106,70.46809,3.06383,98.04256S54.53191,28.74468,34.617,28.74468"/><path class="n" d="M-9.80851,1865.89362S9.7234,1763.6383,30.40426,1753.29787s39.06383,43.65958,62.04255,71.234,60.89362,39.06383,65.48936,79.2766-5.74468,89.617-26.42553,101.10638-56.3689,57.44681-56.90785,94.21277-148.75173,21.82979-148.75173,21.82979Z"/><path class="n" d="M47.6383,1907.25532c-3.44681-6.89362,5.74468-27.57447,16.0851-27.57447s19.53192,12.6383,21.82979,20.68085S47.6383,1907.25532,47.6383,1907.25532Z"/><path class="j" d="M615.02242,2103.00216s11.67029,54.10769,55.16862,53.04675,175.05426-48.803,193.09015-70.0217,41.37647-12.73122,38.19366-51.98581-18.03589-22.27964-36.07179-44.55927-42.43739-5.30468-45.6202,0c0,0-12.73122-24.4015-33.94992-28.64524s-30.47338,2.12187-27.43744,18.03589-8.63434,43.49833-8.63434,43.49833-80.63106-41.37646-95.48414-45.6202-40.31553,5.30467-39.2546,23.34057S615.02242,2103.00216,615.02242,2103.00216Z"/><path class="o" d="M863.89362,1752.14894l22.97872,3.06383,3.57447-16.34043,36.25532-26.04255-4.79787-14.29788,4.79787-15.82978,14.80851,3.57447,13.78723,32.68085-41.3617,25.02127.51064,11.23405h27.57447l13.27659-4.08511,5.617,8.17021v16.34043l23.48937,28.59574v18.89362l-5.10639,14.80851L963.46809,1841l9.19148,9.19149-4.59574,30.6383L933.85106,1870.617l-19.91489-6.12766-.51064-24-12.88121-9.69684-10.60815-29.62231-31.65957-34.7234ZM945.9133,297.75456l15.511,13.78759,86.74693-64.91658h13.21311l11.48966,3.4469,5.74483-7.46828-5.17034-32.74553-8.61725-4.59586,59.17175-34.469,6.31931-23.5538-20.1069-15.511-60.32072,33.8945-25.27725.57448-2.29793,16.66-22.97932,9.76621,12.06414,19.53242,26.71346-13.21311,11.20242,17.23449Zm269.89782-150.549,12.763,15.53759h18.86707l54.93649-33.29484-8.32371-7.7688-10.54337,3.8844-2.21965-6.659h-13.87285Zm75.46831-53.82666,11.09828,20.53182,16.64742,4.99422,18.31216-16.64742-20.53182-25.526Zm-287.753-34.91107,43.11815,25.5515v29.54392l27.947,5.34169,9.58181-25.3038,40.72271,4.21707,9.58181-28.1716,19.16363-31.14089-83.04238-79.05L1010.71279,0,989.15371,39.18035,945.9133-12.59728,928.46889,6.56634l38.32725,61.4833,20.7606,1.597ZM564.36,369.07827l20.76059,89.43025,26.35-15.1712,41.52119-21.55908-64.67724-74.259ZM144.33345,67.88118,92.198,115.84578l26.06772,32.324h5.21354L127.65012,186.75l30.23855,41.70835,34.40938,57.349,133.46672-72.98961-33.36668-60.4771L277.80017,136.7l-32.324,15.64063-32.324-8.34167-28.15314-29.19584-20.85417-3.12813Zm151.19276,60.4771L318.4658,161.725h12.51251l19.81146,36.4948,57.349-34.93074-32.324-48.48595L361.21686,96.03431l-35.45209,20.85418L337.23456,147.127H325.76477L305.9533,117.93119Z"/><g class="p"><polygon class="q" points="1025.02 543.276 1077.215 506.729 1050.571 468.677 998.376 505.224 990.856 484.318 973.162 551.234 1042.094 557.493 1025.02 543.276"/></g><path class="q" d="M827.45521,1904.70252a94.45288,94.45288,0,1,1,94.44905-94.4566,94.56409,94.56409,0,0,1-94.44905,94.4566"/><polygon class="r" points="788.796 1866.867 788.796 1779.723 801.68 1754.449 814.565 1779.723 814.565 1866.867 788.796 1866.867"/><line class="r" x1="801.68038" y1="1754.44873" x2="801.68038" y2="1746.70147"/><line class="r" x1="788.79608" y1="1779.7234" x2="814.56469" y2="1779.7234"/><polygon class="r" points="840.338 1866.867 840.338 1779.723 853.222 1754.449 866.107 1779.723 866.107 1866.867 840.338 1866.867"/><line class="r" x1="853.22237" y1="1754.44873" x2="853.22237" y2="1746.70147"/><line class="r" x1="840.33806" y1="1779.7234" x2="866.10667" y2="1779.7234"/><polygon class="r" points="814.561 1866.867 814.561 1823.295 827.446 1811.999 840.33 1823.295 840.33 1866.867 814.561 1866.867"/><line class="r" x1="788.79608" y1="1824.06317" x2="866.10667" y2="1824.06317"/><path class="m" d="M849.40361,1805.51592h7.63751v-11.77354a3.81875,3.81875,0,0,0-3.81875-3.81875h0a3.81875,3.81875,0,0,0-3.81875,3.81875Z"/><circle class="m" cx="853.22237" cy="1835.08809" r="3.81875"/><path class="m" d="M797.86163,1805.51592h7.63751v-11.77354a3.81875,3.81875,0,0,0-3.81875-3.81875h0a3.81875,3.81875,0,0,0-3.81875,3.81875Z"/><circle class="m" cx="801.68038" cy="1835.08809" r="3.81875"/><path class="m" d="M823.62686,1845.08124h7.63751v-11.77355a3.81875,3.81875,0,0,0-3.81875-3.81875h0a3.81875,3.81875,0,0,0-3.81875,3.81875Z"/><path class="m" d="M823.62686,1868.8617h7.63751v-13.27958a4.08512,4.08512,0,0,0-3.81875-4.30724h0a4.08513,4.08513,0,0,0-3.81875,4.30724Z"/><path class="q" d="M1179.35853,1567.914a94.45288,94.45288,0,1,1,94.449-94.4566,94.56409,94.56409,0,0,1-94.449,94.4566"/><rect class="s" x="1124.40216" y="1445.57361" width="109.90507" height="61.89024"/><circle class="s" cx="1179.35469" cy="1476.51873" r="22.88833"/><path class="m" d="M1179.35464,1464.97171a11.54706,11.54706,0,1,1-11.54687,11.547,11.56007,11.56007,0,0,1,11.54687-11.547m0-6a17.54706,17.54706,0,1,0,17.54712,17.547,17.54692,17.54692,0,0,0-17.54712-17.547Z"/><rect class="m" x="1224.68474" y="1464.61135" width="9.62249" height="35.26726"/><rect class="m" x="1124.40216" y="1464.61135" width="9.62249" height="35.26726"/><rect class="m" x="1204.37703" y="1450.84474" width="21.21585" height="8.09531"/><rect class="t" x="1134.02465" y="1438.61759" width="17.04224" height="6.95602"/><path class="m" d="M1175.51968,1469.34867c-.0559,0-.1123.00146-.1687.00439a3.1596,3.1596,0,0,0,.16333,6.31482c.05591,0,.11231-.00146.1687-.00439a3.15959,3.15959,0,0,0-.16333-6.31482Z"/><path class="q" d="M1486.095,1006.84385a94.45288,94.45288,0,1,1,94.449-94.4566,94.56409,94.56409,0,0,1-94.449,94.4566"/><path class="s" d="M1522.06637,934.53437h0a21.28711,21.28711,0,0,0,15.505-25.80459l-9.59207-38.47167a3.14428,3.14428,0,0,0-3.81155-2.29022l-35.20783,8.7783a3.14428,3.14428,0,0,0-2.29021,3.81156l9.59206,38.47167A21.2871,21.2871,0,0,0,1522.06637,934.53437Z"/><line class="s" x1="1522.06637" y1="934.53437" x2="1529.60529" y2="964.77129"/><path class="m" d="M1518.645,974.78347l25.33808-6.31749a.56286.56286,0,0,0,.08852-1.06222l-4.2761-1.86176a15.92573,15.92573,0,0,0-18.82581,4.69381l-2.90153,3.65134A.56286.56286,0,0,0,1518.645,974.78347Z"/><path class="m" d="M1529.2316,901.98433a3.85906,3.85906,0,0,0-4.678-2.81084l-5.71519,1.425c-7.9323,1.97774-10.11609-11.18868-16.12689-9.69-5.41958,1.35125-5.39766,5.637-4.5132,9.18434l4.12138,16.53a14.82693,14.82693,0,0,0,17.97346,10.79954h0a14.8269,14.8269,0,0,0,10.79954-17.97345Z"/><g class="u"><path class="s" d="M1459.17394,934.53437h0a21.28709,21.28709,0,0,1-15.505-25.80459l9.59206-38.47167a3.14429,3.14429,0,0,1,3.81156-2.29022l35.20783,8.7783a3.14429,3.14429,0,0,1,2.29021,3.81156l-9.59206,38.47167A21.28711,21.28711,0,0,1,1459.17394,934.53437Z"/><line class="s" x1="1459.17394" y1="934.53437" x2="1451.63503" y2="964.77129"/><path class="m" d="M1462.5953,974.78347l-25.33809-6.31749a.56287.56287,0,0,1-.08852-1.06222l4.2761-1.86176a15.92574,15.92574,0,0,1,18.82582,4.69381l2.90153,3.65134A.56286.56286,0,0,1,1462.5953,974.78347Z"/><path class="m" d="M1452.00871,901.98433a3.85907,3.85907,0,0,1,4.678-2.81084l5.71519,1.425c7.93229,1.97774,10.11608-11.18868,16.12689-9.69,5.41957,1.35125,5.39765,5.637,4.5132,9.18434l-4.12139,16.53a14.82693,14.82693,0,0,1-17.97346,10.79954h0a14.82692,14.82692,0,0,1-10.79954-17.97345Z"/></g><line class="s" x1="1476.52376" y1="864.36811" x2="1464.66433" y2="853.44423"/><line class="s" x1="1487.5401" y1="860.22094" x2="1487.49819" y2="848.61439"/><line class="s" x1="1501.51958" y1="865.32107" x2="1510.51958" y2="857.85298"/><path class="q" d="M726.78241,1139.821a94.45288,94.45288,0,1,1,94.449-94.4566,94.5641,94.5641,0,0,1-94.449,94.4566"/><path class="s" d="M740.02979,1087.46717H703.82913a6.08345,6.08345,0,0,1-4.35219-1.83294h0a48.62415,48.62415,0,0,1-12.646-23.27384l-5.32334-23.598a1.00682,1.00682,0,0,1,.98215-1.22838h78.87945a1.00683,1.00683,0,0,1,.98214,1.22838l-5.32336,23.598a48.6241,48.6241,0,0,1-12.64592,23.27377l-.00008.00008A6.08352,6.08352,0,0,1,740.02979,1087.46717Z"/><path class="v" d="M700.812,1070.17781a48.62058,48.62058,0,0,1-3.5355-10.21373l-3.07949-13.65114"/><path class="v" d="M705.6154,1079.37624c-.53483-.72311-.69-.922-1.18318-1.6725"/><path class="w" d="M761.51064,1042.48936l-4.48282,19.871a48.56353,48.56353,0,0,1-1.689,5.72968H769.3935a12.80035,12.80035,0,0,0,12.80034-12.80035v0a12.80035,12.80035,0,0,0-12.80034-12.80035Z"/><line class="v" x1="687.20018" y1="1096.84567" x2="756.65879" y2="1096.84567"/><path class="v" d="M705.75909,987.89056c0,6.77791-6,6.77791-6,13.55582,0,6.78257,6,6.78257,6,13.56513s-6,6.78257-6,13.56514"/><path class="v" d="M744.09987,987.89056c0,6.77791-6,6.77791-6,13.55582,0,6.78257,6,6.78257,6,13.56513s-6,6.78257-6,13.56514"/><path class="v" d="M724.92948,987.89056c0,4.89232-6,4.89232-6,9.78465,0,4.89569,6,4.89569,6,9.79138s-6,4.89568-6,9.79137"/><path class="x" d="M1127.447,543.16678a94.44916,94.44916,0,1,1,94.449-94.44916,94.55767,94.55767,0,0,1-94.449,94.44916"/><g class="y"><path class="z" d="M1059.84488,447.82152h126.23248v21.337a15.30043,15.30043,0,0,1-15.30042,15.30043h-72.29005a20.397,20.397,0,0,1-15.48953-7.12628L1059.10025,449.44A.98055.98055,0,0,1,1059.84488,447.82152Z"/><rect class="z" x="1104.18775" y="424.55025" width="33.07909" height="23.27126"/><path class="z" d="M1137.26685,433.17021h44.2851a4.52542,4.52542,0,0,1,4.52542,4.52542v10.12588a0,0,0,0,1,0,0h-48.81052a0,0,0,0,1,0,0v-14.6513A0,0,0,0,1,1137.26685,433.17021Z"/><rect class="z" x="1124.66016" y="402.82294" width="9.37421" height="21.72731"/></g><path class="aa" d="M1057.02128,477.07918c14.05429,0,14.05429,8.44038,28.10858,8.44038,14.05494,0,14.05494-8.44038,28.10988-8.44038,14.0545,0,14.0545,8.44038,28.109,8.44038,14.05643,0,14.05643-8.44038,28.11286-8.44038s14.05644,8.44038,28.11287,8.44038"/><polygon class="q" points="1129.373 261.62 1271.371 296.95 1163.133 383.942 1129.373 261.62"/><path class="q" d="M1136.46924,268.53818l123.9126,30.82989-94.45215,75.91239-29.46045-106.74228m-14.19263-13.836,38.06055,137.90249,122.02466-98.07272-160.08521-39.82977Z"/><path class="ab" d="M1208.95111,340.31285a94.45288,94.45288,0,1,1,94.449-94.4566,94.5641,94.5641,0,0,1-94.449,94.4566"/><line class="aa" x1="1211.3947" y1="181.60158" x2="1181.44489" y2="248.86998"/><polygon class="aa" points="1207.476 190.403 1185.364 240.069 1245.067 236.895 1207.476 190.403"/><path class="aa" d="M1200.43176,206.22475l42.0188,28.87239a.60067.60067,0,0,1-.47594,1.08018L1192.23454,224.636"/><rect class="aa" x="1184.39272" y="259.31779" width="54.70511" height="31.65592"/><rect class="ac" x="1194.7153" y="253.46832" width="33.37635" height="5.84946"/><path class="aa" d="M1184.39272,269.44921h-5.276a5.04659,5.04659,0,0,0-5.0466,5.04659h0a5.04658,5.04658,0,0,1-5.04659,5.04659h-7.3405"/><rect class="ad" x="1147.23142" y="276.21624" width="15.59857" height="6.65233" rx="3.32616"/><path class="aa" d="M1244.30922,236.3264l6.68485,3.67571a6.87047,6.87047,0,0,1,3.36282,5.90759h0a6.87044,6.87044,0,0,1-6.87045,6.87044h-8.38862v10.80048"/><rect class="ad" x="1177.05107" y="290.97371" width="69.3884" height="6.9773"/><rect class="ad" x="1198.72506" y="269.44921" width="26.04043" height="11.39307"/><path class="q" d="M179.84863,253.01855a61.19769,61.19769,0,0,1,15.42774,1.68116,29.39634,29.39634,0,0,1,10.38574,4.74218,17.9814,17.9814,0,0,1,5.85254,7.44385,25.15034,25.15034,0,0,1,1.83105,9.78467,19.16873,19.16873,0,0,1-.84082,5.67285,16.33672,16.33672,0,0,1-2.64062,5.10254,20.587,20.587,0,0,1-4.62305,4.352,29.01024,29.01024,0,0,1-6.7832,3.42188q8.644,2.102,12.78613,6.7832,4.14258,4.68237,4.14258,12.126a25.01575,25.01575,0,0,1-2.16113,10.38525,23.76729,23.76729,0,0,1-6.333,8.374,30.02576,30.02576,0,0,1-10.29492,5.58252,44.75647,44.75647,0,0,1-13.98731,2.01123h-34.9375V253.01855Zm-11.88574,15.1875v21.61084h10.56543a34.81287,34.81287,0,0,0,6.06348-.48,12.59191,12.59191,0,0,0,4.59179-1.68115,7.71393,7.71393,0,0,0,2.88184-3.30176,12.38127,12.38127,0,0,0,.99023-5.28222,14.88244,14.88244,0,0,0-.78027-5.19287,7.4454,7.4454,0,0,0-2.40137-3.33155,10.0864,10.0864,0,0,0-4.1123-1.80078,28.22227,28.22227,0,0,0-5.91309-.54053ZM182.25,325.17432a17.90164,17.90164,0,0,0,6.57324-1.02051,10.38164,10.38164,0,0,0,3.99219-2.64111,8.85576,8.85576,0,0,0,1.98145-3.66211,16.14713,16.14713,0,0,0,.54-4.14209,13.80783,13.80783,0,0,0-.63086-4.32178,7.15019,7.15019,0,0,0-2.16113-3.2417,10.564,10.564,0,0,0-4.05176-2.041,23.6087,23.6087,0,0,0-6.36328-.72021h-14.167v21.79053Z"/><path class="q" d="M223.66992,286.87549a37.82262,37.82262,0,0,1,12.51563-7.41358,43.86708,43.86708,0,0,1,14.7373-2.43115,26.95944,26.95944,0,0,1,10.17481,1.83057,21.91871,21.91871,0,0,1,7.68457,5.10254,22.3154,22.3154,0,0,1,4.832,7.77392,27.94991,27.94991,0,0,1,1.68066,9.84473v38.89941h-8.52441a8.71863,8.71863,0,0,1-3.99121-.72021,5.501,5.501,0,0,1-2.252-3.00147l-1.32031-3.42187q-2.34082,1.9812-4.50195,3.48193a28.552,28.552,0,0,1-4.47266,2.55127,22.0848,22.0848,0,0,1-4.92187,1.56055,30.37066,30.37066,0,0,1-5.793.51025,25.41574,25.41574,0,0,1-7.74414-1.11035,16.15358,16.15358,0,0,1-5.91309-3.272,14.38016,14.38016,0,0,1-3.752-5.37256,19.3622,19.3622,0,0,1-1.32031-7.41357,15.47018,15.47018,0,0,1,1.68066-6.81348,16.81559,16.81559,0,0,1,5.82324-6.30322,37.04649,37.04649,0,0,1,11.165-4.772,74.94283,74.94283,0,0,1,17.709-2.16113v-2.6416q0-5.46166-2.251-7.89356a8.2802,8.2802,0,0,0-6.39356-2.43115,16.94991,16.94991,0,0,0-5.40234.72022,24.25751,24.25751,0,0,0-3.75195,1.6206q-1.65234.90089-3.21192,1.6211a8.82377,8.82377,0,0,1-3.72168.72021,5.35718,5.35718,0,0,1-3.24121-.96045,8.32057,8.32057,0,0,1-2.16113-2.28125Zm33.4961,28.27392a61.89848,61.89848,0,0,0-9.18457.96045,22.32194,22.32194,0,0,0-5.70313,1.80078,6.89814,6.89814,0,0,0-2.91113,2.46143,5.82839,5.82839,0,0,0-.81055,3.00147q0,3.18237,1.74121,4.47216a8.48768,8.48768,0,0,0,5.10254,1.29053,14.75655,14.75655,0,0,0,6.30274-1.26074,19.18436,19.18436,0,0,0,5.46289-4.082Z"/><path class="q" d="M305.78809,250.61768v89.86425H287.17871V250.61768Z"/><path class="q" d="M317.01367,286.87549a37.82262,37.82262,0,0,1,12.51563-7.41358,43.86708,43.86708,0,0,1,14.7373-2.43115,26.95944,26.95944,0,0,1,10.17481,1.83057,21.91871,21.91871,0,0,1,7.68457,5.10254,22.3154,22.3154,0,0,1,4.832,7.77392,27.94991,27.94991,0,0,1,1.68066,9.84473v38.89941h-8.52441a8.71863,8.71863,0,0,1-3.99121-.72021,5.501,5.501,0,0,1-2.252-3.00147l-1.32031-3.42187q-2.34082,1.9812-4.50195,3.48193a28.552,28.552,0,0,1-4.47266,2.55127,22.0848,22.0848,0,0,1-4.92187,1.56055,30.37066,30.37066,0,0,1-5.793.51025,25.41574,25.41574,0,0,1-7.74414-1.11035,16.15358,16.15358,0,0,1-5.91309-3.272,14.38016,14.38016,0,0,1-3.75195-5.37256,19.3622,19.3622,0,0,1-1.32031-7.41357,15.47018,15.47018,0,0,1,1.68066-6.81348,16.81559,16.81559,0,0,1,5.82324-6.30322,37.04649,37.04649,0,0,1,11.165-4.772,74.94283,74.94283,0,0,1,17.709-2.16113v-2.6416q0-5.46166-2.251-7.89356a8.2802,8.2802,0,0,0-6.39356-2.43115,16.94991,16.94991,0,0,0-5.40234.72022,24.25751,24.25751,0,0,0-3.752,1.6206q-1.65234.90089-3.21192,1.6211a8.82377,8.82377,0,0,1-3.72168.72021,5.35718,5.35718,0,0,1-3.24121-.96045,8.32057,8.32057,0,0,1-2.16113-2.28125Zm33.4961,28.27392a61.89848,61.89848,0,0,0-9.18457.96045,22.32194,22.32194,0,0,0-5.70313,1.80078,6.89814,6.89814,0,0,0-2.91113,2.46143,5.82839,5.82839,0,0,0-.81055,3.00147q0,3.18237,1.74121,4.47216a8.48768,8.48768,0,0,0,5.10254,1.29053,14.75655,14.75655,0,0,0,6.30274-1.26074,19.18436,19.18436,0,0,0,5.46289-4.082Z"/><path class="q" d="M401.9541,341.44238a21.9553,21.9553,0,0,1-7.834-1.29052,15.1163,15.1163,0,0,1-9.21485-9.39454,22.18553,22.18553,0,0,1-1.20019-7.5039V291.07764h-5.28223a3.35793,3.35793,0,0,1-3.48242-3.66211v-7.26319l9.90527-1.92138,3.66211-15.1875q.71923-2.88135,4.082-2.88135h9.72461v18.189h15.42774v12.72657H402.31445v30.915a5.81706,5.81706,0,0,0,1.04981,3.57177,3.54827,3.54827,0,0,0,3.03222,1.41065,5.94538,5.94538,0,0,0,1.71094-.21,6.86643,6.86643,0,0,0,1.2002-.48q.50976-.27027.96093-.48047a2.46219,2.46219,0,0,1,1.04981-.21,2.16665,2.16665,0,0,1,1.35059.39013,4.85523,4.85523,0,0,1,1.05078,1.23047l5.64257,8.82422a25.677,25.677,0,0,1-8.10351,4.05225A32.21249,32.21249,0,0,1,401.9541,341.44238Z"/><path class="q" d="M453.99805,277.27051a35.97019,35.97019,0,0,1,12.90625,2.22119,28.32092,28.32092,0,0,1,9.99511,6.36328,28.67329,28.67329,0,0,1,6.4834,10.05518,36.28851,36.28851,0,0,1,2.31153,13.29638,36.94205,36.94205,0,0,1-2.31153,13.41651,28.85905,28.85905,0,0,1-6.4834,10.145,28.44418,28.44418,0,0,1-9.99511,6.42334,35.53022,35.53022,0,0,1-12.90625,2.251,35.94,35.94,0,0,1-12.9961-2.251,28.98959,28.98959,0,0,1-10.085-6.42334,28.42486,28.42486,0,0,1-6.543-10.145,36.92148,36.92148,0,0,1-2.31152-13.41651,36.26833,36.26833,0,0,1,2.31152-13.29638,28.24318,28.24318,0,0,1,6.543-10.05518,28.86547,28.86547,0,0,1,10.085-6.36328A36.38563,36.38563,0,0,1,453.99805,277.27051Zm0,50.36523q6.42333,0,9.45508-4.53222,3.03075-4.53224,3.03125-13.77686,0-9.2439-3.03125-13.74707-3.03223-4.50219-9.45508-4.502-6.60352,0-9.665,4.502-3.06153,4.50219-3.06055,13.74707,0,9.24464,3.06055,13.77686Q447.39452,327.63648,453.99805,327.63574Z"/><path class="q" d="M512.22656,284.95459a45.12345,45.12345,0,0,1,3.72168-3.12158,21.74226,21.74226,0,0,1,4.11231-2.43115,24.40474,24.40474,0,0,1,4.74218-1.561,25.45655,25.45655,0,0,1,5.55274-.57031,21.80727,21.80727,0,0,1,9.03418,1.771,18.75733,18.75733,0,0,1,6.63379,4.92237,21.25725,21.25725,0,0,1,4.082,7.5039,31.13747,31.13747,0,0,1,1.38086,9.45459v39.55957H532.877V300.92236a10.88785,10.88785,0,0,0-2.10156-7.11328,7.54765,7.54765,0,0,0-6.18262-2.55127,13.00721,13.00721,0,0,0-5.73339,1.29053,23.09451,23.09451,0,0,0-5.19239,3.51172v44.42187H495.05762V278.231H506.584a4.37636,4.37636,0,0,1,4.56153,3.12158Z"/><path class="q" d="M567.0332,340.48193V291.01758l-4.082-.84033a8.40314,8.40314,0,0,1-3.3916-1.501,3.5933,3.5933,0,0,1-1.291-3.00147v-7.32373h8.76465v-3.5415a26.06382,26.06382,0,0,1,1.71094-9.665,20.433,20.433,0,0,1,4.92188-7.3833,22.15748,22.15748,0,0,1,7.834-4.74268,30.632,30.632,0,0,1,10.50488-1.68066,30.27289,30.27289,0,0,1,4.20215.27,29.93507,29.93507,0,0,1,4.02246.87061l-.36035,9.06445a3.00267,3.00267,0,0,1-1.59082,2.61133,5.47473,5.47473,0,0,1-1.4707.57031,6.92211,6.92211,0,0,1-1.56055.18018,18.14943,18.14943,0,0,0-4.38281.48,7.022,7.022,0,0,0-3.21094,1.71093,7.685,7.685,0,0,0-1.95117,3.2417,16.47344,16.47344,0,0,0-.66016,5.07227v2.9414h14.58692v12.72657H585.6416v49.40429Z"/><path class="q" d="M662.17969,278.231v62.251H650.6543a4.3745,4.3745,0,0,1-4.5625-3.12158l-1.08106-3.60156a35.97914,35.97914,0,0,1-3.72168,3.15137,22.78719,22.78719,0,0,1-4.1123,2.40136,24.45944,24.45944,0,0,1-4.74219,1.56055,25.46925,25.46925,0,0,1-5.55273.57031,21.79942,21.79942,0,0,1-9.03418-1.771,18.57332,18.57332,0,0,1-6.63379-4.95215,21.59316,21.59316,0,0,1-4.08106-7.50391,30.98946,30.98946,0,0,1-1.38086-9.48486V278.231h18.6084v39.49951q0,4.62378,2.10156,7.14355a7.58636,7.58636,0,0,0,6.18262,2.52149,13.00354,13.00354,0,0,0,5.7334-1.29053,23.06711,23.06711,0,0,0,5.19238-3.51172V278.231Zm-31.03516-15.48731a8.45307,8.45307,0,0,1-.78027,3.60156,9.0648,9.0648,0,0,1-2.13184,2.91163,10.41243,10.41243,0,0,1-3.12109,1.95068,10.01811,10.01811,0,0,1-3.81153.7207,9.25026,9.25026,0,0,1-3.63183-.7207,9.82413,9.82413,0,0,1-3.00195-1.95068,9.47589,9.47589,0,0,1-2.07129-2.91163,8.43853,8.43853,0,0,1-.78028-3.60156,8.99436,8.99436,0,0,1,.78028-3.72217,10.04387,10.04387,0,0,1,2.07129-3.03125,9.74349,9.74349,0,0,1,3.00195-2.041,8.93839,8.93839,0,0,1,3.63183-.75049,9.67594,9.67594,0,0,1,3.81153.75049,10.30347,10.30347,0,0,1,3.12109,2.041,9.58533,9.58533,0,0,1,2.13184,3.03125A9.00993,9.00993,0,0,1,631.14453,262.74365Zm25.57227,0a8.73163,8.73163,0,0,1-.75,3.60156,8.89485,8.89485,0,0,1-2.07129,2.91163,10.08,10.08,0,0,1-6.90332,2.67138,9.62809,9.62809,0,0,1-3.72168-.7207,10.09725,10.09725,0,0,1-3.06153-1.95068,8.8663,8.8663,0,0,1-2.07128-2.91163,8.716,8.716,0,0,1-.75-3.60156,9.384,9.384,0,0,1,2.82128-6.75342,10.0029,10.0029,0,0,1,3.06153-2.041,9.3013,9.3013,0,0,1,3.72168-.75049,9.67243,9.67243,0,0,1,3.81152.75049,9.93433,9.93433,0,0,1,3.0918,2.041,9.417,9.417,0,0,1,2.07129,3.03125A9.31019,9.31019,0,0,1,656.7168,262.74365Z"/><path class="q" d="M692.19336,287.83594a26.17146,26.17146,0,0,1,6.63281-7.92383,13.7583,13.7583,0,0,1,8.61426-2.88135,11.10962,11.10962,0,0,1,6.84375,1.981L713.083,292.69824a2.87326,2.87326,0,0,1-.99024,1.80078,3.25987,3.25987,0,0,1-1.89062.48047q-.48193,0-1.26074-.06006-.78077-.05932-1.6211-.1499-.84081-.09009-1.71093-.18017a15.55481,15.55481,0,0,0-1.59083-.09034,9.44413,9.44413,0,0,0-6.51269,2.16114,16.99588,16.99588,0,0,0-4.11231,6.00293v37.81884H674.78418V278.231h11.0459a9.47228,9.47228,0,0,1,2.31152.24023,4.08581,4.08581,0,0,1,1.56055.75049,3.20275,3.20275,0,0,1,.96,1.35059,12.25937,12.25937,0,0,1,.57031,2.041Z"/><path class="q" d="M734.81152,312.688q.90089,7.80468,4.74219,11.31592a14.111,14.111,0,0,0,9.90527,3.51172,17.723,17.723,0,0,0,5.583-.78028,28.1601,28.1601,0,0,0,4.17188-1.74121q1.83105-.95947,3.36133-1.74072a6.98839,6.98839,0,0,1,3.21191-.78028,3.84661,3.84661,0,0,1,3.36133,1.62061l5.40332,6.66357a27.67019,27.67019,0,0,1-6.21289,5.37256,32.34467,32.34467,0,0,1-6.84375,3.2417,37.11254,37.11254,0,0,1-7.02344,1.62061,52.6762,52.6762,0,0,1-6.69336.45019,34.965,34.965,0,0,1-12.27637-2.13086,28.18564,28.18564,0,0,1-10.02441-6.33349,29.84855,29.84855,0,0,1-6.7832-10.44483,39.02175,39.02175,0,0,1-2.49121-14.52734,32.872,32.872,0,0,1,2.13085-11.82568,28.7277,28.7277,0,0,1,15.78711-16.44825,34.45145,34.45145,0,0,1,24.13282-.54,24.62953,24.62953,0,0,1,8.82422,5.58252,25.48706,25.48706,0,0,1,5.76269,8.97461,32.92885,32.92885,0,0,1,2.07129,12.03565,26.23834,26.23834,0,0,1-.18066,3.42187,5.42469,5.42469,0,0,1-.66016,2.10108,2.513,2.513,0,0,1-1.291,1.08056,6.02841,6.02841,0,0,1-2.07031.29981Zm23.41211-10.80518a16.44777,16.44777,0,0,0-.57031-4.32226,10.49636,10.49636,0,0,0-1.86133-3.75147,9.47361,9.47361,0,0,0-3.3916-2.67138,11.60317,11.60317,0,0,0-5.10254-1.02051q-5.28222,0-8.28418,3.03125-3.00146,3.03222-3.96191,8.73437Z"/><path class="q" d="M840.582,250.61768v89.86425H829.05664a4.376,4.376,0,0,1-4.5625-3.12158l-1.44043-4.74219a36.62145,36.62145,0,0,1-3.90234,3.60157,24.5792,24.5792,0,0,1-4.41211,2.7915,23.34225,23.34225,0,0,1-5.10254,1.80078,26.26212,26.26212,0,0,1-5.91309.63037,19.16816,19.16816,0,0,1-9.0039-2.16113,20.72646,20.72646,0,0,1-7.14356-6.24316,31.47793,31.47793,0,0,1-4.71289-9.99463,48.53555,48.53555,0,0,1-1.71094-13.47657,42.0185,42.0185,0,0,1,1.9209-12.93652,31.7037,31.7037,0,0,1,5.4336-10.32519,25.23305,25.23305,0,0,1,8.43359-6.81348,23.95244,23.95244,0,0,1,10.86523-2.46094,21.22092,21.22092,0,0,1,8.16407,1.38037,22.19414,22.19414,0,0,1,6.00293,3.72217V250.61768Zm-18.60937,44.30175a11.7755,11.7755,0,0,0-4.5625-3.27148,14.47831,14.47831,0,0,0-5.16211-.93066,10.96594,10.96594,0,0,0-4.74219,1.0205,9.66728,9.66728,0,0,0-3.75195,3.27149,17.43478,17.43478,0,0,0-2.49121,5.853,36.35172,36.35172,0,0,0-.9004,8.70459,40.29276,40.29276,0,0,0,.72071,8.2837,17.018,17.018,0,0,0,2.01074,5.43261,7.80142,7.80142,0,0,0,3.0918,2.97168,8.86446,8.86446,0,0,0,4.02148.90039,16.04474,16.04474,0,0,0,3.69141-.39013,12.98606,12.98606,0,0,0,3.03222-1.11035,12.59972,12.59972,0,0,0,2.61133-1.83106,25.03981,25.03981,0,0,0,2.43067-2.55127Z"/><path class="q" d="M407.21875,1773.61621h-24.6123v71.375h-20.29v-71.375H337.7041v-16.08789h69.51465Z"/><path class="q" d="M435.67188,1765.69238a9.82935,9.82935,0,0,1-.90137,4.17188,10.97616,10.97616,0,0,1-2.46094,3.42187,12.04853,12.04853,0,0,1-3.63184,2.34082,11.25754,11.25754,0,0,1-4.4121.87012,10.45824,10.45824,0,0,1-4.26172-.87012,11.968,11.968,0,0,1-3.51172-2.34082,10.80021,10.80021,0,0,1-2.40137-3.42187,10.10748,10.10748,0,0,1-.87012-4.17188,10.4697,10.4697,0,0,1,.87012-4.26269,11.0649,11.0649,0,0,1,2.40137-3.48145,11.24978,11.24978,0,0,1,3.51172-2.34082,10.78881,10.78881,0,0,1,4.26172-.84082,11.61725,11.61725,0,0,1,4.4121.84082,11.27672,11.27672,0,0,1,6.09278,5.82227A10.17953,10.17953,0,0,1,435.67188,1765.69238ZM433.75,1782.74023v62.251H415.1416v-62.251Z"/><path class="q" d="M465.38574,1788.20313a30.25273,30.25273,0,0,1,7.29395-4.65235,22.7574,22.7574,0,0,1,9.39453-1.77051,21.80712,21.80712,0,0,1,9.03418,1.77051,18.74695,18.74695,0,0,1,6.63379,4.92285,21.257,21.257,0,0,1,4.082,7.50293,31.1407,31.1407,0,0,1,1.38086,9.45508v39.55957H484.5957v-39.55957a10.88785,10.88785,0,0,0-2.10156-7.11328,7.54648,7.54648,0,0,0-6.18262-2.55176,13.00761,13.00761,0,0,0-5.73339,1.291,23.09451,23.09451,0,0,0-5.19239,3.51172v44.42187H446.77637V1755.127h18.60937Z"/><path class="q" d="M513.83008,1791.38477a37.83238,37.83238,0,0,1,12.51562-7.41407A43.89143,43.89143,0,0,1,541.083,1781.54a26.95,26.95,0,0,1,10.1748,1.83105,21.91214,21.91214,0,0,1,7.68457,5.10254,22.31745,22.31745,0,0,1,4.832,7.77344,27.94987,27.94987,0,0,1,1.68067,9.84473v38.89941h-8.52442a8.71132,8.71132,0,0,1-3.99121-.7207,5.49408,5.49408,0,0,1-2.25195-3.001l-1.32031-3.42187q-2.34083,1.98047-4.502,3.48144a28.55546,28.55546,0,0,1-4.47265,2.55176,22.13626,22.13626,0,0,1-4.92188,1.56055,30.32908,30.32908,0,0,1-5.793.51074,25.40039,25.40039,0,0,1-7.74414-1.11133,16.14567,16.14567,0,0,1-5.91308-3.27148,14.3863,14.3863,0,0,1-3.752-5.37207,19.36672,19.36672,0,0,1-1.32031-7.41407,15.46843,15.46843,0,0,1,1.68067-6.81347,16.81454,16.81454,0,0,1,5.82324-6.30274,37.034,37.034,0,0,1,11.165-4.77246,74.94222,74.94222,0,0,1,17.709-2.16113v-2.6416q0-5.46094-2.251-7.89356a8.28047,8.28047,0,0,0-6.39356-2.43164,16.94878,16.94878,0,0,0-5.40234.7207,24.25676,24.25676,0,0,0-3.752,1.6211q-1.65234.89941-3.21191,1.62012a8.81625,8.81625,0,0,1-3.72168.7207,5.3574,5.3574,0,0,1-3.24121-.96094,8.33082,8.33082,0,0,1-2.16113-2.28027Zm33.49609,28.27441a61.77519,61.77519,0,0,0-9.18457.96,22.34127,22.34127,0,0,0-5.70312,1.80078,6.90092,6.90092,0,0,0-2.91114,2.46094,5.83137,5.83137,0,0,0-.81054,3.002q0,3.1831,1.74121,4.47168a8.48407,8.48407,0,0,0,5.10254,1.291,14.7565,14.7565,0,0,0,6.30273-1.26074,19.17519,19.17519,0,0,0,5.46289-4.082Z"/><path class="q" d="M594.50781,1789.46387a45.22534,45.22534,0,0,1,3.72168-3.12207,21.7666,21.7666,0,0,1,4.11231-2.43067,24.438,24.438,0,0,1,4.74218-1.56054,25.45591,25.45591,0,0,1,5.55274-.57032,21.80712,21.80712,0,0,1,9.03418,1.77051,18.74695,18.74695,0,0,1,6.63379,4.92285,21.257,21.257,0,0,1,4.082,7.50293,31.1407,31.1407,0,0,1,1.38086,9.45508v39.55957H615.1582v-39.55957a10.88785,10.88785,0,0,0-2.10156-7.11328,7.54648,7.54648,0,0,0-6.18262-2.55176,13.00761,13.00761,0,0,0-5.73339,1.291,23.09451,23.09451,0,0,0-5.19239,3.51172v44.42187H577.33887v-62.251h11.52636a4.37571,4.37571,0,0,1,4.56153,3.12207Z"/><path class="q" d="M703.10059,1782.74023l-33.25684,78.39942a5.31625,5.31625,0,0,1-5.88281,3.60156H650.03418L662.04,1839.52832l-24.85254-56.78809h16.44824a5.12955,5.12955,0,0,1,3.332.96094,5.74129,5.74129,0,0,1,1.71094,2.28125l10.20508,26.833a54.47943,54.47943,0,0,1,2.34082,7.50391q.65918-1.92042,1.32031-3.8418.66064-1.92041,1.38086-3.78223l9.24512-26.71289a4.93572,4.93572,0,0,1,1.9209-2.31152,5.26351,5.26351,0,0,1,3.001-.93067Z"/><text class="ae" transform="translate(1259.1643 438.91589)">I<tspan class="af" x="27.37207" y="0">ndulás</tspan></text><text class="ag" transform="translate(1259.1643 500.65843)"><tspan class="ah">D</tspan><tspan x="45.23242" y="0">epartu</tspan><tspan class="ai" x="217.24512" y="0">r</tspan><tspan class="aj" x="237.89453" y="0">e</tspan></text></g></svg>