<svg xmlns="http://www.w3.org/2000/svg" xmlns:xlink="http://www.w3.org/1999/xlink" viewBox="0 0 190 190"><defs><style>.a,.f{fill:none;}.b{clip-path:url(#a);}.c{fill:#dbdcdd;}.d{clip-path:url(#b);}.e{fill:#181719;}.f,.h{stroke:#fff;stroke-miterlimit:10;stroke-width:4px;}.g,.h{fill:#fff;}</style><clipPath id="a"><rect class="a" x="-1724" y="360" width="1200" height="1200"/></clipPath><clipPath id="b"><rect class="a" x="-224" y="360" width="1843.80851" height="2073.85106"/></clipPath></defs><g class="b"><path class="c" d="M2141.08906-1914.42857c-195.544,105.293-285.79514,150.41849-481.33919,75.20925S832.44815-1718.88453,441.36006-1523.34048-1092.9086-801.3317-1258.36894-711.08061s-165.46035,165.46035-165.46035,240.6696S-1453.913-169.574-1453.913-139.49032s-60.1674,105.29294-90.2511,120.33479-240.6696,105.293-270.75329,120.3348-15.04185,90.2511,45.12554,195.544,260.13338,462.06795,292.92818,525.31507,124.15176,37.47978,180.37142,28.10983,435.7024-100.7269,466.15472-100.7269,58.56215-4.685,74.95955,28.10984,166.31651,327.948,175.68645,351.3729-23.42486,86.672-121.80927,105.41187-588.53191,112.43933-624.55648,112.43933-93.17123-38.04153-108.64164-74.95956c-103.06938-245.961-210.82374-496.607-278.75583-644.18365s-234.24861-452.0998-262.35844-508.31946-119.46678-79.64453-140.54916-77.302-262.35843,117.1243-290.46826,126.49425-79.64453,18.73988-96.04193,2.34248-81.987-107.75436-107.75435-117.1243-163.974,49.19221-171.00148,70.27458,2.34248,131.17922,37.47977,180.37142,215.50872,187.39888,229.56363,229.56363,53.87718,119.46679,53.87718,166.31651-23.42486,135.86419-39.82226,163.974-124.15176,124.15176-149.91911,140.54916-126.49424,18.73989-145.23413,16.3974-234.2486-128.83673-255.331-133.5217-96.04193,18.73989-119.46679,37.47977-794.10276,616.07382-810.50016,637.1562,0,44.50723,16.3974,70.27458,145.23414,189.74137,163.974,208.48125,21.08238,70.27458,2.34249,89.01447-302.18069,163.974-342.003,187.39888-578.594,440.38737-648.86862,459.12726-534.36113,405.546-576.87814,405.546,0-6352.04255,0-6352.04255H2141.08906Z"/></g><path class="e" d="M94.45672,188.90576a94.45288,94.45288,0,1,1,94.449-94.4566,94.5641,94.5641,0,0,1-94.449,94.4566"/><rect class="f" x="39.50034" y="66.56536" width="109.90507" height="61.89024"/><circle class="f" cx="94.45288" cy="97.51048" r="22.88833"/><path class="g" d="M94.45293,85.96344a11.547,11.547,0,1,1-11.54712,11.547,11.56008,11.56008,0,0,1,11.54712-11.547m0-6a17.547,17.547,0,1,0,17.547,17.54705,17.54706,17.54706,0,0,0-17.547-17.547Z"/><rect class="g" x="139.78293" y="85.60309" width="9.62249" height="35.26726"/><rect class="g" x="39.50034" y="85.60309" width="9.62249" height="35.26726"/><rect class="g" x="119.47522" y="71.83648" width="21.21585" height="8.09531"/><rect class="h" x="49.12283" y="59.60934" width="17.04224" height="6.95602"/><path class="g" d="M90.618,90.34036q-.08386,0-.1687.00445a3.15961,3.15961,0,0,0,.16333,6.31485q.08386,0,.1687-.00445a3.15961,3.15961,0,0,0-.16333-6.31485Z"/></svg>