<svg xmlns="http://www.w3.org/2000/svg" xmlns:xlink="http://www.w3.org/1999/xlink" viewBox="0 0 190 190"><defs><style>.a,.f{fill:none;}.b{clip-path:url(#a);}.c{fill:#dbdcdd;}.d{clip-path:url(#b);}.e,.g{fill:#fff;}.e,.f,.g,.h{stroke:#181719;stroke-miterlimit:10;}.e{stroke-width:10px;}.f,.g{stroke-width:4px;}.h{fill:#181719;}</style><clipPath id="a"><rect class="a" x="-2190" y="360" width="1200" height="1200"/></clipPath><clipPath id="b"><rect class="a" x="-690" y="360" width="1843.80851" height="2073.85106"/></clipPath></defs><g class="b"><path class="c" d="M1675.08906-1914.42857c-195.544,105.293-285.79514,150.41849-481.33919,75.20925S366.44815-1718.88453-24.63994-1523.34048-1558.9086-801.3317-1724.36894-711.08061s-165.46035,165.46035-165.46035,240.6696S-1919.913-169.574-1919.913-139.49032s-60.1674,105.29294-90.2511,120.33479-240.6696,105.293-270.75329,120.3348-15.04185,90.2511,45.12554,195.544,260.13338,462.06795,292.92818,525.31507,124.15176,37.47978,180.37142,28.10983,435.7024-100.7269,466.15472-100.7269,58.56215-4.685,74.95955,28.10984,166.31651,327.948,175.68645,351.3729-23.42486,86.672-121.80927,105.41187-588.53191,112.43933-624.55648,112.43933-93.17123-38.04153-108.64164-74.95956c-103.06938-245.961-210.82374-496.607-278.75583-644.18365s-234.24861-452.0998-262.35844-508.31946-119.46678-79.64453-140.54916-77.302-262.35843,117.1243-290.46826,126.49425-79.64453,18.73988-96.04193,2.34248-81.987-107.75436-107.75435-117.1243-163.974,49.19221-171.00148,70.27458,2.34248,131.17922,37.47977,180.37142,215.50872,187.39888,229.56363,229.56363,53.87718,119.46679,53.87718,166.31651-23.42486,135.86419-39.82226,163.974-124.15176,124.15176-149.91911,140.54916-126.49424,18.73989-145.23413,16.3974-234.2486-128.83673-255.331-133.5217-96.04193,18.73989-119.46679,37.47977-794.10276,616.07382-810.50016,637.1562,0,44.50723,16.3974,70.27458,145.23414,189.74137,163.974,208.48125,21.08238,70.27458,2.34249,89.01447-302.18069,163.974-342.003,187.39888-578.594,440.38737-648.86862,459.12726-534.36113,405.546-576.87814,405.546,0-6352.04255,0-6352.04255H1675.08906Z"/></g><path class="e" d="M95.00365,184.97519A89.9876,89.9876,0,1,1,185,94.98405a90.09976,90.09976,0,0,1-89.99635,89.99114"/><line class="f" x1="100.14614" y1="31.18308" x2="71.61221" y2="95.27134"/><polygon class="f" points="96.413 39.568 75.346 86.886 132.233 83.865 96.413 39.568"/><path class="f" d="M89.70148,54.64217,129.73984,82.1523a.57225.57225,0,0,1-.45343,1.0291L81.89179,72.183"/><rect class="f" x="74.4142" y="105.24981" width="52.12609" height="30.15938"/><rect class="g" x="84.25013" y="99.67688" width="31.80286" height="5.57293"/><path class="f" d="M74.4142,114.90226H69.38693a4.80835,4.80835,0,0,0-4.80867,4.808h0a4.80834,4.80834,0,0,1-4.80867,4.808H52.77514"/><rect class="h" x="39.00483" y="121.34938" width="14.86319" height="6.33784" rx="3.16892"/><path class="f" d="M131.506,83.34535l6.36971,3.50194a6.54544,6.54544,0,0,1,3.20428,5.6283h0a6.54609,6.54609,0,0,1-6.54654,6.54564h-7.99315v10.28988"/><rect class="h" x="67.41866" y="135.40918" width="66.11716" height="6.64745"/><rect class="h" x="88.07085" y="114.90226" width="24.81278" height="10.85446"/></svg>