<svg xmlns="http://www.w3.org/2000/svg" viewBox="0 0 60.7127 60.72397"><title>symbol-star</title><path d="M2.28589,29.04155a92.2274,92.2274,0,0,1,17.71858-2.97714A83.33372,83.33372,0,0,1,8.69393,9.86188.86287.86287,0,0,1,9.8506,8.70522,83.42865,83.42865,0,0,1,26.05321,20.01566,83.33259,83.33259,0,0,1,29.51238.561a.86287.86287,0,0,1,1.63577,0A83.40431,83.40431,0,0,1,34.6063,20.00248,82.59975,82.59975,0,0,1,50.82114,8.6945a.863.863,0,0,1,1.15608,1.1561A82.67514,82.67514,0,0,1,40.67781,26.05545,82.58818,82.58818,0,0,1,60.12621,29.524a.863.863,0,0,1,0,1.63495,82.66818,82.66818,0,0,1-19.44838,3.46864A82.57976,82.57976,0,0,1,51.97732,50.8323a.863.863,0,0,1-1.15611,1.15605A82.67851,82.67851,0,0,1,34.61637,40.689a82.57305,82.57305,0,0,1-3.46848,19.44845.863.863,0,0,1-1.63495-.00005,82.69461,82.69461,0,0,1-3.4698-19.46158A83.31563,83.31563,0,0,1,9.85071,51.9779a.86287.86287,0,0,1-1.15662-1.15671A83.42739,83.42739,0,0,1,20.00447,34.61864,83.44526,83.44526,0,0,1,.58824,31.17227a.86168.86168,0,0,1,.00807-1.637Q1.43537,29.27077,2.28589,29.04155Z" style="fill:#e2ca53"/></svg>