<svg xmlns="http://www.w3.org/2000/svg" viewBox="0 0 185.72009 69.71794"><title>symbol-1</title><path d="M75.15258,23.2876c4.1479,1.39325,7.87288,4.32219,11.21906,7.07327,6.06032,4.98253,11.64781,10.659,18.4008,14.73032,5.02961,3.03228,10.60454,4.56583,16.35176,2.68872,4.26-1.39138,7.73814-4.35475,11.88236-6.0213.1217-.04895.24585-.09443.36841-.14219,1.34669-1.05622,3.38517-2.46126,3.88422-3.02625a23.46918,23.46918,0,0,0,3.26717-4.8,25.38377,25.38377,0,0,0,2.63285-9,.476.476,0,0,1,.93076-.08024c1.44127,4.98643,2.3346,10.05748,1.55312,14.36058q1.39345-.05559,2.78686-.00615a.76159.76159,0,0,1,.13428.0031l.05974.0055q1.08068.04551,2.15387.15779c4.52649.18659,8.14093-.64625,10.42384-2.39827a78.16874,78.16874,0,0,0,9.097-7.84026c1.23928.61961-2.97436,9.02856-5.12942,13.0964a11.33172,11.33172,0,0,1-1.19072,1.83165c.22.15329.43967.30719.655.46831a19.84023,19.84023,0,0,1,4.52529,4.6386l.00012,0a17.57971,17.57971,0,0,0,15.47314-.791.73389.73389,0,0,1,1.028.93382c-2.20057,5.27048-7.98831,7.94512-13.772,7.70971a24.56119,24.56119,0,0,1-2.84474,12.441.72313.72313,0,0,1-1.36007-.4292c.638-4.60753.48578-9.33612-1.70566-13.54242a17.37786,17.37786,0,0,0-10.4412-9.126,23.69575,23.69575,0,0,1-3.662,7.657.71284.71284,0,0,1-1.27731-.54428,14.81,14.81,0,0,0-.15648-5.92669,12.8885,12.8885,0,0,0-.80951-2.38105,31.63656,31.63656,0,0,0-10.69018.90844c-.44591.115-.8795.2458-1.30653.38515a13.44982,13.44982,0,0,1,.56741,3.94422,14.76853,14.76853,0,0,1-2.94047,9.66368c-.56115.70343-1.50946.15788-1.45612-.84044.11219-2.09917-.01742-5.02568-1.31112-6.84681a6.88516,6.88516,0,0,0-2.60723-2.064.823.823,0,0,0-.13654-.05217c-.75093.42209-1.50977.84457-2.28957,1.2551a24.09478,24.09478,0,0,1-15.93917,2.69385c-4.93384-.97766-9.38217-3.52-13.42761-6.42341-5.62016-4.03373-10.56668-8.8708-15.93376-13.21218A93.41488,93.41488,0,0,0,70.74688,26.929c-4.21859-2.48857-9.18168-4.5428-14.14355-4.67022C62.39736,20.14918,69.48276,21.3832,75.15258,23.2876Z" style="fill:#e2ca53"/><path d="M6.16089,7.70054C11.24265,3.53554,17.43737.42159,24.08456.03587c6.53151-.379,10.62779,2.31267,16.19107,4.89806,7.75027,3.60175,17.21584,3.38822,25.22771.72752-.068,2.21474-3.91655,4.28255-5.84232,5.1654a19.96043,19.96043,0,0,1-13.83109.812,23.58632,23.58632,0,0,1,3.16461,10.21194c.19859,2.547-.80263,5.485-.27192,7.83068.84,3.71271,4.86755,7.30015,7.86719,9.28669-2.84825,3.1593-8.9029-1.71077-10.42846-3.99328-5.54812,9.95652-17.25495,12.71786-27.45314,8.66081C9.31535,39.89907,4.84256,31.36407,10.68655,22.23428c3.97477-6.2096,13.83815-11.40675,18.24645-3.015,1.92706,3.66838.23407,7.73177-3.3964,8.70328a10.82313,10.82313,0,0,1-10.56068-3.078c-2.44358,3.20719-4.40558,6.81552-.56287,10.1504,3.17159,2.75244,9.17427,4.10486,13.15613,3.60673,10.8061-1.35183,16.07026-13.8679,11.76432-23.27624A19.21825,19.21825,0,0,0,16.83373,4.97032c-5.59257,1.435-9.10287,4.78157-13.434,8.36-.81964.67721-2.06065,2.6004-3.22671,1.47617C-1.16052,13.52078,5.63447,8.12988,6.16089,7.70054Z" style="fill:#e2ca53"/></svg>