<svg xmlns="http://www.w3.org/2000/svg" xmlns:xlink="http://www.w3.org/1999/xlink" viewBox="0 0 342.8022 400"><defs><clipPath id="a"><rect width="342.8022" height="400" style="fill:none"/></clipPath></defs><title>departures-map</title><g style="isolation:isolate"><g style="clip-path:url(#a)"><rect x="-143.53232" y="-89.9709" width="626.65137" height="626.65137" style="fill:#b5e5e1"/><path d="M530.90122-1.45639C510.53505,9.51,501.13528,14.20989,480.76911,6.37675S394.60454,18.90978,353.8722,39.276s-159.7961,75.19816-177.029,84.59793-17.23291,17.23291-17.23291,25.06606-3.13326,31.33257-3.13326,34.46582-6.26651,10.9664-9.39977,12.533-25.066,10.9664-28.19931,12.533-1.56663,9.39977,4.69988,20.36617,27.09324,48.125,30.50886,54.71225,12.93057,3.90357,18.78592,2.92768,45.379-10.49084,48.55063-10.49084,6.09932-.488,7.80713,2.92768,17.32209,34.15622,18.298,36.596-2.43973,9.027-12.6866,10.97878-61.29637,11.7107-65.04838,11.7107-9.7039-3.96207-11.31517-7.80713c-10.73481-25.61717-21.95757-51.72228-29.03278-67.09258s-24.3973-47.08679-27.325-52.94214-12.44262-8.29508-14.63838-8.05111-27.325,12.19865-30.25265,13.17455-8.29508,1.95178-10.0029.244S38.68745,204.503,36.00375,203.5271s-17.07811,5.12343-17.81,7.31919.244,13.66249,3.90357,18.78592,22.44551,19.51784,23.90935,23.90935S51.618,265.98419,51.618,270.86365s-2.43973,14.15043-4.14754,17.07811-12.93057,12.93057-15.61427,14.63838-13.17455,1.95178-15.12633,1.70781-24.3973-13.41852-26.59306-13.90646-10.00289,1.95178-12.44262,3.90356-82.70685,64.1649-84.41466,66.36066,0,4.63549,1.70781,7.31919,15.12633,19.76181,17.07811,21.7136,2.19576,7.31919.244,9.271-31.47252,17.07811-35.62006,19.51784-60.26133,45.86693-67.58052,47.81871-55.65442,42.23815-60.08262,42.23815,0-661.5736,0-661.5736h781.875Z" style="fill:#e3c552;stroke:#a8731e;stroke-miterlimit:10"/><path d="M246.36539-49.26151a3.91612,3.91612,0,0,0-5.396-1.24994c-.46815.29222-47.21457,29.47373-79.5171,51.15027-19.02138,12.764-35.178,19.96074-50.803,26.91954-10.82717,4.823-21.05462,9.37835-31.40753,15.44751A214.12463,214.12463,0,0,0,39.1412,73.67417C26.20389,50.63123,16.32478,32.09455,11.61992,22.0373c9.08194-.46892,30.06628-2.27938,43.46228-9.19056,16.74028-8.63787,52.70465-32.58556,54.22768-33.60066l-2.607-3.91045c-.34968.23283-33.13356,22.06255-50.72562,31.70577L34.88891-21.16776l-2.50906,1.87567L53.1831,8.53564c-.08319.04322-.17364.09209-.25578.13445C39.28941,15.70586,16.19273,17.15258,9.21577,17.4338L-62.27036-30.68l-3.4989,5.19864L4.68235,21.93671c.97083,2.20555,2.22354,4.842,3.67074,7.7663C-2.14,35.77092-42.69946,59.29989-88.32875,86.71255L-158.5484-36.44468l-2.72171,1.55133,70.2555,123.22014c-46.97045,28.25267-98.72876,60.293-128.3003,81.47042l1.82365,2.5473C-158.77128,130.2931-12.24812,45.23763,9.75726,32.51078c8.483,16.79411,22.125,41.10544,28.58772,52.511,12.27447,21.66048,15.5959,37.9655,9.60477,47.15108-3.11107,4.771-22.50269,17.15642-41.25556,29.13409-16.05642,10.25575-34.2547,21.87925-48.47446,32.45323C-73.68732,217.48605-182.9084,305.332-184.0084,306.21627l3.92881,4.88348c1.07935-.86889,106.4572-85.62451,140.30379-111.01452,3.65142,7.17777,12.58486,23.40448,19.38292,24.80406a5.5676,5.5676,0,0,0,1.126.104c9.40207,0,36.37592-17.67659,39.54437-19.77409a1.567,1.567,0,0,0-1.73033-2.61309c-12.07023,7.993-33.14169,20.27437-38.3082,19.21415-4.63563-.95428-12.64375-14.06648-17.463-23.63224,13.92343-10.28282,31.62765-21.59517,47.29164-31.59983,16.13157-10.30328,28.17856-18.07685,35.55952-23.79288,3.50522,6.35458,19.68,33.0257,43.64271,31.76448,0,0,14.92456,34.14254,15.53786,35.77811s3.47567,2.24887,3.47567,2.24887,41.50256,81.57407,42.93369,84.02747,2.04444-1.2267,1.2267-2.4534-42.72935-82.80068-42.72935-82.80068a10.80883,10.80883,0,0,0-.81773-6.13341c-1.43114-2.65784-16.3557-34.96027-16.56014-35.77811s-11.04012,1.43114-15.7424-1.43113-19.83127-11.85786-26.16912-29.0313c0,0,2.09-2.34172,2.77383-3.39018,7.45908-11.43685,4.296-29.49209-9.4013-53.66315-.22433-.396-.43928-.77824-.66217-1.172A207.06274,207.06274,0,0,1,83.20272,49.76348c9.97731-5.84884,20.01123-10.31771,30.63416-15.049,15.9279-7.095,32.39815-14.43088,51.98024-27.572,32.19238-21.60234,78.83171-50.71654,79.29833-51.008A3.91653,3.91653,0,0,0,246.36539-49.26151Z" style="fill:#efcb92;stroke:#a8731e;stroke-miterlimit:10;stroke-width:0.65px"/><polygon points="168.382 300.808 179.537 298.794 182.481 312.274 169.793 314.443 168.382 300.808" style="fill:#f4d79d;stroke:#a8731e;stroke-miterlimit:10;stroke-width:0.65px"/><polygon points="192.088 303.442 193.947 313.204 210.681 310.105 208.047 299.879 192.088 303.442" style="fill:#f4d79d;stroke:#a8731e;stroke-miterlimit:10;stroke-width:0.65px"/><polygon points="2.44 221.013 -11.04 231.549 4.299 251.847 22.117 238.057 2.44 221.013" style="fill:#f4d79d;stroke:#a8731e;stroke-miterlimit:10;stroke-width:0.65px"/><polygon points="302.645 7.834 308.834 17.691 320.294 11.273 313.189 1.187 302.645 7.834" style="fill:#f4d79d;stroke:#a8731e;stroke-miterlimit:10;stroke-width:0.65px"/><polygon points="54.382 29.85 63.224 32.108 65.294 26.652 70.938 28.157 75.265 17.058 59.086 13.859 54.382 29.85" style="fill:#f4d79d;stroke:#a8731e;stroke-miterlimit:10;stroke-width:0.65px"/><polygon points="102.929 51.454 104.891 61.543 123.387 58.74 121.986 52.855 129.833 51.454 128.152 38.002 111.897 41.085 113.018 49.772 102.929 51.454" style="fill:#f4d79d;stroke:#a8731e;stroke-miterlimit:10;stroke-width:0.65px"/><polygon points="21.936 22.984 21.936 38.002 33.427 38.002 33.427 24.27 21.936 22.984" style="fill:#f4d79d;stroke:#a8731e;stroke-miterlimit:10;stroke-width:0.65px"/><polygon points="175.234 22.984 177.476 28.754 182.52 25.869 179.998 20.346 175.234 22.984" style="fill:#f4d79d;stroke:#a8731e;stroke-miterlimit:10;stroke-width:0.65px"/><g style="opacity:0.2;mix-blend-mode:multiply"><path d="M-10.57554,269.81989c-26.03009-7.43718-94.26812,45.46034-117.97408,76.83881-23.70578,31.37837-4.73938,44.63523-77.87159,81.82105,0,0-19.91963,7.1354-46.21458,16.61674.29183,39.18187.81467,63.4277,1.662,63.4277,4.42823,0,52.76346-40.28637,60.08265-42.23815s63.433-45.37906,67.58045-47.81879,33.66827-17.566,35.62005-19.51784,1.70786-7.31918-.24392-9.271-15.37035-19.02989-17.07811-21.71354-3.41562-5.12348-1.70786-7.31919,81.97491-64.40885,84.41464-66.36063,10.24686-4.39152,12.44266-3.90357,24.64132,13.66248,26.5931,13.90641,12.44257,0,15.12632-1.70777,13.90641-11.7107,15.61427-14.63837S51.618,275.743,51.618,270.86358s-4.14749-12.93052-5.61133-17.322C54.24706,286.84436,15.45464,277.25707-10.57554,269.81989Z" style="fill:#dd9f33"/><path d="M475.32033-1.63721S418.302-80.96709,403.42763-76.009s-18.593,35.9464-29.74873,73.13231S224.93526,86.36946,182.7912,106.202s-38.42543,37.18591-38.42543,61.97649c0,14.64985-12.38616,24.91918-24.36411,29.60252a18.5637,18.5637,0,0,0,1.69294,9.39126c6.88661-3.0886,22.753-9.91869,25.38265-11.23346,3.13326-1.56663,9.39977-9.39977,9.39977-12.533s3.13326-26.63268,3.13326-34.46582,0-15.66629,17.23291-25.06606S313.13986,59.64212,353.8722,39.276C392.076,20.17406,452.32874,1.07322,476.46623,5.2383Z" style="fill:#dd9f33"/><path d="M246.25342,312.80589c-6.0638,4.97278-14.61859,9.55467-26.68948,12.37975-38.8386,9.08986-52.88662,4.95805-59.49746-9.91631-6.12127-13.77283-44.07309-91.11966-58.83042-115.53005a7.05074,7.05074,0,0,1-1.27757-.66637c-8.93831-6.15378-27.72714,9.72822-43.59939,1.33331S27.85,188.011,15.45464,191.72953c-5.63179,1.6895-1.5301,7.74029,5.38481,16.95169,4.46151-2.60295,13.1404-5.89015,15.16428-5.15417,2.68375.97589,9.515,10.49088,11.22276,12.19865s7.07526.732,10.00294-.24393,28.05684-12.93061,30.25264-13.17454,11.7107,2.19571,14.63838,8.05106,20.2497,37.57183,27.325,52.94218,18.29792,41.47539,29.03283,67.0926c1.61119,3.845,7.56311,7.80713,11.31512,7.80713s54.80149-9.75892,65.04836-11.7107,13.66248-8.5391,12.68659-10.97883C247.38632,315.15564,246.92734,314.188,246.25342,312.80589Z" style="fill:#dd9f33"/></g><circle cx="211.59308" cy="277.64449" r="9.52889" style="fill:#fff"/><path d="M211.59358,287.68294a10.03851,10.03851,0,1,1,10.03774-10.03775A10.04992,10.04992,0,0,1,211.59358,287.68294Zm0-19.0581a9.01959,9.01959,0,1,0,9.01882,9.02035A9.03069,9.03069,0,0,0,211.59358,268.62484Z" style="fill:#333"/><path d="M211.74657,272.341a6.69533,6.69533,0,0,1,1.712.18971,3.24242,3.24242,0,0,1,1.16732.54312,2.11119,2.11119,0,0,1,.66551.85369,2.84929,2.84929,0,0,1,.21266,1.12755,2.22482,2.22482,0,0,1-.10556.68693,1.97321,1.97321,0,0,1-.32893.61349,2.42909,2.42909,0,0,1-.563.51864,3.45689,3.45689,0,0,1-.81544.39472q2.10208.47274,2.10209,2.27038a2.88512,2.88512,0,0,1-.24784,1.19792,2.63315,2.63315,0,0,1-.71906.94855,3.45617,3.45617,0,0,1-1.16273.6242,5.09516,5.09516,0,0,1-1.57887.2249h-3.84925V272.341Zm-1.61559,1.46566v2.94661h1.51a2.529,2.529,0,0,0,1.46871-.35188,1.279,1.279,0,0,0,.49722-1.12143,1.32834,1.32834,0,0,0-.45132-1.13519,2.362,2.362,0,0,0-1.40905-.33811Zm1.91851,7.24718a2.65634,2.65634,0,0,0,.88735-.127,1.53263,1.53263,0,0,0,.57525-.33811,1.23831,1.23831,0,0,0,.31057-.49263,1.88671,1.88671,0,0,0,.09485-.59972,1.59265,1.59265,0,0,0-.10556-.59514,1.09638,1.09638,0,0,0-.332-.45132,1.53232,1.53232,0,0,0-.58137-.2861,3.244,3.244,0,0,0-.85675-.09791H210.131v2.98791Z"/><circle cx="230.65086" cy="323.59318" r="9.52889" style="fill:#fff"/><path d="M230.65015,333.63227A10.03851,10.03851,0,1,1,240.68942,323.593,10.04993,10.04993,0,0,1,230.65015,333.63227Zm0-19.05809a9.01959,9.01959,0,1,0,9.02035,9.01882A9.02808,9.02808,0,0,0,230.65015,314.57418Z" style="fill:#333"/><path d="M230.80467,318.29033a6.69494,6.69494,0,0,1,1.712.18971,3.24225,3.24225,0,0,1,1.16732.54312,2.11113,2.11113,0,0,1,.66551.85369,2.84924,2.84924,0,0,1,.21266,1.12754,2.22448,2.22448,0,0,1-.10557.68693,1.9729,1.9729,0,0,1-.32893.61349,2.429,2.429,0,0,1-.563.51864,3.45659,3.45659,0,0,1-.81545.39472q2.1021.47274,2.1021,2.27039a2.88516,2.88516,0,0,1-.24785,1.19792,2.633,2.633,0,0,1-.71905.94854,3.45624,3.45624,0,0,1-1.16274.62421,5.09515,5.09515,0,0,1-1.57886.22489h-3.84926V318.29033Zm-1.61559,1.46565v2.94661h1.51a2.529,2.529,0,0,0,1.46872-.35188,1.27893,1.27893,0,0,0,.49722-1.12142,1.32834,1.32834,0,0,0-.45133-1.1352,2.362,2.362,0,0,0-1.409-.33811Zm1.91851,7.24719a2.65659,2.65659,0,0,0,.88735-.127,1.5328,1.5328,0,0,0,.57524-.33811,1.23834,1.23834,0,0,0,.31057-.49263,1.88673,1.88673,0,0,0,.09486-.59973,1.59285,1.59285,0,0,0-.10556-.59514,1.09645,1.09645,0,0,0-.332-.45132,1.53239,1.53239,0,0,0-.58137-.28609,3.24357,3.24357,0,0,0-.85675-.09792h-1.91086v2.98792Z"/><circle cx="32.75057" cy="374.39507" r="9.52889" style="fill:#fff"/><path d="M32.75106,384.434a10.03851,10.03851,0,1,1,10.03775-10.03927A10.05123,10.05123,0,0,1,32.75106,384.434Zm0-19.0581a9.01959,9.01959,0,1,0,9.01883,9.01883A9.02988,9.02988,0,0,0,32.75106,365.37593Z" style="fill:#333"/><path d="M32.90405,369.09132a6.69528,6.69528,0,0,1,1.712.18971,3.2423,3.2423,0,0,1,1.16733.54312,2.11119,2.11119,0,0,1,.66551.85369,2.84927,2.84927,0,0,1,.21266,1.12754,2.22443,2.22443,0,0,1-.10557.68693,1.97294,1.97294,0,0,1-.32893.6135,2.42889,2.42889,0,0,1-.563.51864,3.45631,3.45631,0,0,1-.81544.39471q2.1021.47276,2.1021,2.27039a2.88513,2.88513,0,0,1-.24785,1.19792,2.633,2.633,0,0,1-.71906.94855,3.45607,3.45607,0,0,1-1.16273.6242,5.09516,5.09516,0,0,1-1.57887.2249H29.39291v-10.1938ZM31.28847,370.557v2.9466h1.51a2.52894,2.52894,0,0,0,1.46871-.35188,1.2789,1.2789,0,0,0,.49723-1.12142,1.32833,1.32833,0,0,0-.45133-1.13519,2.36193,2.36193,0,0,0-1.40905-.33811Zm1.91851,7.24718a2.65634,2.65634,0,0,0,.88735-.127,1.53266,1.53266,0,0,0,.57524-.33811,1.2382,1.2382,0,0,0,.31057-.49263,1.88673,1.88673,0,0,0,.09486-.59973,1.59264,1.59264,0,0,0-.10557-.59513,1.09639,1.09639,0,0,0-.332-.45133,1.53248,1.53248,0,0,0-.58136-.28609,3.244,3.244,0,0,0-.85675-.09791H31.28847v2.98791Z"/><path d="M68.40981,367.3717a8.21965,8.21965,0,0,1,2.09445.23255,3.9794,3.9794,0,0,1,1.42588.664,2.56289,2.56289,0,0,1,.81391,1.0434,3.49031,3.49031,0,0,1,.25855,1.37692,2.74145,2.74145,0,0,1-.12851.84145,2.45621,2.45621,0,0,1-.40084.74966,3.00564,3.00564,0,0,1-.69.63338,4.20615,4.20615,0,0,1-.99445.48192q2.568.576,2.56719,2.77373a3.524,3.524,0,0,1-.30139,1.46565,3.22526,3.22526,0,0,1-.87817,1.15815,4.185,4.185,0,0,1-1.42281.76342,6.21413,6.21413,0,0,1-1.92922.27538H64.11994V367.3717Zm-1.972,1.79306v3.60141H68.2813a3.09318,3.09318,0,0,0,1.79611-.43144,1.56158,1.56158,0,0,0,.60738-1.36927,1.62341,1.62341,0,0,0-.55077-1.38763,2.88753,2.88753,0,0,0-1.72421-.41307Zm2.34382,8.85665a3.30994,3.30994,0,0,0,1.08471-.15452,1.88161,1.88161,0,0,0,.70223-.41308,1.51209,1.51209,0,0,0,.37941-.60431,2.25383,2.25383,0,0,0,.11628-.7313,1.95486,1.95486,0,0,0-.12852-.72824,1.38418,1.38418,0,0,0-.40542-.55229,1.91015,1.91015,0,0,0-.71141-.34882,3.98244,3.98244,0,0,0-1.04646-.12087H66.43776v3.65343Z"/><path d="M76.64685,375.67759a4.19086,4.19086,0,0,0,.24173,1.1765,2.37371,2.37371,0,0,0,.50028.8185,1.95883,1.95883,0,0,0,.73588.48345,2.69155,2.69155,0,0,0,.944.15911,2.91151,2.91151,0,0,0,.89194-.12086,4.23867,4.23867,0,0,0,.6548-.26773c.18665-.09639.35035-.18665.4911-.26621a.81662.81662,0,0,1,.40849-.12086.43907.43907,0,0,1,.39624.19736l.612.77566a3.50478,3.50478,0,0,1-.7925.69458,4.46975,4.46975,0,0,1-.91794.44826,5.01211,5.01211,0,0,1-.973.23561,6.978,6.978,0,0,1-.96078.06885,4.73522,4.73522,0,0,1-1.715-.30446,3.85478,3.85478,0,0,1-1.37845-.9057,4.26619,4.26619,0,0,1-.92253-1.48249,5.73949,5.73949,0,0,1-.33506-2.04549,4.91359,4.91359,0,0,1,.29222-1.70126,4.09865,4.09865,0,0,1,.83992-1.38763,3.97247,3.97247,0,0,1,1.33561-.93477,4.40519,4.40519,0,0,1,1.77929-.34576,4.33591,4.33591,0,0,1,1.54215.26773,3.35169,3.35169,0,0,1,1.21628.78026,3.5929,3.5929,0,0,1,.79555,1.25758,4.68264,4.68264,0,0,1,.28915,1.70126,1.39168,1.39168,0,0,1-.1025.65175.42921.42921,0,0,1-.39625.16676Zm4.05885-1.2836a2.53693,2.53693,0,0,0-.11627-.77872,1.86524,1.86524,0,0,0-.34882-.64256,1.62282,1.62282,0,0,0-.59054-.4345,2.01451,2.01451,0,0,0-.83228-.16064,1.97373,1.97373,0,0,0-1.45188.52629,2.58847,2.58847,0,0,0-.67622,1.49013Z"/><path d="M89.60672,372.71415a.57757.57757,0,0,1-.18206.1943.469.469,0,0,1-.24019.05508.74859.74859,0,0,1-.332-.08568c-.11781-.05814-.254-.12239-.41-.1943a3.57724,3.57724,0,0,0-.52935-.19277,2.50909,2.50909,0,0,0-.70223-.0872,1.612,1.612,0,0,0-.98679.26773.82958.82958,0,0,0-.358.69764.66765.66765,0,0,0,.18665.47886,1.65372,1.65372,0,0,0,.4911.33964,4.80017,4.80017,0,0,0,.693.26315q.38784.117.78791.254.4016.1377.78943.31517a2.7601,2.7601,0,0,1,.693.44673,2.09816,2.09816,0,0,1,.4911.65174,2.056,2.056,0,0,1,.18512.91336,2.98527,2.98527,0,0,1-.228,1.175,2.55513,2.55513,0,0,1-.67622.93171,3.18121,3.18121,0,0,1-1.10765.61044,4.79677,4.79677,0,0,1-1.52073.22031,4.909,4.909,0,0,1-.89194-.08109,5.24218,5.24218,0,0,1-.83533-.22949,4.58958,4.58958,0,0,1-.742-.34423,3.54936,3.54936,0,0,1-.59819-.43143l.4911-.80932a.67659.67659,0,0,1,.22336-.22337.62871.62871,0,0,1,.3274-.078.68318.68318,0,0,1,.37483.11169c.11781.075.2555.156.41.24172a3.65181,3.65181,0,0,0,.54771.24173,2.43648,2.43648,0,0,0,.79708.11168,2.0911,2.0911,0,0,0,.65021-.09026,1.39468,1.39468,0,0,0,.44827-.23714.89284.89284,0,0,0,.25855-.34117,1.031,1.031,0,0,0,.08109-.40083.7138.7138,0,0,0-.18512-.50793,1.64573,1.64573,0,0,0-.4911-.34423,4.733,4.733,0,0,0-.69764-.26315q-.39243-.117-.80168-.254a7.371,7.371,0,0,1-.80167-.32282,2.72481,2.72481,0,0,1-.69764-.46968,2.14179,2.14179,0,0,1-.4911-.69764,2.43438,2.43438,0,0,1-.18512-1.00056,2.54742,2.54742,0,0,1,.21572-1.03422,2.43383,2.43383,0,0,1,.63338-.85675,3.16559,3.16559,0,0,1,1.04187-.58595,4.335,4.335,0,0,1,1.44424-.22031,4.39483,4.39483,0,0,1,1.66148.30292,3.74684,3.74684,0,0,1,1.24994.7925Z"/><path d="M98.1375,371.86964a1.2776,1.2776,0,0,1-.078.43908,1.01752,1.01752,0,0,1-.20654.35341l-4.19654,5.53216h4.35106v1.637h-6.8234v-.88734a1.10844,1.10844,0,0,1,.06885-.34882,1.358,1.358,0,0,1,.20654-.384l4.23938-5.59182H91.43344v-1.62783H98.1375Z"/><path d="M99.49913,372.22305a5.24694,5.24694,0,0,1,3.67025-1.39528,3.58412,3.58412,0,0,1,1.38763.254,2.90825,2.90825,0,0,1,1.03422.70681,2.99965,2.99965,0,0,1,.641,1.08012,4.1479,4.1479,0,0,1,.22031,1.37845v5.58417h-.96537a.98309.98309,0,0,1-.4651-.09026.62971.62971,0,0,1-.25855-.36565l-.18971-.638a7.53858,7.53858,0,0,1-.6548.52935,3.81222,3.81222,0,0,1-.664.384,3.63257,3.63257,0,0,1-.73589.23714,4.32764,4.32764,0,0,1-.86593.08109,3.434,3.434,0,0,1-1.03422-.14993,2.29309,2.29309,0,0,1-.8185-.45286,2.03336,2.03336,0,0,1-.53394-.74965,2.65156,2.65156,0,0,1-.18971-1.0434,2.0689,2.0689,0,0,1,.11168-.667,1.941,1.941,0,0,1,.36718-.63339,3.07287,3.07287,0,0,1,.65786-.56912,4.37854,4.37854,0,0,1,.996-.4651,8.56,8.56,0,0,1,1.37385-.32281,14.04662,14.04662,0,0,1,1.79306-.15146v-.51711a1.93226,1.93226,0,0,0-.37942-1.31266,1.3867,1.3867,0,0,0-1.09388-.42685,2.57963,2.57963,0,0,0-.85828.12087,3.40386,3.40386,0,0,0-.5982.27079c-.17288.101-.32893.19124-.46968.27079a.922.922,0,0,1-.46968.12087.61177.61177,0,0,1-.37942-.11628.94966.94966,0,0,1-.24938-.27079Zm4.87735,3.834a11.982,11.982,0,0,0-1.55133.15912,4.13949,4.13949,0,0,0-1.00821.29833,1.32866,1.32866,0,0,0-.54312.42225,1.044,1.044,0,0,0,.16829,1.32644,1.43679,1.43679,0,0,0,.86593.24172,2.53789,2.53789,0,0,0,1.13366-.23713,3.37135,3.37135,0,0,0,.93478-.71906Zm1.57581-8.823-2.12811,2.249a.82342.82342,0,0,1-.70682.30139H101.843l1.22393-2.09368a1.00226,1.00226,0,0,1,.30139-.34041.93049.93049,0,0,1,.51711-.11627Z"/><path d="M110.60475,367.02747v12.80382h-2.12811V367.02747Z"/><path d="M114.887,367.02747v12.80382h-2.12811V367.02747Z"/><path d="M116.80853,372.22305a5.247,5.247,0,0,1,3.67026-1.39528,3.58412,3.58412,0,0,1,1.38763.254,2.90842,2.90842,0,0,1,1.03422.70681,2.99965,2.99965,0,0,1,.641,1.08012,4.1479,4.1479,0,0,1,.22031,1.37845v5.58417h-.96538a.983.983,0,0,1-.46509-.09026.62971.62971,0,0,1-.25855-.36565l-.18971-.638a7.53858,7.53858,0,0,1-.6548.52935,3.81193,3.81193,0,0,1-.664.384,3.63228,3.63228,0,0,1-.73588.23714,4.32764,4.32764,0,0,1-.86593.08109,3.434,3.434,0,0,1-1.03422-.14993,2.29309,2.29309,0,0,1-.8185-.45286,2.03336,2.03336,0,0,1-.53394-.74965,2.65138,2.65138,0,0,1-.18971-1.0434,2.0689,2.0689,0,0,1,.11168-.667,1.941,1.941,0,0,1,.36718-.63339,3.07287,3.07287,0,0,1,.65786-.56912,4.37866,4.37866,0,0,1,.996-.4651,8.56019,8.56019,0,0,1,1.37386-.32281,14.04662,14.04662,0,0,1,1.79306-.15146v-.51711a1.93226,1.93226,0,0,0-.37942-1.31266,1.38671,1.38671,0,0,0-1.09389-.42685,2.57967,2.57967,0,0,0-.85828.12087,3.40408,3.40408,0,0,0-.59819.27079c-.17288.101-.32893.19124-.46968.27079a.922.922,0,0,1-.46969.12087.61174.61174,0,0,1-.37941-.11628.94966.94966,0,0,1-.24938-.27079Zm4.87736,3.834a11.98156,11.98156,0,0,0-1.55133.15912,4.13921,4.13921,0,0,0-1.00821.29833,1.32859,1.32859,0,0,0-.54312.42225,1.044,1.044,0,0,0,.16829,1.32644,1.43679,1.43679,0,0,0,.86593.24172,2.53792,2.53792,0,0,0,1.13366-.23713,3.37149,3.37149,0,0,0,.93478-.71906Zm1.57581-8.823-2.12811,2.249a.82342.82342,0,0,1-.70682.30139h-1.27441l1.22392-2.09368a1.00228,1.00228,0,0,1,.3014-.34041.93049.93049,0,0,1,.51711-.11627Z"/><path d="M131.15451,372.71415a.57777.57777,0,0,1-.18206.1943.46909.46909,0,0,1-.2402.05508.74863.74863,0,0,1-.332-.08568c-.1178-.05814-.254-.12239-.41-.1943a3.57724,3.57724,0,0,0-.52935-.19277,2.509,2.509,0,0,0-.70222-.0872,1.612,1.612,0,0,0-.9868.26773.82958.82958,0,0,0-.358.69764.66765.66765,0,0,0,.18665.47886,1.654,1.654,0,0,0,.4911.33964,4.80017,4.80017,0,0,0,.693.26315q.38784.117.78791.254.4016.1377.78943.31517a2.75992,2.75992,0,0,1,.693.44673,2.09816,2.09816,0,0,1,.4911.65174,2.056,2.056,0,0,1,.18512.91336,2.98509,2.98509,0,0,1-.228,1.175,2.55513,2.55513,0,0,1-.67622.93171,3.18121,3.18121,0,0,1-1.10765.61044,4.79677,4.79677,0,0,1-1.52073.22031,4.90907,4.90907,0,0,1-.89194-.08109,5.24218,5.24218,0,0,1-.83533-.22949,4.58958,4.58958,0,0,1-.742-.34423,3.54977,3.54977,0,0,1-.59819-.43143l.4911-.80932a.67652.67652,0,0,1,.22337-.22337.62866.62866,0,0,1,.3274-.078.68317.68317,0,0,1,.37482.11169c.11781.075.2555.156.41.24172a3.65181,3.65181,0,0,0,.54771.24173,2.43652,2.43652,0,0,0,.79708.11168,2.0911,2.0911,0,0,0,.65021-.09026,1.39468,1.39468,0,0,0,.44827-.23714.89274.89274,0,0,0,.25855-.34117,1.031,1.031,0,0,0,.08109-.40083.7138.7138,0,0,0-.18512-.50793,1.64548,1.64548,0,0,0-.4911-.34423,4.733,4.733,0,0,0-.69764-.26315q-.39243-.117-.80168-.254a7.37182,7.37182,0,0,1-.80167-.32282,2.72481,2.72481,0,0,1-.69764-.46968,2.14179,2.14179,0,0,1-.4911-.69764,2.43438,2.43438,0,0,1-.18512-1.00056,2.54742,2.54742,0,0,1,.21572-1.03422,2.43383,2.43383,0,0,1,.63338-.85675,3.16579,3.16579,0,0,1,1.04187-.58595,4.335,4.335,0,0,1,1.44424-.22031,4.39483,4.39483,0,0,1,1.66148.30292,3.74674,3.74674,0,0,1,1.24994.7925Z"/><path d="M135.833,368.41434a1.21221,1.21221,0,0,1-.11168.51787,1.46342,1.46342,0,0,1-.2968.42226,1.42314,1.42314,0,0,1-.436.28762,1.32633,1.32633,0,0,1-.53394.10709,1.2768,1.2768,0,0,1-.52017-.10709,1.38028,1.38028,0,0,1-.42684-.28762,1.43946,1.43946,0,0,1-.28916-.42226,1.25589,1.25589,0,0,1-.10709-.51787,1.33178,1.33178,0,0,1,.10709-.53394,1.35777,1.35777,0,0,1,.28916-.43067,1.38446,1.38446,0,0,1,.42684-.28916,1.27758,1.27758,0,0,1,.52017-.10785,1.327,1.327,0,0,1,.53394.10785,1.42728,1.42728,0,0,1,.436.28916,1.37766,1.37766,0,0,1,.2968.43067A1.285,1.285,0,0,1,135.833,368.41434Zm-.29221,2.57713v8.83982h-2.13729v-8.83982Z"/><path d="M143.34,372.22228a4.64195,4.64195,0,0,1,1.23157-.99138,3.31869,3.31869,0,0,1,1.62018-.37789,2.88743,2.88743,0,0,1,1.32337.3014,2.97485,2.97485,0,0,1,1.03422.87358,4.21329,4.21329,0,0,1,.67163,1.41363,7.12841,7.12841,0,0,1,.23714,1.92616,6.06756,6.06756,0,0,1-.26774,1.83436,4.48909,4.48909,0,0,1-.76189,1.46566,3.52772,3.52772,0,0,1-1.19792.96843,3.48813,3.48813,0,0,1-1.57275.34882,3.15616,3.15616,0,0,1-1.26676-.228,3.064,3.064,0,0,1-.93937-.63338v3.61977h-2.12811V371.01671h1.302a.52078.52078,0,0,1,.54159.38707Zm.11168,5.34245a2.09128,2.09128,0,0,0,.78943.61962,2.33451,2.33451,0,0,0,.9256.18205,2.03316,2.03316,0,0,0,.87052-.18205,1.70653,1.70653,0,0,0,.65939-.55077,2.73353,2.73353,0,0,0,.41767-.93478,5.32867,5.32867,0,0,0,.14687-1.331,5.95115,5.95115,0,0,0-.12546-1.31419,2.54261,2.54261,0,0,0-.358-.87511,1.41464,1.41464,0,0,0-.56454-.4911,1.77174,1.77174,0,0,0-.75425-.15452,2.144,2.144,0,0,0-1.12754.28,3.4287,3.4287,0,0,0-.8797.7879Z"/><path d="M155.024,370.87749a4.82072,4.82072,0,0,1,1.78847.31975,3.92843,3.92843,0,0,1,1.37845.90418,3.99293,3.99293,0,0,1,.88276,1.43047,5.9167,5.9167,0,0,1,0,3.78347,4.06606,4.06606,0,0,1-.88276,1.43811,3.86745,3.86745,0,0,1-1.37845.91336,4.82042,4.82042,0,0,1-1.78847.31822,4.87449,4.87449,0,0,1-1.8007-.31822,3.859,3.859,0,0,1-1.383-.91336,4.09767,4.09767,0,0,1-.88735-1.43811,5.83509,5.83509,0,0,1,0-3.78347,4.02366,4.02366,0,0,1,.88735-1.43047,3.91968,3.91968,0,0,1,1.383-.90418A4.87472,4.87472,0,0,1,155.024,370.87749Zm0,7.47056a1.86987,1.86987,0,0,0,1.63242-.74048,3.7139,3.7139,0,0,0,.53088-2.17094,3.75916,3.75916,0,0,0-.53088-2.18013,1.86108,1.86108,0,0,0-1.63242-.74965,1.89772,1.89772,0,0,0-1.65842.75424,3.70733,3.70733,0,0,0-.53853,2.17554,3.666,3.666,0,0,0,.53853,2.16635A1.90682,1.90682,0,0,0,155.024,378.34805Z"/><path d="M163.00245,372.10142a5.791,5.791,0,0,1,.56453-.49569,3.62181,3.62181,0,0,1,.6288-.38707,3.46107,3.46107,0,0,1,.71141-.24937,3.50331,3.50331,0,0,1,.82615-.0918,3.17755,3.17755,0,0,1,1.28512.24632,2.53633,2.53633,0,0,1,.93478.69,3.0204,3.0204,0,0,1,.56759,1.0587,4.48127,4.48127,0,0,1,.1943,1.357v5.627H166.587v-5.627a1.90368,1.90368,0,0,0-.37024-1.253,1.39134,1.39134,0,0,0-1.12907-.44367,2.21471,2.21471,0,0,0-1.03422.24937,3.71517,3.71517,0,0,0-.91336.68081v6.3935H161.012v-8.83983h1.302a.52078.52078,0,0,1,.54159.38707Z"/><path d="M173.5573,379.99423a2.323,2.323,0,0,1-1.77011-.65021,2.5053,2.5053,0,0,1-.61655-1.79612v-4.93855h-.90418a.41665.41665,0,0,1-.29374-.11168.43729.43729,0,0,1-.12086-.33505v-.84451l1.42281-.23255.44827-2.41267a.46376.46376,0,0,1,.1637-.26773.48655.48655,0,0,1,.309-.09486h1.10307v2.78291h2.36065v1.51614h-2.36065V377.401a.94439.94439,0,0,0,.20347.64562.69384.69384,0,0,0,.55536.23255.99631.99631,0,0,0,.332-.04743,1.80571,1.80571,0,0,0,.23255-.09791c.06578-.03519.12392-.06732.17594-.09945a.29374.29374,0,0,1,.156-.04742.23888.23888,0,0,1,.15452.04742.71542.71542,0,0,1,.12851.14229l.638,1.03422a3.222,3.222,0,0,1-1.06788.586A3.99384,3.99384,0,0,1,173.5573,379.99423Z"/><path d="M180.86415,370.87749a4.82072,4.82072,0,0,1,1.78847.31975,3.92843,3.92843,0,0,1,1.37845.90418,3.99293,3.99293,0,0,1,.88276,1.43047,5.9167,5.9167,0,0,1,0,3.78347,4.06606,4.06606,0,0,1-.88276,1.43811,3.86745,3.86745,0,0,1-1.37845.91336,4.82042,4.82042,0,0,1-1.78847.31822,4.87449,4.87449,0,0,1-1.8007-.31822,3.859,3.859,0,0,1-1.383-.91336,4.09767,4.09767,0,0,1-.88735-1.43811,5.83509,5.83509,0,0,1,0-3.78347,4.02366,4.02366,0,0,1,.88735-1.43047,3.91968,3.91968,0,0,1,1.383-.90418A4.87472,4.87472,0,0,1,180.86415,370.87749Zm0,7.47056a1.86987,1.86987,0,0,0,1.63242-.74048,3.7139,3.7139,0,0,0,.53088-2.17094,3.75916,3.75916,0,0,0-.53088-2.18013,1.86108,1.86108,0,0,0-1.63242-.74965,1.89772,1.89772,0,0,0-1.65842.75424,3.70733,3.70733,0,0,0-.53853,2.17554,3.666,3.666,0,0,0,.53853,2.16635A1.90682,1.90682,0,0,0,180.86415,378.34805Z"/><path d="M188.98033,367.05272v7.33286h.39625a.83753.83753,0,0,0,.34117-.05661.69383.69383,0,0,0,.254-.228l2.19695-2.71406a1.00834,1.00834,0,0,1,.306-.27538.8667.8667,0,0,1,.4345-.09486h1.94758l-2.74772,3.28166a2.29419,2.29419,0,0,1-.638.59514,1.6741,1.6741,0,0,1,.32281.30139,4.0461,4.0461,0,0,1,.2708.37024l2.94814,4.2914H193.0912a1.03366,1.03366,0,0,1-.43144-.08262.65458.65458,0,0,1-.30139-.2968l-2.25815-3.352a.644.644,0,0,0-.24937-.25856.96446.96446,0,0,0-.38707-.05967h-.48345v4.04968h-2.12811V367.05272Z"/><rect x="47.15381" y="373.77051" width="12.39551" height="1.25"/><path d="M148.29123,229.05064v10.1938h-1.67066V232.6597c0-.26314.01454-.5477.04284-.85216l-3.08124,5.78765a.71222.71222,0,0,1-.66934.41614h-.2685a.71222.71222,0,0,1-.66933-.41614l-3.11643-5.80907c.01453.15453.026.30752.036.45745.00918.15146.01377.28915.01377.41613v6.58474h-1.67066v-10.1938h1.43123c.08415,0,.15682.00153.218.00612a.67035.67035,0,0,1,.166.03519.38837.38837,0,0,1,.13387.0918.80733.80733,0,0,1,.11627.16982l3.05294,5.66067c.07955.15146.15375.306.22183.46509.06808.16064.13464.32434.20119.49416q.09867-.26161.20424-.50487t.22566-.46815l3.0101-5.6469a.71132.71132,0,0,1,.1201-.16982.42258.42258,0,0,1,.13693-.0918.67027.67027,0,0,1,.166-.03519c.0612-.00459.13387-.00612.21878-.00612Z"/><path d="M160.28344,234.14678a5.70192,5.70192,0,0,1-.37024,2.07609,4.86789,4.86789,0,0,1-1.04722,1.65383,4.7682,4.7682,0,0,1-1.62859,1.08929,5.88635,5.88635,0,0,1-4.22256,0,4.81389,4.81389,0,0,1-1.63241-1.08929,4.87069,4.87069,0,0,1-1.05334-1.65383,5.94819,5.94819,0,0,1,0-4.15218,4.87908,4.87908,0,0,1,1.05334-1.65231,4.79178,4.79178,0,0,1,1.63241-1.08929,5.47856,5.47856,0,0,1,2.10822-.39166,5.67544,5.67544,0,0,1,1.45877.18053,5.15914,5.15914,0,0,1,1.25529.5064,4.6863,4.6863,0,0,1,1.02581.79708,4.8836,4.8836,0,0,1,.77184,1.04646,5.14265,5.14265,0,0,1,.48268,1.25606A5.98115,5.98115,0,0,1,160.28344,234.14678Zm-1.93916,0a4.66418,4.66418,0,0,0-.22567-1.50391,3.22059,3.22059,0,0,0-.641-1.13213,2.73736,2.73736,0,0,0-1.012-.71141,3.762,3.762,0,0,0-2.68576,0,2.76115,2.76115,0,0,0-1.0151.71141,3.181,3.181,0,0,0-.64485,1.13213,5.12908,5.12908,0,0,0,0,3.00934,3.15391,3.15391,0,0,0,.64485,1.12907,2.8086,2.8086,0,0,0,1.0151.70835,3.7837,3.7837,0,0,0,2.68576,0,2.784,2.784,0,0,0,1.012-.70835,3.193,3.193,0,0,0,.641-1.12907A4.66718,4.66718,0,0,0,158.34428,234.14678Zm-.24632-8.02132-2.28416,2.01489a.604.604,0,0,1-.26849.156,1.56715,1.56715,0,0,1-.32358.02754h-1.26218l1.47331-1.91086a.858.858,0,0,1,.14075-.15758.46491.46491,0,0,1,.15528-.08874.77011.77011,0,0,1,.18665-.03519c.06808-.00458.14917-.00611.24326-.00611Z"/><path d="M167.92534,237.67934v1.5651H161.9541v-10.1938h1.89632v8.6287Z"/><path d="M178.64084,234.14678a5.67014,5.67014,0,0,1-.37024,2.07609,4.8546,4.8546,0,0,1-1.04646,1.65383,4.77966,4.77966,0,0,1-1.62783,1.08929,5.89044,5.89044,0,0,1-4.22408,0,4.80734,4.80734,0,0,1-1.63088-1.08929,4.87237,4.87237,0,0,1-1.05411-1.65383,5.95969,5.95969,0,0,1,0-4.15218,4.88077,4.88077,0,0,1,1.05411-1.65231,4.78527,4.78527,0,0,1,1.63088-1.08929,5.48129,5.48129,0,0,1,2.10822-.39166,5.67709,5.67709,0,0,1,1.45953.18053,5.12885,5.12885,0,0,1,1.25453.5064,4.65455,4.65455,0,0,1,1.02657.79708,4.85421,4.85421,0,0,1,.77107,1.04646,5.08278,5.08278,0,0,1,.48345,1.25606A5.98131,5.98131,0,0,1,178.64084,234.14678Zm-1.9384,0a4.68592,4.68592,0,0,0-.2249-1.50391,3.22348,3.22348,0,0,0-.64256-1.13213,2.7221,2.7221,0,0,0-1.01127-.71141,3.76407,3.76407,0,0,0-2.68652,0,2.771,2.771,0,0,0-1.01434.71141,3.20548,3.20548,0,0,0-.64562,1.13213,5.14609,5.14609,0,0,0,0,3.00934,3.17809,3.17809,0,0,0,.64562,1.12907,2.81885,2.81885,0,0,0,1.01434.70835,3.78577,3.78577,0,0,0,2.68652,0,2.76827,2.76827,0,0,0,1.01127-.70835,3.1958,3.1958,0,0,0,.64256-1.12907A4.68892,4.68892,0,0,0,176.70244,234.14678Zm-.24632-8.02132-2.28415,2.01489a.61024.61024,0,0,1-.26774.156,1.58026,1.58026,0,0,1-.32434.02754h-1.26218l1.47331-1.91086a.858.858,0,0,1,.14075-.15758.46815.46815,0,0,1,.156-.08874.74935.74935,0,0,1,.18665-.03519c.06732-.00458.1484-.00611.24326-.00611Z"/></g></g></svg>