<svg xmlns="http://www.w3.org/2000/svg" xmlns:xlink="http://www.w3.org/1999/xlink" viewBox="0 0 342.8022 400"><defs><clipPath id="a"><rect y="427.25275" width="342.8022" height="400" style="fill:none"/></clipPath><clipPath id="b"><rect width="342.8022" height="400" style="fill:none"/></clipPath></defs><title>departures-map_en</title><g style="isolation:isolate"><g style="clip-path:url(#a)"><rect x="-143.53232" y="337.28185" width="626.65137" height="626.65137" style="fill:#b5e5e1"/><path d="M530.90122,425.79635c-20.36617,10.9664-29.76594,15.66629-50.13211,7.83315s-86.16457,12.533-126.89691,32.89919-159.7961,75.19817-177.029,84.59794-17.23291,17.23291-17.23291,25.06605-3.13326,31.33257-3.13326,34.46583-6.26651,10.9664-9.39977,12.533-25.066,10.9664-28.19931,12.533-1.56663,9.39978,4.69988,20.36617,27.09324,48.125,30.50886,54.71226,12.93057,3.90357,18.78592,2.92768,45.379-10.49084,48.55063-10.49084,6.09932-.48795,7.80713,2.92767,17.32209,34.15622,18.298,36.596-2.43973,9.027-12.6866,10.97879-61.29637,11.7107-65.04838,11.7107-9.7039-3.96207-11.31517-7.80713c-10.73481-25.61717-21.95757-51.72228-29.03278-67.09258s-24.3973-47.08679-27.325-52.94214S89.67781,629.316,87.48205,629.56s-27.325,12.19865-30.25265,13.17454-8.29508,1.95179-10.0029.244-8.53905-11.22276-11.22275-12.19865-17.07811,5.12343-17.81,7.31919.244,13.66248,3.90357,18.78592S44.5428,676.4028,46.00664,680.79431,51.618,693.23693,51.618,698.11639s-2.43973,14.15044-4.14754,17.07811-12.93057,12.93057-15.61427,14.63838-13.17455,1.95179-15.12633,1.70781-24.3973-13.41851-26.59306-13.90646S-19.86607,719.586-22.3058,721.5378s-82.70685,64.1649-84.41466,66.36066,0,4.63549,1.70781,7.31919,15.12633,19.76181,17.07811,21.7136,2.19576,7.31919.244,9.271-31.47252,17.07811-35.62006,19.51784-60.26133,45.86692-67.58052,47.81871-55.65442,42.23814-60.08262,42.23814,0-661.57359,0-661.57359h781.875Z" style="fill:#e3c552;stroke:#a8731e;stroke-miterlimit:10"/><path d="M246.36539,377.99124a3.91612,3.91612,0,0,0-5.396-1.24994c-.46815.29221-47.21457,29.47373-79.5171,51.15027-19.02138,12.764-35.178,19.96074-50.803,26.91954-10.82717,4.823-21.05462,9.37835-31.40753,15.44751a214.12463,214.12463,0,0,0-40.10058,30.6683C26.20389,477.884,16.32478,459.34729,11.61992,449.29c9.08194-.46891,30.06628-2.27937,43.46228-9.19055,16.74028-8.63788,52.70465-32.58557,54.22768-33.60066l-2.607-3.91045c-.34968.23283-33.13356,22.06255-50.72562,31.70577L34.88891,406.085l-2.50906,1.87567L53.1831,435.78839c-.08319.04322-.17364.09208-.25578.13444-13.63791,7.03577-36.73459,8.4825-43.71155,8.76371l-71.48613-48.11377-3.4989,5.19863,70.45161,47.418c.97083,2.20556,2.22354,4.842,3.67074,7.76631C-2.14,463.02367-42.69946,486.55264-88.32875,513.96529L-158.5484,390.80806l-2.72171,1.55133,70.2555,123.22015c-46.97045,28.25267-98.72876,60.293-128.3003,81.47041l1.82365,2.54731c58.72-42.05141,205.24314-127.10689,227.24852-139.83374,8.483,16.79412,22.125,41.10545,28.58772,52.511,12.27447,21.66047,15.5959,37.9655,9.60477,47.15108-3.11107,4.771-22.50269,17.15642-41.25556,29.13409-16.05642,10.25575-34.2547,21.87925-48.47446,32.45322C-73.68732,644.7388-182.9084,732.58473-184.0084,733.469l3.92881,4.88348c1.07935-.8689,106.4572-85.62451,140.30379-111.01452,3.65142,7.17776,12.58486,23.40447,19.38292,24.804a5.56685,5.56685,0,0,0,1.126.104c9.40207,0,36.37592-17.67659,39.54437-19.7741a1.567,1.567,0,1,0-1.73033-2.61308c-12.07023,7.993-33.14169,20.27437-38.3082,19.21414-4.63563-.95428-12.64375-14.06647-17.463-23.63224C-23.30057,615.158-5.59635,603.84563,10.06764,593.841c16.13157-10.30328,28.17856-18.07685,35.55952-23.79288,3.50522,6.35457,19.68,33.0257,43.64271,31.76448,0,0,14.92456,34.14253,15.53786,35.7781s3.47567,2.24888,3.47567,2.24888S149.786,721.41361,151.21709,723.867s2.04444-1.22671,1.2267-2.45341-42.72935-82.80067-42.72935-82.80067a10.80883,10.80883,0,0,0-.81773-6.13341c-1.43114-2.65784-16.3557-34.96027-16.56014-35.77811s-11.04012,1.43114-15.7424-1.43113S56.7629,583.41243,50.42505,566.239c0,0,2.09-2.34172,2.77383-3.39019,7.45908-11.43684,4.296-29.49208-9.4013-53.66314-.22433-.396-.43928-.77825-.66217-1.172a207.06285,207.06285,0,0,1,40.06731-30.99742c9.97731-5.84885,20.01123-10.31772,30.63416-15.049,15.9279-7.095,32.39815-14.43089,51.98024-27.572,32.19238-21.60234,78.83171-50.71654,79.29833-51.008A3.91652,3.91652,0,0,0,246.36539,377.99124Z" style="fill:#efcb92;stroke:#a8731e;stroke-miterlimit:10;stroke-width:0.65px"/><g style="opacity:0.2;mix-blend-mode:multiply"><path d="M475.32033,425.61554s-57.01833-79.32988-71.8927-74.37182-18.593,35.94639-29.74873,73.1323S224.93526,513.62221,182.7912,533.45473s-38.42543,37.18591-38.42543,61.97648c0,14.64985-12.38616,24.91919-24.36411,29.60253a18.5637,18.5637,0,0,0,1.69294,9.39126c6.88661-3.0886,22.753-9.9187,25.38265-11.23346,3.13326-1.56663,9.39977-9.39977,9.39977-12.533s3.13326-26.63268,3.13326-34.46583,0-15.66628,17.23291-25.06605,136.29667-64.23177,177.029-84.59794c38.20378-19.10189,98.45654-38.20272,122.594-34.03764Z" style="fill:#dd9f33"/></g></g><g style="clip-path:url(#b)"><rect x="-143.53232" y="-89.9709" width="626.65137" height="626.65137" style="fill:#b5e5e1"/><path d="M530.90122-1.45639C510.53505,9.51,501.13528,14.20989,480.76911,6.37675S394.60454,18.90978,353.8722,39.276s-159.7961,75.19816-177.029,84.59793-17.23291,17.23291-17.23291,25.06606-3.13326,31.33257-3.13326,34.46582-6.26651,10.9664-9.39977,12.533-25.066,10.9664-28.19931,12.533-1.56663,9.39977,4.69988,20.36617,27.09324,48.125,30.50886,54.71225,12.93057,3.90357,18.78592,2.92768,45.379-10.49084,48.55063-10.49084,6.09932-.488,7.80713,2.92768,17.32209,34.15622,18.298,36.596-2.43973,9.027-12.6866,10.97878-61.29637,11.7107-65.04838,11.7107-9.7039-3.96207-11.31517-7.80713c-10.73481-25.61717-21.95757-51.72228-29.03278-67.09258s-24.3973-47.08679-27.325-52.94214-12.44262-8.29508-14.63838-8.05111-27.325,12.19865-30.25265,13.17455-8.29508,1.95178-10.0029.244S38.68745,204.503,36.00375,203.5271s-17.07811,5.12343-17.81,7.31919.244,13.66249,3.90357,18.78592,22.44551,19.51784,23.90935,23.90935S51.618,265.98419,51.618,270.86365s-2.43973,14.15043-4.14754,17.07811-12.93057,12.93057-15.61427,14.63838-13.17455,1.95178-15.12633,1.70781-24.3973-13.41852-26.59306-13.90646-10.00289,1.95178-12.44262,3.90356-82.70685,64.1649-84.41466,66.36066,0,4.63549,1.70781,7.31919,15.12633,19.76181,17.07811,21.7136,2.19576,7.31919.244,9.271-31.47252,17.07811-35.62006,19.51784-60.26133,45.86693-67.58052,47.81871-55.65442,42.23815-60.08262,42.23815,0-661.5736,0-661.5736h781.875Z" style="fill:#e3c552;stroke:#a8731e;stroke-miterlimit:10"/><path d="M246.36539-49.26151a3.91612,3.91612,0,0,0-5.396-1.24994c-.46815.29222-47.21457,29.47373-79.5171,51.15027-19.02138,12.764-35.178,19.96074-50.803,26.91954-10.82717,4.823-21.05462,9.37835-31.40753,15.44751A214.12463,214.12463,0,0,0,39.1412,73.67417C26.20389,50.63123,16.32478,32.09455,11.61992,22.0373c9.08194-.46892,30.06628-2.27938,43.46228-9.19056,16.74028-8.63787,52.70465-32.58556,54.22768-33.60066l-2.607-3.91045c-.34968.23283-33.13356,22.06255-50.72562,31.70577L34.88891-21.16776l-2.50906,1.87567L53.1831,8.53564c-.08319.04322-.17364.09209-.25578.13445C39.28941,15.70586,16.19273,17.15258,9.21577,17.4338L-62.27036-30.68l-3.4989,5.19864L4.68235,21.93671c.97083,2.20555,2.22354,4.842,3.67074,7.7663C-2.14,35.77092-42.69946,59.29989-88.32875,86.71255L-158.5484-36.44468l-2.72171,1.55133,70.2555,123.22014c-46.97045,28.25267-98.72876,60.293-128.3003,81.47042l1.82365,2.5473C-158.77128,130.2931-12.24812,45.23763,9.75726,32.51078c8.483,16.79411,22.125,41.10544,28.58772,52.511,12.27447,21.66048,15.5959,37.9655,9.60477,47.15108-3.11107,4.771-22.50269,17.15642-41.25556,29.13409-16.05642,10.25575-34.2547,21.87925-48.47446,32.45323C-73.68732,217.48605-182.9084,305.332-184.0084,306.21627l3.92881,4.88348c1.07935-.86889,106.4572-85.62451,140.30379-111.01452,3.65142,7.17777,12.58486,23.40448,19.38292,24.80406a5.5676,5.5676,0,0,0,1.126.104c9.40207,0,36.37592-17.67659,39.54437-19.77409a1.567,1.567,0,0,0-1.73033-2.61309c-12.07023,7.993-33.14169,20.27437-38.3082,19.21415-4.63563-.95428-12.64375-14.06648-17.463-23.63224,13.92343-10.28282,31.62765-21.59517,47.29164-31.59983,16.13157-10.30328,28.17856-18.07685,35.55952-23.79288,3.50522,6.35458,19.68,33.0257,43.64271,31.76448,0,0,14.92456,34.14254,15.53786,35.77811s3.47567,2.24887,3.47567,2.24887,41.50256,81.57407,42.93369,84.02747,2.04444-1.2267,1.2267-2.4534-42.72935-82.80068-42.72935-82.80068a10.80883,10.80883,0,0,0-.81773-6.13341c-1.43114-2.65784-16.3557-34.96027-16.56014-35.77811s-11.04012,1.43114-15.7424-1.43113-19.83127-11.85786-26.16912-29.0313c0,0,2.09-2.34172,2.77383-3.39018,7.45908-11.43685,4.296-29.49209-9.4013-53.66315-.22433-.396-.43928-.77824-.66217-1.172A207.06274,207.06274,0,0,1,83.20272,49.76348c9.97731-5.84884,20.01123-10.31771,30.63416-15.049,15.9279-7.095,32.39815-14.43088,51.98024-27.572,32.19238-21.60234,78.83171-50.71654,79.29833-51.008A3.91653,3.91653,0,0,0,246.36539-49.26151Z" style="fill:#efcb92;stroke:#a8731e;stroke-miterlimit:10;stroke-width:0.65px"/><polygon points="168.382 300.808 179.537 298.794 182.481 312.274 169.793 314.443 168.382 300.808" style="fill:#f4d79d;stroke:#a8731e;stroke-miterlimit:10;stroke-width:0.65px"/><polygon points="192.088 303.442 193.947 313.204 210.681 310.105 208.047 299.879 192.088 303.442" style="fill:#f4d79d;stroke:#a8731e;stroke-miterlimit:10;stroke-width:0.65px"/><polygon points="2.44 221.013 -11.04 231.549 4.299 251.847 22.117 238.057 2.44 221.013" style="fill:#f4d79d;stroke:#a8731e;stroke-miterlimit:10;stroke-width:0.65px"/><polygon points="302.645 7.834 308.834 17.691 320.294 11.273 313.189 1.187 302.645 7.834" style="fill:#f4d79d;stroke:#a8731e;stroke-miterlimit:10;stroke-width:0.65px"/><polygon points="54.382 29.85 63.224 32.108 65.294 26.652 70.938 28.157 75.265 17.058 59.086 13.859 54.382 29.85" style="fill:#f4d79d;stroke:#a8731e;stroke-miterlimit:10;stroke-width:0.65px"/><polygon points="102.929 51.454 104.891 61.543 123.387 58.74 121.986 52.855 129.833 51.454 128.152 38.002 111.897 41.085 113.018 49.772 102.929 51.454" style="fill:#f4d79d;stroke:#a8731e;stroke-miterlimit:10;stroke-width:0.65px"/><polygon points="21.936 22.984 21.936 38.002 33.427 38.002 33.427 24.27 21.936 22.984" style="fill:#f4d79d;stroke:#a8731e;stroke-miterlimit:10;stroke-width:0.65px"/><polygon points="175.234 22.984 177.476 28.754 182.52 25.869 179.998 20.346 175.234 22.984" style="fill:#f4d79d;stroke:#a8731e;stroke-miterlimit:10;stroke-width:0.65px"/><g style="opacity:0.2;mix-blend-mode:multiply"><path d="M-10.57554,269.81989c-26.03009-7.43718-94.26812,45.46034-117.97408,76.83881-23.70578,31.37837-4.73938,44.63523-77.87159,81.82105,0,0-19.91963,7.1354-46.21458,16.61674.29183,39.18187.81467,63.4277,1.662,63.4277,4.42823,0,52.76346-40.28637,60.08265-42.23815s63.433-45.37906,67.58045-47.81879,33.66827-17.566,35.62005-19.51784,1.70786-7.31918-.24392-9.271-15.37035-19.02989-17.07811-21.71354-3.41562-5.12348-1.70786-7.31919,81.97491-64.40885,84.41464-66.36063,10.24686-4.39152,12.44266-3.90357,24.64132,13.66248,26.5931,13.90641,12.44257,0,15.12632-1.70777,13.90641-11.7107,15.61427-14.63837S51.618,275.743,51.618,270.86358s-4.14749-12.93052-5.61133-17.322C54.24706,286.84436,15.45464,277.25707-10.57554,269.81989Z" style="fill:#dd9f33"/><path d="M475.32033-1.63721S418.302-80.96709,403.42763-76.009s-18.593,35.9464-29.74873,73.13231S224.93526,86.36946,182.7912,106.202s-38.42543,37.18591-38.42543,61.97649c0,14.64985-12.38616,24.91918-24.36411,29.60252a18.5637,18.5637,0,0,0,1.69294,9.39126c6.88661-3.0886,22.753-9.91869,25.38265-11.23346,3.13326-1.56663,9.39977-9.39977,9.39977-12.533s3.13326-26.63268,3.13326-34.46582,0-15.66629,17.23291-25.06606S313.13986,59.64212,353.8722,39.276C392.076,20.17406,452.32874,1.07322,476.46623,5.2383Z" style="fill:#dd9f33"/><path d="M246.25342,312.80589c-6.0638,4.97278-14.61859,9.55467-26.68948,12.37975-38.8386,9.08986-52.88662,4.95805-59.49746-9.91631-6.12127-13.77283-44.07309-91.11966-58.83042-115.53005a7.05074,7.05074,0,0,1-1.27757-.66637c-8.93831-6.15378-27.72714,9.72822-43.59939,1.33331S27.85,188.011,15.45464,191.72953c-5.63179,1.6895-1.5301,7.74029,5.38481,16.95169,4.46151-2.60295,13.1404-5.89015,15.16428-5.15417,2.68375.97589,9.515,10.49088,11.22276,12.19865s7.07526.732,10.00294-.24393,28.05684-12.93061,30.25264-13.17454,11.7107,2.19571,14.63838,8.05106,20.2497,37.57183,27.325,52.94218,18.29792,41.47539,29.03283,67.0926c1.61119,3.845,7.56311,7.80713,11.31512,7.80713s54.80149-9.75892,65.04836-11.7107,13.66248-8.5391,12.68659-10.97883C247.38632,315.15564,246.92734,314.188,246.25342,312.80589Z" style="fill:#dd9f33"/></g><circle cx="211.59308" cy="277.64449" r="9.52889" style="fill:#fff"/><path d="M211.59358,287.68294a10.03851,10.03851,0,1,1,10.03774-10.03775A10.04992,10.04992,0,0,1,211.59358,287.68294Zm0-19.0581a9.01959,9.01959,0,1,0,9.01882,9.02035A9.03069,9.03069,0,0,0,211.59358,268.62484Z" style="fill:#333"/><path d="M211.74657,272.341a6.69533,6.69533,0,0,1,1.712.18971,3.24242,3.24242,0,0,1,1.16732.54312,2.11119,2.11119,0,0,1,.66551.85369,2.84929,2.84929,0,0,1,.21266,1.12755,2.22482,2.22482,0,0,1-.10556.68693,1.97321,1.97321,0,0,1-.32893.61349,2.42909,2.42909,0,0,1-.563.51864,3.45689,3.45689,0,0,1-.81544.39472q2.10208.47274,2.10209,2.27038a2.88512,2.88512,0,0,1-.24784,1.19792,2.63315,2.63315,0,0,1-.71906.94855,3.45617,3.45617,0,0,1-1.16273.6242,5.09516,5.09516,0,0,1-1.57887.2249h-3.84925V272.341Zm-1.61559,1.46566v2.94661h1.51a2.529,2.529,0,0,0,1.46871-.35188,1.279,1.279,0,0,0,.49722-1.12143,1.32834,1.32834,0,0,0-.45132-1.13519,2.362,2.362,0,0,0-1.40905-.33811Zm1.91851,7.24718a2.65634,2.65634,0,0,0,.88735-.127,1.53263,1.53263,0,0,0,.57525-.33811,1.23831,1.23831,0,0,0,.31057-.49263,1.88671,1.88671,0,0,0,.09485-.59972,1.59265,1.59265,0,0,0-.10556-.59514,1.09638,1.09638,0,0,0-.332-.45132,1.53232,1.53232,0,0,0-.58137-.2861,3.244,3.244,0,0,0-.85675-.09791H210.131v2.98791Z"/><circle cx="230.65086" cy="323.59318" r="9.52889" style="fill:#fff"/><path d="M230.65015,333.63227A10.03851,10.03851,0,1,1,240.68942,323.593,10.04993,10.04993,0,0,1,230.65015,333.63227Zm0-19.05809a9.01959,9.01959,0,1,0,9.02035,9.01882A9.02808,9.02808,0,0,0,230.65015,314.57418Z" style="fill:#333"/><path d="M230.80467,318.29033a6.69494,6.69494,0,0,1,1.712.18971,3.24225,3.24225,0,0,1,1.16732.54312,2.11113,2.11113,0,0,1,.66551.85369,2.84924,2.84924,0,0,1,.21266,1.12754,2.22448,2.22448,0,0,1-.10557.68693,1.9729,1.9729,0,0,1-.32893.61349,2.429,2.429,0,0,1-.563.51864,3.45659,3.45659,0,0,1-.81545.39472q2.1021.47274,2.1021,2.27039a2.88516,2.88516,0,0,1-.24785,1.19792,2.633,2.633,0,0,1-.71905.94854,3.45624,3.45624,0,0,1-1.16274.62421,5.09515,5.09515,0,0,1-1.57886.22489h-3.84926V318.29033Zm-1.61559,1.46565v2.94661h1.51a2.529,2.529,0,0,0,1.46872-.35188,1.27893,1.27893,0,0,0,.49722-1.12142,1.32834,1.32834,0,0,0-.45133-1.1352,2.362,2.362,0,0,0-1.409-.33811Zm1.91851,7.24719a2.65659,2.65659,0,0,0,.88735-.127,1.5328,1.5328,0,0,0,.57524-.33811,1.23834,1.23834,0,0,0,.31057-.49263,1.88673,1.88673,0,0,0,.09486-.59973,1.59285,1.59285,0,0,0-.10556-.59514,1.09645,1.09645,0,0,0-.332-.45132,1.53239,1.53239,0,0,0-.58137-.28609,3.24357,3.24357,0,0,0-.85675-.09792h-1.91086v2.98792Z"/><circle cx="32.75057" cy="374.39507" r="9.52889" style="fill:#fff"/><path d="M32.75106,384.434a10.03851,10.03851,0,1,1,10.03775-10.03927A10.05123,10.05123,0,0,1,32.75106,384.434Zm0-19.0581a9.01959,9.01959,0,1,0,9.01883,9.01883A9.02988,9.02988,0,0,0,32.75106,365.37593Z" style="fill:#333"/><path d="M32.90405,369.09132a6.69528,6.69528,0,0,1,1.712.18971,3.2423,3.2423,0,0,1,1.16733.54312,2.11119,2.11119,0,0,1,.66551.85369,2.84927,2.84927,0,0,1,.21266,1.12754,2.22443,2.22443,0,0,1-.10557.68693,1.97294,1.97294,0,0,1-.32893.6135,2.42889,2.42889,0,0,1-.563.51864,3.45631,3.45631,0,0,1-.81544.39471q2.1021.47276,2.1021,2.27039a2.88513,2.88513,0,0,1-.24785,1.19792,2.633,2.633,0,0,1-.71906.94855,3.45607,3.45607,0,0,1-1.16273.6242,5.09516,5.09516,0,0,1-1.57887.2249H29.39291v-10.1938ZM31.28847,370.557v2.9466h1.51a2.52894,2.52894,0,0,0,1.46871-.35188,1.2789,1.2789,0,0,0,.49723-1.12142,1.32833,1.32833,0,0,0-.45133-1.13519,2.36193,2.36193,0,0,0-1.40905-.33811Zm1.91851,7.24718a2.65634,2.65634,0,0,0,.88735-.127,1.53266,1.53266,0,0,0,.57524-.33811,1.2382,1.2382,0,0,0,.31057-.49263,1.88673,1.88673,0,0,0,.09486-.59973,1.59264,1.59264,0,0,0-.10557-.59513,1.09639,1.09639,0,0,0-.332-.45133,1.53248,1.53248,0,0,0-.58136-.28609,3.244,3.244,0,0,0-.85675-.09791H31.28847v2.98791Z"/><rect x="47.15381" y="373.77051" width="12.39551" height="1.25"/><path d="M69.501,367.68243a7.76659,7.76659,0,0,1,1.98388.22022,3.77857,3.77857,0,0,1,1.35157.62891,2.44038,2.44038,0,0,1,.77148.98779A3.3331,3.3331,0,0,1,73.853,370.826a2.57724,2.57724,0,0,1-.12256.7959,2.29769,2.29769,0,0,1-.37988.71045,2.83574,2.83574,0,0,1-.65332.60009,3.94958,3.94958,0,0,1-.94288.45752q2.4331.54713,2.43311,2.62891a3.35328,3.35328,0,0,1-.28564,1.38818,3.06334,3.06334,0,0,1-.833,1.09815,3.97789,3.97789,0,0,1-1.34717.72265,5.88367,5.88367,0,0,1-1.8291.26124h-4.458V367.68243Zm-1.87012,1.69825v3.41308h1.74756a2.94043,2.94043,0,0,0,1.70263-.4082,1.48217,1.48217,0,0,0,.5752-1.29834,1.53852,1.53852,0,0,0-.52246-1.31445,2.73184,2.73184,0,0,0-1.63281-.39209Zm2.22119,8.39355a3.115,3.115,0,0,0,1.02881-.147,1.78016,1.78016,0,0,0,.66553-.3916,1.43476,1.43476,0,0,0,.35888-.57178,2.1498,2.1498,0,0,0,.11036-.69385,1.83643,1.83643,0,0,0-.12256-.68994,1.2905,1.2905,0,0,0-.38379-.52246,1.79583,1.79583,0,0,0-.67334-.33105,3.7528,3.7528,0,0,0-.99219-.11426H67.63086v3.46191Z"/><path d="M79.4624,370.98126a4.5738,4.5738,0,0,1,1.69434.30176,3.715,3.715,0,0,1,1.30615.85742,3.76787,3.76787,0,0,1,.83691,1.35547,5.61064,5.61064,0,0,1,0,3.58447,3.85011,3.85011,0,0,1-.83691,1.36377,3.65451,3.65451,0,0,1-1.30615.86524,4.57383,4.57383,0,0,1-1.69434.30224,4.62827,4.62827,0,0,1-1.70654-.30224,3.64659,3.64659,0,0,1-1.31055-.86524,3.90075,3.90075,0,0,1-.84082-1.36377,5.53244,5.53244,0,0,1,0-3.58447,3.81674,3.81674,0,0,1,.84082-1.35547,3.70666,3.70666,0,0,1,1.31055-.85742A4.62826,4.62826,0,0,1,79.4624,370.98126Zm0,7.0791a1.775,1.775,0,0,0,1.54737-.70214,3.52416,3.52416,0,0,0,.50195-2.05762,3.56368,3.56368,0,0,0-.50195-2.06592,1.76629,1.76629,0,0,0-1.54737-.71045,1.80131,1.80131,0,0,0-1.57177.71436,3.5204,3.5204,0,0,0-.51026,2.062,3.47874,3.47874,0,0,0,.51026,2.05322A1.80829,1.80829,0,0,0,79.4624,378.06036Z"/><path d="M84.94092,372.27911a4.97168,4.97168,0,0,1,3.478-1.32226,3.39957,3.39957,0,0,1,1.31494.24072,2.7797,2.7797,0,0,1,.97949.66944,2.86428,2.86428,0,0,1,.6084,1.0249,3.9398,3.9398,0,0,1,.208,1.30615v5.291h-.91407a.92235.92235,0,0,1-.44092-.08594.59146.59146,0,0,1-.24511-.34668L89.75,378.452a7.32809,7.32809,0,0,1-.62061.50244,3.68341,3.68341,0,0,1-.62841.36328,3.37573,3.37573,0,0,1-.69825.22461,4.02384,4.02384,0,0,1-.8208.07763,3.21483,3.21483,0,0,1-.97949-.14306,2.15153,2.15153,0,0,1-.77588-.42871,1.92133,1.92133,0,0,1-.50635-.71045,2.52059,2.52059,0,0,1-.17968-.98779,1.96537,1.96537,0,0,1,.10644-.63282,1.84811,1.84811,0,0,1,.34668-.60009,2.90122,2.90122,0,0,1,.625-.53907,4.07856,4.07856,0,0,1,.94287-.44092,8.198,8.198,0,0,1,1.30225-.30615,13.1151,13.1151,0,0,1,1.69824-.14306v-.48975a1.83512,1.83512,0,0,0-.35888-1.24512,1.31523,1.31523,0,0,0-1.03711-.40429,2.4627,2.4627,0,0,0-.8125.11425,3.37935,3.37935,0,0,0-.56739.25733q-.24536.14281-.44482.25732a.88284.88284,0,0,1-.44531.11426.58073.58073,0,0,1-.35938-.11035.91928.91928,0,0,1-.23633-.25684ZM89.562,375.9129a11.19111,11.19111,0,0,0-1.46972.15088,3.93034,3.93034,0,0,0-.95508.28174,1.25576,1.25576,0,0,0-.51465.3999.99145.99145,0,0,0,.15967,1.25782,1.36208,1.36208,0,0,0,.82031.22851,2.39141,2.39141,0,0,0,1.07373-.22461,3.193,3.193,0,0,0,.88574-.68164Z"/><path d="M95.32666,372.56525a3.61416,3.61416,0,0,1,.93115-1.18018,1.98362,1.98362,0,0,1,1.27344-.42822,1.55771,1.55771,0,0,1,.93115.25293L98.33154,372.72a.39475.39475,0,0,1-.11816.2085.33084.33084,0,0,1-.2085.061,2.356,2.356,0,0,1-.36328-.04052,2.79809,2.79809,0,0,0-.46972-.041,1.684,1.684,0,0,0-.59571.09815,1.50334,1.50334,0,0,0-.46972.28173,1.9054,1.9054,0,0,0-.36719.44483,4.3445,4.3445,0,0,0-.29834.59619v5.16016h-2.0166v-8.37745H94.6084a.48752.48752,0,0,1,.5957.50635Z"/><path d="M106.56982,367.35577v12.13331h-1.23291a.47438.47438,0,0,1-.50586-.36719l-.17187-.8086a4.21931,4.21931,0,0,1-1.16309.939,3.14676,3.14676,0,0,1-1.53125.35937,2.77261,2.77261,0,0,1-1.25732-.28564,2.805,2.805,0,0,1-.98389-.8291,3.96558,3.96558,0,0,1-.63672-1.34278,6.77863,6.77863,0,0,1-.22461-1.8291,5.71819,5.71819,0,0,1,.25293-1.731,4.22049,4.22049,0,0,1,.72657-1.38819,3.38845,3.38845,0,0,1,1.13525-.91845,3.27256,3.27256,0,0,1,1.48584-.33057,2.95359,2.95359,0,0,1,1.2002.22021,3.07448,3.07448,0,0,1,.89013.5962v-4.41749Zm-2.0166,5.895a1.99028,1.99028,0,0,0-.74707-.58789,2.20384,2.20384,0,0,0-.86963-.17138,1.929,1.929,0,0,0-.8247.17138,1.66751,1.66751,0,0,0-.62842.51856,2.49688,2.49688,0,0,0-.40039.88183,5.07879,5.07879,0,0,0-.13867,1.26172,5.62174,5.62174,0,0,0,.11816,1.24512,2.45818,2.45818,0,0,0,.33887.833,1.29189,1.29189,0,0,0,.53906.46533,1.71776,1.71776,0,0,0,.71045.14258,2.06121,2.06121,0,0,0,1.06933-.26123,3.17479,3.17479,0,0,0,.833-.74268Z"/><path d="M110.92969,368.67023a1.14926,1.14926,0,0,1-.106.49023,1.33266,1.33266,0,0,1-.69385.67334,1.26126,1.26126,0,0,1-.50634.10205,1.21192,1.21192,0,0,1-.49415-.10205,1.30424,1.30424,0,0,1-.67773-.67334,1.1916,1.1916,0,0,1-.10205-.49023,1.26558,1.26558,0,0,1,.10205-.50586,1.2977,1.2977,0,0,1,.27393-.40869,1.31654,1.31654,0,0,1,.4038-.27344,1.22,1.22,0,0,1,.49415-.102,1.26964,1.26964,0,0,1,.50634.102,1.3554,1.3554,0,0,1,.41211.27344,1.31814,1.31814,0,0,1,.28174.40869A1.22019,1.22019,0,0,1,110.92969,368.67023Zm-.27735,2.4414v8.37745h-2.0249v-8.37745Z"/><path d="M114.59619,372.14044a5.46519,5.46519,0,0,1,.53467-.46924,3.39728,3.39728,0,0,1,.59619-.36767,3.27863,3.27863,0,0,1,1.45752-.32227,3.00768,3.00768,0,0,1,1.21631.23242,2.40635,2.40635,0,0,1,.88623.65333,2.87172,2.87172,0,0,1,.53857,1.00439,4.26525,4.26525,0,0,1,.18409,1.28613v5.33155h-2.01709v-5.33155a1.80645,1.80645,0,0,0-.35108-1.18847,1.31424,1.31424,0,0,0-1.06933-.42041,2.10133,2.10133,0,0,0-.98.23681,3.52515,3.52515,0,0,0-.86573.645v6.0586H112.71v-8.37745h1.23291a.49613.49613,0,0,1,.51465.36768Z"/><path d="M129.26855,371.39777v.751q0,.35963-.43261.44092l-.75147.13867a2.55149,2.55149,0,0,1,.17139.94727,2.45648,2.45648,0,0,1-.939,1.97607,3.23355,3.23355,0,0,1-1.041.543,4.22564,4.22564,0,0,1-1.29395.1919,4.36734,4.36734,0,0,1-.47363-.02491q-.22851-.02416-.44922-.06494-.39184.23658-.3916.53076a.39007.39007,0,0,0,.23242.3711,1.90861,1.90861,0,0,0,.6167.16748,8.69237,8.69237,0,0,0,.87354.06152q.49.01171,1.00439.05274a8.1,8.1,0,0,1,1.0044.14306,2.96185,2.96185,0,0,1,.87353.32276,1.70768,1.70768,0,0,1,.61621.60009,1.84054,1.84054,0,0,1,.23291.97559,2.2982,2.2982,0,0,1-.27344,1.07764,2.90414,2.90414,0,0,1-.792.93066,4.13712,4.13712,0,0,1-1.27392.65772,5.48029,5.48029,0,0,1-1.71875.249,6.5602,6.5602,0,0,1-1.64942-.18408,3.91248,3.91248,0,0,1-1.16748-.48975,2.11418,2.11418,0,0,1-.69385-.70605,1.65366,1.65366,0,0,1-.229-.833,1.41927,1.41927,0,0,1,.35547-.98389,2.45666,2.45666,0,0,1,.97559-.63281,1.408,1.408,0,0,1-.53077-.457,1.30627,1.30627,0,0,1-.1958-.75147,1.17684,1.17684,0,0,1,.06934-.38769,1.66152,1.66152,0,0,1,.2041-.396,1.94474,1.94474,0,0,1,.33887-.37158,2.32126,2.32126,0,0,1,.48193-.31445,2.63863,2.63863,0,0,1-1.00049-.91455,2.44134,2.44134,0,0,1-.36328-1.33887,2.49119,2.49119,0,0,1,.249-1.12256,2.51727,2.51727,0,0,1,.69385-.85742,3.16313,3.16313,0,0,1,1.05371-.543,4.48343,4.48343,0,0,1,1.32666-.188,4.43879,4.43879,0,0,1,1.01221.11035,3.43607,3.43607,0,0,1,.86572.32276Zm-2.00878,8.46679a.5566.5566,0,0,0-.147-.3999.96344.96344,0,0,0-.3999-.24072,2.94031,2.94031,0,0,0-.5918-.127q-.3391-.04029-.71875-.061-.37939-.02051-.78369-.03662-.4043-.01684-.78808-.06543a1.8798,1.8798,0,0,0-.543.44092.898.898,0,0,0-.208.58789.81546.81546,0,0,0,.10986.41211.9236.9236,0,0,0,.35108.33105,2.09693,2.09693,0,0,0,.625.21631,5.62333,5.62333,0,0,0,1.91064-.0083,2.33866,2.33866,0,0,0,.67334-.23682,1.01518,1.01518,0,0,0,.3877-.35937A.87322.87322,0,0,0,127.25977,379.86456Zm-2.27784-4.76806a1.90034,1.90034,0,0,0,.65332-.10205,1.28692,1.28692,0,0,0,.46094-.28174,1.15777,1.15777,0,0,0,.27783-.43311,1.58466,1.58466,0,0,0,.09375-.55517,1.31183,1.31183,0,0,0-.37158-.98389,1.89122,1.89122,0,0,0-2.229,0,1.3137,1.3137,0,0,0-.37158.98389,1.55329,1.55329,0,0,0,.09423.54736,1.19783,1.19783,0,0,0,.27735.43652,1.25387,1.25387,0,0,0,.46533.28614A1.90663,1.90663,0,0,0,124.98193,375.0965Z"/><path d="M136.4209,372.2547a4.37446,4.37446,0,0,1,1.16748-.939,3.13958,3.13958,0,0,1,1.53516-.35889,2.74885,2.74885,0,0,1,1.25341.28564,2.81142,2.81142,0,0,1,.9795.82862,3.98541,3.98541,0,0,1,.6372,1.33886,6.75025,6.75025,0,0,1,.22461,1.8252,5.73449,5.73449,0,0,1-.25342,1.73926,4.2477,4.2477,0,0,1-.72265,1.38769,3.34245,3.34245,0,0,1-1.13477.91895,3.30659,3.30659,0,0,1-1.49023.33056,3.006,3.006,0,0,1-1.2002-.2163,2.94347,2.94347,0,0,1-.89013-.6001v3.4292h-2.01661v-11.1128h1.23291a.49613.49613,0,0,1,.51465.36768Zm.106,5.0625a1.99282,1.99282,0,0,0,.74707.58789,2.2255,2.2255,0,0,0,.87793.17139,1.92885,1.92885,0,0,0,.8247-.17139,1.61461,1.61461,0,0,0,.62451-.52246,2.57879,2.57879,0,0,0,.396-.88623,5.04765,5.04765,0,0,0,.13916-1.26123,5.58956,5.58956,0,0,0-.11865-1.24512,2.41084,2.41084,0,0,0-.33887-.8291,1.34283,1.34283,0,0,0-.53467-.46533,1.67223,1.67223,0,0,0-.71435-.147,2.03941,2.03941,0,0,0-1.06983.26562,3.24893,3.24893,0,0,0-.833.74707Z"/><path d="M147.49268,370.98126a4.57379,4.57379,0,0,1,1.69433.30176,3.71486,3.71486,0,0,1,1.30615.85742,3.76789,3.76789,0,0,1,.83692,1.35547,5.61082,5.61082,0,0,1,0,3.58447,3.85013,3.85013,0,0,1-.83692,1.36377,3.65442,3.65442,0,0,1-1.30615.86524,4.57382,4.57382,0,0,1-1.69433.30224,4.62829,4.62829,0,0,1-1.70655-.30224,3.64646,3.64646,0,0,1-1.31054-.86524,3.90061,3.90061,0,0,1-.84082-1.36377,5.53244,5.53244,0,0,1,0-3.58447,3.8166,3.8166,0,0,1,.84082-1.35547,3.70653,3.70653,0,0,1,1.31054-.85742A4.62828,4.62828,0,0,1,147.49268,370.98126Zm0,7.0791a1.775,1.775,0,0,0,1.54736-.70214,3.52416,3.52416,0,0,0,.50195-2.05762,3.56368,3.56368,0,0,0-.50195-2.06592,1.76627,1.76627,0,0,0-1.54736-.71045,1.80133,1.80133,0,0,0-1.57178.71436,3.52047,3.52047,0,0,0-.51026,2.062,3.47881,3.47881,0,0,0,.51026,2.05322A1.80831,1.80831,0,0,0,147.49268,378.06036Z"/><path d="M155.53467,368.67023a1.14926,1.14926,0,0,1-.106.49023,1.33266,1.33266,0,0,1-.69385.67334,1.26126,1.26126,0,0,1-.50634.10205,1.21184,1.21184,0,0,1-.49414-.10205,1.30422,1.30422,0,0,1-.67774-.67334,1.1916,1.1916,0,0,1-.102-.49023,1.26558,1.26558,0,0,1,.102-.50586,1.2977,1.2977,0,0,1,.27393-.40869,1.31646,1.31646,0,0,1,.40381-.27344,1.21993,1.21993,0,0,1,.49414-.102,1.26964,1.26964,0,0,1,.50634.102,1.35528,1.35528,0,0,1,.41211.27344,1.31814,1.31814,0,0,1,.28174.40869A1.22019,1.22019,0,0,1,155.53467,368.67023Zm-.27735,2.4414v8.37745h-2.0249v-8.37745Z"/><path d="M159.20117,372.14044a5.46519,5.46519,0,0,1,.53467-.46924,3.39728,3.39728,0,0,1,.59619-.36767,3.27863,3.27863,0,0,1,1.45752-.32227,3.00768,3.00768,0,0,1,1.21631.23242,2.40635,2.40635,0,0,1,.88623.65333,2.87172,2.87172,0,0,1,.53857,1.00439,4.26525,4.26525,0,0,1,.18409,1.28613v5.33155h-2.01709v-5.33155a1.80645,1.80645,0,0,0-.35108-1.18847,1.31423,1.31423,0,0,0-1.06933-.42041,2.10133,2.10133,0,0,0-.98.23681,3.52515,3.52515,0,0,0-.86573.645v6.0586h-2.0166v-8.37745h1.23291a.49613.49613,0,0,1,.51465.36768Z"/><path d="M169.20361,379.61993a2.19971,2.19971,0,0,1-1.67773-.61669,2.3744,2.3744,0,0,1-.584-1.70215v-4.67871h-.85742a.39254.39254,0,0,1-.27734-.10645.41131.41131,0,0,1-.11426-.31836v-.7998l1.34717-.22071.42432-2.28613a.4504.4504,0,0,1,.15527-.25342.46339.46339,0,0,1,.29394-.08935h1.04493v2.6372h2.2373v1.437h-2.2373v4.53955a.90207.90207,0,0,0,.19189.6123.66244.66244,0,0,0,.52686.2207.95469.95469,0,0,0,.31445-.04492,1.7856,1.7856,0,0,0,.22021-.09375c.0625-.03271.11866-.064.16748-.09424a.28133.28133,0,0,1,.147-.04492.23135.23135,0,0,1,.147.04492.71457.71457,0,0,1,.12256.13477l.604.98a3.047,3.047,0,0,1-1.0122.55518A3.77692,3.77692,0,0,1,169.20361,379.61993Z"/><path d="M177.59668,372.74493a.54244.54244,0,0,1-.17139.1836.44224.44224,0,0,1-.22851.05322.71658.71658,0,0,1-.31446-.082c-.11181-.0542-.24072-.11523-.38769-.18359a3.54057,3.54057,0,0,0-.50244-.1836,2.4132,2.4132,0,0,0-.66553-.08154,1.532,1.532,0,0,0-.93457.25293.788.788,0,0,0-.33887.66162.6307.6307,0,0,0,.1753.45313,1.58726,1.58726,0,0,0,.46533.32226,4.504,4.504,0,0,0,.65771.249q.36694.11059.74707.24073.37939.1311.74707.29834a2.62086,2.62086,0,0,1,.65723.42431,1.86935,1.86935,0,0,1,.64062,1.48194,2.82228,2.82228,0,0,1-.2163,1.11474,2.40661,2.40661,0,0,1-.64063.88184,3.02327,3.02327,0,0,1-1.04932.57959,4.91126,4.91126,0,0,1-2.28613.13086,5.01454,5.01454,0,0,1-.792-.21631,4.401,4.401,0,0,1-.70215-.32666,3.42685,3.42685,0,0,1-.56787-.4082l.46582-.76758a.65168.65168,0,0,1,.21191-.2124.59789.59789,0,0,1,.31055-.07373.65143.65143,0,0,1,.355.10644q.16773.1062.3877.22852a3.43114,3.43114,0,0,0,.51855.22851,2.28117,2.28117,0,0,0,.75537.10645,1.96416,1.96416,0,0,0,.6167-.08594,1.29626,1.29626,0,0,0,.42432-.22461.84313.84313,0,0,0,.24512-.32227.96675.96675,0,0,0,.07763-.37988.676.676,0,0,0-.17578-.48144,1.52717,1.52717,0,0,0-.46533-.32666,4.43439,4.43439,0,0,0-.66162-.249q-.37134-.11059-.75928-.24121a6.966,6.966,0,0,1-.75928-.30615,2.572,2.572,0,0,1-.66113-.44482,2.00431,2.00431,0,0,1-.46533-.66163,2.3033,2.3033,0,0,1-.17578-.94677,2.40966,2.40966,0,0,1,.2041-.98,2.301,2.301,0,0,1,.6001-.8125,2.97541,2.97541,0,0,1,.98828-.55518,4.11612,4.11612,0,0,1,1.36719-.208,4.18977,4.18977,0,0,1,1.57617.28565,3.55583,3.55583,0,0,1,1.18359.751Z"/><path d="M140.67725,221.595a6.7141,6.7141,0,0,1,2.043.27735,3.9489,3.9489,0,0,1,1.42481.77246,3.066,3.066,0,0,1,.834,1.18847,4.09365,4.09365,0,0,1,.27295,1.51465,4.18049,4.18049,0,0,1-.28515,1.56641,3.24615,3.24615,0,0,1-.8545,1.22558,3.98118,3.98118,0,0,1-1.42871.79786,6.39416,6.39416,0,0,1-2.00634.28418H139.041v4.14355h-2.18946V221.595Zm0,5.918a3.29755,3.29755,0,0,0,1.05029-.15039,1.99008,1.99008,0,0,0,.74463-.43164,1.75152,1.75152,0,0,0,.44336-.68359,2.60541,2.60541,0,0,0,.147-.89942,2.36289,2.36289,0,0,0-.147-.85449,1.68142,1.68142,0,0,0-.43946-.65137,1.94478,1.94478,0,0,0-.74072-.41113,3.50936,3.50936,0,0,0-1.0581-.14258H139.041V227.513Z"/><path d="M148.94727,222.58038a1.1491,1.1491,0,0,1-.10547.48829,1.332,1.332,0,0,1-.28125.39843,1.3485,1.3485,0,0,1-.41065.27344,1.27067,1.27067,0,0,1-.50488.10156,1.22084,1.22084,0,0,1-.49268-.10156,1.30154,1.30154,0,0,1-.67529-.67187,1.18424,1.18424,0,0,1-.102-.48829,1.25923,1.25923,0,0,1,.102-.50488,1.30112,1.30112,0,0,1,.27246-.40723,1.333,1.333,0,0,1,.40283-.27246,1.22084,1.22084,0,0,1,.49268-.10156,1.27067,1.27067,0,0,1,.50488.10156,1.36389,1.36389,0,0,1,.41065.27246,1.32431,1.32431,0,0,1,.28125.40723A1.22149,1.22149,0,0,1,148.94727,222.58038Zm-.27686,2.4336v8.35156h-2.01855V225.014Z"/><path d="M152.26807,229.44171a3.951,3.951,0,0,0,.228,1.11133,2.26211,2.26211,0,0,0,.47217.77344,1.8559,1.8559,0,0,0,.6958.45605,2.52507,2.52507,0,0,0,.8916.15039,2.75614,2.75614,0,0,0,.84229-.11425,3.92565,3.92565,0,0,0,.61865-.252q.2644-.13916.46387-.25195a.77631.77631,0,0,1,.38672-.11426.41632.41632,0,0,1,.37451.1875l.57764.73242a3.368,3.368,0,0,1-.74854.65528,4.21221,4.21221,0,0,1-.86719.42285,4.72054,4.72054,0,0,1-.91943.22363,6.51206,6.51206,0,0,1-.90772.06543,4.46976,4.46976,0,0,1-1.62011-.28906,3.62719,3.62719,0,0,1-1.30225-.85449,4.0082,4.0082,0,0,1-.87109-1.40039,5.41777,5.41777,0,0,1-.31738-1.93262,4.6237,4.6237,0,0,1,.27685-1.6084,3.88484,3.88484,0,0,1,.79346-1.31055,3.74145,3.74145,0,0,1,1.26172-.88281,4.16179,4.16179,0,0,1,1.68115-.3252,4.09507,4.09507,0,0,1,1.457.252,3.18009,3.18009,0,0,1,1.14746.73633,3.41763,3.41763,0,0,1,.75293,1.18847,4.42517,4.42517,0,0,1,.27295,1.6084,1.30558,1.30558,0,0,1-.09766.61426.40545.40545,0,0,1-.37451.1582Zm3.834-1.21289a2.42044,2.42044,0,0,0-.10986-.73633,1.75417,1.75417,0,0,0-.32959-.60644,1.53407,1.53407,0,0,0-.55762-.41113,1.91126,1.91126,0,0,0-.78564-.1504,1.86624,1.86624,0,0,0-1.37159.4961,2.43469,2.43469,0,0,0-.63867,1.4082Z"/><path d="M161.31152,226.4632a3.60862,3.60862,0,0,1,.92774-1.17676,1.9832,1.9832,0,0,1,1.27-.42676,1.556,1.556,0,0,1,.92822.25195l-.13037,1.50586a.39184.39184,0,0,1-.11817.208.32976.32976,0,0,1-.20751.06055,2.35358,2.35358,0,0,1-.36231-.041,2.879,2.879,0,0,0-.46777-.04,1.67589,1.67589,0,0,0-.59424.09766,1.478,1.478,0,0,0-.46826.28027,1.92171,1.92171,0,0,0-.36621.44434,4.31056,4.31056,0,0,0-.29737.59375v5.14453H159.415V225.014h1.18017a.48651.48651,0,0,1,.59424.50488Z"/></g></g></svg>