<svg xmlns="http://www.w3.org/2000/svg" xmlns:xlink="http://www.w3.org/1999/xlink" viewBox="0 0 500 500"><defs><clipPath id="a"><rect width="500" height="500" style="fill:none"/></clipPath></defs><title>departures-map-01</title><g style="isolation:isolate"><g style="clip-path:url(#a)"><rect x="-198.23438" y="-164.41456" width="830.87979" height="830.87979" style="fill:#c2e0de"/><path d="M696-47.05278c-27.00359,14.54039-39.46679,20.772-66.47038,10.386S515.28364-20.04919,461.27646,6.9544,249.40211,106.66,226.55292,119.12317s-22.8492,22.8492-22.8492,33.2352-4.1544,41.544-4.1544,45.69838-8.30879,14.5404-12.46319,16.6176-33.2352,14.5404-37.38959,16.6176-2.0772,12.46319,6.23159,27.00359,35.923,63.80913,40.45183,72.54322,17.1447,5.17576,24.90833,3.88182,60.16819-13.90985,64.37349-13.90985,8.08712-.647,10.35152,3.88182,22.96742,45.28788,24.26136,48.52273-3.23485,11.96894-16.82121,14.55682-81.27313,15.52727-86.24793,15.52727-12.86645-5.25333-15.00283-10.35152c-14.23334-33.96591-29.11364-68.57879-38.4947-88.95834s-32.34849-62.43257-36.23031-70.19621-16.49773-10.99849-19.40909-10.675-36.23031,16.17424-40.11212,17.46818S56.958,243.17436,54.69359,240.91s-11.322-14.88031-14.88031-16.17425-22.64394,6.79318-23.61439,9.70455.32348,18.11515,5.17575,24.90833,29.76061,25.87879,31.70152,31.70152,7.44015,16.49773,7.44015,22.96743-3.23484,18.76212-5.49924,22.64394-17.1447,17.14469-20.703,19.40909S16.84586,358.65846,14.258,358.335s-32.34849-17.79167-35.25985-18.43864-13.26288,2.58788-16.49773,5.17576S-147.161,430.14861-149.42537,433.06s0,6.14621,2.2644,9.70454,20.05606,26.20228,22.64394,28.79016,2.91136,9.70454.32348,12.29242-41.72954,22.64394-47.22879,25.87879-79.90076,60.81516-89.60531,63.403-73.79243,56.00374-79.6638,56.00374,0-877.18332,0-877.18332H696Z" style="fill:#e2ca53;stroke:#9a7434;stroke-miterlimit:10"/><path d="M318.7327-110.4378a5.19238,5.19238,0,0,0-7.15457-1.65729c-.62073.38744-62.602,39.07934-105.43208,67.82036-25.22052,16.9239-46.64266,26.466-67.35988,35.69273-14.3558,6.3949-27.91643,12.4348-41.64339,20.48192A283.90884,283.90884,0,0,0,43.97324,52.56316C26.81961,22.01042,13.72086-2.56745,7.48267-15.9024c12.04177-.62174,39.865-3.02223,57.62681-12.1858,22.196-11.453,69.88134-43.20534,71.90072-44.55126l-3.45659-5.18488c-.46364.30871-43.93193,29.25283-67.25732,42.03882L38.33511-73.18817l-3.32676,2.487L62.59146-33.8043c-.1103.05731-.23023.12209-.33914.17826C44.16976-24.29728,13.54577-22.37907,4.295-22.0062L-90.48878-85.80047l-4.63922,6.8929,93.41211,62.8718c1.28722,2.92435,2.94819,6.42,4.867,10.29737C-10.76167,2.30707-64.53964,33.50424-125.03972,69.8508L-218.14425-93.44391-221.753-91.387l93.15207,163.37813c-62.27833,37.46034-130.90489,79.94277-170.11394,108.022l2.418,3.37748C-218.43978,127.63444-24.16407,14.859,5.013-2.01557c11.24761,22.2674,29.33562,54.5019,37.90458,69.6246,16.27477,28.71972,20.67868,50.33862,12.735,62.51782-4.125,6.32593-29.83642,22.74777-54.70094,38.629-21.28927,13.59815-45.41846,29.00979-64.27249,43.02987-42.3057,31.45822-187.12241,147.93353-188.58091,149.106l5.20923,6.475c1.43112-1.15207,141.15207-113.52991,186.02941-147.19464,4.84144,9.517,16.68632,31.0321,25.6999,32.88781a7.38166,7.38166,0,0,0,1.493.13794c12.46624,0,48.231-23.43746,52.43205-26.21856a2.07772,2.07772,0,1,0-2.29425-3.4647c-16.004,10.598-43.94271,26.88188-50.793,25.47612-6.1464-1.26529-16.76441-18.6508-23.15423-31.33409,18.46114-13.634,41.93524-28.63313,62.70419-41.89835C26.8134,162.09714,42.78656,151.79013,52.573,144.21122c4.64758,8.42556,26.0938,43.78892,57.86605,42.11666,0,0,19.78855,45.26974,20.60173,47.43835s4.60841,2.98179,4.60841,2.98179,55.02841,108.15941,56.926,111.41239,2.71073-1.62649,1.62649-3.253-56.655-109.78577-56.655-109.78577.81331-4.60828-1.08424-8.13232-21.6861-46.354-21.95716-47.43835-14.63814,1.89755-20.87291-1.89755-26.29438-15.72238-34.69775-38.49272c0,0,2.7712-3.1049,3.67782-4.49506,9.89-15.16417,5.69607-39.10369-12.46522-71.1522-.29744-.525-.58244-1.03188-.878-1.554a274.54568,274.54568,0,0,1,53.12542-41.09962c13.229-7.755,26.533-13.6803,40.618-19.95349,21.11887-9.40723,42.95685-19.134,68.92083-36.5579,42.684-28.64263,104.5233-67.24527,105.142-67.6317A5.19294,5.19294,0,0,0,318.7327-110.4378Z" style="fill:#e5ca94;stroke:#9a7434;stroke-miterlimit:10;stroke-width:0.65px"/><polygon points="215.334 353.721 230.125 351.05 234.029 368.924 217.206 371.8 215.334 353.721" style="fill:#ecd69f;stroke:#9a7434;stroke-miterlimit:10;stroke-width:0.65px"/><polygon points="246.766 357.214 249.231 370.156 271.418 366.047 267.926 352.489 246.766 357.214" style="fill:#ecd69f;stroke:#9a7434;stroke-miterlimit:10;stroke-width:0.65px"/><polygon points="-4.69 247.921 -22.563 261.891 -2.224 288.803 21.401 270.519 -4.69 247.921" style="fill:#ecd69f;stroke:#9a7434;stroke-miterlimit:10;stroke-width:0.65px"/><polygon points="128.55 23.101 131.151 36.478 155.675 32.762 153.818 24.959 164.222 23.101 161.992 5.265 140.44 9.353 141.927 20.872 128.55 23.101" style="fill:#ecd69f;stroke:#9a7434;stroke-miterlimit:10;stroke-width:0.65px"/><polygon points="21.161 -14.648 21.161 5.265 36.396 5.265 36.396 -12.943 21.161 -14.648" style="fill:#ecd69f;stroke:#9a7434;stroke-miterlimit:10;stroke-width:0.65px"/><g style="opacity:0.2;mix-blend-mode:multiply"><path d="M-21.9464,312.63363c-34.51341-9.861-124.99051,60.27606-156.42235,101.8809-31.43159,41.60472-6.284,59.18206-103.25028,108.48689,0,0-26.41152,9.46087-61.27611,22.03221.38693,51.95142,1.08018,84.09907,2.20372,84.09907,5.87141,0,69.95931-53.41587,79.66385-56.00375s84.106-60.1683,89.60522-63.40314,44.6409-23.29091,47.22877-25.87879,2.26446-9.70454-.32342-12.29242-20.3796-25.23181-22.64393-28.79008-4.52879-6.79324-2.26446-9.70454,108.69088-85.4,111.92573-87.98786,13.58636-5.82273,16.49779-5.17576,32.672,18.11515,35.2599,18.43857,16.49766,0,20.05606-2.26433,18.43857-15.52727,20.703-19.40908,5.49918-16.17437,5.49918-22.64406-5.49918-17.14463-7.44009-22.96736C64.00217,335.20644,12.56714,322.49462-21.9464,312.63363Z" style="fill:#ce9f3b"/><path d="M622.30506-47.29253s-75.60086-105.18383-95.32284-98.60992S502.32967-98.241,487.53825-48.936,290.3184,69.3959,234.4394,95.69192s-50.94844,49.305-50.94844,82.1749c0,19.4243-16.42285,33.04045-32.30448,39.25012a24.61372,24.61372,0,0,0,2.24468,12.45191c9.131-4.09519,30.16833-13.15124,33.655-14.8945,4.1544-2.0772,12.46319-12.4632,12.46319-16.6176s4.1544-35.31239,4.1544-45.69838,0-20.772,22.8492-33.2352S407.26927,33.958,461.27646,6.9544c50.65456-25.32728,130.544-50.65316,162.548-45.13066Z" style="fill:#ce9f3b"/><path d="M318.58424,369.62894c-8.04,6.59344-19.38284,12.66859-35.3877,16.41437-51.49627,12.05229-70.1226,6.57391-78.88794-13.14808-8.11622-18.26145-58.4367-120.816-78.00351-153.18179a9.3489,9.3489,0,0,1-1.69393-.88355c-11.85135-8.15932-36.76354,12.89869-57.80863,1.76785s-37.80036-16.4349-54.23539-11.50447c-7.46722,2.24012-2.02877,10.26289,7.13974,22.47633,5.91553-3.45127,17.42291-7.80978,20.10639-6.83394,3.55839,1.29394,12.616,13.90991,14.8803,16.17424s9.38112.97051,13.26293-.32342,37.20069-17.14476,40.11212-17.46818,15.52727,2.9113,19.40908,10.67493,26.84917,49.81666,36.2303,70.19626,24.26129,54.99241,38.49475,88.95838c2.13628,5.09816,10.028,10.35151,15.00277,10.35151s72.66154-12.93939,86.2479-15.52727,18.11514-11.322,16.82121-14.55688C320.08635,372.74449,319.4778,371.46145,318.58424,369.62894Z" style="fill:#ce9f3b"/></g><text transform="translate(168.54541 266.28564)" style="font-size:26.97462272644043px;fill:#272525;font-family:Lato-Regular, Lato"><tspan style="letter-spacing:-0.006498440053368326em">M</tspan><tspan x="24.87061" y="0" style="letter-spacing:-0.008000864912503621em">Ó</tspan><tspan x="46.24756" y="0" style="letter-spacing:-0.03589528308030471em">L</tspan><tspan x="59.13037" y="0">Ó</tspan></text><text transform="translate(330.7793 253.86475)" style="font-size:26.97462272644043px;fill:#272525;font-family:Lato-Regular, Lato"><tspan style="letter-spacing:-0.0031134587442321784em">Be</tspan><tspan x="31.51465" y="0" style="letter-spacing:-0.008905940128850185em">s</tspan><tspan x="42.9541" y="0" style="letter-spacing:-0.002679022640385828em">z</tspan><tspan x="55.07422" y="0" style="letter-spacing:-0.008724925085580872em">á</tspan><tspan x="68.24512" y="0" style="letter-spacing:-0.012490037985582576em">l</tspan><tspan x="74.27441" y="0" style="letter-spacing:-0.010317857466350824em">l</tspan><tspan x="80.3623" y="0" style="letter-spacing:-0.012526240994236439em">á</tspan><tspan x="93.43066" y="0" style="letter-spacing:-0.015169060625968404em">s</tspan><tspan x="104.70117" y="0">i</tspan><tspan x="0" y="32.36963" style="letter-spacing:-0.003294473787501491em">p</tspan><tspan x="15.03027" y="32.36963" style="letter-spacing:-0.007421616774041821em">o</tspan><tspan x="30.12402" y="32.36963" style="letter-spacing:-0.017087820084623118em">n</tspan><tspan x="44.71484" y="32.36963" style="letter-spacing:-0.018282519370200583em">t</tspan><tspan x="53.8916" y="32.36963" style="letter-spacing:-0.007385413765387958em">o</tspan><tspan x="68.98633" y="32.36963">k</tspan></text><circle cx="278.99552" cy="318.9784" r="13.51695" style="fill:#fff;stroke:#1f1e1f;stroke-miterlimit:10;stroke-width:0.45px"/><text transform="translate(272.01807 326.49609)" style="font-size:21.57969856262207px;fill:#272525;font-family:Lato-Regular, Lato">B</text><circle cx="307.27441" cy="345.83446" r="13.51695" style="fill:#fff;stroke:#1f1e1f;stroke-miterlimit:10;stroke-width:0.45px"/><text transform="translate(300.2959 353.35156)" style="font-size:21.57969856262207px;fill:#272525;font-family:Lato-Regular, Lato">B</text><circle cx="296.06957" cy="387.30477" r="13.51695" style="fill:#fff;stroke:#1f1e1f;stroke-miterlimit:10;stroke-width:0.45px"/><text transform="translate(289.09277 394.82324)" style="font-size:21.57969856262207px;fill:#272525;font-family:Lato-Regular, Lato">B</text><circle cx="309.76576" cy="245.49265" r="13.51695" style="fill:#fff;stroke:#1f1e1f;stroke-miterlimit:10;stroke-width:0.45px"/><text transform="translate(302.78809 253.01025)" style="font-size:21.57969856262207px;fill:#272525;font-family:Lato-Regular, Lato">B</text></g></g></svg>