<svg xmlns="http://www.w3.org/2000/svg" xmlns:xlink="http://www.w3.org/1999/xlink" viewBox="0 0 342.8022 400"><defs><clipPath id="a"><rect width="342.8022" height="400" style="fill:none"/></clipPath><clipPath id="b"><rect y="-436.74725" width="342.8022" height="400" style="fill:none"/></clipPath></defs><title>departures-map_de</title><g style="isolation:isolate"><g style="clip-path:url(#a)"><rect x="-143.53232" y="-89.9709" width="626.65137" height="626.65137" style="fill:#b5e5e1"/><path d="M530.90122-1.45639C510.53505,9.51,501.13528,14.20989,480.76911,6.37675S394.60454,18.90978,353.8722,39.276s-159.7961,75.19816-177.029,84.59793-17.23291,17.23291-17.23291,25.06606-3.13326,31.33257-3.13326,34.46582-6.26651,10.9664-9.39977,12.533-25.066,10.9664-28.19931,12.533-1.56663,9.39977,4.69988,20.36617,27.09324,48.125,30.50886,54.71225,12.93057,3.90357,18.78592,2.92768,45.379-10.49084,48.55063-10.49084,6.09932-.488,7.80713,2.92768,17.32209,34.15622,18.298,36.596-2.43973,9.027-12.6866,10.97878-61.29637,11.7107-65.04838,11.7107-9.7039-3.96207-11.31517-7.80713c-10.73481-25.61717-21.95757-51.72228-29.03278-67.09258s-24.3973-47.08679-27.325-52.94214-12.44262-8.29508-14.63838-8.05111-27.325,12.19865-30.25265,13.17455-8.29508,1.95178-10.0029.244S38.68745,204.503,36.00375,203.5271s-17.07811,5.12343-17.81,7.31919.244,13.66249,3.90357,18.78592,22.44551,19.51784,23.90935,23.90935S51.618,265.98419,51.618,270.86365s-2.43973,14.15043-4.14754,17.07811-12.93057,12.93057-15.61427,14.63838-13.17455,1.95178-15.12633,1.70781-24.3973-13.41852-26.59306-13.90646-10.00289,1.95178-12.44262,3.90356-82.70685,64.1649-84.41466,66.36066,0,4.63549,1.70781,7.31919,15.12633,19.76181,17.07811,21.7136,2.19576,7.31919.244,9.271-31.47252,17.07811-35.62006,19.51784-60.26133,45.86693-67.58052,47.81871-55.65442,42.23815-60.08262,42.23815,0-661.5736,0-661.5736h781.875Z" style="fill:#e3c552;stroke:#a8731e;stroke-miterlimit:10"/><path d="M246.36539-49.26151a3.91612,3.91612,0,0,0-5.396-1.24994c-.46815.29222-47.21457,29.47373-79.5171,51.15027-19.02138,12.764-35.178,19.96074-50.803,26.91954-10.82717,4.823-21.05462,9.37835-31.40753,15.44751A214.12463,214.12463,0,0,0,39.1412,73.67417C26.20389,50.63123,16.32478,32.09455,11.61992,22.0373c9.08194-.46892,30.06628-2.27938,43.46228-9.19056,16.74028-8.63787,52.70465-32.58556,54.22768-33.60066l-2.607-3.91045c-.34968.23283-33.13356,22.06255-50.72562,31.70577L34.88891-21.16776l-2.50906,1.87567L53.1831,8.53564c-.08319.04322-.17364.09209-.25578.13445C39.28941,15.70586,16.19273,17.15258,9.21577,17.4338L-62.27036-30.68l-3.4989,5.19864L4.68235,21.93671c.97083,2.20555,2.22354,4.842,3.67074,7.7663C-2.14,35.77092-42.69946,59.29989-88.32875,86.71255L-158.5484-36.44468l-2.72171,1.55133,70.2555,123.22014c-46.97045,28.25267-98.72876,60.293-128.3003,81.47042l1.82365,2.5473C-158.77128,130.2931-12.24812,45.23763,9.75726,32.51078c8.483,16.79411,22.125,41.10544,28.58772,52.511,12.27447,21.66048,15.5959,37.9655,9.60477,47.15108-3.11107,4.771-22.50269,17.15642-41.25556,29.13409-16.05642,10.25575-34.2547,21.87925-48.47446,32.45323C-73.68732,217.48605-182.9084,305.332-184.0084,306.21627l3.92881,4.88348c1.07935-.86889,106.4572-85.62451,140.30379-111.01452,3.65142,7.17777,12.58486,23.40448,19.38292,24.80406a5.5676,5.5676,0,0,0,1.126.104c9.40207,0,36.37592-17.67659,39.54437-19.77409a1.567,1.567,0,0,0-1.73033-2.61309c-12.07023,7.993-33.14169,20.27437-38.3082,19.21415-4.63563-.95428-12.64375-14.06648-17.463-23.63224,13.92343-10.28282,31.62765-21.59517,47.29164-31.59983,16.13157-10.30328,28.17856-18.07685,35.55952-23.79288,3.50522,6.35458,19.68,33.0257,43.64271,31.76448,0,0,14.92456,34.14254,15.53786,35.77811s3.47567,2.24887,3.47567,2.24887,41.50256,81.57407,42.93369,84.02747,2.04444-1.2267,1.2267-2.4534-42.72935-82.80068-42.72935-82.80068a10.80883,10.80883,0,0,0-.81773-6.13341c-1.43114-2.65784-16.3557-34.96027-16.56014-35.77811s-11.04012,1.43114-15.7424-1.43113-19.83127-11.85786-26.16912-29.0313c0,0,2.09-2.34172,2.77383-3.39018,7.45908-11.43685,4.296-29.49209-9.4013-53.66315-.22433-.396-.43928-.77824-.66217-1.172A207.06274,207.06274,0,0,1,83.20272,49.76348c9.97731-5.84884,20.01123-10.31771,30.63416-15.049,15.9279-7.095,32.39815-14.43088,51.98024-27.572,32.19238-21.60234,78.83171-50.71654,79.29833-51.008A3.91653,3.91653,0,0,0,246.36539-49.26151Z" style="fill:#efcb92;stroke:#a8731e;stroke-miterlimit:10;stroke-width:0.65px"/><polygon points="168.382 300.808 179.537 298.794 182.481 312.274 169.793 314.443 168.382 300.808" style="fill:#f4d79d;stroke:#a8731e;stroke-miterlimit:10;stroke-width:0.65px"/><polygon points="192.088 303.442 193.947 313.204 210.681 310.105 208.047 299.879 192.088 303.442" style="fill:#f4d79d;stroke:#a8731e;stroke-miterlimit:10;stroke-width:0.65px"/><polygon points="2.44 221.013 -11.04 231.549 4.299 251.847 22.117 238.057 2.44 221.013" style="fill:#f4d79d;stroke:#a8731e;stroke-miterlimit:10;stroke-width:0.65px"/><polygon points="302.645 7.834 308.834 17.691 320.294 11.273 313.189 1.187 302.645 7.834" style="fill:#f4d79d;stroke:#a8731e;stroke-miterlimit:10;stroke-width:0.65px"/><polygon points="54.382 29.85 63.224 32.108 65.294 26.652 70.938 28.157 75.265 17.058 59.086 13.859 54.382 29.85" style="fill:#f4d79d;stroke:#a8731e;stroke-miterlimit:10;stroke-width:0.65px"/><polygon points="102.929 51.454 104.891 61.543 123.387 58.74 121.986 52.855 129.833 51.454 128.152 38.002 111.897 41.085 113.018 49.772 102.929 51.454" style="fill:#f4d79d;stroke:#a8731e;stroke-miterlimit:10;stroke-width:0.65px"/><polygon points="21.936 22.984 21.936 38.002 33.427 38.002 33.427 24.27 21.936 22.984" style="fill:#f4d79d;stroke:#a8731e;stroke-miterlimit:10;stroke-width:0.65px"/><polygon points="175.234 22.984 177.476 28.754 182.52 25.869 179.998 20.346 175.234 22.984" style="fill:#f4d79d;stroke:#a8731e;stroke-miterlimit:10;stroke-width:0.65px"/><g style="opacity:0.2;mix-blend-mode:multiply"><path d="M-10.57554,269.81989c-26.03009-7.43718-94.26812,45.46034-117.97408,76.83881-23.70578,31.37837-4.73938,44.63523-77.87159,81.82105,0,0-19.91963,7.1354-46.21458,16.61674.29183,39.18187.81467,63.4277,1.662,63.4277,4.42823,0,52.76346-40.28637,60.08265-42.23815s63.433-45.37906,67.58045-47.81879,33.66827-17.566,35.62005-19.51784,1.70786-7.31918-.24392-9.271-15.37035-19.02989-17.07811-21.71354-3.41562-5.12348-1.70786-7.31919,81.97491-64.40885,84.41464-66.36063,10.24686-4.39152,12.44266-3.90357,24.64132,13.66248,26.5931,13.90641,12.44257,0,15.12632-1.70777,13.90641-11.7107,15.61427-14.63837S51.618,275.743,51.618,270.86358s-4.14749-12.93052-5.61133-17.322C54.24706,286.84436,15.45464,277.25707-10.57554,269.81989Z" style="fill:#dd9f33"/><path d="M475.32033-1.63721S418.302-80.96709,403.42763-76.009s-18.593,35.9464-29.74873,73.13231S224.93526,86.36946,182.7912,106.202s-38.42543,37.18591-38.42543,61.97649c0,14.64985-12.38616,24.91918-24.36411,29.60252a18.5637,18.5637,0,0,0,1.69294,9.39126c6.88661-3.0886,22.753-9.91869,25.38265-11.23346,3.13326-1.56663,9.39977-9.39977,9.39977-12.533s3.13326-26.63268,3.13326-34.46582,0-15.66629,17.23291-25.06606S313.13986,59.64212,353.8722,39.276C392.076,20.17406,452.32874,1.07322,476.46623,5.2383Z" style="fill:#dd9f33"/><path d="M246.25342,312.80589c-6.0638,4.97278-14.61859,9.55467-26.68948,12.37975-38.8386,9.08986-52.88662,4.95805-59.49746-9.91631-6.12127-13.77283-44.07309-91.11966-58.83042-115.53005a7.05074,7.05074,0,0,1-1.27757-.66637c-8.93831-6.15378-27.72714,9.72822-43.59939,1.33331S27.85,188.011,15.45464,191.72953c-5.63179,1.6895-1.5301,7.74029,5.38481,16.95169,4.46151-2.60295,13.1404-5.89015,15.16428-5.15417,2.68375.97589,9.515,10.49088,11.22276,12.19865s7.07526.732,10.00294-.24393,28.05684-12.93061,30.25264-13.17454,11.7107,2.19571,14.63838,8.05106,20.2497,37.57183,27.325,52.94218,18.29792,41.47539,29.03283,67.0926c1.61119,3.845,7.56311,7.80713,11.31512,7.80713s54.80149-9.75892,65.04836-11.7107,13.66248-8.5391,12.68659-10.97883C247.38632,315.15564,246.92734,314.188,246.25342,312.80589Z" style="fill:#dd9f33"/></g><circle cx="211.59308" cy="277.64449" r="9.52889" style="fill:#fff"/><path d="M211.59358,287.68294a10.03851,10.03851,0,1,1,10.03774-10.03775A10.04992,10.04992,0,0,1,211.59358,287.68294Zm0-19.0581a9.01959,9.01959,0,1,0,9.01882,9.02035A9.03069,9.03069,0,0,0,211.59358,268.62484Z" style="fill:#333"/><path d="M211.74657,272.341a6.69533,6.69533,0,0,1,1.712.18971,3.24242,3.24242,0,0,1,1.16732.54312,2.11119,2.11119,0,0,1,.66551.85369,2.84929,2.84929,0,0,1,.21266,1.12755,2.22482,2.22482,0,0,1-.10556.68693,1.97321,1.97321,0,0,1-.32893.61349,2.42909,2.42909,0,0,1-.563.51864,3.45689,3.45689,0,0,1-.81544.39472q2.10208.47274,2.10209,2.27038a2.88512,2.88512,0,0,1-.24784,1.19792,2.63315,2.63315,0,0,1-.71906.94855,3.45617,3.45617,0,0,1-1.16273.6242,5.09516,5.09516,0,0,1-1.57887.2249h-3.84925V272.341Zm-1.61559,1.46566v2.94661h1.51a2.529,2.529,0,0,0,1.46871-.35188,1.279,1.279,0,0,0,.49722-1.12143,1.32834,1.32834,0,0,0-.45132-1.13519,2.362,2.362,0,0,0-1.40905-.33811Zm1.91851,7.24718a2.65634,2.65634,0,0,0,.88735-.127,1.53263,1.53263,0,0,0,.57525-.33811,1.23831,1.23831,0,0,0,.31057-.49263,1.88671,1.88671,0,0,0,.09485-.59972,1.59265,1.59265,0,0,0-.10556-.59514,1.09638,1.09638,0,0,0-.332-.45132,1.53232,1.53232,0,0,0-.58137-.2861,3.244,3.244,0,0,0-.85675-.09791H210.131v2.98791Z"/><circle cx="230.65086" cy="323.59318" r="9.52889" style="fill:#fff"/><path d="M230.65015,333.63227A10.03851,10.03851,0,1,1,240.68942,323.593,10.04993,10.04993,0,0,1,230.65015,333.63227Zm0-19.05809a9.01959,9.01959,0,1,0,9.02035,9.01882A9.02808,9.02808,0,0,0,230.65015,314.57418Z" style="fill:#333"/><path d="M230.80467,318.29033a6.69494,6.69494,0,0,1,1.712.18971,3.24225,3.24225,0,0,1,1.16732.54312,2.11113,2.11113,0,0,1,.66551.85369,2.84924,2.84924,0,0,1,.21266,1.12754,2.22448,2.22448,0,0,1-.10557.68693,1.9729,1.9729,0,0,1-.32893.61349,2.429,2.429,0,0,1-.563.51864,3.45659,3.45659,0,0,1-.81545.39472q2.1021.47274,2.1021,2.27039a2.88516,2.88516,0,0,1-.24785,1.19792,2.633,2.633,0,0,1-.71905.94854,3.45624,3.45624,0,0,1-1.16274.62421,5.09515,5.09515,0,0,1-1.57886.22489h-3.84926V318.29033Zm-1.61559,1.46565v2.94661h1.51a2.529,2.529,0,0,0,1.46872-.35188,1.27893,1.27893,0,0,0,.49722-1.12142,1.32834,1.32834,0,0,0-.45133-1.1352,2.362,2.362,0,0,0-1.409-.33811Zm1.91851,7.24719a2.65659,2.65659,0,0,0,.88735-.127,1.5328,1.5328,0,0,0,.57524-.33811,1.23834,1.23834,0,0,0,.31057-.49263,1.88673,1.88673,0,0,0,.09486-.59973,1.59285,1.59285,0,0,0-.10556-.59514,1.09645,1.09645,0,0,0-.332-.45132,1.53239,1.53239,0,0,0-.58137-.28609,3.24357,3.24357,0,0,0-.85675-.09792h-1.91086v2.98792Z"/><circle cx="32.75057" cy="374.39507" r="9.52889" style="fill:#fff"/><path d="M32.75106,384.434a10.03851,10.03851,0,1,1,10.03775-10.03927A10.05123,10.05123,0,0,1,32.75106,384.434Zm0-19.0581a9.01959,9.01959,0,1,0,9.01883,9.01883A9.02988,9.02988,0,0,0,32.75106,365.37593Z" style="fill:#333"/><path d="M32.90405,369.09132a6.69528,6.69528,0,0,1,1.712.18971,3.2423,3.2423,0,0,1,1.16733.54312,2.11119,2.11119,0,0,1,.66551.85369,2.84927,2.84927,0,0,1,.21266,1.12754,2.22443,2.22443,0,0,1-.10557.68693,1.97294,1.97294,0,0,1-.32893.6135,2.42889,2.42889,0,0,1-.563.51864,3.45631,3.45631,0,0,1-.81544.39471q2.1021.47276,2.1021,2.27039a2.88513,2.88513,0,0,1-.24785,1.19792,2.633,2.633,0,0,1-.71906.94855,3.45607,3.45607,0,0,1-1.16273.6242,5.09516,5.09516,0,0,1-1.57887.2249H29.39291v-10.1938ZM31.28847,370.557v2.9466h1.51a2.52894,2.52894,0,0,0,1.46871-.35188,1.2789,1.2789,0,0,0,.49723-1.12142,1.32833,1.32833,0,0,0-.45133-1.13519,2.36193,2.36193,0,0,0-1.40905-.33811Zm1.91851,7.24718a2.65634,2.65634,0,0,0,.88735-.127,1.53266,1.53266,0,0,0,.57524-.33811,1.2382,1.2382,0,0,0,.31057-.49263,1.88673,1.88673,0,0,0,.09486-.59973,1.59264,1.59264,0,0,0-.10557-.59513,1.09639,1.09639,0,0,0-.332-.45133,1.53248,1.53248,0,0,0-.58136-.28609,3.244,3.244,0,0,0-.85675-.09791H31.28847v2.98791Z"/><rect x="47.15381" y="373.77051" width="12.39551" height="1.25"/><path d="M68.18213,366.92951a8.48519,8.48519,0,0,1,2.13818.23242,4.06922,4.06922,0,0,1,1.439.65722,2.49772,2.49772,0,0,1,.811,1.03125,3.49361,3.49361,0,0,1,.25391,1.35645,2.65757,2.65757,0,0,1-.1167.78613,2.26149,2.26149,0,0,1-.36621.707,2.87249,2.87249,0,0,1-.64014.60352,4.02713,4.02713,0,0,1-.94043.47363,3.35331,3.35331,0,0,1,1.772.94043,2.44,2.44,0,0,1,.57422,1.67969,3.47032,3.47032,0,0,1-.29931,1.43945,3.2933,3.2933,0,0,1-.87793,1.16016,4.16949,4.16949,0,0,1-1.42676.77441,6.2084,6.2084,0,0,1-1.938.27832h-4.8418V366.92951Zm-1.647,2.10449v2.99414H67.999a4.77346,4.77346,0,0,0,.84034-.06641,1.74952,1.74952,0,0,0,.63623-.23242,1.06976,1.06976,0,0,0,.39941-.458,1.71373,1.71373,0,0,0,.13721-.73144,2.066,2.066,0,0,0-.10791-.71973,1.03027,1.03027,0,0,0-.333-.46191,1.41133,1.41133,0,0,0-.56983-.25,3.92248,3.92248,0,0,0-.81933-.07422Zm1.97949,7.89453a2.47483,2.47483,0,0,0,.91113-.1416,1.44938,1.44938,0,0,0,.55322-.36621,1.22058,1.22058,0,0,0,.27442-.50684,2.23907,2.23907,0,0,0,.07519-.57422,1.92553,1.92553,0,0,0-.0874-.59961.99672.99672,0,0,0-.2998-.44922,1.47163,1.47163,0,0,0-.56153-.28222,3.27885,3.27885,0,0,0-.88183-.09961H66.53516v3.01953Z"/><path d="M78.42285,370.28986a4.98155,4.98155,0,0,1,1.78809.30761,3.917,3.917,0,0,1,1.38525.88184,3.97808,3.97808,0,0,1,.89844,1.39355,5.02739,5.02739,0,0,1,.32031,1.84278,5.12184,5.12184,0,0,1-.32031,1.85937,3.9923,3.9923,0,0,1-.89844,1.40528,3.93693,3.93693,0,0,1-1.38525.89062,4.91851,4.91851,0,0,1-1.78809.31152,4.9795,4.9795,0,0,1-1.80127-.31152,4.01908,4.01908,0,0,1-1.39746-.89062,3.93018,3.93018,0,0,1-.90674-1.40528,5.11167,5.11167,0,0,1-.32031-1.85937,5.01742,5.01742,0,0,1,.32031-1.84278,3.91619,3.91619,0,0,1,.90674-1.39355,3.99886,3.99886,0,0,1,1.39746-.88184A5.0434,5.0434,0,0,1,78.42285,370.28986Zm0,6.97949a1.46415,1.46415,0,0,0,1.31006-.62793,4.54115,4.54115,0,0,0,0-3.81445,1.468,1.468,0,0,0-1.31006-.624,1.50382,1.50382,0,0,0-1.33935.624,4.49843,4.49843,0,0,0,0,3.81445A1.49974,1.49974,0,0,0,78.42285,377.26935Z"/><path d="M83.92139,371.62091a5.25352,5.25352,0,0,1,1.73437-1.02734,6.08255,6.08255,0,0,1,2.04248-.33692,3.74158,3.74158,0,0,1,1.41016.25391,3.02457,3.02457,0,0,1,1.06445.707,3.07919,3.07919,0,0,1,.66992,1.07715,3.87353,3.87353,0,0,1,.23291,1.36426v5.39062H89.89453a1.20937,1.20937,0,0,1-.55322-.09961.75974.75974,0,0,1-.312-.416l-.18311-.47461c-.21631.18359-.42431.34375-.624.48242a3.93044,3.93044,0,0,1-.61963.35352,3.01543,3.01543,0,0,1-.68213.21679,4.22,4.22,0,0,1-.80273.07031,3.52214,3.52214,0,0,1-1.07325-.15332,2.23,2.23,0,0,1-.81933-.4541,1.98807,1.98807,0,0,1-.52-.74414,2.68258,2.68258,0,0,1-.18311-1.02734,2.14671,2.14671,0,0,1,.23291-.94434,2.33435,2.33435,0,0,1,.80713-.873,5.106,5.106,0,0,1,1.54737-.66114,10.38093,10.38093,0,0,1,2.4541-.2998V373.659a1.58055,1.58055,0,0,0-.312-1.09375,1.14794,1.14794,0,0,0-.88623-.33692,2.35449,2.35449,0,0,0-.74853.09961,3.3536,3.3536,0,0,0-.52.22461q-.22851.12451-.44482.22461a1.22727,1.22727,0,0,1-.51612.09961.74274.74274,0,0,1-.44922-.13281,1.15783,1.15783,0,0,1-.29931-.31641Zm4.64209,3.918a8.618,8.618,0,0,0-1.27295.13281,3.141,3.141,0,0,0-.79053.25.962.962,0,0,0-.40332.34082.81086.81086,0,0,0-.1123.416.72394.72394,0,0,0,.24121.62012,1.17818,1.17818,0,0,0,.707.17871,2.0492,2.0492,0,0,0,.87353-.17481,2.65866,2.65866,0,0,0,.75733-.56543Z"/><path d="M95.13525,371.75372a3.61556,3.61556,0,0,1,.91895-1.09765,1.90466,1.90466,0,0,1,1.19385-.39942,1.54162,1.54162,0,0,1,.94824.27442l-.1665,1.89648a.40057.40057,0,0,1-.13721.25.45409.45409,0,0,1-.26172.06641c-.04443,0-.103-.00293-.17481-.00879-.07226-.00488-.147-.01172-.2246-.02051-.07764-.00781-.15674-.0166-.23731-.02441a2.02714,2.02714,0,0,0-.22021-.0127,1.30636,1.30636,0,0,0-.90284.29981,2.35144,2.35144,0,0,0-.56982.83105v5.24121H92.72266v-8.627h1.53076a1.34458,1.34458,0,0,1,.32031.0332.57312.57312,0,0,1,.21631.10449.43893.43893,0,0,1,.13281.1875,1.72966,1.72966,0,0,1,.0791.28223Z"/><path d="M106.74805,366.5965v12.45312h-1.59766a.60643.60643,0,0,1-.63184-.43261l-.1997-.65723a5.069,5.069,0,0,1-.541.499,3.31564,3.31564,0,0,1-.61133.38672,3.24055,3.24055,0,0,1-.707.25,3.67675,3.67675,0,0,1-.81933.08691,2.663,2.663,0,0,1-1.24805-.29882,2.8862,2.8862,0,0,1-.98975-.86524,4.35314,4.35314,0,0,1-.65283-1.38574,6.71415,6.71415,0,0,1-.2373-1.86719,5.8319,5.8319,0,0,1,.26611-1.793,4.40684,4.40684,0,0,1,.75293-1.43066,3.49051,3.49051,0,0,1,1.16895-.94434,3.3157,3.3157,0,0,1,1.50537-.34082,2.93105,2.93105,0,0,1,1.13134.19141,3.08971,3.08971,0,0,1,.832.51562V366.5965Zm-2.5791,6.13867a1.63491,1.63491,0,0,0-.63233-.45313,2.00719,2.00719,0,0,0-.71533-.1289,1.52825,1.52825,0,0,0-.65723.1416,1.34183,1.34183,0,0,0-.52.45312,2.42129,2.42129,0,0,0-.34521.81153,5.04754,5.04754,0,0,0-.12451,1.20605,5.60124,5.60124,0,0,0,.09961,1.14844,2.36123,2.36123,0,0,0,.2788.752,1.08242,1.08242,0,0,0,.42823.41211,1.23307,1.23307,0,0,0,.55761.125,2.22816,2.22816,0,0,0,.51172-.05371,1.80852,1.80852,0,0,0,.41992-.1543,1.746,1.746,0,0,0,.36182-.2539,3.45578,3.45578,0,0,0,.33692-.35352Z"/><path d="M111.398,368.06036a1.357,1.357,0,0,1-.125.57813,1.5161,1.5161,0,0,1-.34082.47461,1.66916,1.66916,0,0,1-.50342.32422,1.56722,1.56722,0,0,1-.61133.12011,1.45762,1.45762,0,0,1-.59082-.12011,1.65776,1.65776,0,0,1-.48681-.32422,1.49928,1.49928,0,0,1-.33252-.47461,1.39872,1.39872,0,0,1-.12061-.57813,1.45152,1.45152,0,0,1,.12061-.59082,1.54388,1.54388,0,0,1,.33252-.48242,1.56753,1.56753,0,0,1,.48681-.32422,1.50584,1.50584,0,0,1,.59082-.11621,1.61962,1.61962,0,0,1,.61133.11621,1.581,1.581,0,0,1,.50342.32422,1.5606,1.5606,0,0,1,.34082.48242A1.40791,1.40791,0,0,1,111.398,368.06036Zm-.26611,2.36231v8.627h-2.57911v-8.627Z"/><path d="M115.31592,371.35431a6.38951,6.38951,0,0,1,.51611-.43262,3.03809,3.03809,0,0,1,.56983-.33691,3.42246,3.42246,0,0,1,.65722-.21582,3.52088,3.52088,0,0,1,.76953-.0791,3.0292,3.0292,0,0,1,1.252.24511,2.60929,2.60929,0,0,1,.91894.68262,2.94892,2.94892,0,0,1,.56592,1.04,4.31126,4.31126,0,0,1,.19141,1.30957v5.48242h-2.57911V373.5672a1.50905,1.50905,0,0,0-.291-.98535,1.04751,1.04751,0,0,0-.85693-.35352,1.80322,1.80322,0,0,0-.79444.17871,3.20081,3.20081,0,0,0-.71972.48633v6.15625H112.937v-8.627h1.59717a.607.607,0,0,1,.63232.43262Z"/><path d="M130.24854,370.68927v.94043a.47157.47157,0,0,1-.12061.34082.83337.83337,0,0,1-.41211.19141l-.62353.1416a3.29589,3.29589,0,0,1,.07861.374,2.64141,2.64141,0,0,1,.0293.39942,2.46853,2.46853,0,0,1-.27051,1.16406,2.63815,2.63815,0,0,1-.74024.87793,3.46791,3.46791,0,0,1-1.11035.55762,4.69691,4.69691,0,0,1-1.373.19531c-.13281,0-.26318-.00391-.39062-.0127a3.1116,3.1116,0,0,1-.37451-.0459.48476.48476,0,0,0-.28272.39161.32427.32427,0,0,0,.23291.31152,2.21633,2.21633,0,0,0,.61573.13281q.38232.03809.86914.05078.48633.01173.99414.05762a7.746,7.746,0,0,1,.99414.1543,2.719,2.719,0,0,1,.86914.34961,1.82209,1.82209,0,0,1,.61572.64453,2.03265,2.03265,0,0,1,.23291,1.02734,2.49583,2.49583,0,0,1-.28271,1.13965,2.97886,2.97886,0,0,1-.832.98926,4.33862,4.33862,0,0,1-1.34766.69531,5.86235,5.86235,0,0,1-1.83008.26172,7.0075,7.0075,0,0,1-1.751-.19141,4.24887,4.24887,0,0,1-1.22314-.50293,2.12594,2.12594,0,0,1-.71973-.71972,1.687,1.687,0,0,1-.23291-.84864,1.40627,1.40627,0,0,1,.333-.957,2.31991,2.31991,0,0,1,.93164-.61523,1.35076,1.35076,0,0,1-.68213-1.26465,1.349,1.349,0,0,1,.06641-.40332,1.47335,1.47335,0,0,1,.2124-.416,2.11773,2.11773,0,0,1,.36182-.38672,2.349,2.349,0,0,1,.51562-.32421,2.86871,2.86871,0,0,1-1.06494-.94434,2.40607,2.40607,0,0,1-.39062-1.36816,2.46385,2.46385,0,0,1,.27441-1.16895,2.63666,2.63666,0,0,1,.75293-.88184,3.55291,3.55291,0,0,1,1.127-.55761,4.869,4.869,0,0,1,1.40576-.19531,4.36616,4.36616,0,0,1,1.94678.416Zm-2.5459,8.67676a.46394.46394,0,0,0-.27442-.44531,2.28413,2.28413,0,0,0-.71533-.19532,9.23628,9.23628,0,0,0-.98584-.07129q-.54492-.01172-1.08545-.0625a1.69158,1.69158,0,0,0-.39551.3711.7444.7444,0,0,0-.1538.46094.70138.70138,0,0,0,.0791.333.65286.65286,0,0,0,.27881.25782,1.85522,1.85522,0,0,0,.53662.17089,4.86755,4.86755,0,0,0,.85254.0625,5.19807,5.19807,0,0,0,.915-.0664,1.93647,1.93647,0,0,0,.56983-.1836.68945.68945,0,0,0,.29541-.27832A.76922.76922,0,0,0,127.70264,379.366Zm-1.99659-5.083a1.0632,1.0632,0,0,0,1.21485-1.14844,1.14051,1.14051,0,0,0-.28711-.82324,1.58459,1.58459,0,0,0-1.855,0,1.14051,1.14051,0,0,0-.28711.82324,1.40823,1.40823,0,0,0,.0708.458.94711.94711,0,0,0,.22021.36133,1.01483,1.01483,0,0,0,.37891.24121A1.51705,1.51705,0,0,0,125.70605,374.283Z"/><path d="M139.74756,366.92951a7.02967,7.02967,0,0,1,2.20019.30371,4.21055,4.21055,0,0,1,1.51416.83593,3.26121,3.26121,0,0,1,.87793,1.25586,4.25991,4.25991,0,0,1,.28272,1.56348,4.60623,4.60623,0,0,1-.291,1.66406,3.34312,3.34312,0,0,1-.89013,1.29785,4.21015,4.21015,0,0,1-1.51856.84473,6.96627,6.96627,0,0,1-2.17529.30371h-1.46387v4.05078h-2.812V366.92951Zm0,5.94726a1.78333,1.78333,0,0,0,2.063-1.98828,2.19359,2.19359,0,0,0-.12451-.75684,1.53917,1.53917,0,0,0-.37842-.58593,1.7013,1.7013,0,0,0-.64063-.37891,2.83086,2.83086,0,0,0-.91943-.13281h-1.46387v3.84277Z"/><path d="M153.49023,370.42267v8.627h-1.59716a.607.607,0,0,1-.63233-.43261l-.14941-.499a4.90182,4.90182,0,0,1-.51612.43653,3.12853,3.12853,0,0,1-.56982.333,3.35628,3.35628,0,0,1-.65723.21582,3.51945,3.51945,0,0,1-.769.0791,3.02989,3.02989,0,0,1-1.25244-.24511,2.56866,2.56866,0,0,1-.91895-.68653,3.00069,3.00069,0,0,1-.56591-1.04,4.29834,4.29834,0,0,1-.19092-1.31446v-5.47363h2.57861v5.47363a1.50538,1.50538,0,0,0,.291.99024,1.05111,1.05111,0,0,0,.85693.34961,1.803,1.803,0,0,0,.79443-.17872,3.17386,3.17386,0,0,0,.71973-.4873v-6.14746Z"/><path d="M157.61621,371.35431a6.38951,6.38951,0,0,1,.51611-.43262,3.03809,3.03809,0,0,1,.56983-.33691,3.42279,3.42279,0,0,1,.65723-.21582,3.52082,3.52082,0,0,1,.76953-.0791,3.02915,3.02915,0,0,1,1.252.24511,2.60929,2.60929,0,0,1,.91894.68262,2.94876,2.94876,0,0,1,.56592,1.04,4.31126,4.31126,0,0,1,.19141,1.30957v5.48242H160.478V373.5672a1.50905,1.50905,0,0,0-.291-.98535,1.0475,1.0475,0,0,0-.85693-.35352,1.80325,1.80325,0,0,0-.79444.17871,3.20081,3.20081,0,0,0-.71972.48633v6.15625H155.2373v-8.627h1.59717a.607.607,0,0,1,.63233.43262Z"/><path d="M167.29932,366.5965V373.576h.38281a.7504.7504,0,0,0,.36621-.07129.86118.86118,0,0,0,.24951-.23633l1.63037-2.42969a.92006.92006,0,0,1,.832-.416h2.36231l-2.22949,3.07031a2.73645,2.73645,0,0,1-.74854.68164,2.07815,2.07815,0,0,1,.34961.3291,3.29976,3.29976,0,0,1,.29932.41993l2.4292,4.126h-2.32959a1.19236,1.19236,0,0,1-.499-.0957.79265.79265,0,0,1-.34912-.33691l-1.63086-3.05274a.63787.63787,0,0,0-.24121-.27051.86166.86166,0,0,0-.374-.0625h-.49951v3.81836H164.7207V366.5965Z"/><path d="M177.09912,379.18243a3.04485,3.04485,0,0,1-1.08594-.17871,2.0921,2.0921,0,0,1-1.27685-1.30175,3.07776,3.07776,0,0,1-.16651-1.04v-4.459h-.73193a.46538.46538,0,0,1-.48242-.50683v-1.00684l1.37256-.2666.50732-2.10449a.51356.51356,0,0,1,.56592-.39942h1.34766v2.52051h2.13769v1.76367h-2.13769v4.28418a.804.804,0,0,0,.1455.49512.49066.49066,0,0,0,.41993.19531.8623.8623,0,0,0,.2373-.02832.93635.93635,0,0,0,.1665-.06738c.04688-.02442.09131-.04688.13282-.06641a.33948.33948,0,0,1,.1455-.02929.30121.30121,0,0,1,.1875.05468.6785.6785,0,0,1,.14551.16993l.78174,1.22363a3.57167,3.57167,0,0,1-1.12305.56152A4.4883,4.4883,0,0,1,177.09912,379.18243Z"/><path d="M182.439,375.19806a2.43654,2.43654,0,0,0,.65723,1.56836,1.95617,1.95617,0,0,0,1.37256.48633,2.45232,2.45232,0,0,0,.77393-.1084,3.81572,3.81572,0,0,0,.57812-.24121q.25342-.1333.46582-.24121a.965.965,0,0,1,.44483-.1084.53344.53344,0,0,1,.46582.22461l.749.92383a3.83448,3.83448,0,0,1-.86133.74414,4.42545,4.42545,0,0,1-.94824.44922,5.07591,5.07591,0,0,1-.97315.2246,7.23639,7.23639,0,0,1-.92773.0625,4.85687,4.85687,0,0,1-1.70117-.29492,3.90647,3.90647,0,0,1-1.38916-.87793,4.12988,4.12988,0,0,1-.93994-1.44726,5.40348,5.40348,0,0,1-.34522-2.0127,4.55412,4.55412,0,0,1,.29541-1.63965,3.98241,3.98241,0,0,1,2.1875-2.27929,4.77333,4.77333,0,0,1,3.34424-.07422,3.40786,3.40786,0,0,1,1.22314.77344,3.53433,3.53433,0,0,1,.79834,1.24316,4.564,4.564,0,0,1,.28711,1.668,3.65458,3.65458,0,0,1-.0249.47461.74829.74829,0,0,1-.0918.291.34381.34381,0,0,1-.17871.14942.82183.82183,0,0,1-.28711.042Zm3.24463-1.49707a2.28094,2.28094,0,0,0-.0791-.59961,1.4571,1.4571,0,0,0-.25781-.51953,1.31027,1.31027,0,0,0-.47022-.37012,1.6013,1.6013,0,0,0-.707-.1416,1.54132,1.54132,0,0,0-1.148.41992,2.19055,2.19055,0,0,0-.54931,1.21094Z"/><path d="M155.15576,225.47638v11.56836h-1.896v-7.47168c0-.29883.01611-.62109.04785-.96875l-3.4961,6.56836a.80763.80763,0,0,1-.75976.47168h-.3042a.80765.80765,0,0,1-.75977-.47168l-3.53613-6.5918c.01611.17578.0293.34961.04.51953.01074.1709.01611.32813.01611.47266v7.47168h-1.896V225.47638h1.624c.0957,0,.17871.00293.24805.00879a.6512.6512,0,0,1,.188.04.40191.40191,0,0,1,.15185.10351.87717.87717,0,0,1,.13184.19239l3.46435,6.42382q.1355.25635.252.52735.11571.27246.228.56055.11133-.29591.23194-.57227.1201-.27539.25586-.53223l3.416-6.40722a.79179.79179,0,0,1,.13623-.19239.43073.43073,0,0,1,.15576-.10351.6512.6512,0,0,1,.188-.04c.06934-.00586.15186-.00879.24805-.00879Z"/><path d="M160.80371,228.7088a4.4791,4.4791,0,0,1,1.66016.2959,3.63925,3.63925,0,0,1,1.27978.83984,3.69877,3.69877,0,0,1,.82031,1.32813,5.50373,5.50373,0,0,1,0,3.51172,3.75764,3.75764,0,0,1-.82031,1.33594,3.58124,3.58124,0,0,1-1.27978.84863,4.47931,4.47931,0,0,1-1.66016.2959,4.52918,4.52918,0,0,1-1.67187-.2959,3.57745,3.57745,0,0,1-1.28418-.84863,3.79947,3.79947,0,0,1-.82373-1.33594,5.42516,5.42516,0,0,1,0-3.51172,3.73963,3.73963,0,0,1,.82373-1.32813,3.63527,3.63527,0,0,1,1.28418-.83984A4.529,4.529,0,0,1,160.80371,228.7088Zm0,6.93555a1.7373,1.7373,0,0,0,1.51611-.6875,3.44922,3.44922,0,0,0,.49219-2.01563,3.48832,3.48832,0,0,0-.49219-2.02441,1.73119,1.73119,0,0,0-1.51611-.69629,1.76478,1.76478,0,0,0-1.54.7002,3.45165,3.45165,0,0,0-.5,2.0205,3.41307,3.41307,0,0,0,.5,2.01172A1.77354,1.77354,0,0,0,160.80371,235.64435Z"/><path d="M168.36377,225.157v11.8877H166.3877V225.157Z"/><path d="M173.97168,228.7088a4.4791,4.4791,0,0,1,1.66016.2959,3.63925,3.63925,0,0,1,1.27978.83984,3.69877,3.69877,0,0,1,.82031,1.32813,5.50373,5.50373,0,0,1,0,3.51172,3.75764,3.75764,0,0,1-.82031,1.33594,3.58124,3.58124,0,0,1-1.27978.84863,4.47931,4.47931,0,0,1-1.66016.2959,4.52927,4.52927,0,0,1-1.67188-.2959,3.5775,3.5775,0,0,1-1.28417-.84863,3.79963,3.79963,0,0,1-.82374-1.33594,5.42534,5.42534,0,0,1,0-3.51172,3.73979,3.73979,0,0,1,.82374-1.32813,3.63532,3.63532,0,0,1,1.28417-.83984A4.52907,4.52907,0,0,1,173.97168,228.7088Zm0,6.93555a1.7373,1.7373,0,0,0,1.51611-.6875,3.44922,3.44922,0,0,0,.49219-2.01563,3.48832,3.48832,0,0,0-.49219-2.02441,1.73119,1.73119,0,0,0-1.51611-.69629,1.76478,1.76478,0,0,0-1.54.7002,3.45165,3.45165,0,0,0-.5,2.0205,3.41307,3.41307,0,0,0,.5,2.01172A1.77354,1.77354,0,0,0,173.97168,235.64435Z"/></g><g style="clip-path:url(#b)"><rect x="-143.53232" y="-526.71815" width="626.65137" height="626.65137" style="fill:#b5e5e1"/><path d="M530.90122-438.20365c-20.36617,10.9664-29.76594,15.66629-50.13211,7.83315s-86.16457,12.533-126.89691,32.89919-159.7961,75.19817-177.029,84.59794-17.23291,17.23291-17.23291,25.06605-3.13326,31.33257-3.13326,34.46583-6.26651,10.9664-9.39977,12.533-25.066,10.9664-28.19931,12.533-1.56663,9.39978,4.69988,20.36617,27.09324,48.125,30.50886,54.71226,12.93057,3.90357,18.78592,2.92768,45.379-10.49084,48.55063-10.49084,6.09932-.488,7.80713,2.92767,17.32209,34.15622,18.298,36.596-2.43973,9.027-12.6866,10.97879-61.29637,11.7107-65.04838,11.7107-9.7039-3.96207-11.31517-7.80713c-10.73481-25.61717-21.95757-51.72228-29.03278-67.09258s-24.3973-47.08679-27.325-52.94214S89.67781-234.684,87.48205-234.44s-27.325,12.19865-30.25265,13.17454-8.29508,1.95179-10.0029.244-8.53905-11.22276-11.22275-12.19865-17.07811,5.12343-17.81,7.31919.244,13.66248,3.90357,18.78592S44.5428-187.5972,46.00664-183.20569,51.618-170.76307,51.618-165.88361s-2.43973,14.15044-4.14754,17.07811-12.93057,12.93057-15.61427,14.63838-13.17455,1.95179-15.12633,1.70781-24.3973-13.41851-26.59306-13.90646S-19.86607-144.414-22.3058-142.4622s-82.70685,64.1649-84.41466,66.36066,0,4.63549,1.70781,7.31919,15.12633,19.76181,17.07811,21.7136,2.19576,7.31919.244,9.271-31.47252,17.07811-35.62006,19.51784S-183.57195,27.587-190.89114,29.53877s-55.65442,42.23814-60.08262,42.23814,0-661.57359,0-661.57359h781.875Z" style="fill:#e3c552;stroke:#a8731e;stroke-miterlimit:10"/><g style="opacity:0.2;mix-blend-mode:multiply"><path d="M-10.57554-166.92736c-26.03009-7.43718-94.26812,45.46034-117.97408,76.8388C-152.2554-58.71019-133.289-45.45332-206.42121-8.26751c0,0-19.91963,7.13541-46.21458,16.61675.29183,39.18187.81467,63.4277,1.662,63.4277,4.42823,0,52.76346-40.28637,60.08265-42.23816s63.433-45.37906,67.58045-47.81879,33.66827-17.566,35.62005-19.51783,1.70786-7.31919-.24392-9.271-15.37035-19.02989-17.07811-21.71354-3.41562-5.12348-1.70786-7.31919,81.97491-64.40885,84.41464-66.36064,10.24686-4.39151,12.44266-3.90356,24.64132,13.66248,26.5931,13.9064,12.44257,0,15.12632-1.70776,13.90641-11.7107,15.61427-14.63837,4.14749-12.19875,4.14749-17.0782-4.14749-12.93052-5.61133-17.322C54.24706-149.9029,15.45464-159.49018-10.57554-166.92736Z" style="fill:#dd9f33"/></g></g></g></svg>