<?xml version="1.0" encoding="utf-8"?>
<?xml-stylesheet href="../css/custom.css" type="text/css"?>
<svg id="kisfaludy-schematics-wrapper" xmlns="http://www.w3.org/2000/svg" viewBox="0 0 455 794.2466">
	<title>
		kisfaludy-schematics-02
	</title>
	<g id="kisfaludy-schematics">
		<rect width="455" height="794.2466" style="fill:none" />
		<g id="ship-body">
			<path d="M263.886,382.85993c0-62.86407-.72-94.11609-4.03247-114.71075s-16.56214-34.20441-26.85938-55.15912-25.7074-65.09637-49.97461-108.08594c-18.6792-33.09063-38.30517-48.19207-46.35925-53.39746L133.83908,2.8534a.7974.7974,0,0,0-1.5935-.00592l-3.17322,48.65766c-8.05237,5.20391-27.68054,20.30505-46.3617,53.399-24.26709,42.98957-39.67712,87.13123-49.97448,108.08594s-23.547,34.56445-26.8595,55.15912S1.84421,319.99586,1.84421,382.85993s-1.87232,86.4112,17.64233,129.4007C38.92892,555.32221,39.289,585.49409,41.52133,625.17121c2.16028,38.81293,2.59241,114.78272,42.34143,160.43665a12.19144,12.19144,0,0,0,7.20093,3.96051,244.34181,244.34181,0,0,0,41.54932,2.88037h.50415a244.34044,244.34044,0,0,0,41.54931-2.88037,11.823,11.823,0,0,0,7.20093-3.96051c39.82117-45.65393,40.18115-121.62366,42.34155-160.43665,2.16016-39.74914,2.52027-69.921,22.03479-112.91058S263.886,445.72407,263.886,382.85993Z" style="fill:none;stroke:#1d1d1b;stroke-miterlimit:10;stroke-width:2px" />
			<g id="inner-contents">
				<path d="M53.58542,592.21974c0-.21283-.00025-.42395-.00025-.6366L197.428,447.74024h.63672ZM204.049,447.74024h-.63672L53.5903,597.56208c.00025.21192.00049.4242.001.63562Zm5.98438,0h-.63672L53.61179,603.52485c.00122.21063.002.42322.00329.63342Zm2.43872,3.54462c.001-.21289.00171-.42676.00268-.63928L53.6572,609.46333c.00207.20929.00341.42236.00561.63116Zm-20.39087-3.54462h-.63672L53.58408,585.60041c.00012.21112.00012.42529.00012.6366Zm20.36706,9.55274c.00086-.21186.00159-.42755.00257-.63916L53.72726,615.37708c.00318.21058.00708.41651.01026.62659Zm-32.33581-9.55274h-.63672L53.57736,573.63886c.00025.21308.00037.42286.00049.63611Zm-11.96777,0H167.508L53.5654,561.68269l.00073.63586Zm17.95214,0h-.63672L53.581,579.61909q.00037.31815.00037.63635Zm-11.96777,0h-.63672L53.57187,567.66053c.00024.21149.00037.4245.00061.63611ZM212.3,499.3299c.00073-.21264.00146-.42627.002-.63867L55.05515,655.93781c.011.20075.02124.40448.03222.60462Zm-.01758,6.00129c.00049-.21357.00122-.4253.00183-.63861L55.383,661.594c.01233.20069.02514.399.03759.59906Zm.03662-12.0047c.00073-.21247.00147-.42646.00208-.63874L54.76767,650.241c.00964.20251.01892.406.02869.608Zm-.05359,18.00579c.00061-.2124.0011-.42627.00171-.63848L55.75058,667.21021c.01379.19812.027.39832.04089.59583Zm.09363-30.01355.0022-.639L54.29392,638.747c.0072.20538.01464.41.02185.61487Zm.04346-12.01208c.00073-.21338.00158-.426.00244-.6391L53.95383,627.11884q.00768.31119.01513.62159Zm.02246-6.006.00256-.63916L53.82687,621.26185c.00415.20911.00855.41541.0127.62408Zm-.04443,12.01233.00219-.639L54.1091,632.9474c.0061.20569.0116.41382.01782.619ZM96.33615,447.74024h-.63672L53.4006,490.039c.00074.21014.00135.42438.002.6347Zm-5.98437,0h-.63672L53.38034,484.0749l.0022.63458Zm-5.9834,0h-.63672L53.35959,478.11213c.00073.212.00159.4223.00232.63446Zm127.88086,69.59265c.00049-.21331.0011-.42535.00171-.63842L56.15793,672.78712c.01538.19818.032.39172.04748.58935ZM78.384,447.74024h-.63672l-24.409,24.40906c.00085.21259.00158.42151.00232.63434Zm-5.98437,0h-.63672L53.316,466.18714c.00085.21051.00159.42359.00232.63434Zm-11.96778,0h-.63671l-6.52527,6.52521c.00085.21253.00183.42139.00256.63416Zm-5.98437,0h-.63672l-.5647.56458c.001.20984.00171.42413.00257.63421Zm11.96875,0h-.63672L53.29318,460.22645c.00086.21149.00171.42255.00244.63428Zm35.9043,0h-.63672l-48.26428,48.2641c.00061.21216.00134.42237.00207.63471Zm17.95214,0H119.636L53.47165,513.90431c.00061.21215.00122.42266.00171.635Zm-11.96875,0h-.63671L53.43784,501.96961l.00183.63483Zm35.9043,0h-.63672L53.52756,537.78431c.00036.211.00073.42432.00122.63556Zm-5.9834,0h-.63672l-84.073,84.07282c.00048.212.00085.42316.00134.63537Zm17.95215,0h-.63672L53.54868,549.73158q.00054.31768.00109.63574Zm-5.98437,0h-.63672L53.53879,543.75715c.00036.21277.00073.42249.00122.6355Zm-35.9043,0h-.63672l-60.196,60.19593c.00048.2102.00109.4245.00171.635Zm47.87207,0h-.63672L53.55783,555.70612c.00037.21076.00061.42493.00086.63593Zm-35.9043,0h-.63672L53.48727,519.87245l.00147.63513Zm5.98438,0h-.63672L53.50192,525.84187l.00147.63519Zm80.09839,39.58234c.00073-.21356.00134-.42548.00207-.63886L54.51389,644.51093c.00842.20466.01733.4068.02587.61091ZM209.82639,669.356c.01684-.23078.03466-.45642.05127-.68793L93.89963,784.64588c.17456.02594.36255.05255.55762.07923Zm-1.08277,13.05127q.033-.35037.06543-.70221L104.915,785.59937c.19885.01044.40112.02082.60559.03107Zm.58032-6.5644c.01893-.22924.037-.4624.05567-.69244L99.2988,785.23121q.28857.02353.58984.04688Zm-1.24682,13.21448c.02539-.238.05127-.47412.07641-.71307l-97.50122,97.5011c.20581.00714.40528.01446.61524.02142Zm3.39-51.262c.00745-.21857.01441-.43933.02173-.65845L79.0947,769.53089c.08056.13117.15966.2663.24047.39637Zm-4.15759,58.014c.0293-.24237.05933-.48175.08838-.72522l-90.92407,90.924c.2052.00452.41516.00879.62353.01312Zm2.95142-32.87171q.02142-.3392.04272-.67944L89.742,782.82014c.1051.10937.2257.19867.33874.298Zm.69909-12.66748q.01593-.3338.03162-.66827L84.013,776.58039c.09387.11786.18616.23969.2804.35633Zm-.32043,6.30487c.01221-.223.02368-.449.03589-.67267L86.76987,779.808q.15252.16635.30615.33051Zm.59692-12.56518c.009-.22217.01868-.44141.02759-.66419L81.4592,773.15077c.08752.12561.176.24835.26391.3728Zm-12.33972,96.11639q.12617-.44138.25085-.88763l-46.6748,46.67492c.22-.00659.44067-.01306.65649-.01983Zm7.52478-37.44494c.03394-.24665.0686-.491.10217-.73883l-84.165,84.16516c.20862.00262.418.00506.62928.0075Zm-14.15674,56.04473c.16748-.37677.335-.75378.50037-1.1372L165.0477,785.30647c.23584-.01728.46374-.03461.6886-.05194ZM185.207,771.76832c.38757-.58533.77246-1.17908,1.15173-1.78845L171.685,784.65351c.26929-.03625.51575-.0711.74145-.10461Zm10.93323-22.90112c.11267-.32434.22619-.64618.33777-.97449l-37.78711,37.78711c.22851-.01062.447-.02167.66919-.03247Zm16.09436-225.536.00146-.63825L56.61447,678.31477c.01685.19531.03369.39111.05078.58587Zm-8.04736,193.55267c.04565-.25421.08935-.51569.13464-.77136L134.2684,786.1659c.213-.00024.42676-.00049.63758-.00085Zm1.20336-7.18787q.059-.376.11744-.754l-77.21558,77.2154c.20886.00091.42334.00158.6344.00238Zm-2.63842,14.60706c.05517-.26672.11059-.53339.16528-.80194L140.281,786.13758c.21765-.00189.4281-.00415.64306-.00622Zm-1.72388,7.70746c.06763-.28022.13611-.55744.20313-.83985l-54.8877,54.88764c.21948-.00391.43286-.00818.64893-.01227Zm11.13232-166.717c.00025-.21192.00037-.4256.00061-.63733L61.29953,715.51759c.03162.18054.06287.3623.09473.54211Zm.00733-5.99134.00073-.63751L60.44309,710.39051c.02905.18256.05712.36853.08618.55042Zm-.01734,17.96949.00037-.637L63.23142,725.55421c.03735.17627.07617.34747.11376.523Zm.00464-5.9889c.00013-.21283.00025-.42468.00049-.63733L62.227,720.57423c.03442.17853.06946.355.104.53277Zm.02076-17.973c.00024-.2135.00073-.42444.001-.63775L59.65671,705.19245c.02685.18628.05444.36969.08154.55524Zm.00939-5.99316c.00037-.21173.00061-.42615.001-.6377L58.93527,699.9297c.02466.1875.04859.37671.07324.56347Zm.0221-11.99054.00146-.63812L57.66806,689.229c.02051.19184.04089.38391.06165.57508Zm.01318-5.99677c.00049-.21216.00086-.42621.00135-.63812L57.11362,683.79933c.0188.19445.03821.38562.05725.57946Zm-.562,102.29035c.0061-.21894.0127-.436.0188-.65546L76.90537,765.736q.11223.20664.225.41168Zm.53735-90.29779q.00073-.31934.00123-.63788L58.27072,694.61073c.02258.1911.04639.377.06922.56744Zm-.16723,71.97552.00806-.64477L71.25937,753.42982c.0592.15246.11706.30871.17651.46014Zm-.09094,6.07532c.00378-.21454.007-.43225.01062-.64728L72.99728,757.67634q.09632.22248.19288.44373Zm.15466-12.12287c.00171-.21453.00391-.42736.00561-.64239L69.64987,749.05586c.05481.157.10877.31671.16382.47277Zm-.27649,18.22858c.005-.21728.01-.43371.01477-.65155L74.87521,761.78266c.06958.1438.14051.28351.21045.42627Zm.31433-24.25036c.00086-.21442.00244-.42518.0033-.64L68.15939,744.56208c.05078.16113.10083.32453.15186.4848Zm.01685-17.969c.00024-.21332.00036-.424.00048-.63708L64.32272,730.44654c.04016.17176.07959.34577.12012.51666Zm-.00171,5.98547c0-.21215.00012-.42486.00024-.63684L65.50363,735.25c.04334.16821.0857.34.12927.50738Zm-.00147,5.98548c0-.08832.00049-.17456.00049-.26294v-.37433L66.77975,739.95722c.047.16486.09327.33234.14039.49634Z" style="fill:#1d1d1b" />
				<path id="hatso-dekk" d="M53.24387,447.74024c.17494,43.275.34195,92.64453.34195,147.22675,0,112.67285,12.0946,165.28693,36.13653,187.83575a5.90427,5.90427,0,0,0,3.39241,1.71808c3.76115.64423,13.86469,1.64643,39.38155,1.64643h.73759c25.51687,0,35.62041-1.07374,39.38156-1.64643a6.94035,6.94035,0,0,0,3.39241-1.71808c24.04193-22.54882,36.13665-75.23449,36.13665-187.83575,0-54.60443.16676-103.96613.34182-147.22675Z" style="fill:none;stroke:#1d1d1b;stroke-miterlimit:10;stroke-width:0.45px" />
				<g id="hid">
					<path d="M53.01926,330.32441l22.91552-22.91559c-.22485.01172-.44934.02558-.67419.03748L53.01926,329.68769Z" style="fill:#1d1d1b" />
					<path d="M53.01926,335.6999v.63672l29.23-29.22986c-.2229.01038-.4458.02148-.66883.032Z" style="fill:#1d1d1b" />
					<path d="M53.01926,324.31172,69.562,307.76893c-.22485.01306-.45.025-.67493.03821L53.01926,323.675Z" style="fill:#1d1d1b" />
					<path d="M53.01926,347.72425v.63672L94.791,306.58936c-.22107.00769-.44165.01813-.6626.02594Z" style="fill:#1d1d1b" />
					<polygon points="53.019 312.287 56.725 308.582 56.04 308.629 53.019 311.651 53.019 312.287" style="fill:#1d1d1b" />
					<path d="M63.15891,308.15992c-.22706.01459-.45423.02985-.6814.04456l-9.45825,9.45831v.63672Z" style="fill:#1d1d1b" />
					<path d="M87.87143,306.85987l-34.85217,34.8523v.63672L88.53415,306.834C88.3132,306.843,88.09225,306.85084,87.87143,306.85987Z" style="fill:#1d1d1b" />
					<polygon points="24.339 383.054 46.721 360.672 46.084 360.672 24.339 382.418 24.339 383.054" style="fill:#1d1d1b" />
					<polygon points="24.339 371.03 34.696 360.672 34.06 360.672 24.339 370.393 24.339 371.03" style="fill:#1d1d1b" />
					<path d="M113.3132,306.10432c-.217.00384-.434.01007-.65088.0141L29.0007,389.77979c.07666.00361.14893.02289.22656.02289h.38733Z" style="fill:#1d1d1b" />
					<path d="M25.43918,387.9662l27.29419-27.29438h-.63672L25.15646,387.61219C25.24045,387.73853,25.344,387.84846,25.43918,387.9662Z" style="fill:#1d1d1b" />
					<path d="M107.16757,306.23762c-.21692.00513-.434.00885-.65075.0141L53.01926,359.74928v.63672Z" style="fill:#1d1d1b" />
					<polygon points="40.708 360.672 40.072 360.672 24.339 376.405 24.339 377.042 40.708 360.672" style="fill:#1d1d1b" />
					<polygon points="24.339 365.017 28.684 360.672 28.047 360.672 24.339 364.381 24.339 365.017" style="fill:#1d1d1b" />
					<path d="M53.01926,353.737v.63672l47.97314-47.97309c-.219.00635-.43774.01349-.65661.02Z" style="fill:#1d1d1b" />
					<polygon points="233.103 360.672 232.466 360.672 145.173 447.965 145.809 447.965 233.103 360.672" style="fill:#1d1d1b" />
					<polygon points="212.711 393.088 212.711 392.452 157.197 447.965 157.834 447.965 212.711 393.088" style="fill:#1d1d1b" />
					<polygon points="215.066 360.672 214.429 360.672 127.135 447.965 127.772 447.965 215.066 360.672" style="fill:#1d1d1b" />
					<polygon points="212.711 441.187 212.711 440.55 205.296 447.965 205.932 447.965 212.711 441.187" style="fill:#1d1d1b" />
					<polygon points="212.711 411.126 212.711 410.489 175.234 447.965 175.871 447.965 212.711 411.126" style="fill:#1d1d1b" />
					<polygon points="212.711 332.966 212.711 332.329 97.074 447.965 97.711 447.965 212.711 332.966" style="fill:#1d1d1b" />
					<polygon points="212.711 429.163 212.711 428.526 193.271 447.965 193.908 447.965 212.711 429.163" style="fill:#1d1d1b" />
					<path d="M161.22079,306.29524c-.20764-.00537-.4154-.00824-.62316-.01349L53.01926,413.85987v.63672Z" style="fill:#1d1d1b" />
					<path d="M125.4819,305.96c-.21313.0014-.42627.00122-.63952.00275l-83.84009,83.84H41.639Z" style="fill:#1d1d1b" />
					<polygon points="212.711 314.928 212.711 314.292 79.037 447.965 79.674 447.965 212.711 314.928" style="fill:#1d1d1b" />
					<path d="M172.87546,306.66511c-.20435-.00745-.40845-.0166-.61279-.024L53.01926,425.88429v.63672Z" style="fill:#1d1d1b" />
					<path d="M143.49521,305.98371c-.2096-.002-.41907-.00628-.62854-.00818L53.01926,395.82282v.63672Z" style="fill:#1d1d1b" />
					<path d="M190.14938,307.42823q-.30249-.01584-.60522-.03143L53.01926,443.9214v.63671Z" style="fill:#1d1d1b" />
					<path d="M207.155,308.45979c-.19922-.01361-.39856-.02564-.59766-.03913L67.01242,447.96528h.63672Z" style="fill:#1d1d1b" />
					<polygon points="133.785 447.965 221.079 360.672 220.442 360.672 133.148 447.965 133.785 447.965" style="fill:#1d1d1b" />
					<polygon points="233.397 389.803 234.034 389.803 241.391 382.445 241.391 381.808 233.397 389.803" style="fill:#1d1d1b" />
					<polygon points="241.391 375.796 227.385 389.803 228.022 389.803 241.391 376.433 241.391 375.796" style="fill:#1d1d1b" />
					<polygon points="221.372 389.803 222.009 389.803 241.391 370.421 241.391 369.784 221.372 389.803" style="fill:#1d1d1b" />
					<polygon points="121.76 447.965 212.711 357.015 212.711 356.378 121.124 447.965 121.76 447.965" style="fill:#1d1d1b" />
					<polygon points="115.748 447.965 212.711 351.003 212.711 350.366 115.111 447.965 115.748 447.965" style="fill:#1d1d1b" />
					<polygon points="241.391 363.771 215.36 389.803 215.996 389.803 241.391 364.408 241.391 363.771" style="fill:#1d1d1b" />
					<polygon points="139.798 447.965 227.091 360.672 226.454 360.672 139.161 447.965 139.798 447.965" style="fill:#1d1d1b" />
					<polygon points="151.822 447.965 239.115 360.672 238.478 360.672 151.185 447.965 151.822 447.965" style="fill:#1d1d1b" />
					<path d="M35.627,389.80268l83.78211-83.78222q-.32264.00393-.64514.00836L34.99033,389.80268Z" style="fill:#1d1d1b" />
					<polygon points="199.921 447.965 212.711 435.175 212.711 434.538 199.284 447.965 199.921 447.965" style="fill:#1d1d1b" />
					<polygon points="211.945 447.965 212.711 447.2 212.711 446.563 211.308 447.965 211.945 447.965" style="fill:#1d1d1b" />
					<polygon points="163.846 447.965 212.711 399.101 212.711 398.464 163.21 447.965 163.846 447.965" style="fill:#1d1d1b" />
					<polygon points="169.859 447.965 212.711 405.114 212.711 404.477 169.222 447.965 169.859 447.965" style="fill:#1d1d1b" />
					<polygon points="181.884 447.965 212.711 417.138 212.711 416.501 181.247 447.965 181.884 447.965" style="fill:#1d1d1b" />
					<polygon points="187.896 447.965 212.711 423.151 212.711 422.514 187.259 447.965 187.896 447.965" style="fill:#1d1d1b" />
					<path d="M53.01926,420.50916,167.0571,306.47108q-.3089-.0097-.61792-.0188L53.01926,419.87245Z" style="fill:#1d1d1b" />
					<path d="M53.01926,408.48469,155.33615,306.16761c-.20776-.00427-.4154-.00934-.62317-.01349L53.01926,407.848Z" style="fill:#1d1d1b" />
					<path d="M53.01926,438.54627,184.41391,307.15138c-.20251-.00953-.405-.0196-.60754-.02906L53.01926,437.90955Z" style="fill:#1d1d1b" />
					<path d="M53.01926,432.5337,178.66184,306.89131c-.20411-.00855-.40845-.01551-.6128-.02393L53.01926,431.897Z" style="fill:#1d1d1b" />
					<path d="M47.6517,389.80268l83.869-83.86889c-.21313.0003-.42627.00232-.6394.00274L47.015,389.80268Z" style="fill:#1d1d1b" />
					<polygon points="109.736 447.965 212.711 344.99 212.711 344.354 109.099 447.965 109.736 447.965" style="fill:#1d1d1b" />
					<path d="M53.01926,390.44758l84.49926-84.49945q-.31677-.00138-.63391-.00275L53.01926,389.81086Z" style="fill:#1d1d1b" />
					<path d="M53.01926,402.47224l96.4115-96.41138c-.2096-.00317-.41907-.00506-.62854-.00812l-95.783,95.78278Z" style="fill:#1d1d1b" />
					<polygon points="91.699 447.965 212.711 326.953 212.711 326.317 91.062 447.965 91.699 447.965" style="fill:#1d1d1b" />
					<polygon points="103.723 447.965 212.711 338.978 212.711 338.341 103.087 447.965 103.723 447.965" style="fill:#1d1d1b" />
					<polygon points="85.686 447.965 212.711 320.941 212.711 320.304 85.05 447.965 85.686 447.965" style="fill:#1d1d1b" />
					<polygon points="73.662 447.965 212.711 308.916 212.711 308.84 212.186 308.804 73.025 447.965 73.662 447.965" style="fill:#1d1d1b" />
					<path d="M55.62473,447.96528l140.2146-140.215c-.20069-.01159-.40162-.02258-.60254-.03405L54.988,447.96528Z" style="fill:#1d1d1b" />
					<path d="M61.63742,447.96528,201.51181,308.09065c-.19934-.01258-.39831-.02668-.59753-.03913L61.0007,447.96528Z" style="fill:#1d1d1b" />
					<g id="bckgrnd">
						<path d="M212.71066,447.96528H53.01926v-58.1626h-23.792a4.89367,4.89367,0,0,1-4.88867-4.88867V360.67182H53.01926V308.84028l3.91894-.27344a1093.60139,1093.60139,0,0,1,151.85352,0l3.91894.27344v51.83154h28.68067V384.914a4.89346,4.89346,0,0,1-4.8877,4.88867h-23.793Zm-159.24218-.4502h158.793V389.35249h24.24219a4.44366,4.44366,0,0,0,4.43848-4.43848V361.122H212.26144V309.2602l-3.501-.24414a1092.70245,1092.70245,0,0,0-151.791,0l-3.501.24414V361.122H24.78781v23.792a4.44449,4.44449,0,0,0,4.43945,4.43848H53.46848Z" style="fill:#1d1d1b" />
					</g>
				</g>
				<g id="orr">
					<path d="M55.06589,272.45q.00256-.32089.00537-.642L191.95651,134.9228c.05493.157.10889.31586.16333.47339Zm.17944-12.84045q-.00659.32492-.01306.64972l133.619-133.61884c-.061-.152-.12354-.30048-.18469-.452ZM196.4028,149.1504c-.04663-.16449-.09656-.32886-.14331-.49335L35.86569,309.05042h.63672Zm-17.20874-42.91492q-.11316-.20535-.22656-.41021L56.54392,228.24909c-.01514.22742-.03077.455-.04566.68232Zm4.11353,7.91162c-.07007-.14331-.14136-.28253-.21155-.42523L55.84018,240.97749q-.01483.333-.02918.666ZM55.39108,253.45094q-.009.32721-.01758.65429l131.71131-131.711c-.0636-.1482-.12634-.29883-.19031-.44648Zm125.8993-143.29938c-.07239-.13934-.144-.28131-.21668-.42011L56.15878,234.64625q-.01849.33674-.03674.6734ZM29.03342,274.43342a4.712,4.712,0,0,0-.708.07141l-3.67151,3.67139a4.70483,4.70483,0,0,0-.07141.70807ZM193.62021,139.908c-.05151-.161-.10364-.3208-.1554-.48126L24.56308,308.32868v.63672ZM53.1019,274.414h-.63672l-27.9021,27.9021v.63672Zm-6.01184,0h-.63672L24.56308,296.30421v.63672ZM195.04269,144.49781c-.04882-.16247-.10034-.32483-.14941-.4873L29.853,309.05042h.63672ZM41.07748,274.414h-.63671L24.56308,290.29164v.63671Zm135.94117-172.015c-.07849-.13446-.15747-.26678-.23621-.40063L57.01389,221.76679c-.01807.23-.0354.4599-.05323.68982ZM35.06479,274.414h-.63672l-9.865,9.865v.63672Zm20.52527-27.17383q-.01191.33-.02344.6601l129.66956-129.6698c-.06678-.14576-.134-.29047-.201-.43567Zm-.4513,18.48834q-.00457.323-.00927.646l135.39685-135.397q-.08679-.23181-.17334-.46338ZM147.77853,65.5033c-.11108-.103-.22094-.20391-.331-.3056L71.79684,140.84821c-.09582.30542-.1853.61127-.28.91675Zm-6.43066-5.59375c-.11938-.0968-.23523-.18969-.35254-.28411l-62.08716,62.087c-.15844.36579-.31421.73889-.47131,1.108Zm12.48779,11.56116c-.10376-.10834-.208-.218-.3114-.32532l-86.44861,86.4488c-.07068.28088-.13635.562-.20617.84289ZM150.851,68.44355c-.10717-.10559-.21435-.21142-.321-.31579L69.25766,149.4c-.08215.2923-.1593.58484-.24048.8772Zm-6.23852-5.78686q-.171-.14906-.34082-.2959L74.90366,131.729q-.184.49979-.36609,1.00281ZM241.07809,278.1955,210.247,309.02662c.11841.00842.23694.01532.35547.0238h.25732l30.27661-30.27649A4.687,4.687,0,0,0,241.07809,278.1955ZM137.9697,57.27509q-.18531-.1386-.365-.27166l-53.25464,53.2547c-.22583.43591-.45191.87121-.676,1.3128Zm-3.51624-2.49646q-.204-.13612-.38293-.25366L92.6008,95.99476q-.55407.86124-1.106,1.74255Zm40.31018,43.86286c-.08166-.132-.16382-.26-.24548-.3913L57.57126,215.19727c-.02149.23426-.04492.46857-.06616.70282Zm-4.754-7.27063c-.0863-.125-.17248-.2536-.25891-.37793L59.00693,201.73664c-.02942.24188-.05994.48377-.089.72565Zm-2.49548-3.51709c-.08911-.12225-.17822-.2478-.26733-.36932L59.906,194.82539q-.05146.36969-.10254.73938Zm4.91211,7.1131c-.08386-.12842-.16773-.25733-.25171-.38507L58.23019,208.526c-.02514.23669-.04846.47333-.07324.71Zm-10.14-13.90955q-.143-.176-.28576-.35107L62.1749,180.53205c-.046.2583-.09265.51654-.13819.7749Zm-2.73461-3.27814c-.09888-.11529-.1969-.22674-.29554-.34118L63.57883,173.11549c-.05347.26654-.11.5329-.16284.79944Zm5.3883,6.63691c-.0918-.11939-.18384-.24237-.27563-.361L60.95725,187.76191c-.03968.2511-.0774.50226-.1167.75336Zm-8.20557-9.83149q-.15178-.16753-.303-.33368L65.19919,165.48286q-.09228.41016-.1836.82031Zm53.665,180.81507c-.00512-.20722-.00976-.41437-.01513-.62158L158.5759,306.5865c.20752.00494.41516.00885.6228.01385Zm.27466,17.76245q-.00219-.31585-.00488-.63178l-34.61023,34.61017q.306.01218.61218.0246Zm4.76087,1.25183h-.63672l-32.962,32.962c.20239.00909.40454.02056.60694.02984Zm6.01257,0h-.63672L187.56711,307.6576c.20239.01013.40466.01947.60693.02979Zm-10.83081-7.20636c-.00256-.2099-.0044-.41968-.00708-.62964l-40.343,40.343c.20581.00708.41174.01214.61743.01929Zm-.59522-23.45435q-.01245-.30578-.02514-.61157l-63.23072,63.23065q.314.00394.62818.00843Zm.50562,17.53156c-.00391-.20807-.00842-.41638-.01233-.62445l-46.07849,46.07843c.20581.006.41162.01318.61743.01929ZM227.45932,274.414h-.63672L193.27951,307.957c.20056.01117.40112.02374.60181.035Zm-17.22424-24.86182c-.00659-.20489-.0149-.41015-.02173-.61511l-57.51807,57.51819c.20777.00378.41529.01.62281.01385Zm30.932,41.21558V290.131l-18.91955,18.91943h.63672ZM233.47189,274.414h-.63672L198.962,308.28718c.20056.01215.40124.02264.60168.035Zm7.69519,34.39081V308.168l-.88244.88238h.63672Zm0-12.02448v-.63672l-12.90686,12.90686h.63672Zm0,6.0127v-.63672l-6.89416,6.89416h.63672Zm-31.40271-64.79462c-.01-.2027-.01867-.40515-.0288-.60791l-68.918,68.918c.2113.00153.4226.00116.63391.00287Zm29.0719,37.06305a4.60321,4.60321,0,0,0-.41272-.224l-33.81128,33.81134q.29829.01979.59668.04Zm2.33081,9.69446v-.63672l-24.93127,24.93127h.63672Zm-34.72973-85.517c-.02405-.18732-.05042-.3747-.07483-.562L98.20419,306.835q.32868-.01044.65735-.02051Zm-3.23963-20.80969c-.033-.17823-.06884-.35633-.10217-.53455L73.06979,307.92066c.22535-.01239.45044-.027.67591-.0393Zm1.74292,10.28192c-.02856-.18372-.05651-.36749-.08545-.55127L85.71567,307.2992c.22107-.00958.44226-.01721.66345-.02667Zm-.84008-5.17249c-.031-.18188-.05982-.36389-.09107-.54577L79.406,307.59614q.33471-.01648.66967-.0329Zm-1.8772-10.14727c-.03528-.17634-.07227-.35254-.10791-.52881L66.68625,308.29145c.22534-.01367.45068-.02563.676-.03924Zm-3.302-14.735c-.04236-.17041-.08277-.34088-.12549-.51129L47.89011,309.05042h.63672Zm1.16406,4.84814c-.04-.17242-.07922-.34485-.11963-.51721L53.9028,309.05042h.63672Zm1.10058,4.912q-.05639-.26146-.11376-.52307L60.26022,308.7057q.34131-.0228.6825-.04572Zm7.49537,52.62769c-.01563-.19715-.02942-.394-.04541-.59125l-85.86841,85.86847q.32152-.003.64306-.00623Zm.77575,11.249c-.01172-.2-.02478-.4-.03674-.59991l-74.58862,74.5885c.21118.00036.4226.00232.63379.0028Zm-1.2478-16.78918c-.0177-.194-.03674-.38813-.05469-.5821l-91.4812,91.481c.21509-.00317.4303-.00549.64539-.0086Zm.88562,11.13879q-.02051-.29783-.041-.5957l-80.24414,80.244c.21314-.0008.42627-.0022.63953-.00287Zm-11.40112-72.77136c-.04468-.1684-.08618-.337-.13135-.50537L41.87839,309.05042h.63672Zm8.02551,40.0733c-.02624-.18561-.05347-.37109-.08008-.5567L91.98007,307.04737c.22107-.0083.44226-.01843.66345-.02661Zm1.36755,10.6568c-.022-.19073-.04223-.38153-.06445-.57227L104.40427,306.64765c.217-.00567.43408-.009.65124-.01452Zm.58973,5.423q-.02967-.28868-.05945-.57721l-97.063,97.063c.217-.00446.4342-.0102.65124-.01453Z" style="fill:#1d1d1b" />
					<path id="bckgrnd-2" data-name="bckgrnd" d="M210.68383,274.414c-.27014-43.98724-2.77258-89.12048-16.76257-133.57428-19.75708-62.77893-61.05615-87.07751-61.05615-87.07751S91.485,78.06074,71.79944,140.83967c-13.93934,44.4538-16.46277,89.587-16.74952,133.57428h-25.823a4.66376,4.66376,0,0,0-4.66376,4.66376v29.97271H55.12024l.00742-.00053a1089.38182,1089.38182,0,0,1,155.4748.00053h30.56465V279.07771a4.66376,4.66376,0,0,0-4.66376-4.66376Z" style="fill:none;stroke:#1d1d1b;stroke-miterlimit:10" />
				</g>
			</g>
		</g>
		<g id="stairs">
			<rect x="24.56311" y="309.05042" width="28.68077" height="51.84666" style="fill:none;stroke:#1d1d1b;stroke-miterlimit:10" />
			<line x1="53.24387" y1="317.6195" x2="24.56311" y2="317.6195" style="fill:none;stroke:#1d1d1b;stroke-miterlimit:10" />
			<line x1="53.24387" y1="326.18859" x2="24.56311" y2="326.18859" style="fill:none;stroke:#1d1d1b;stroke-miterlimit:10" />
			<line x1="53.24387" y1="334.75767" x2="24.56311" y2="334.75767" style="fill:none;stroke:#1d1d1b;stroke-miterlimit:10" />
			<line x1="53.24387" y1="343.32675" x2="24.56311" y2="343.32675" style="fill:none;stroke:#1d1d1b;stroke-miterlimit:10" />
			<line x1="53.24387" y1="351.89583" x2="24.56311" y2="351.89583" style="fill:none;stroke:#1d1d1b;stroke-miterlimit:10" />
		</g>
		<g id="stairs-2" data-name="stairs">
			<rect x="212.48634" y="309.05042" width="28.68077" height="51.84666" transform="translate(453.65346 669.94751) rotate(180)" style="fill:none;stroke:#1d1d1b;stroke-miterlimit:10" />
			<line x1="212.48634" y1="317.6195" x2="241.16711" y2="317.6195" style="fill:none;stroke:#1d1d1b;stroke-miterlimit:10" />
			<line x1="212.48634" y1="326.18859" x2="241.16711" y2="326.18859" style="fill:none;stroke:#1d1d1b;stroke-miterlimit:10" />
			<line x1="212.48634" y1="334.75767" x2="241.16711" y2="334.75767" style="fill:none;stroke:#1d1d1b;stroke-miterlimit:10" />
			<line x1="212.48634" y1="343.32675" x2="241.16711" y2="343.32675" style="fill:none;stroke:#1d1d1b;stroke-miterlimit:10" />
			<line x1="212.48634" y1="351.89583" x2="241.16711" y2="351.89583" style="fill:none;stroke:#1d1d1b;stroke-miterlimit:10" />
		</g>
		
		<g id="elso-dekk" class="animate">
			<path id="bckgrnd-4" class="bckgrnd" data-name="bckgrnd" d="M210.68383,274.414c-.27014-43.98724-2.77258-89.12048-16.76257-133.57428-19.75708-62.77893-61.05615-87.07751-61.05615-87.07751S91.485,78.06074,71.79944,140.83967c-13.93934,44.4538-16.46277,89.587-16.74952,133.57428h-25.823a4.66376,4.66376,0,0,0-4.66376,4.66376v29.97271H55.12024l.00742-.00053a1089.38182,1089.38182,0,0,1,155.4748.00053h30.56465V279.07771a4.66376,4.66376,0,0,0-4.66376-4.66376Z" style="fill:#fff;stroke:#1d1d1b;stroke-miterlimit:10" />
			<g id="exhausts">
				<circle cx="131.90582" cy="239.68085" r="5.74468" style="fill:none;stroke:#1d1d1b;stroke-miterlimit:10" />
				<circle cx="89.59692" cy="122.56741" r="3.67379" style="fill:none;stroke:#1d1d1b;stroke-miterlimit:10" />
				<circle cx="93.60552" cy="112.50112" r="3.67379" style="fill:none;stroke:#1d1d1b;stroke-miterlimit:10" />
				<circle cx="176.235" cy="122.56741" r="3.67379" style="fill:none;stroke:#1d1d1b;stroke-miterlimit:10" />
				<circle cx="172.2264" cy="112.50112" r="3.67379" style="fill:none;stroke:#1d1d1b;stroke-miterlimit:10" />
				<circle cx="119.27778" cy="239.68085" r="4.0621" style="fill:none;stroke:#1d1d1b;stroke-miterlimit:10" />
				<circle cx="144.53386" cy="239.68085" r="4.0621" style="fill:none;stroke:#1d1d1b;stroke-miterlimit:10" />
			</g>
			<rect x="117.02776" y="122.85106" width="31.68747" height="31.68747" style="fill:none;stroke:#1d1d1b;stroke-miterlimit:10" />
			<g id="seats">
				<g id="seats-right">
					<g id="seat-17" data-name="seat">
						<rect x="175.78928" y="236.80851" width="27" height="21.02068" style="fill:#e7cf4a;stroke:#1d1d1b;stroke-miterlimit:10" />
						<rect x="173.41122" y="221.68085" width="31.75612" height="12.25532" style="fill:#e7cf4a;stroke:#1d1d1b;stroke-miterlimit:10" />
						<rect x="173.41122" y="221.68085" width="31.75612" height="3.6383" style="fill:#e7cf4a;stroke:#1d1d1b;stroke-miterlimit:10" />
						<rect x="173.41122" y="260.70153" width="31.75612" height="12.25532" style="fill:#e7cf4a;stroke:#1d1d1b;stroke-miterlimit:10" />
						<rect x="173.41122" y="269.31855" width="31.75612" height="3.6383" style="fill:#e7cf4a;stroke:#1d1d1b;stroke-miterlimit:10" />
					</g>
					<g id="seat-18" data-name="seat">
						<rect x="171.58105" y="179.97872" width="27" height="21.02068" transform="translate(-27.5204 31.29829) rotate(-9)" style="fill:#e7cf4a;stroke:#1d1d1b;stroke-miterlimit:10" />
						<rect x="166.1509" y="165.09127" width="31.75612" height="12.25532" transform="translate(-24.54346 30.58359) rotate(-9)" style="fill:#e7cf4a;stroke:#1d1d1b;stroke-miterlimit:10" />
						<rect x="165.4769" y="165.14431" width="31.75612" height="3.6383" transform="translate(-23.88606 30.42576) rotate(-9)" style="fill:#e7cf4a;stroke:#1d1d1b;stroke-miterlimit:10" />
						<rect x="172.25508" y="203.63154" width="31.75612" height="12.25532" transform="translate(-30.49734 32.01299) rotate(-9)" style="fill:#e7cf4a;stroke:#1d1d1b;stroke-miterlimit:10" />
						<rect x="172.92908" y="212.19552" width="31.75612" height="3.6383" transform="translate(-31.15474 32.17082) rotate(-9)" style="fill:#e7cf4a;stroke:#1d1d1b;stroke-miterlimit:10" />
					</g>
					<g id="seat-19" data-name="seat">
						<rect x="170.19438" y="128.19264" width="18.64974" height="17.38238" transform="translate(-32.17682 58.46752) rotate(-17)" style="fill:#e7cf4a;stroke:#1d1d1b;stroke-miterlimit:10" />
						<rect x="170.19438" y="128.19264" width="18.64974" height="17.38238" transform="translate(-32.17682 58.46752) rotate(-17)" style="fill:#e7cf4a;stroke:#1d1d1b;stroke-miterlimit:10" />
						<rect x="162.53284" y="149.2653" width="31.75612" height="12.25532" transform="translate(-32.29339 47.77734) rotate(-14)" style="fill:#e7cf4a;stroke:#1d1d1b;stroke-miterlimit:10" />
						<rect x="163.57516" y="157.75434" width="31.75612" height="3.6383" transform="translate(-33.27379 48.15368) rotate(-14)" style="fill:#e7cf4a;stroke:#1d1d1b;stroke-miterlimit:10" />
					</g>
				</g>
				<g id="seats-left">
					<g id="seat-20" data-name="seat">
						<rect x="63.04264" y="236.80851" width="27" height="21.02068" style="fill:#e7cf4a;stroke:#1d1d1b;stroke-miterlimit:10" />
						<rect x="60.66458" y="221.68085" width="31.75612" height="12.25532" style="fill:#e7cf4a;stroke:#1d1d1b;stroke-miterlimit:10" />
						<rect x="60.66458" y="221.68085" width="31.75612" height="3.6383" style="fill:#e7cf4a;stroke:#1d1d1b;stroke-miterlimit:10" />
						<rect x="60.66458" y="260.70153" width="31.75612" height="12.25532" style="fill:#e7cf4a;stroke:#1d1d1b;stroke-miterlimit:10" />
						<rect x="60.66458" y="269.31855" width="31.75612" height="3.6383" style="fill:#e7cf4a;stroke:#1d1d1b;stroke-miterlimit:10" />
					</g>
					<g id="seat-21" data-name="seat">
						<rect x="70.24054" y="176.98906" width="21.02068" height="27" transform="translate(-120.02517 240.44671) rotate(-81)" style="fill:#e7cf4a;stroke:#1d1d1b;stroke-miterlimit:10" />
						<rect x="77.67531" y="155.34087" width="12.25532" height="31.75612" transform="translate(-98.41764 227.2056) rotate(-81)" style="fill:#e7cf4a;stroke:#1d1d1b;stroke-miterlimit:10" />
						<rect x="82.65782" y="151.0854" width="3.6383" height="31.75612" transform="translate(-93.64601 224.28154) rotate(-81)" style="fill:#e7cf4a;stroke:#1d1d1b;stroke-miterlimit:10" />
						<rect x="71.57113" y="193.88114" width="12.25532" height="31.75612" transform="translate(-141.6327 253.68782) rotate(-81)" style="fill:#e7cf4a;stroke:#1d1d1b;stroke-miterlimit:10" />
						<rect x="75.20564" y="198.13661" width="3.6383" height="31.75612" transform="translate(-146.40433 256.61188) rotate(-81)" style="fill:#e7cf4a;stroke:#1d1d1b;stroke-miterlimit:10" />
					</g>
					<g id="seat-22" data-name="seat">
						<rect x="77.62148" y="127.55896" width="17.38238" height="18.64974" transform="translate(-69.82537 179.40409) rotate(-73)" style="fill:#e7cf4a;stroke:#1d1d1b;stroke-miterlimit:10" />
						<rect x="77.62148" y="127.55896" width="17.38238" height="18.64974" transform="translate(-69.82537 179.40409) rotate(-73)" style="fill:#e7cf4a;stroke:#1d1d1b;stroke-miterlimit:10" />
						<rect x="81.29336" y="139.5149" width="12.25532" height="31.75612" transform="translate(-84.50516 202.62425) rotate(-76)" style="fill:#e7cf4a;stroke:#1d1d1b;stroke-miterlimit:10" />
						<rect x="84.55955" y="143.69543" width="3.6383" height="31.75612" transform="translate(-89.35167 204.78205) rotate(-76)" style="fill:#e7cf4a;stroke:#1d1d1b;stroke-miterlimit:10" />
					</g>
				</g>
				<g id="seats-center-2" data-name="seats-center">
					<rect x="117.02776" y="176.95655" width="31.75612" height="21.02068" style="fill:#e7cf4a;stroke:#1d1d1b;stroke-miterlimit:10" />
					<rect x="117.02776" y="161.82889" width="31.75612" height="12.25532" style="fill:#e7cf4a;stroke:#1d1d1b;stroke-miterlimit:10" />
					<rect x="117.02776" y="161.82889" width="31.75612" height="3.6383" style="fill:#e7cf4a;stroke:#1d1d1b;stroke-miterlimit:10" />
					<rect x="117.02776" y="200.84957" width="31.75612" height="12.25532" transform="translate(265.81164 413.95447) rotate(180)" style="fill:#e7cf4a;stroke:#1d1d1b;stroke-miterlimit:10" />
					<rect x="117.02776" y="209.4666" width="31.75612" height="3.6383" transform="translate(265.81164 422.57149) rotate(180)" style="fill:#e7cf4a;stroke:#1d1d1b;stroke-miterlimit:10" />
				</g>
			</g>
		</g>
		<g id="kapitany-allas" class="animate">
			<path id="bckgrnd-5" class="bckgrnd" data-name="bckgrnd" d="M241.16708,360.8971H212.4863V309.05042l-3.71038-.25917a1089.38133,1089.38133,0,0,0-151.82167,0l-3.71038.25917V360.8971H24.56308v24.017a4.66377,4.66377,0,0,0,4.66377,4.66377h24.017v58.16241H212.4863V389.57783h24.017a4.66376,4.66376,0,0,0,4.66376-4.66377Z" style="fill:#fff;stroke:#1d1d1b;stroke-miterlimit:10" />
			<path d="M168.29269,447.74024h-.44921V306.71382c.14965.00482.29956.00885.44921.01373Zm5.0293-140.83758c-.14978-.00556-.29944-.01209-.44922-.01758V447.74024h.44922ZM163.2634,306.574c-.14966-.00421-.29956-.00958-.44922-.01367V447.74024h.44922Zm25.14551.99134c-.14966-.00763-.29957-.014-.44922-.02155V447.74024h.44922Zm-5.0293-.24127c-.14966-.007-.29956-.01465-.44922-.02155V447.74024h.44922Zm-30.17383-.98591c-.14966-.00274-.29956-.00708-.44922-.00982V447.74024h.44922Zm-5.0293-.07757q-.22448-.00312-.44922-.00586V447.74024h.44922Zm-5.02832-.06574c-.14978-.0014-.29944-.00451-.44922-.00586V447.74024h.44922Zm-5.02929-.0288-.44922-.002V447.74024h.44922Zm20.11621.28167c-.14966-.00348-.29956-.00634-.44922-.00976V447.74024h.44922Zm-25.14551-.30359h-.44922V447.74024h.44922ZM223.612,360.8971h-.44922v28.68073h.44922Zm-5.0293,0h-.44922v28.68073h.44922ZM193.4382,307.83833c-.14966-.00836-.29944-.01721-.44922-.02545V447.74024h.44922Zm45.26074,53.05877h-.44921v28.33564a4.58654,4.58654,0,0,0,.44921-.22785Zm-5.02929,0h-.44922v28.68073h.44922Zm-5.02832,0h-.44922v28.68073h.44922Zm-30.17481-52.77356c-.14966-.009-.29956-.01654-.44922-.02551V447.74024h.44922Zm5.0293.322q-.22467-.01456-.44922-.02942V447.74024h.44922Zm5.0293.32928c-.14966-.01044-.29956-.019-.44922-.02942V447.74024h.44922Zm5.02929,52.12225h-.44922v28.68073h.44922Zm-35.20312-53.797c-.14966-.00623-.29956-.01148-.44922-.01764V447.74024h.44922ZM57.655,308.74537c-.14966.01038-.29956.019-.44922.02942V447.74024H57.655ZM47.59641,360.8971h-.44922v28.68073h.44922Zm5.02929,0h-.44922v28.68073h.44922Zm15.08692-52.799c-.14966.009-.29956.01642-.44922.02545v139.6167h.44922Zm-5.0293.31806q-.22467.01446-.44922.02942V447.74024h.44922Zm-25.14453,52.481h-.44922v28.68073h.44922Zm-10.0586,0H27.031v28.10767a4.587,4.587,0,0,0,.44921.22791Zm15.08692,0h-.44922v28.68073h.44922Zm-10.05762,0h-.44922v28.68073h.44922Zm40.23242-53.08429c-.14978.00824-.29956.01716-.44922.02552V447.74024h.44922Zm45.26075-1.558q-.22449.003-.44922.00586V447.74024h.44922Zm-40.23243,1.28906c-.14965.00757-.29956.01392-.44922.02155V447.74024h.44922ZM107.945,306.438c-.14966.00342-.29956.00622-.44922.00976V447.74024h.44922Zm15.08691-.249c-.14978.00135-.29944.00446-.44922.00586V447.74024h.44922Zm-20.11621.37134c-.14978.00409-.29944.00946-.44922.01367v141.1662h.44922Zm25.14453-.39624-.44922.002V447.74024h.44922Zm-15.08691.16425c-.14978.00274-.29956.00708-.44922.00982v141.402h.44922Zm-30.17383.97418c-.14978.0069-.29944.01459-.44922.02155V447.74024h.44922Zm15.08691-.58874c-.14965.00482-.29956.00885-.44921.01373V447.74024h.44921Zm-10.05761.36859c-.14966.00616-.29956.01141-.44922.01764V447.74024h.44922Zm5.02832-.19733c-.14966.00549-.29956.01208-.44922.01764V447.74024h.44922Z" style="fill:#1d1d1b" />
			<g id="hid-2" data-name="hid">
				<polygon points="151.071 315.365 114.659 315.365 97.275 324.262 97.275 367.539 168.455 367.539 168.455 324.262 151.071 315.365" style="fill:#fff;stroke:#1d1d1b;stroke-miterlimit:10" />
				<text transform="translate(112.29893 347.2768)" style="font-size:12px;font-family:Roboto-Regular, Roboto">
					Hajóhíd
				</text>
			</g>
			<circle cx="132.86511" cy="434.79833" r="7.60684" style="fill:#fff;stroke:#1d1d1b;stroke-miterlimit:10" />
			<g id="seats-2" data-name="seats">
				<g id="seat-23" data-name="seat">
					<rect x="73.16206" y="420.19319" width="20" height="15.99659" transform="translate(511.35355 345.02943) rotate(90)" style="fill:#f45042;stroke:#1d1d1b;stroke-miterlimit:10" />
					<rect x="85.9262" y="423.52838" width="24.16619" height="9.32621" transform="translate(526.20079 330.18219) rotate(90)" style="fill:#f45042;stroke:#1d1d1b;stroke-miterlimit:10" />
					<rect x="89.20495" y="426.80713" width="24.16619" height="2.76872" transform="translate(529.47953 326.90345) rotate(90)" style="fill:#f45042;stroke:#1d1d1b;stroke-miterlimit:10" />
					<rect x="56.23174" y="423.52838" width="24.16619" height="9.32621" transform="translate(-359.87666 496.50632) rotate(-90)" style="fill:#f45042;stroke:#1d1d1b;stroke-miterlimit:10" />
					<rect x="52.95299" y="426.80713" width="24.16619" height="2.76872" transform="translate(-363.15541 493.22757) rotate(-90)" style="fill:#f45042;stroke:#1d1d1b;stroke-miterlimit:10" />
				</g>
				<g id="seat-24" data-name="seat">
					<rect x="172.56816" y="420.19319" width="20" height="15.99659" transform="translate(610.75964 245.62333) rotate(90)" style="fill:#f45042;stroke:#1d1d1b;stroke-miterlimit:10" />
					<rect x="155.63783" y="423.52838" width="24.16619" height="9.32621" transform="translate(595.91241 260.47057) rotate(90)" style="fill:#f45042;stroke:#1d1d1b;stroke-miterlimit:10" />
					<rect x="152.35908" y="426.80713" width="24.16619" height="2.76872" transform="translate(592.63366 263.74931) rotate(90)" style="fill:#f45042;stroke:#1d1d1b;stroke-miterlimit:10" />
					<rect x="185.3323" y="423.52838" width="24.16619" height="9.32621" transform="translate(-230.7761 625.60688) rotate(-90)" style="fill:#f45042;stroke:#1d1d1b;stroke-miterlimit:10" />
					<rect x="188.61104" y="426.80713" width="24.16619" height="2.76872" transform="translate(-227.49735 628.88563) rotate(-90)" style="fill:#f45042;stroke:#1d1d1b;stroke-miterlimit:10" />
				</g>
				<g id="seat-25" data-name="seat">
					<rect x="66.34634" y="329.70682" width="13.2632" height="12.88482" transform="translate(145.95587 672.29847) rotate(180)" style="fill:#f45042;stroke:#1d1d1b;stroke-miterlimit:10" />
					<rect x="66.34634" y="345.86336" width="13.2632" height="11.06972" transform="translate(145.95587 702.79643) rotate(180)" style="fill:#f45042;stroke:#1d1d1b;stroke-miterlimit:10" />
					<rect x="66.34634" y="353.64675" width="13.2632" height="3.28632" transform="translate(145.95587 710.57982) rotate(180)" style="fill:#f45042;stroke:#1d1d1b;stroke-miterlimit:10" />
					<rect x="66.34634" y="315.3654" width="13.2632" height="11.06972" style="fill:#f45042;stroke:#1d1d1b;stroke-miterlimit:10" />
					<rect x="66.34634" y="315.3654" width="13.2632" height="3.28632" style="fill:#f45042;stroke:#1d1d1b;stroke-miterlimit:10" />
				</g>
				<g id="seat-26" data-name="seat">
					<rect x="186.26197" y="329.70682" width="13.2632" height="12.88482" style="fill:#f45042;stroke:#1d1d1b;stroke-miterlimit:10" />
					<rect x="186.26197" y="345.86336" width="13.2632" height="11.06972" style="fill:#f45042;stroke:#1d1d1b;stroke-miterlimit:10" />
					<rect x="186.26197" y="353.64675" width="13.2632" height="3.28632" style="fill:#f45042;stroke:#1d1d1b;stroke-miterlimit:10" />
					<rect x="186.26197" y="315.3654" width="13.2632" height="11.06972" transform="translate(385.78714 641.80051) rotate(180)" style="fill:#f45042;stroke:#1d1d1b;stroke-miterlimit:10" />
					<rect x="186.26197" y="315.3654" width="13.2632" height="3.28632" transform="translate(385.78714 634.01712) rotate(180)" style="fill:#f45042;stroke:#1d1d1b;stroke-miterlimit:10" />
				</g>
			</g>
		</g>
        <g id="hatso-dekk-2" class="animate" data-name="hatso-dekk">
			<path id="bckgrnd-3" class="bckgrnd" data-name="bckgrnd" d="M53.24387,447.74024c.17494,43.275.34195,92.64453.34195,147.22675,0,112.67285,12.0946,165.28693,36.13653,187.83575a5.90427,5.90427,0,0,0,3.39241,1.71808c3.76115.64423,13.86469,1.64643,39.38155,1.64643h.73759c25.51687,0,35.62041-1.07374,39.38156-1.64643a6.94035,6.94035,0,0,0,3.39241-1.71808c24.04193-22.54882,36.13665-75.23449,36.13665-187.83575,0-54.60443.16676-103.96613.34182-147.22675Z" style="fill:#fff;stroke:#1d1d1b;stroke-miterlimit:10" />
			<circle cx="132.86511" cy="624.9157" r="7.60684" style="fill:#fff;stroke:#1d1d1b;stroke-miterlimit:10" />
			<g id="seats-around">
				<path id="seat" d="M185.73814,731.1329c-4.06948,15.934-9.25828,27.81549-15.615,35.917a8.72364,8.72364,0,0,1-6.23406,3.30173c-5.65278.41124-15.15369.81585-30.655.81585h-.7373c-15.81958,0-25.199-.39234-30.60143-.77924a8.72981,8.72981,0,0,1-6.25278-3.2929c-6.37288-8.1025-11.57331-19.99885-15.65035-35.9625a3.3846,3.3846,0,0,0-3.28251-2.537H63.898c6.00037,26.63373,14.61267,43.69159,25.82434,54.207a5.9042,5.9042,0,0,0,3.39234,1.71808c3.76123.64423,13.86474,1.64643,39.38159,1.64643h.73755c25.51684,0,35.62048-1.07374,39.38159-1.64643a6.94005,6.94005,0,0,0,3.39233-1.71808c11.20825-10.512,19.81861-27.5783,25.81861-54.207H189.02066A3.38465,3.38465,0,0,0,185.73814,731.1329Z" style="fill:#42f492;stroke:#1d1d1b;stroke-miterlimit:10" />
				<g id="seat-2" data-name="seat">
					<rect x="61.49185" y="466.85993" width="27" height="21.02068" style="fill:#42f492;stroke:#1d1d1b;stroke-miterlimit:10" />
					<rect x="59.11379" y="451.73227" width="31.75612" height="12.25532" style="fill:#42f492;stroke:#1d1d1b;stroke-miterlimit:10" />
					<rect x="59.11379" y="451.73227" width="31.75612" height="3.6383" style="fill:#42f492;stroke:#1d1d1b;stroke-miterlimit:10" />
					<rect x="59.11379" y="490.75295" width="31.75612" height="12.25532" transform="translate(149.9837 993.76122) rotate(180)" style="fill:#42f492;stroke:#1d1d1b;stroke-miterlimit:10" />
					<rect x="59.11379" y="499.36997" width="31.75612" height="3.6383" transform="translate(149.9837 1002.37824) rotate(180)" style="fill:#42f492;stroke:#1d1d1b;stroke-miterlimit:10" />
				</g>
				<g id="seat-3" data-name="seat">
					<rect x="61.49185" y="522.12796" width="27" height="21.02068" style="fill:#42f492;stroke:#1d1d1b;stroke-miterlimit:10" />
					<rect x="59.11379" y="507.0003" width="31.75612" height="12.25532" style="fill:#42f492;stroke:#1d1d1b;stroke-miterlimit:10" />
					<rect x="59.11379" y="507.0003" width="31.75612" height="3.6383" style="fill:#42f492;stroke:#1d1d1b;stroke-miterlimit:10" />
					<rect x="59.11379" y="546.02098" width="31.75612" height="12.25532" transform="translate(149.9837 1104.29728) rotate(180)" style="fill:#42f492;stroke:#1d1d1b;stroke-miterlimit:10" />
					<rect x="59.11379" y="554.638" width="31.75612" height="3.6383" transform="translate(149.9837 1112.9143) rotate(180)" style="fill:#42f492;stroke:#1d1d1b;stroke-miterlimit:10" />
				</g>
				<g id="seat-4" data-name="seat">
					<rect x="61.49185" y="577.39598" width="27" height="21.02068" style="fill:#42f492;stroke:#1d1d1b;stroke-miterlimit:10" />
					<rect x="59.11379" y="562.26833" width="31.75612" height="12.25532" style="fill:#42f492;stroke:#1d1d1b;stroke-miterlimit:10" />
					<rect x="59.11379" y="562.26833" width="31.75612" height="3.6383" style="fill:#42f492;stroke:#1d1d1b;stroke-miterlimit:10" />
					<rect x="59.11379" y="601.28901" width="31.75612" height="12.25532" transform="translate(149.9837 1214.83333) rotate(180)" style="fill:#42f492;stroke:#1d1d1b;stroke-miterlimit:10" />
					<rect x="59.11379" y="609.90603" width="31.75612" height="3.6383" transform="translate(149.9837 1223.45035) rotate(180)" style="fill:#42f492;stroke:#1d1d1b;stroke-miterlimit:10" />
				</g>
				<g id="seat-5" data-name="seat">
					<rect x="62.1812" y="631.60861" width="27" height="21.02068" transform="translate(-17.38353 2.28823) rotate(-1.55379)" style="fill:#42f492;stroke:#1d1d1b;stroke-miterlimit:10" />
					<rect x="59.27411" y="616.48812" width="31.75612" height="12.25532" transform="translate(-16.85489 2.26672) rotate(-1.55379)" style="fill:#42f492;stroke:#1d1d1b;stroke-miterlimit:10" />
					<rect x="59.15728" y="616.4897" width="31.75612" height="3.6383" transform="translate(-16.73815 2.26197) rotate(-1.55379)" style="fill:#42f492;stroke:#1d1d1b;stroke-miterlimit:10" />
					<rect x="60.33217" y="655.49445" width="31.75612" height="12.25532" transform="translate(170.33264 1320.93447) rotate(178.44621)" style="fill:#42f492;stroke:#1d1d1b;stroke-miterlimit:10" />
					<rect x="60.449" y="664.10989" width="31.75612" height="3.6383" transform="translate(170.68304 1329.54358) rotate(178.44621)" style="fill:#42f492;stroke:#1d1d1b;stroke-miterlimit:10" />
				</g>
				<g id="seat-6" data-name="seat">
					<rect x="65.74966" y="686.92868" width="27" height="21.02068" transform="translate(-67.01577 10.92018) rotate(-5.54457)" style="fill:#42f492;stroke:#1d1d1b;stroke-miterlimit:10" />
					<rect x="61.48651" y="671.89231" width="31.75612" height="12.25532" transform="translate(-65.14832 10.64719) rotate(-5.54457)" style="fill:#42f492;stroke:#1d1d1b;stroke-miterlimit:10" />
					<rect x="61.07022" y="671.91246" width="31.75612" height="3.6383" transform="translate(-64.73593 10.5869) rotate(-5.54457)" style="fill:#42f492;stroke:#1d1d1b;stroke-miterlimit:10" />
					<rect x="65.25669" y="710.73042" width="31.75612" height="12.25532" transform="translate(231.15272 1422.52299) rotate(174.45543)" style="fill:#42f492;stroke:#1d1d1b;stroke-miterlimit:10" />
					<rect x="65.67298" y="719.32729" width="31.75612" height="3.6383" transform="translate(232.39769 1431.03941) rotate(174.45543)" style="fill:#42f492;stroke:#1d1d1b;stroke-miterlimit:10" />
				</g>
				<g id="seat-7" data-name="seat">
					<rect x="177.37965" y="466.85993" width="27" height="21.02068" transform="translate(381.75931 954.74054) rotate(180)" style="fill:#42f492;stroke:#1d1d1b;stroke-miterlimit:10" />
					<rect x="175.00159" y="451.73227" width="31.75612" height="12.25532" transform="translate(381.75931 915.71986) rotate(180)" style="fill:#42f492;stroke:#1d1d1b;stroke-miterlimit:10" />
					<rect x="175.00159" y="451.73227" width="31.75612" height="3.6383" transform="translate(381.75931 907.10284) rotate(180)" style="fill:#42f492;stroke:#1d1d1b;stroke-miterlimit:10" />
					<rect x="175.00159" y="490.75295" width="31.75612" height="12.25532" style="fill:#42f492;stroke:#1d1d1b;stroke-miterlimit:10" />
					<rect x="175.00159" y="499.36997" width="31.75612" height="3.6383" style="fill:#42f492;stroke:#1d1d1b;stroke-miterlimit:10" />
				</g>
				<g id="seat-8" data-name="seat">
					<rect x="177.37965" y="522.12796" width="27" height="21.02068" transform="translate(381.75931 1065.2766) rotate(180)" style="fill:#42f492;stroke:#1d1d1b;stroke-miterlimit:10" />
					<rect x="175.00159" y="507.0003" width="31.75612" height="12.25532" transform="translate(381.75931 1026.25591) rotate(180)" style="fill:#42f492;stroke:#1d1d1b;stroke-miterlimit:10" />
					<rect x="175.00159" y="507.0003" width="31.75612" height="3.6383" transform="translate(381.75931 1017.63889) rotate(180)" style="fill:#42f492;stroke:#1d1d1b;stroke-miterlimit:10" />
					<rect x="175.00159" y="546.02098" width="31.75612" height="12.25532" style="fill:#42f492;stroke:#1d1d1b;stroke-miterlimit:10" />
					<rect x="175.00159" y="554.638" width="31.75612" height="3.6383" style="fill:#42f492;stroke:#1d1d1b;stroke-miterlimit:10" />
				</g>
				<g id="seat-9" data-name="seat">
					<rect x="177.37965" y="577.39598" width="27" height="21.02068" transform="translate(381.75931 1175.81265) rotate(180)" style="fill:#42f492;stroke:#1d1d1b;stroke-miterlimit:10" />
					<rect x="175.00159" y="562.26833" width="31.75612" height="12.25532" transform="translate(381.75931 1136.79197) rotate(180)" style="fill:#42f492;stroke:#1d1d1b;stroke-miterlimit:10" />
					<rect x="175.00159" y="562.26833" width="31.75612" height="3.6383" transform="translate(381.75931 1128.17495) rotate(180)" style="fill:#42f492;stroke:#1d1d1b;stroke-miterlimit:10" />
					<rect x="175.00159" y="601.28901" width="31.75612" height="12.25532" style="fill:#42f492;stroke:#1d1d1b;stroke-miterlimit:10" />
					<rect x="175.00159" y="609.90603" width="31.75612" height="3.6383" style="fill:#42f492;stroke:#1d1d1b;stroke-miterlimit:10" />
				</g>
				<g id="seat-10" data-name="seat">
					<rect x="176.69031" y="631.60861" width="27" height="21.02068" transform="translate(362.89932 1289.15889) rotate(-178.44621)" style="fill:#42f492;stroke:#1d1d1b;stroke-miterlimit:10" />
					<rect x="174.84128" y="616.48812" width="31.75612" height="12.25532" transform="translate(364.48602 1250.17407) rotate(-178.44621)" style="fill:#42f492;stroke:#1d1d1b;stroke-miterlimit:10" />
					<rect x="174.95811" y="616.4897" width="31.75612" height="3.6383" transform="translate(364.83642 1241.56497) rotate(-178.44621)" style="fill:#42f492;stroke:#1d1d1b;stroke-miterlimit:10" />
					<rect x="173.78321" y="655.49445" width="31.75612" height="12.25532" transform="translate(18.00994 -4.89948) rotate(1.55379)" style="fill:#42f492;stroke:#1d1d1b;stroke-miterlimit:10" />
					<rect x="173.66639" y="664.10989" width="31.75612" height="3.6383" transform="translate(18.12668 -4.89473) rotate(1.55379)" style="fill:#42f492;stroke:#1d1d1b;stroke-miterlimit:10" />
				</g>
				<g id="seat-11" data-name="seat">
					<rect x="173.12184" y="686.92868" width="27" height="21.02068" transform="translate(304.98399 1409.64637) rotate(-174.45543)" style="fill:#42f492;stroke:#1d1d1b;stroke-miterlimit:10" />
					<rect x="172.62887" y="671.89231" width="31.75612" height="12.25532" transform="translate(310.62162 1371.08125) rotate(-174.45543)" style="fill:#42f492;stroke:#1d1d1b;stroke-miterlimit:10" />
					<rect x="173.04516" y="671.91246" width="31.75612" height="3.6383" transform="translate(311.86659 1362.56483) rotate(-174.45543)" style="fill:#42f492;stroke:#1d1d1b;stroke-miterlimit:10" />
					<rect x="168.85869" y="710.73042" width="31.75612" height="12.25532" transform="translate(70.12714 -14.49533) rotate(5.54457)" style="fill:#42f492;stroke:#1d1d1b;stroke-miterlimit:10" />
					<rect x="168.44241" y="719.32729" width="31.75612" height="3.6383" transform="translate(70.53954 -14.43505) rotate(5.54457)" style="fill:#42f492;stroke:#1d1d1b;stroke-miterlimit:10" />
				</g>
			</g>
			<g id="seats-center">
				<g id="seat-12" data-name="seat">
					<rect x="119.36511" y="466.85993" width="27" height="21.02068" style="fill:#20b269;stroke:#1d1d1b;stroke-miterlimit:10" />
					<rect x="116.98705" y="451.73227" width="31.75612" height="12.25532" style="fill:#20b269;stroke:#1d1d1b;stroke-miterlimit:10" />
					<rect x="116.98705" y="451.73227" width="31.75612" height="3.6383" style="fill:#20b269;stroke:#1d1d1b;stroke-miterlimit:10" />
					<rect x="116.98705" y="490.75295" width="31.75612" height="12.25532" transform="translate(265.73022 993.76122) rotate(180)" style="fill:#20b269;stroke:#1d1d1b;stroke-miterlimit:10" />
					<rect x="116.98705" y="499.36997" width="31.75612" height="3.6383" transform="translate(265.73022 1002.37824) rotate(180)" style="fill:#20b269;stroke:#1d1d1b;stroke-miterlimit:10" />
				</g>
				<g id="seat-13" data-name="seat">
					<rect x="119.36511" y="522.12796" width="27" height="21.02068" style="fill:#20b269;stroke:#1d1d1b;stroke-miterlimit:10" />
					<rect x="116.98705" y="507.0003" width="31.75612" height="12.25532" style="fill:#20b269;stroke:#1d1d1b;stroke-miterlimit:10" />
					<rect x="116.98705" y="507.0003" width="31.75612" height="3.6383" style="fill:#20b269;stroke:#1d1d1b;stroke-miterlimit:10" />
					<rect x="116.98705" y="546.02098" width="31.75612" height="12.25532" transform="translate(265.73022 1104.29728) rotate(180)" style="fill:#20b269;stroke:#1d1d1b;stroke-miterlimit:10" />
					<rect x="116.98705" y="554.638" width="31.75612" height="3.6383" transform="translate(265.73022 1112.9143) rotate(180)" style="fill:#20b269;stroke:#1d1d1b;stroke-miterlimit:10" />
				</g>
				<g id="seat-14" data-name="seat">
					<rect x="119.36511" y="577.39598" width="27" height="21.02068" style="fill:#20b269;stroke:#1d1d1b;stroke-miterlimit:10" />
					<rect x="116.98705" y="562.26833" width="31.75612" height="12.25532" style="fill:#20b269;stroke:#1d1d1b;stroke-miterlimit:10" />
					<rect x="116.98705" y="562.26833" width="31.75612" height="3.6383" style="fill:#20b269;stroke:#1d1d1b;stroke-miterlimit:10" />
					<rect x="116.98705" y="601.28901" width="31.75612" height="12.25532" transform="translate(265.73022 1214.83333) rotate(180)" style="fill:#20b269;stroke:#1d1d1b;stroke-miterlimit:10" />
					<rect x="116.98705" y="609.90603" width="31.75612" height="3.6383" transform="translate(265.73022 1223.45035) rotate(180)" style="fill:#20b269;stroke:#1d1d1b;stroke-miterlimit:10" />
				</g>
				<g id="seat-15" data-name="seat">
					<rect x="119.36511" y="652.28603" width="27" height="21.02068" style="fill:#20b269;stroke:#1d1d1b;stroke-miterlimit:10" />
					<rect x="116.98705" y="637.15837" width="31.75612" height="12.25532" style="fill:#20b269;stroke:#1d1d1b;stroke-miterlimit:10" />
					<rect x="116.98705" y="637.15837" width="31.75612" height="3.6383" style="fill:#20b269;stroke:#1d1d1b;stroke-miterlimit:10" />
					<rect x="116.98705" y="676.17905" width="31.75612" height="12.25532" transform="translate(265.73022 1364.61342) rotate(180)" style="fill:#20b269;stroke:#1d1d1b;stroke-miterlimit:10" />
					<rect x="116.98705" y="684.79607" width="31.75612" height="3.6383" transform="translate(265.73022 1373.23045) rotate(180)" style="fill:#20b269;stroke:#1d1d1b;stroke-miterlimit:10" />
				</g>
				<g id="seat-16" data-name="seat">
					<rect x="119.36511" y="708.13135" width="27" height="21.02068" style="fill:#20b269;stroke:#1d1d1b;stroke-miterlimit:10" />
					<rect x="116.98705" y="693.00369" width="31.75612" height="12.25532" style="fill:#20b269;stroke:#1d1d1b;stroke-miterlimit:10" />
					<rect x="116.98705" y="693.00369" width="31.75612" height="3.6383" style="fill:#20b269;stroke:#1d1d1b;stroke-miterlimit:10" />
					<rect x="116.98705" y="732.02437" width="31.75612" height="12.25532" transform="translate(265.73022 1476.30406) rotate(180)" style="fill:#20b269;stroke:#1d1d1b;stroke-miterlimit:10" />
					<rect x="116.98705" y="740.64139" width="31.75612" height="3.6383" transform="translate(265.73022 1484.92108) rotate(180)" style="fill:#20b269;stroke:#1d1d1b;stroke-miterlimit:10" />
				</g>
			</g>
		</g>
		<g id="Text">
			<polyline points="136.173 285.484 235.777 285.484 318.23 203.031" style="fill:none;stroke:#fff;stroke-miterlimit:10;stroke-width:8px" />
			<polyline points="136.173 285.484 235.777 285.484 318.23 203.031" style="fill:none;stroke:#1d1d1b;stroke-miterlimit:10" />
			<path d="M132.64035,291.5937a6.10938,6.10938,0,1,1,6.10938-6.10938A6.11606,6.11606,0,0,1,132.64035,291.5937Zm0-7.30078a1.19141,1.19141,0,1,0,1.19141,1.1914A1.1927,1.1927,0,0,0,132.64035,284.29292Z" style="fill:#1d1d1b" />
			<path d="M132.64035,280.375a5.10935,5.10935,0,1,1-5.10937,5.10931,5.10939,5.10939,0,0,1,5.10937-5.10931m0,7.30072a2.19141,2.19141,0,1,0-2.19141-2.19141,2.19146,2.19146,0,0,0,2.19141,2.19141m0-9.30072a7.10935,7.10935,0,1,0,7.10938,7.10931,7.11735,7.11735,0,0,0-7.10938-7.10931Zm0,7.30072a.19141.19141,0,1,1,.19141-.19141.19161.19161,0,0,1-.19141.19141Z" style="fill:#fff" />
			<text transform="translate(334.06644 204.41513)" style="font-size:12px;font-family:Roboto-Regular, Roboto">
				Hajóorr
			</text>
			<rect x="326.2989" y="188.23404" width="3.93909" height="25.41103" style="fill:#e7cf4a" />
			<polyline points="136.173 403.39 235.777 403.39 318.23 320.937" style="fill:none;stroke:#fff;stroke-miterlimit:10;stroke-width:8px" />
			<polyline points="136.173 403.39 235.777 403.39 318.23 320.937" style="fill:none;stroke:#1d1d1b;stroke-miterlimit:10" />
			<path d="M132.64035,409.49946a6.10938,6.10938,0,1,1,6.10938-6.10938A6.11606,6.11606,0,0,1,132.64035,409.49946Zm0-7.30078a1.19141,1.19141,0,1,0,1.19141,1.1914A1.19271,1.19271,0,0,0,132.64035,402.19868Z" style="fill:#1d1d1b" />
			<path d="M132.64035,398.28053a5.10935,5.10935,0,1,1-5.10937,5.10931,5.10939,5.10939,0,0,1,5.10937-5.10931m0,7.30072a2.19141,2.19141,0,1,0-2.19141-2.19141,2.19146,2.19146,0,0,0,2.19141,2.19141m0-9.30072a7.10935,7.10935,0,1,0,7.10938,7.10931,7.11735,7.11735,0,0,0-7.10938-7.10931Zm0,7.30072a.19141.19141,0,1,1,.19141-.19141.19161.19161,0,0,1-.19141.19141Z" style="fill:#fff" />
			<text transform="translate(334.06644 316.13937)" style="font-size:12px;font-family:Roboto-Regular, Roboto">
				Lo
				<tspan x="13.30078" y="0" style="letter-spacing:-0.00927734375em">
					r
				</tspan>
				<tspan x="17.25" y="0">
					em ipsum dolor
				</tspan>
				<tspan x="0" y="14.3999">
					sit amet, consec
				</tspan>
			</text>
			<rect x="326.2989" y="306.13958" width="3.93909" height="25.41103" style="fill:#f45042" />
			<polyline points="136.173 532.754 235.777 532.754 318.23 450.301" style="fill:none;stroke:#fff;stroke-miterlimit:10;stroke-width:8px" />
			<polyline points="136.173 532.754 235.777 532.754 318.23 450.301" style="fill:none;stroke:#1d1d1b;stroke-miterlimit:10" />
			<path d="M132.64035,538.86372a6.10938,6.10938,0,1,1,6.10938-6.10938A6.11607,6.11607,0,0,1,132.64035,538.86372Zm0-7.30078a1.19141,1.19141,0,1,0,1.19141,1.1914A1.1927,1.1927,0,0,0,132.64035,531.56294Z" style="fill:#1d1d1b" />
			<path d="M132.64035,527.64488a5.10934,5.10934,0,1,1-5.10937,5.10931,5.10939,5.10939,0,0,1,5.10937-5.10931m0,7.30072a2.19141,2.19141,0,1,0-2.19141-2.19141,2.19146,2.19146,0,0,0,2.19141,2.19141m0-9.30072a7.10934,7.10934,0,1,0,7.10938,7.10931,7.11737,7.11737,0,0,0-7.10938-7.10931Zm0,7.30072a.19141.19141,0,1,1,.19141-.19141.19161.19161,0,0,1-.19141.19141Z" style="fill:#fff" />
			<text transform="translate(334.06644 445.50368)" style="font-size:12px;font-family:Roboto-Regular, Roboto">
				Lo
				<tspan x="13.30078" y="0" style="letter-spacing:-0.00927734375em">
					r
				</tspan>
				<tspan x="17.25" y="0">
					em ipsum dolor
				</tspan>
				<tspan x="0" y="14.3999">
					sit amet, consec
				</tspan>
			</text>
			<rect x="326.2989" y="435.5039" width="3.93909" height="25.41103" style="fill:#42f492" />
		</g>
		<path d="M289.4424,703.526a11.647,11.647,0,0,0-2.14881,3.74655l.57574,1.33154a8.14392,8.14392,0,0,1,1.67566-3.7239Z" style="fill:#1d1d1b" />
		<path d="M289.42883,703.3468l-.08694-1.14758a6.03459,6.03459,0,0,0-2.71841,3.52348l.51844,1.199a11.75255,11.75255,0,0,1,2.19259-3.66567Z" style="fill:#1d1d1b" />
		<path d="M288.05726,709.03866l.341.78869a8.80712,8.80712,0,0,1,1.287-3.09518l-.11113-1.46694A8.41351,8.41351,0,0,0,288.05726,709.03866Z" style="fill:#1d1d1b" />
		<path d="M311.71124,715.65252l-6.86138-.03338v-2.89979c0-.12942.13368-.24271.32569-.27592l.89971-.15576a13.05233,13.05233,0,0,1,4.41059,0l.8997.15576c.192.03321.32569.1465.32569.27592Zm7.82448.038-6.84365-.03325v-2.938c0-.12942.13367-.24271.32569-.27592l.89971-.15576a13.05227,13.05227,0,0,1,4.41058,0l.89971.15576a.385.385,0,0,1,.308.20693Zm-28.97343-5.48731-.54772-8.2296-.26089.01736.54735,8.2234h-.42386l.11548.423.68329.37961.11789,4.47611.9104.024v-2.79775a.28549.28549,0,0,1,.2122-.27592l.58617-.15576a5.59432,5.59432,0,0,1,2.87356,0l.58619.15576a.28548.28548,0,0,1,.21218.27592v2.83131h.93725v-2.83131c0-.12942.13365-.24271.32569-.27592l.8997-.15576a13.05221,13.05221,0,0,1,4.41057,0l.89972.15576c.192.03321.32569.1465.32569.27592v2.89552l-13.1996-.06421,1.0087,6.54016s4.20912,3.16841,12.68643,6.31135v2.57693h-.41714v-1.40443H303.551v3.0201h.50057v-1.40443h.41714v2.28878h-1.41827v-5h-.68412v-.88659l-.3337-.13562v1.02221h-2.45208v5.26145h2.32106v.79513h37.32267v-.00137c.90012.01838,1.81086.02942,2.73686.02942h51.06861c5.92924,0,8.96251-3.25536,9.87-7.51628s1.65932-9.03472,1.65932-9.03472l8.21045-.90024-.08677-.86767-8.38241.756a2.79837,2.79837,0,0,0-1.474-.845l-.35631-.05342c-.072-.00574-.14535-.00945-.22113-.00945l-24.78071-.12054-13.02849-.06339V701.88469l.75272-.4359a.185.185,0,0,0-.0927-.345h-9.33684v.78091h.87855v4.62038H346.991v-.31342l-.408-.86767v-12.462l.28658-.22362a.98887.98887,0,0,0,.26741-.41751.39777.39777,0,0,0,.00935-.23617c-.04394-.06155-.559.1869-.82874.32274a.40032.40032,0,0,1-.33394.01225l-.57562-.28033a.30131.30131,0,0,0-.264,0l-.57563.28033a.4003.4003,0,0,1-.33393-.01225c-.26971-.13584-.7848-.38429-.82874-.32274a.39769.39769,0,0,0,.00935.23617.98887.98887,0,0,0,.26741.41751l.28658.22362v12.462l-.408.86767v4.02276Zm36.83335,5.52557-6.7438-.0328v-3.167a.50231.50231,0,0,1,.20811-.08555l.89974-.15576a13.05221,13.05221,0,0,1,4.41057,0l.8997.15576c.192.03321.32568.1465.32568.27592Zm7.84221.03813-6.86136-.03338v-3.01422c0-.12942.13367-.24271.32567-.27592l.89974-.15576a13.05221,13.05221,0,0,1,4.41057,0l.8997.15576c.192.03321.32568.1465.32568.27592Zm7.8422.03817-6.86135-.03338v-3.05239c0-.12942.13367-.24271.32567-.27592l.89974-.15576a13.05221,13.05221,0,0,1,4.41057,0l.8997.15576c.192.03321.32567.1465.32567.27592Zm16.891-9.84342h-2.72234v-3.731h2.72234Zm2.70065,0h-2.38624v-3.731h2.38624Zm1.51451,0h-.63035v-3.731h.63035Z" style="fill:#1d1d1b" />
	</g>
</svg>
