
<?xml-stylesheet type="text/css" href="../css/custom.css" ?>
<svg id="kisfaludy-schematics" data-name="kisfaludy-schematics" xmlns="http://www.w3.org/2000/svg" viewBox="0 0 590.58105 867.15578">
<style type="text/css">
	.st0{opacity:0.4;}
	.st1{fill:#1D1D1B;}
	.st2{fill:#FFFFFF;}
	.st3{fill:none;stroke:#1D1D1B;stroke-width:1.6;stroke-linecap:round;stroke-miterlimit:10;}
	.st4{fill:none;stroke:#1D1D1B;stroke-width:1.6;stroke-miterlimit:10;}
	.st5{fill:#BCB5AF;stroke:#1D1D1B;stroke-width:1.6;stroke-linecap:round;stroke-miterlimit:10;}
	.st6{opacity:0;fill:#BCB5AF;stroke:#1D1D1B;stroke-width:1.6;stroke-linecap:round;stroke-miterlimit:10;}
</style>
<g class="st0">
	<rect x="92" y="165.2" class="st1" width="1.6" height="5.8"/>
	<rect x="92" y="361.8" class="st1" width="1.6" height="11.6"/>
	<rect x="92" y="331.8" class="st1" width="1.6" height="5.8"/>
	<rect x="92" y="445.1" class="st1" width="1.6" height="11.6"/>
	<rect x="92" y="415.1" class="st1" width="1.6" height="5.8"/>
	<rect x="92" y="379.2" class="st1" width="1.6" height="24.2"/>
	<rect x="92" y="295.9" class="st1" width="1.6" height="24.2"/>
	<rect x="92" y="212.6" class="st1" width="1.6" height="24.2"/>
	<rect x="92" y="462.5" class="st1" width="1.6" height="24.2"/>
	<rect x="92" y="278.5" class="st1" width="1.6" height="11.6"/>
	<rect x="92" y="248.5" class="st1" width="1.6" height="5.8"/>
	<rect x="92" y="712.4" class="st1" width="1.6" height="24.2"/>
	<rect x="92" y="695" class="st1" width="1.6" height="11.6"/>
	<rect x="92" y="665" class="st1" width="1.6" height="5.8"/>
	<rect x="92" y="778.3" class="st1" width="1.6" height="11.6"/>
	<rect x="92" y="748.3" class="st1" width="1.6" height="5.8"/>
	<rect x="92" y="498.4" class="st1" width="1.6" height="5.8"/>
	<rect x="92" y="528.4" class="st1" width="1.6" height="11.6"/>
	<rect x="92" y="545.8" class="st1" width="1.6" height="24.2"/>
	<rect x="92" y="629.1" class="st1" width="1.6" height="24.2"/>
	<rect x="92" y="611.7" class="st1" width="1.6" height="11.6"/>
	<rect x="92" y="581.7" class="st1" width="1.6" height="5.8"/>
	<rect x="111.1" y="607.5" class="st1" width="25.7" height="1.6"/>
	<rect x="92" y="129.3" class="st1" width="1.6" height="24.2"/>
	<rect x="111.1" y="407.2" class="st1" width="25.7" height="1.6"/>
	<rect x="111.1" y="507.4" class="st1" width="25.7" height="1.6"/>
	<rect x="92" y="795.7" class="st1" width="1.6" height="24.2"/>
	<rect x="111.1" y="807.8" class="st1" width="25.7" height="1.6"/>
	<rect x="111.1" y="707.6" class="st1" width="25.7" height="1.6"/>
	<rect x="149.2" y="607.5" class="st1" width="6.2" height="1.6"/>
	<rect x="149.2" y="707.6" class="st1" width="6.2" height="1.6"/>
	<rect x="111.1" y="106.8" class="st1" width="25.7" height="1.6"/>
	<rect x="149.2" y="807.8" class="st1" width="6.2" height="1.6"/>
	<rect x="111.1" y="207" class="st1" width="25.7" height="1.6"/>
	<rect x="111.1" y="307.1" class="st1" width="25.7" height="1.6"/>
	<rect x="100.9" y="807.8" class="st1" width="7.6" height="1.6"/>
	<rect x="92" y="69.6" class="st1" width="1.6" height="10.4"/>
	<rect x="92" y="119.7" class="st1" width="1.6" height="7.2"/>
	<rect x="100.9" y="707.6" class="st1" width="7.6" height="1.6"/>
	<rect x="92" y="89.7" class="st1" width="1.6" height="5.8"/>
	<rect x="100.9" y="607.5" class="st1" width="7.6" height="1.6"/>
	<rect x="100.9" y="106.8" class="st1" width="7.6" height="1.6"/>
	<rect x="149.2" y="507.4" class="st1" width="6.2" height="1.6"/>
	<rect x="100.9" y="307.1" class="st1" width="7.6" height="1.6"/>
	<rect x="100.9" y="407.2" class="st1" width="7.6" height="1.6"/>
	<rect x="100.9" y="507.4" class="st1" width="7.6" height="1.6"/>
	<rect x="100.9" y="207" class="st1" width="7.6" height="1.6"/>
	<rect x="237.8" y="106.8" class="st1" width="6.2" height="1.6"/>
	<path class="st1" d="M493.1,229.2c0.4,0.7,0.7,1.3,1.1,2v-18.6h-1.6v15.6C492.7,228.6,492.9,228.9,493.1,229.2z"/>
	<rect x="446.8" y="106.8" class="st1" width="12.4" height="1.6"/>
	<path class="st1" d="M209.8,707.6h-10.2v1.6H210C209.9,708.7,209.9,708.2,209.8,707.6z"/>
	<rect x="192.2" y="129.3" class="st1" width="1.6" height="24.2"/>
	<rect x="192.2" y="119.7" class="st1" width="1.6" height="7.2"/>
	<rect x="192.2" y="165.2" class="st1" width="1.6" height="5.8"/>
	<rect x="181.1" y="607.5" class="st1" width="12.4" height="1.6"/>
	<rect x="181.1" y="707.6" class="st1" width="12.4" height="1.6"/>
	<rect x="192.2" y="195.2" class="st1" width="1.6" height="11.6"/>
	<path class="st1" d="M192.2,232.6c0.5-1,1.1-1.9,1.6-2.9v-17.1h-1.6V232.6z"/>
	<rect x="465.4" y="106.8" class="st1" width="25.7" height="1.6"/>
	<rect x="503.5" y="106.8" class="st1" width="6.2" height="1.6"/>
	<rect x="503.5" y="207" class="st1" width="6.2" height="1.6"/>
	<path class="st1" d="M482.5,208.6h8.6V207h-9.4C482,207.5,482.2,208,482.5,208.6z"/>
	<rect x="592.7" y="69.6" class="st1" width="1.6" height="10.4"/>
	<rect x="592.7" y="89.7" class="st1" width="1.6" height="5.8"/>
	<rect x="492.6" y="119.7" class="st1" width="1.6" height="7.2"/>
	<rect x="492.6" y="129.3" class="st1" width="1.6" height="24.2"/>
	<rect x="492.6" y="165.2" class="st1" width="1.6" height="5.8"/>
	<rect x="492.6" y="195.2" class="st1" width="1.6" height="11.6"/>
	<rect x="492.6" y="89.7" class="st1" width="1.6" height="5.8"/>
	<rect x="492.6" y="69.6" class="st1" width="1.6" height="10.4"/>
	<rect x="48.3" y="207" class="st1" width="10.4" height="1.6"/>
	<rect x="69" y="707.6" class="st1" width="6.2" height="1.6"/>
	<rect x="48.3" y="307.1" class="st1" width="10.4" height="1.6"/>
	<rect x="92" y="824.4" class="st1" width="1.6" height="10.4"/>
	<rect x="199.7" y="106.8" class="st1" width="25.7" height="1.6"/>
	<rect x="48.3" y="106.8" class="st1" width="10.4" height="1.6"/>
	<rect x="69" y="807.8" class="st1" width="6.2" height="1.6"/>
	<rect x="69" y="106.8" class="st1" width="6.2" height="1.6"/>
	<rect x="69" y="207" class="st1" width="6.2" height="1.6"/>
	<rect x="69" y="307.1" class="st1" width="6.2" height="1.6"/>
	<rect x="69" y="407.2" class="st1" width="6.2" height="1.6"/>
	<rect x="69" y="507.4" class="st1" width="6.2" height="1.6"/>
	<rect x="69" y="607.5" class="st1" width="6.2" height="1.6"/>
	<rect x="48.3" y="407.2" class="st1" width="10.4" height="1.6"/>
	<rect x="181.1" y="106.8" class="st1" width="12.4" height="1.6"/>
	<rect x="181.1" y="207" class="st1" width="12.4" height="1.6"/>
	<path class="st1" d="M205.4,207h-5.7v1.6h4.9C204.9,208,205.1,207.5,205.4,207z"/>
	<rect x="192.2" y="69.6" class="st1" width="1.6" height="10.4"/>
	<rect x="192.2" y="89.7" class="st1" width="1.6" height="5.8"/>
	<rect x="48.3" y="507.4" class="st1" width="10.4" height="1.6"/>
	<rect x="48.3" y="607.5" class="st1" width="10.4" height="1.6"/>
	<rect x="48.3" y="807.8" class="st1" width="10.4" height="1.6"/>
	<rect x="48.3" y="707.6" class="st1" width="10.4" height="1.6"/>
	<rect x="92" y="195.2" class="st1" width="1.6" height="11.6"/>
	<rect x="592" y="407.2" class="st1" width="6.2" height="1.6"/>
	<rect x="592.7" y="212.6" class="st1" width="1.6" height="24.2"/>
	<rect x="592.7" y="498.4" class="st1" width="1.6" height="5.8"/>
	<rect x="592.7" y="445.1" class="st1" width="1.6" height="11.6"/>
	<rect x="592.7" y="415.1" class="st1" width="1.6" height="5.8"/>
	<rect x="592.7" y="331.8" class="st1" width="1.6" height="5.8"/>
	<rect x="592.7" y="748.3" class="st1" width="1.6" height="5.8"/>
	<polygon class="st1" points="594.3,295.9 592.7,295.9 592.7,307.1 592,307.1 592,308.7 592.7,308.7 592.7,320.1 594.3,320.1 
		594.3,308.7 598.2,308.7 598.2,307.1 594.3,307.1 	"/>
	<rect x="592" y="507.4" class="st1" width="6.2" height="1.6"/>
	<rect x="592.7" y="379.2" class="st1" width="1.6" height="24.2"/>
	<rect x="592.7" y="361.8" class="st1" width="1.6" height="11.6"/>
	<rect x="592.7" y="462.5" class="st1" width="1.6" height="24.2"/>
	<rect x="592.7" y="629.1" class="st1" width="1.6" height="24.2"/>
	<rect x="592.7" y="611.7" class="st1" width="1.6" height="11.6"/>
	<rect x="592" y="707.6" class="st1" width="6.2" height="1.6"/>
	<rect x="592.7" y="712.4" class="st1" width="1.6" height="24.2"/>
	<rect x="592.7" y="778.3" class="st1" width="1.6" height="11.6"/>
	<rect x="592.7" y="545.8" class="st1" width="1.6" height="24.2"/>
	<rect x="592.7" y="528.4" class="st1" width="1.6" height="11.6"/>
	<rect x="592.7" y="581.7" class="st1" width="1.6" height="5.8"/>
	<rect x="592.7" y="665" class="st1" width="1.6" height="5.8"/>
	<rect x="592" y="607.5" class="st1" width="6.2" height="1.6"/>
	<rect x="592.7" y="695" class="st1" width="1.6" height="11.6"/>
	<rect x="592.7" y="248.5" class="st1" width="1.6" height="5.8"/>
	<rect x="628.4" y="707.6" class="st1" width="10.4" height="1.6"/>
	<rect x="628.4" y="807.8" class="st1" width="10.4" height="1.6"/>
	<rect x="623.9" y="307.1" class="st1" width="1.9" height="1.6"/>
	<rect x="623.9" y="106.8" class="st1" width="1.9" height="1.6"/>
	<rect x="628.4" y="607.5" class="st1" width="10.4" height="1.6"/>
	<rect x="623.9" y="207" class="st1" width="1.9" height="1.6"/>
	<rect x="628.4" y="106.8" class="st1" width="10.4" height="1.6"/>
	<rect x="628.4" y="507.4" class="st1" width="10.4" height="1.6"/>
	<rect x="628.4" y="207" class="st1" width="10.4" height="1.6"/>
	<rect x="628.4" y="307.1" class="st1" width="10.4" height="1.6"/>
	<rect x="628.4" y="407.2" class="st1" width="10.4" height="1.6"/>
	<rect x="592.7" y="119.7" class="st1" width="1.6" height="7.2"/>
	<rect x="592.7" y="165.2" class="st1" width="1.6" height="5.8"/>
	<rect x="592.7" y="278.5" class="st1" width="1.6" height="11.6"/>
	<rect x="592.7" y="195.2" class="st1" width="1.6" height="11.6"/>
	<rect x="592.7" y="129.3" class="st1" width="1.6" height="24.2"/>
	<rect x="592" y="207" class="st1" width="6.2" height="1.6"/>
	<rect x="149.2" y="407.2" class="st1" width="6.2" height="1.6"/>
	<rect x="623.9" y="507.4" class="st1" width="1.9" height="1.6"/>
	<rect x="623.9" y="607.5" class="st1" width="1.9" height="1.6"/>
	<rect x="592" y="106.8" class="st1" width="6.2" height="1.6"/>
	<rect x="623.9" y="407.2" class="st1" width="1.9" height="1.6"/>
	<rect x="623.9" y="807.8" class="st1" width="1.9" height="1.6"/>
	<rect x="623.9" y="707.6" class="st1" width="1.9" height="1.6"/>
	<path class="st1" d="M477.2,709.2h13.9v-1.6h-13.8C477.2,708.2,477.2,708.7,477.2,709.2z"/>
	<path class="st1" d="M490.7,609.1h0.4v-1.4C491,608.2,490.8,608.6,490.7,609.1z"/>
	<path class="st1" d="M221.9,807.8h-22.3v1.6h22.6C222.2,808.8,222.1,808.3,221.9,807.8z"/>
	<rect x="492.6" y="824.4" class="st1" width="1.6" height="10.4"/>
	<rect x="465.4" y="807.8" class="st1" width="25.7" height="1.6"/>
	<rect x="492.6" y="712.4" class="st1" width="1.6" height="24.2"/>
	<rect x="192.2" y="611.7" class="st1" width="1.6" height="11.6"/>
	<rect x="492.6" y="795.7" class="st1" width="1.6" height="24.2"/>
	<rect x="492.6" y="695" class="st1" width="1.6" height="11.6"/>
	<rect x="492.6" y="778.3" class="st1" width="1.6" height="11.6"/>
	<rect x="492.6" y="665" class="st1" width="1.6" height="5.8"/>
	<rect x="492.6" y="748.3" class="st1" width="1.6" height="5.8"/>
	<rect x="149.2" y="106.8" class="st1" width="6.2" height="1.6"/>
	<rect x="192.2" y="629.1" class="st1" width="1.6" height="24.2"/>
	<rect x="149.2" y="307.1" class="st1" width="6.2" height="1.6"/>
	<polygon class="st1" points="192.2,807.8 181.1,807.8 181.1,809.4 192.2,809.4 192.2,820 193.8,820 193.8,795.7 192.2,795.7 	"/>
	<rect x="149.2" y="207" class="st1" width="6.2" height="1.6"/>
	<rect x="192.2" y="824.4" class="st1" width="1.6" height="10.4"/>
	<rect x="192.2" y="695" class="st1" width="1.6" height="11.6"/>
	<rect x="192.2" y="778.3" class="st1" width="1.6" height="11.6"/>
	<rect x="192.2" y="665" class="st1" width="1.6" height="5.8"/>
	<rect x="192.2" y="748.3" class="st1" width="1.6" height="5.8"/>
	<rect x="192.2" y="712.4" class="st1" width="1.6" height="24.2"/>
	<rect x="503.5" y="707.6" class="st1" width="6.2" height="1.6"/>
	<rect x="492.6" y="629.1" class="st1" width="1.6" height="24.2"/>
	<rect x="553.9" y="707.6" class="st1" width="25.7" height="1.6"/>
	<rect x="553.9" y="807.8" class="st1" width="25.7" height="1.6"/>
	<rect x="553.9" y="507.4" class="st1" width="25.7" height="1.6"/>
	<rect x="535.4" y="106.8" class="st1" width="12.4" height="1.6"/>
	<rect x="553.9" y="407.2" class="st1" width="25.7" height="1.6"/>
	<rect x="553.9" y="106.8" class="st1" width="25.7" height="1.6"/>
	<rect x="535.4" y="207" class="st1" width="12.4" height="1.6"/>
	<rect x="592.7" y="824.4" class="st1" width="1.6" height="10.4"/>
	<rect x="553.9" y="207" class="st1" width="25.7" height="1.6"/>
	<rect x="553.9" y="307.1" class="st1" width="25.7" height="1.6"/>
	<rect x="553.9" y="607.5" class="st1" width="25.7" height="1.6"/>
	<polygon class="st1" points="594.3,795.7 592.7,795.7 592.7,807.8 592,807.8 592,809.4 592.7,809.4 592.7,820 594.3,820 
		594.3,809.4 598.2,809.4 598.2,807.8 594.3,807.8 	"/>
	<rect x="503.5" y="607.5" class="st1" width="6.2" height="1.6"/>
	<rect x="492.6" y="611.7" class="st1" width="1.6" height="11.6"/>
	<rect x="503.5" y="807.8" class="st1" width="6.2" height="1.6"/>
	<rect x="535.4" y="807.8" class="st1" width="12.4" height="1.6"/>
	<rect x="535.4" y="707.6" class="st1" width="12.4" height="1.6"/>
	<rect x="535.4" y="307.1" class="st1" width="12.4" height="1.6"/>
	<rect x="535.4" y="507.4" class="st1" width="12.4" height="1.6"/>
	<rect x="535.4" y="407.2" class="st1" width="12.4" height="1.6"/>
	<rect x="535.4" y="607.5" class="st1" width="12.4" height="1.6"/>
</g>
<g id="ship">
	<g id="bckgrnd_1_">
		<path class="st1" d="M344.4,30.1c1.2,0,2.4,0.4,3.4,1.1l0.7,0.5c2,1.4,48.1,35,75.1,97.1c4.2,9.7,7.9,18.3,11.3,26.1
			c18,41.5,25.4,58.7,39.2,84.6c2.2,4.1,4.2,7.7,6.2,11.1c13.4,23.5,21.5,37.6,21.5,111.8c0,15,0.1,29,0.2,42.5l0,0.2
			c0.4,60.4,0.7,104-9.3,133.5c-2.6,7.7-5.5,15.6-8.7,24.1c-10.6,28.6-22.5,61-24.7,92.8c-0.3,3.7-0.5,7.8-0.8,12.4l0,0.8
			c-4.5,68.6-10.6,144-25.6,170.1l-0.1,0.1l0,0.1c-1.8,5.2-11.5,32-21.7,45.9l-1.7,2.3l-2.8,0.8c-0.9,0.3-22.7,6.2-62.9,6.2
			c-40.2,0-62-5.9-62.9-6.2l-2.8-0.8l-1.7-2.3c-10.2-13.8-19.9-40.6-21.7-45.9l0-0.1l-0.1-0.1c-15.1-26.1-21.1-101.5-25.6-170.1
			c-0.3-4.9-0.6-9.3-0.9-13.1c-2.2-31.8-14.2-64.2-24.7-92.8c-3.1-8.4-6-16.4-8.7-24.1c-10-29.4-9.7-73.1-9.3-133.5
			c0.1-13.5,0.2-27.6,0.2-42.6c0-74.2,8.1-88.4,21.5-111.9c2-3.5,4-7,6.2-11.1c13.8-25.8,21.2-43,39.2-84.6l0.1-0.2
			c3.4-7.8,7.1-16.3,11.2-25.9c27-62.1,73.1-95.7,75.1-97.1l0.7-0.5c1-0.7,2.2-1.1,3.4-1.1H344.4 M344.4,28.5h-1.7
			c-1.5,0-3,0.5-4.3,1.4l-0.7,0.5c-2,1.4-48.5,35.3-75.6,97.8c-4.2,9.7-7.9,18.3-11.3,26.1c-17.9,41.5-25.4,58.7-39.2,84.5
			c-2.2,4-4.2,7.6-6.2,11.1c-13.5,23.7-21.7,38-21.7,112.6c0,15.1-0.1,29.1-0.2,42.7c-0.4,60.6-0.7,104.3,9.3,134
			c2.6,7.7,5.6,15.7,8.7,24.1c10.5,28.5,22.5,60.8,24.6,92.4c0.3,3.9,0.6,8.3,0.9,13.1c4.5,68.9,10.6,144.4,25.9,170.8
			c2,5.6,11.7,32.3,21.9,46.3l2,2.8l3.3,0.9c0.9,0.3,22.9,6.3,63.3,6.3c40.4,0,62.4-6,63.3-6.3l3.3-0.9l2-2.8
			c10.3-14,20-40.7,21.9-46.3c15.2-26.4,21.3-101.9,25.9-170.8c0.3-4.9,0.6-9.3,0.9-13.1c2.2-31.5,14.1-63.8,24.6-92.4
			c3.1-8.4,6-16.4,8.7-24.1c10.1-29.7,9.8-73.4,9.3-134c-0.1-13.5-0.2-27.6-0.2-42.7c0-74.6-8.2-88.9-21.7-112.6
			c-2-3.5-4-7-6.2-11.1c-13.8-25.8-21.2-43-39.2-84.5c-3.4-7.8-7.1-16.4-11.3-26.1c-27.1-62.5-73.6-96.3-75.6-97.8l-0.7-0.5
			C347.4,28.9,345.9,28.5,344.4,28.5L344.4,28.5z"/>
	</g>
	<g>
		<path class="st2" d="M343.6,37.3c0,0,45.9,32.9,72.3,93.6c26.4,60.7,34.2,80.2,50.8,111.3s26.7,35.9,26.7,119s3,139.1-8.6,173.4
			c-11.7,34.4-30.9,76.7-33.8,119c-2.9,42.3-8.6,152.3-25.9,180.4c0,0-10.4,30.3-20.9,44.6c0,0-21.1,5.9-60.6,5.9
			s-60.6-5.9-60.6-5.9c-10.5-14.2-20.9-44.6-20.9-44.6c-17.3-28-22.9-138.1-25.9-180.4c-2.9-42.3-22.2-84.6-33.8-119
			c-11.7-34.4-8.6-90.4-8.6-173.4s10.1-87.9,26.7-119s24.5-50.6,50.8-111.3C297.7,70.2,343.6,37.3,343.6,37.3L343.6,37.3z"/>
	</g>
	<g id="tatfedelzet_2_">
		<g id="bckgrnd_5_">
			<path class="st1" d="M440.8,496.5v103.2c0,86.2-1.3,182.6-17.3,234.1c-0.1,0.3-10.2,29.6-20.3,43.7c-3.5,0.9-24.3,5.7-59.7,5.7
				s-56.2-4.8-59.7-5.7c-10.1-14.1-20.2-43.4-20.3-43.7c-16-51.6-17.3-147.9-17.3-234.2V496.5H440.8 M343.6,821.9
				c8.7,0,15.8-7.1,15.8-15.8c0-8.7-7.1-15.8-15.8-15.8c-8.7,0-15.8,7.1-15.8,15.8C327.8,814.8,334.9,821.9,343.6,821.9
				 M442.4,494.9H244.7c0,29.8,0,65.8,0,104.8c0,90.7,1.7,183.8,17.4,234.6c0,0,10.4,30.3,20.9,44.6c0,0,21.1,5.9,60.6,5.9
				s60.6-5.9,60.6-5.9c10.5-14.2,20.9-44.6,20.9-44.6c15.8-50.8,17.4-144,17.4-234.6C442.4,560.7,442.4,524.8,442.4,494.9
				L442.4,494.9z M343.6,820.3c-7.8,0-14.2-6.4-14.2-14.2s6.4-14.2,14.2-14.2c7.8,0,14.2,6.4,14.2,14.2S351.4,820.3,343.6,820.3
				L343.6,820.3z"/>
		</g>
		<circle class="st3" cx="343.6" cy="670.2" r="6.6"/>
		<g>
			<circle class="st3" cx="343.6" cy="806.1" r="14.2"/>
		</g>
	</g>
	<g>
		<path class="st1" d="M386.4,496.5v340.2c0,7.3-6,13.3-13.3,13.3H314c-7.3,0-13.3-6-13.3-13.3V496.5H386.4 M388,494.9h-88.9v341.8
			c0,8.2,6.7,14.9,14.9,14.9h59.1c8.2,0,14.9-6.7,14.9-14.9V494.9L388,494.9z"/>
	</g>
	<g id="kapitanyi-hid">
		<g id="bckgrnd_2_">
			<path class="st1" d="M343.5,332.2c9.7,0,19.5,0.3,29.2,0.9l59.3,3.6v68.4v0.7l0.5,0.5l8.3,8.1v80.8H246.5v-80.8l8-8.1l0.5-0.5
				v-0.7v-68.4l59.5-3.6C324.1,332.5,333.9,332.2,343.5,332.2 M343.5,330.6c-9.7,0-19.5,0.3-29.2,0.9l-61,3.7v69.9l-8.5,8.6v83
				h197.6v-83l-8.8-8.6v-69.9l-60.8-3.7C363.1,330.9,353.3,330.6,343.5,330.6L343.5,330.6z"/>
		</g>
		<g>
			<path class="st1" d="M343.8,469.7c4.6,0,8.3,3.7,8.3,8.3s-3.7,8.3-8.3,8.3s-8.3-3.7-8.3-8.3S339.2,469.7,343.8,469.7
				 M343.8,468.1c-5.5,0-9.9,4.4-9.9,9.9s4.4,9.9,9.9,9.9s9.9-4.4,9.9-9.9S349.3,468.1,343.8,468.1L343.8,468.1z"/>
		</g>
		<g>
			<rect x="421.6" y="393.3" class="st2" width="41.8" height="38.1"/>
			<path class="st1" d="M462.6,394.1v36.5h-40.2v-36.5H462.6 M464.2,392.5h-43.4v39.7h43.4V392.5L464.2,392.5z"/>
		</g>
		<g>
			<rect x="223.7" y="393.3" class="st2" width="41.6" height="38.1"/>
			<path class="st1" d="M264.5,394.1v36.5h-40v-36.5H264.5 M266.1,392.5h-43.2v39.7h43.2V392.5L266.1,392.5z"/>
		</g>
		<g>
			<path class="st1" d="M363.6,338.2l19.2,9v46.6h-39.2h-39.2v-46.6l19.2-9h20.1H363.6 M364,336.6h-20.4h-20.4l-20.4,9.6v49.2h40.8
				h40.8v-49.2L364,336.6L364,336.6z"/>
		</g>
	</g>
	<g id="stairs-left">
		<g id="bckgrnd_4_">
			<path class="st1" d="M253.3,336.8v55.4h-28.7v-55.4H253.3 M254.9,335.2h-31.9v58.6h31.9V335.2L254.9,335.2z"/>
		</g>
		<g>
			<line class="st4" x1="254.6" y1="384.3" x2="222.9" y2="384.3"/>
			<line class="st4" x1="254.6" y1="374.7" x2="222.9" y2="374.7"/>
			<line class="st4" x1="254.6" y1="365.1" x2="222.9" y2="365.1"/>
			<line class="st4" x1="254.6" y1="355.5" x2="222.9" y2="355.5"/>
			<line class="st4" x1="254.6" y1="345.9" x2="222.9" y2="345.9"/>
		</g>
		<g>
			<path class="st1" d="M252.8,336.8l-13.7,50.9l-14-50.9H252.8 M254.9,335.2h-31.9l16.2,58.6L254.9,335.2L254.9,335.2z"/>
		</g>
	</g>
	<g id="stairs-right">
		<g id="bckgrnd_3_">
			<path class="st1" d="M462.6,336.8v55.4h-28.7v-55.4H462.6 M464.2,335.2h-31.9v58.6h31.9V335.2L464.2,335.2z"/>
		</g>
		<g>
			<line class="st4" x1="464" y1="384.3" x2="432.3" y2="384.3"/>
			<line class="st4" x1="464" y1="374.7" x2="432.3" y2="374.7"/>
			<line class="st4" x1="464" y1="365.1" x2="432.3" y2="365.1"/>
			<line class="st4" x1="464" y1="355.5" x2="432.3" y2="355.5"/>
			<line class="st4" x1="464" y1="345.9" x2="432.3" y2="345.9"/>
		</g>
		<g>
			<path class="st1" d="M462.1,336.8l-13.7,50.9l-14-50.9H462.1 M464.2,335.2h-31.9l16.2,58.6L464.2,335.2L464.2,335.2z"/>
		</g>
	</g>
	<g id="Hajoorr_2_">
		<g id="bckgrnd">
			<path class="st1" d="M342,41.3c3.9,3.2,19.4,16.4,35.8,39.2c11.1,15.4,20.4,32.1,27.8,49.6c9.2,21.9,15.2,45.1,18,69.1
				c7.7,56.3,6.9,98.5,6.9,98.9l0,1.6h1.6h30.7V335h-30.5c-2.2-0.2-58.9-4.5-90.2-4.5s-88,4.3-90.2,4.5h-27.2l0.1-35.4H252l1.6,0
				l0-1.6c0-0.4-0.9-42.6,6.9-99c2.8-23.9,8.8-47.2,18-69c7.3-17.5,16.7-34.2,27.8-49.6C322.6,57.7,338,44.5,342,41.3 M342,39.3
				L342,39.3c0,0-70.9,53.9-83.1,159.6c-7.8,57.1-6.9,99.2-6.9,99.2h-29l-0.1,38.6h28.9c0,0,58.1-4.5,90.2-4.5s90.2,4.5,90.2,4.5
				h32.2v-38.6h-32.3c0,0,0.9-42-6.9-99.2C412.9,93.2,342,39.3,342,39.3L342,39.3z"/>
		</g>
		<g>
			<circle class="st4" cx="344" cy="259.1" r="6.3"/>
			<circle class="st3" cx="359.2" cy="259.1" r="4.5"/>
			<circle class="st3" cx="328.1" cy="259.1" r="4.5"/>
		</g>
		<g>
			<circle class="st3" cx="391.9" cy="127.3" r="3.9"/>
			<circle class="st3" cx="388" cy="113.3" r="3.9"/>
		</g>
		<g>
			<circle class="st3" cx="294.7" cy="127.3" r="3.9"/>
			<circle class="st3" cx="298.7" cy="113.3" r="3.9"/>
		</g>
		
			<rect x="325.7" y="127.3" transform="matrix(-1 -1.224647e-16 1.224647e-16 -1 687.0566 287.8143)" class="st3" width="35.6" height="33.1"/>
	</g>
	<g id="seats">
		<g id="kapitanyi_x5F_hid">
			<g>
				
					<rect x="399.7" y="342.7" transform="matrix(-1 -1.224647e-16 1.224647e-16 -1 815.4313 701.3531)" class="st5" width="15.9" height="15.9"/>
				<g>
					
						<rect x="399.7" y="371.4" transform="matrix(-1 -1.224647e-16 1.224647e-16 -1 815.4313 747.2211)" class="st5" width="15.9" height="4.4"/>
					
						<rect x="399.7" y="362.7" transform="matrix(-1 -1.224647e-16 1.224647e-16 -1 815.4313 734.5037)" class="st5" width="15.9" height="9.1"/>
				</g>
			</g>
			<g>
				<g>
					
						<rect x="384" y="471.3" transform="matrix(6.123234e-17 -1 1 6.123234e-17 -87.3378 871.2438)" class="st5" width="15.9" height="15.9"/>
					<g>
						
							<rect x="361.7" y="477.1" transform="matrix(6.123234e-17 -1 1 6.123234e-17 -109.5901 848.9916)" class="st5" width="15.9" height="4.4"/>
						
							<rect x="368.1" y="474.7" transform="matrix(6.123234e-17 -1 1 6.123234e-17 -103.2314 855.3503)" class="st5" width="15.9" height="9.1"/>
					</g>
					<g>
						
							<rect x="406.2" y="477.1" transform="matrix(-1.836970e-16 1 -1 -1.836970e-16 893.4961 65.0855)" class="st5" width="15.9" height="4.4"/>
						
							<rect x="399.9" y="474.7" transform="matrix(-1.836970e-16 1 -1 -1.836970e-16 887.1374 71.4442)" class="st5" width="15.9" height="9.1"/>
					</g>
				</g>
				<g>
					
						<rect x="287.7" y="471.3" transform="matrix(6.123234e-17 -1 1 6.123234e-17 -183.6407 774.941)" class="st5" width="15.9" height="15.9"/>
					<g>
						
							<rect x="265.4" y="477.1" transform="matrix(6.123234e-17 -1 1 6.123234e-17 -205.8929 752.6887)" class="st5" width="15.9" height="4.4"/>
						
							<rect x="271.8" y="474.7" transform="matrix(6.123234e-17 -1 1 6.123234e-17 -199.5342 759.0474)" class="st5" width="15.9" height="9.1"/>
					</g>
					<g>
						
							<rect x="309.9" y="477.1" transform="matrix(-1.836970e-16 1 -1 -1.836970e-16 797.1932 161.3884)" class="st5" width="15.9" height="4.4"/>
						
							<rect x="303.6" y="474.7" transform="matrix(-1.836970e-16 1 -1 -1.836970e-16 790.8345 167.7471)" class="st5" width="15.9" height="9.1"/>
					</g>
				</g>
			</g>
			<g>
				
					<rect x="271.4" y="342.7" transform="matrix(-1 -1.224647e-16 1.224647e-16 -1 558.8125 701.3531)" class="st5" width="15.9" height="15.9"/>
				<g>
					
						<rect x="271.4" y="371.4" transform="matrix(-1 -1.224647e-16 1.224647e-16 -1 558.8125 747.2211)" class="st5" width="15.9" height="4.4"/>
					
						<rect x="271.4" y="362.7" transform="matrix(-1 -1.224647e-16 1.224647e-16 -1 558.8125 734.5037)" class="st5" width="15.9" height="9.1"/>
				</g>
			</g>
		</g>
		<g id="orr">
			<g>
				<g>
					
						<rect x="384.9" y="291.7" transform="matrix(-1 -1.224647e-16 1.224647e-16 -1 805.4373 588.3678)" class="st5" width="35.6" height="4.9"/>
					
						<rect x="384.9" y="283.4" transform="matrix(-1 -1.224647e-16 1.224647e-16 -1 805.4373 575.1754)" class="st5" width="35.6" height="8.3"/>
				</g>
				<g>
					
						<rect x="384.9" y="239.3" transform="matrix(-1 -4.518442e-11 4.518442e-11 -1 805.4373 483.4779)" class="st5" width="35.6" height="4.9"/>
					
						<rect x="384.9" y="244.2" transform="matrix(-1 -4.518442e-11 4.518442e-11 -1 805.4373 496.6703)" class="st5" width="35.6" height="8.3"/>
				</g>
				
					<rect x="384.9" y="255.6" transform="matrix(-1 -1.224647e-16 1.224647e-16 -1 805.4373 535.9229)" class="st5" width="35.6" height="24.7"/>
			</g>
			<g>
				<g>
					
						<rect x="383.8" y="229.4" transform="matrix(-0.99 0.1414 -0.1414 -0.99 832.0459 404.6234)" class="st5" width="35.6" height="4.9"/>
					
						<rect x="382.9" y="221.2" transform="matrix(-0.99 0.1414 -0.1414 -0.99 829.2667 391.761)" class="st5" width="35.6" height="8.3"/>
				</g>
				<g>
					
						<rect x="376.4" y="177.5" transform="matrix(-0.99 0.1414 -0.1414 -0.99 809.9492 302.3573)" class="st5" width="35.6" height="4.9"/>
					
						<rect x="377.3" y="182.3" transform="matrix(-0.99 0.1414 -0.1414 -0.99 812.7284 315.2197)" class="st5" width="35.6" height="8.3"/>
				</g>
				
					<rect x="380.1" y="193.6" transform="matrix(-0.99 0.1414 -0.1414 -0.99 820.9976 353.4903)" class="st5" width="35.6" height="24.7"/>
			</g>
			<g>
				
					<rect x="374.1" y="167.7" transform="matrix(-0.9606 0.278 -0.278 -0.9606 815.6699 224.635)" class="st5" width="35.6" height="4.9"/>
				
					<rect x="372.3" y="159.7" transform="matrix(-0.9606 0.278 -0.278 -0.9606 810.3138 212.7219)" class="st5" width="35.6" height="8.3"/>
			</g>
			<g>
				
					<rect x="386.8" y="137.5" transform="matrix(-0.9606 0.278 -0.278 -0.9606 814.9353 176.2565)" class="st5" width="16.3" height="16.9"/>
			</g>
			<g>
				<g>
					<rect x="263.6" y="291.7" class="st5" width="35.6" height="4.9"/>
					<rect x="263.6" y="283.4" class="st5" width="35.6" height="8.3"/>
				</g>
				<g>
					<rect x="263.6" y="239.3" class="st5" width="35.6" height="4.9"/>
					<rect x="263.6" y="244.2" class="st5" width="35.6" height="8.3"/>
				</g>
				<rect x="263.6" y="255.6" class="st5" width="35.6" height="24.7"/>
			</g>
			<g>
				<g>
					
						<rect x="264.6" y="229.4" transform="matrix(0.99 0.1414 -0.1414 0.99 35.6221 -37.6097)" class="st5" width="35.6" height="4.9"/>
					
						<rect x="265.6" y="221.2" transform="matrix(0.99 0.1414 -0.1414 0.99 34.7082 -37.8071)" class="st5" width="35.6" height="8.3"/>
				</g>
				<g>
					
						<rect x="272.1" y="177.5" transform="matrix(0.99 0.1414 -0.1414 0.99 28.3559 -39.1797)" class="st5" width="35.6" height="4.9"/>
					
						<rect x="271.1" y="182.3" transform="matrix(0.99 0.1414 -0.1414 0.99 29.2698 -38.9822)" class="st5" width="35.6" height="8.3"/>
				</g>
				
					<rect x="268.4" y="193.6" transform="matrix(0.99 0.1414 -0.1414 0.99 31.989 -38.3947)" class="st5" width="35.6" height="24.7"/>
			</g>
			<g>
				
					<rect x="274.4" y="167.7" transform="matrix(0.9606 0.278 -0.278 0.9606 58.8093 -74.5202)" class="st5" width="35.6" height="4.9"/>
				
					<rect x="276.2" y="159.7" transform="matrix(0.9606 0.278 -0.278 0.9606 57.1203 -75.2796)" class="st5" width="35.6" height="8.3"/>
			</g>
			<g>
				
					<rect x="281" y="137.5" transform="matrix(0.9606 0.278 -0.278 0.9606 51.949 -74.6232)" class="st5" width="16.3" height="16.9"/>
			</g>
			<g>
				<g>
					
						<rect x="325.7" y="225.3" transform="matrix(-1 -1.224647e-16 1.224647e-16 -1 687.1032 455.593)" class="st5" width="35.6" height="4.9"/>
					
						<rect x="325.7" y="217.1" transform="matrix(-1 -1.224647e-16 1.224647e-16 -1 687.1032 442.4006)" class="st5" width="35.6" height="8.3"/>
				</g>
				<g>
					
						<rect x="325.7" y="172.9" transform="matrix(-1 -4.487844e-11 4.487844e-11 -1 687.1032 350.7031)" class="st5" width="35.6" height="4.9"/>
					
						<rect x="325.7" y="177.8" transform="matrix(-1 -4.487844e-11 4.487844e-11 -1 687.1032 363.8954)" class="st5" width="35.6" height="8.3"/>
				</g>
				
					<rect x="325.7" y="189.2" transform="matrix(-1 -1.224647e-16 1.224647e-16 -1 687.1032 403.148)" class="st5" width="35.6" height="24.7"/>
			</g>
			<rect id="bckgrnd_6_" x="249.9" y="124.7" class="st6" width="185.2" height="185.2"/>
		</g>
		<g id="tatfedelzet">
			<g>
				<path class="st5" d="M337,842.1l3.9-22c-6.5-1.3-11.5-7-11.5-13.9c0-7.1,5.2-12.9,12-14l-3.9-22c-17.3,2.9-30.5,17.9-30.5,36
					C307,824.1,319.9,839,337,842.1z"/>
				<path class="st5" d="M357.7,806.1c0,6.9-4.9,12.7-11.5,13.9l3.9,22c17.1-3.1,30-18,30-36c0-18.1-13.2-33.1-30.5-36l-3.9,22
					C352.6,793.2,357.7,799,357.7,806.1z"/>
			</g>
			<path class="st5" d="M432,795c-2.3,16.8-4.5,27.1-8.3,39.4c0,0-10.2,29.8-20.5,43.8c0,0-20.8,5.8-59.6,5.8s-59.6-5.8-59.6-5.8
				c-10.3-14-20.5-43.8-20.5-43.8c-3.9-12.5-6-22.4-8.4-39.4h18.1c2,12.7,4.4,24.2,7.4,33.8c1.7,5,6.3,17,11.2,27.1
				c2,4,5.8,6.8,10.2,7.4c9.3,1.3,23.3,2.7,41.6,2.7c18.3,0,32.4-1.4,41.6-2.7c4.4-0.6,8.2-3.4,10.2-7.4c4.5-9.1,8.8-20.1,11.2-27.2
				c3-9.7,5.4-21.1,7.4-33.8H432z"/>
			<g>
				<g>
					
						<rect x="325.7" y="587.9" transform="matrix(-1 -1.224647e-16 1.224647e-16 -1 687.1219 1180.7133)" class="st5" width="35.6" height="4.9"/>
					
						<rect x="325.7" y="579.6" transform="matrix(-1 -1.224647e-16 1.224647e-16 -1 687.1219 1167.5209)" class="st5" width="35.6" height="8.3"/>
				</g>
				<g>
					
						<rect x="325.7" y="535.5" transform="matrix(-1 -4.495483e-11 4.495483e-11 -1 687.1219 1075.8234)" class="st5" width="35.6" height="4.9"/>
					
						<rect x="325.7" y="540.4" transform="matrix(-1 -4.510804e-11 4.510804e-11 -1 687.1219 1089.0157)" class="st5" width="35.6" height="8.3"/>
				</g>
				
					<rect x="325.7" y="551.8" transform="matrix(-1 -1.224647e-16 1.224647e-16 -1 687.1219 1128.2683)" class="st5" width="35.6" height="24.7"/>
			</g>
			<g>
				<g>
					
						<rect x="325.7" y="652.5" transform="matrix(-1 -1.224647e-16 1.224647e-16 -1 687.1033 1309.8357)" class="st5" width="35.6" height="4.9"/>
					
						<rect x="325.7" y="644.2" transform="matrix(-1 -1.224647e-16 1.224647e-16 -1 687.1033 1296.6433)" class="st5" width="35.6" height="8.3"/>
				</g>
				<g>
					
						<rect x="325.7" y="600" transform="matrix(-1 -4.495483e-11 4.495483e-11 -1 687.1033 1204.9458)" class="st5" width="35.6" height="4.9"/>
					
						<rect x="325.7" y="604.9" transform="matrix(-1 -4.490376e-11 4.490376e-11 -1 687.1033 1218.1382)" class="st5" width="35.6" height="8.3"/>
				</g>
				
					<rect x="325.7" y="616.3" transform="matrix(-1 -1.224647e-16 1.224647e-16 -1 687.1033 1257.3907)" class="st5" width="35.6" height="24.7"/>
			</g>
			<g>
				<g>
					
						<rect x="325.7" y="735.4" transform="matrix(-1 -1.224647e-16 1.224647e-16 -1 687.1033 1475.6403)" class="st5" width="35.6" height="4.9"/>
					
						<rect x="325.7" y="727.1" transform="matrix(-1 -1.224647e-16 1.224647e-16 -1 687.1033 1462.4479)" class="st5" width="35.6" height="8.3"/>
				</g>
				<g>
					
						<rect x="325.7" y="682.9" transform="matrix(-1 -4.510804e-11 4.510804e-11 -1 687.1033 1370.7504)" class="st5" width="35.6" height="4.9"/>
					
						<rect x="325.7" y="687.8" transform="matrix(-1 -4.505697e-11 4.505697e-11 -1 687.1033 1383.9427)" class="st5" width="35.6" height="8.3"/>
				</g>
				
					<rect x="325.7" y="699.2" transform="matrix(-1 -1.224647e-16 1.224647e-16 -1 687.1033 1423.1953)" class="st5" width="35.6" height="24.7"/>
			</g>
			<g>
				<g>
					
						<rect x="325.7" y="523.9" transform="matrix(-1 -1.224647e-16 1.224647e-16 -1 686.9916 1052.7983)" class="st5" width="35.6" height="4.9"/>
					
						<rect x="325.7" y="515.7" transform="matrix(-1 -1.224647e-16 1.224647e-16 -1 686.9916 1039.6058)" class="st5" width="35.6" height="8.3"/>
				</g>
				<rect x="325.7" y="495.9" class="st5" width="35.6" height="16.6"/>
			</g>
			<g>
				<g>
					<g>
						<g>
							
								<rect x="394.2" y="587.9" transform="matrix(-1 -1.224647e-16 1.224647e-16 -1 824.0383 1180.7133)" class="st5" width="35.6" height="4.9"/>
							
								<rect x="394.2" y="579.6" transform="matrix(-1 -1.224647e-16 1.224647e-16 -1 824.0383 1167.5209)" class="st5" width="35.6" height="8.3"/>
						</g>
						<g>
							
								<rect x="394.2" y="535.5" transform="matrix(-1 -4.490376e-11 4.490376e-11 -1 824.0383 1075.8234)" class="st5" width="35.6" height="4.9"/>
							
								<rect x="394.2" y="540.4" transform="matrix(-1 -4.490376e-11 4.490376e-11 -1 824.0383 1089.0157)" class="st5" width="35.6" height="8.3"/>
						</g>
						
							<rect x="394.2" y="551.8" transform="matrix(-1 -1.224647e-16 1.224647e-16 -1 824.0383 1128.2683)" class="st5" width="35.6" height="24.7"/>
					</g>
					<g>
						<g>
							
								<rect x="394.2" y="523.9" transform="matrix(-1 -1.224647e-16 1.224647e-16 -1 824.0383 1052.7983)" class="st5" width="35.6" height="4.9"/>
							
								<rect x="394.2" y="515.7" transform="matrix(-1 -1.224647e-16 1.224647e-16 -1 824.0383 1039.6058)" class="st5" width="35.6" height="8.3"/>
						</g>
						<rect x="394.2" y="495.9" class="st5" width="35.6" height="16.6"/>
					</g>
					<g>
						<g>
							
								<rect x="394.2" y="653.6" transform="matrix(-1 -1.224647e-16 1.224647e-16 -1 824.0383 1312.0671)" class="st5" width="35.6" height="4.9"/>
							
								<rect x="394.2" y="645.3" transform="matrix(-1 -1.224647e-16 1.224647e-16 -1 824.0383 1298.8748)" class="st5" width="35.6" height="8.3"/>
						</g>
						<g>
							
								<rect x="394.2" y="601.1" transform="matrix(-1 -4.505697e-11 4.505697e-11 -1 824.0383 1207.1772)" class="st5" width="35.6" height="4.9"/>
							
								<rect x="394.2" y="606" transform="matrix(-1 -4.505697e-11 4.505697e-11 -1 824.0383 1220.3696)" class="st5" width="35.6" height="8.3"/>
						</g>
						
							<rect x="394.2" y="617.5" transform="matrix(-1 -1.224647e-16 1.224647e-16 -1 824.0383 1259.6222)" class="st5" width="35.6" height="24.7"/>
					</g>
					<g>
						<g>
							
								<rect x="394.2" y="716.8" transform="matrix(-1 -1.224647e-16 1.224647e-16 -1 824.0383 1438.5364)" class="st5" width="35.6" height="4.9"/>
							
								<rect x="394.2" y="708.5" transform="matrix(-1 -1.224647e-16 1.224647e-16 -1 824.0383 1425.344)" class="st5" width="35.6" height="8.3"/>
						</g>
						<g>
							
								<rect x="394.2" y="664.4" transform="matrix(-1 -4.490376e-11 4.490376e-11 -1 824.0383 1333.6465)" class="st5" width="35.6" height="4.9"/>
							
								<rect x="394.2" y="669.3" transform="matrix(-1 -4.490376e-11 4.490376e-11 -1 824.0383 1346.8389)" class="st5" width="35.6" height="8.3"/>
						</g>
						
							<rect x="394.2" y="680.7" transform="matrix(-1 -1.224647e-16 1.224647e-16 -1 824.0383 1386.0914)" class="st5" width="35.6" height="24.7"/>
					</g>
					<g>
						<g>
							
								<rect x="391.2" y="782.7" transform="matrix(-0.9987 -5.118451e-02 5.118451e-02 -0.9987 777.4225 1590.1669)" class="st5" width="35.6" height="4.9"/>
							
								<rect x="391.6" y="774.4" transform="matrix(-0.9987 -5.118451e-02 5.118451e-02 -0.9987 778.4344 1577.0177)" class="st5" width="35.6" height="8.3"/>
						</g>
						<g>
							
								<rect x="393.9" y="730.3" transform="matrix(-0.9987 -5.118451e-02 5.118451e-02 -0.9987 785.4685 1485.6206)" class="st5" width="35.6" height="4.9"/>
							
								<rect x="393.6" y="735.2" transform="matrix(-0.9987 -5.118451e-02 5.118451e-02 -0.9987 784.4565 1498.7698)" class="st5" width="35.6" height="8.3"/>
						</g>
						
							<rect x="392.6" y="746.6" transform="matrix(-0.9987 -5.118451e-02 5.118451e-02 -0.9987 781.4455 1537.8938)" class="st5" width="35.6" height="24.7"/>
					</g>
				</g>
				<g>
					<g>
						<g>
							<rect x="257.3" y="587.9" class="st5" width="35.6" height="4.9"/>
							<rect x="257.3" y="579.6" class="st5" width="35.6" height="8.3"/>
						</g>
						<g>
							<rect x="257.3" y="535.5" class="st5" width="35.6" height="4.9"/>
							<rect x="257.3" y="540.4" class="st5" width="35.6" height="8.3"/>
						</g>
						<rect x="257.3" y="551.8" class="st5" width="35.6" height="24.7"/>
					</g>
					<g>
						<g>
							<rect x="257.3" y="523.9" class="st5" width="35.6" height="4.9"/>
							<rect x="257.3" y="515.7" class="st5" width="35.6" height="8.3"/>
						</g>
						<rect x="257.3" y="495.9" class="st5" width="35.6" height="16.6"/>
					</g>
					<g>
						<g>
							<rect x="257.3" y="653.6" class="st5" width="35.6" height="4.9"/>
							<rect x="257.3" y="645.3" class="st5" width="35.6" height="8.3"/>
						</g>
						<g>
							<rect x="257.3" y="601.1" class="st5" width="35.6" height="4.9"/>
							<rect x="257.3" y="606" class="st5" width="35.6" height="8.3"/>
						</g>
						<rect x="257.3" y="617.5" class="st5" width="35.6" height="24.7"/>
					</g>
					<g>
						<g>
							<rect x="257.3" y="716.8" class="st5" width="35.6" height="4.9"/>
							<rect x="257.3" y="708.5" class="st5" width="35.6" height="8.3"/>
						</g>
						<g>
							<rect x="257.3" y="664.4" class="st5" width="35.6" height="4.9"/>
							<rect x="257.3" y="669.3" class="st5" width="35.6" height="8.3"/>
						</g>
						<rect x="257.3" y="680.7" class="st5" width="35.6" height="24.7"/>
					</g>
					<g>
						<g>
							
								<rect x="260.2" y="782.7" transform="matrix(0.9987 -5.118451e-02 5.118451e-02 0.9987 -39.822 15.261)" class="st5" width="35.6" height="4.9"/>
							
								<rect x="259.9" y="774.4" transform="matrix(0.9987 -5.118451e-02 5.118451e-02 0.9987 -39.4852 15.235)" class="st5" width="35.6" height="8.3"/>
						</g>
						<g>
							
								<rect x="257.5" y="730.3" transform="matrix(0.9987 -5.118451e-02 5.118451e-02 0.9987 -37.1446 15.0549)" class="st5" width="35.6" height="4.9"/>
							
								<rect x="257.9" y="735.2" transform="matrix(0.9987 -5.118451e-02 5.118451e-02 0.9987 -37.4814 15.0808)" class="st5" width="35.6" height="8.3"/>
						</g>
						
							<rect x="258.9" y="746.6" transform="matrix(0.9987 -5.118451e-02 5.118451e-02 0.9987 -38.4833 15.1579)" class="st5" width="35.6" height="24.7"/>
					</g>
				</g>
			</g>
		</g>
	</g>
</g>
</svg>