<svg xmlns="http://www.w3.org/2000/svg" xmlns:xlink="http://www.w3.org/1999/xlink" viewBox="0 0 340.21978 396.9867"><defs><clipPath id="a"><rect x="-359.32967" width="342.8022" height="400" style="fill:none"/></clipPath><clipPath id="c"><rect x="0.31424" width="340.21978" height="396.9867" style="fill:none"/></clipPath></defs><title>route-map</title><g style="isolation:isolate"><g style="clip-path:url(#a)"><rect x="-359.32967" width="400" height="400" style="fill:#d6e5e2"/><path d="M71.17033,56.5c-13,7-19,10-32,5s-55,8-81,21-102,48-113,54-11,11-11,16-2,20-2,22-4,7-6,8-16,7-18,8-1,6,3,13,17.294,30.71883,19.47421,34.92357,8.25376,2.4917,11.99131,1.86877,28.966-6.69644,30.99052-6.69644,3.89328-.31146,4.9834,1.86878,11.05692,21.80237,11.67984,23.35968-1.55731,5.76206-8.098,7.00791-39.1263,7.4751-41.52126,7.4751-6.19413-2.529-7.22263-4.9834c-6.85217-16.35178-14.01581-33.015-18.532-42.82609s-15.57313-30.05614-17.4419-33.79369-7.9423-5.29486-9.34388-5.13913-17.4419,7.78657-19.31067,8.40949-5.29487,1.24585-6.385.15573-5.4506-7.16364-7.16364-7.78656-10.90119,3.27036-11.36838,4.67194.15573,8.721,2.4917,11.9913,14.32727,12.4585,15.26166,15.26167,3.58182,7.94229,3.58182,11.05691A31.12581,31.12581,0,0,1-237.41,241.22673c-1.09012,1.86878-8.25376,8.25376-9.9668,9.34388s-8.40949,1.24585-9.65534,1.09011-15.57313-8.56521-16.97471-8.87668-6.385,1.24585-7.94229,2.4917-52.79289,40.95732-53.883,42.3589,0,2.9589,1.09012,4.67194,9.65533,12.61423,10.90118,13.86008,1.40159,4.67194.15574,5.91779-20.08934,10.90119-22.73677,12.4585-38.46562,29.27747-43.13755,30.52332-35.525,26.96118-38.35155,26.96118,0-422.29132,0-422.29132H71.17033Z" style="fill:#eab355;stroke:#935e2a;stroke-miterlimit:10;stroke-width:0.65px"/></g><g style="clip-path:url(#a)"><rect x="-359.32967" width="400" height="400" style="fill:#b5e5e1"/><path d="M71.17033,56.5c-13,7-19,10-32,5s-55,8-81,21-102,48-113,54-11,11-11,16-2,20-2,22-4,7-6,8-16,7-18,8-1,6,3,13,17.294,30.71883,19.47421,34.92357,8.25376,2.4917,11.99131,1.86877,28.966-6.69644,30.99052-6.69644,3.89328-.31146,4.9834,1.86878,11.05692,21.80237,11.67984,23.35968-1.55731,5.76206-8.098,7.00791-39.1263,7.4751-41.52126,7.4751-6.19413-2.529-7.22263-4.9834c-6.85217-16.35178-14.01581-33.015-18.532-42.82609s-15.57313-30.05614-17.4419-33.79369-7.9423-5.29486-9.34388-5.13913-17.4419,7.78657-19.31067,8.40949-5.29487,1.24585-6.385.15573-5.4506-7.16364-7.16364-7.78656-10.90119,3.27036-11.36838,4.67194.15573,8.721,2.4917,11.9913,14.32727,12.4585,15.26166,15.26167,3.58182,7.94229,3.58182,11.05691A31.12581,31.12581,0,0,1-237.41,241.22673c-1.09012,1.86878-8.25376,8.25376-9.9668,9.34388s-8.40949,1.24585-9.65534,1.09011-15.57313-8.56521-16.97471-8.87668-6.385,1.24585-7.94229,2.4917-52.79289,40.95732-53.883,42.3589,0,2.9589,1.09012,4.67194,9.65533,12.61423,10.90118,13.86008,1.40159,4.67194.15574,5.91779-20.08934,10.90119-22.73677,12.4585-38.46562,29.27747-43.13755,30.52332-35.525,26.96118-38.35155,26.96118,0-422.29132,0-422.29132H71.17033Z" style="fill:#e3c552;stroke:#a8731e;stroke-miterlimit:10"/><g style="opacity:0.2;mix-blend-mode:multiply"><path d="M35.6923,56.38458S-.70327,5.74725-10.19777,8.91205s-11.86817,22.94507-18.989,46.68133-94.94507,56.967-121.84619,69.62641-24.52746,23.73626-24.52746,39.56042c0,9.3512-7.90625,15.90625-15.552,18.89569a11.84951,11.84951,0,0,0,1.08063,5.99457c4.39582-1.9715,14.52356-6.33124,16.20209-7.17047,2-1,6-6,6-8s2-17,2-22,0-10,11-16,87-41,113-54c24.386-12.193,62.84613-24.38531,78.25342-21.72668Z" style="fill:#dd9f33"/></g></g><g style="clip-path:url(#c)"><rect x="-1.05342" y="-5.94715" width="342.95509" height="400.9386" style="fill:#b5e5e1"/><path d="M265.33278-2.624c-.772,5.30068-2.47022,6.896-4.01411,8.64577s-5.81531,7.565-5.81531,7.565v2.62461l2.57315,3.34509-.51463,2.26436h-2.26437l1.90413-2.05851-3.1907-4.1685-1.90413,1.54389,3.49948,2.93339-1.69827.56609-3.13924-2.57315s-13.94644,10.447-14.20376,10.65282a51.17279,51.17279,0,0,1-5.45506.72048c-.20585,0-8.02821-1.338-8.337-1.441s-3.49947-2.62461-3.91118-2.779a29.70053,29.70053,0,0,0-4.06557-.36024c-.20585.05147-17.6003,4.47727-18.26932,4.5802s-10.96159,5.09483-10.96159,5.09483-.25732,2.16144-.30878,2.36729a21.17862,21.17862,0,0,1-1.95559,1.85266l1.69828,3.91118,3.65386-.56609.82341,2.57314-4.52874.61756-2.57314-6.3814-3.91118-.61755.61755,4.83751H175.7359l-4.27142,3.39655s.97779,1.95559.97779,2.11-11.57915,7.51358-11.57915,7.51358h-3.49947l-3.13924,1.8012H152.9893s-6.896,6.17554-7.2048,6.63871-3.1907,6.63871-3.1907,6.63871l.4117,5.86677-3.80825,3.03631s.7149,2.47308.7149,2.63236-1.91136-.37166-1.91136-.37166L134.125,84.56589l1.16806,2.60158-2.867-2.60158-.74331,1.85827-3.34488,3.1856v2.54849L124.462,95.981s-7.43308,2.07064-7.69854,2.17683-9.663,6.21193-9.92847,6.37121-5.681.84949-5.681.84949l1.06187,1.27424-1.80518,2.22992-2.92013-2.17682,1.64589-2.17683-1.115-1.06187L94.889,107.23677l-2.12374-.53093,2.17683,2.65466-2.867-.584-7.91092,9.13206v4.30057s-6.4243,5.15005-6.68976,5.36243-5.6279,10.72486-5.6279,10.72486l-4.566,5.41553-4.8846,4.19438v6.58358l.53094,5.04387s1.53971,2.92014,1.80517,3.45107,5.41553,4.67222,5.6279,5.04387,2.12374,3.76963,2.12374,3.76963,4.08819,3.61035,4.30056,3.92891a7.53409,7.53409,0,0,0,1.16806,1.00878,28.85873,28.85873,0,0,1,3.82272,1.22115c.05309.21237.8495,5.15005.95568,5.52171s10.72487,4.7784,15.07853,4.7784,16.29967-1.85827,17.99865-2.12373,12.15839-.26547,13.16717-.10619,15.928,3.87582,16.77751,4.08819a21.503,21.503,0,0,1,4.566,2.283c.26547.37165,4.88459,4.08819,5.097,4.51294s9.87538,16.56513,10.30012,17.20225a22.83415,22.83415,0,0,0,4.70859,4.0351c.91931.31856,2.03427.42475,2.56521.63712s5.46862,2.54849,5.46862,2.54849l.84949,1.85826,2.867-2.3361H183.608l4.8315,3.982h-1.38042l-3.66345-3.29179-1.115.10619-2.3892,2.22992s-.21238,1.27424-.31856,1.699.31856,3.1856.26546,3.50416-.69021,2.97323-.69021,2.97323l.90259,2.3892s-1.91136,1.53971-2.283,1.96446a6.141,6.141,0,0,0-.69021,1.80517s.69021,1.06187.90259,1.48662,2.01754,1.22115,2.01754,1.22115l1.85827.26546,1.06187,1.16806s-.69021,2.283-.84949,2.65467a19.85087,19.85087,0,0,0,.26546,3.34488s2.4423,4.93769,2.4423,5.36243-1.22115,6.10574-1.38043,6.4774a32.57561,32.57561,0,0,1-2.65467,2.70776s-.42475,3.61035-1.80517,5.41553l.95568,1.22114-.42475,3.18561a70.0409,70.0409,0,0,0,7.59236,11.89292c3.92891,4.566,6.95523,10.03465,11.362,13.645a4.821,4.821,0,0,1,1.75208,3.982c-.10618.53094-2.65467,6.4774-2.92013,8.01711a9.376,9.376,0,0,0,.90258,5.62789c.95568,1.699,2.01755,4.0351,2.01755,4.0351a15.93177,15.93177,0,0,0-2.70776-2.22992c-.53093-.10619-1.699-.31856-1.699-.31856l-.21237,1.00877,2.3892.7964-2.60158.21238-.10618.90259,2.3892.584-2.92014,1.06187-.05309,1.06187,1.43352.26547,1.00878,1.75208L194.97,331.344h-2.54848s-.37166,1.22115-.42475,1.5928.74331,5.36244.74331,5.681-2.4423,5.89336-2.65467,6.58358a21.84858,21.84858,0,0,0-.15928,3.66344,22.40137,22.40137,0,0,0,.47784,2.54848s0,1.5928-.05309,1.80518-2.12374,4.72531-2.22993,5.04387a29.44478,29.44478,0,0,0-.15928,2.97323,50.0214,50.0214,0,0,1-3.23869,5.04387c-.69022.8495-2.22993,2.17683-2.38921,2.49539s-2.07064.74331-2.07064.74331a11.40811,11.40811,0,0,1-.584,1.96445c-.26546.47785-1.699,2.283-1.699,2.283l-1.16806-1.5928-1.5928-.37165-1.22115.69021s-.37165,4.0351-.37165,3.66344-1.06187-4.03509-1.06187-4.03509-7.25976.10618-8.7003.26546-11.58138-1.115-11.58138-1.115l-3.07941,1.6459-.26547-1.43353-2.70776-.21237-1.85827.69022-.10619,1.06186,3.55726.584-.10619.7964-2.17683.74331L143.5225,373.978s-1.06186-3.34488-1.43352-4.03509-4.61912-1.80518-10.247-2.07065-9.18516-3.13251-13.91047-7.06142-10.61868-10.67177-13.43263-12.8486S76.66405,325.69475,68.568,320.4619,44.4771,303.57856,43.5885,303.38109s-5.82525-1.57973-7.99737-3.75185-6.81258-3.25819-7.01-3.85059a68.23063,68.23063,0,0,1-1.67847-7.50371c.09874-.5924-.98733-18.858-1.08606-20.93139s-5.82524-17.47574-7.405-20.14153-9.5771-8.98471-10.07077-9.8733a11.26762,11.26762,0,0,0-2.56706-2.76453c-.88859-.69113-8.19483-3.85058-8.19483-3.85058V-3.9519Z" style="fill:#e3c552;stroke:#a8731e;stroke-miterlimit:10"/><path d="M173.67033,376.50586c-.01758,0-.03711-.001-.05664-.00195l-.31055-.01368-.002-.335c-.01172-.25488-.55859-2.24316-.97949-3.706-1.28516.01953-7.16211.11914-8.4209.25879-1.3916.15137-10.42481-.96094-11.55567-1.10254l-3.37988,1.80664-.30176-1.625-2.38769-.1875-1.60059.59473-.05566.55664,3.5664.58593-.17285,1.30762-2.50781.85742-2.25391-1.30664-.03808-.11914c-.293-.92285-1.11719-3.43554-1.41016-3.97949-.26953-.43945-3.98926-1.61719-9.97656-1.90039-5.85156-.27539-9.49316-3.30274-14.10352-7.13574-2.51757-2.09375-5.37207-4.98926-7.89062-7.54395a71.6571,71.6571,0,0,0-5.5332-5.29785c-.49414-.38281-1.67579-1.31934-3.33008-2.63086-7.75586-6.14941-25.917-20.54883-32.57813-24.85351-4.0957-2.64747-10.084-6.84571-15.36621-10.54981-4.6416-3.25488-9.02637-6.33008-9.51562-6.48828-1.16407-.25879-5.98438-1.67285-8.14746-3.83789a16.15283,16.15283,0,0,0-5.07813-2.835c-1.3418-.54883-1.8916-.78516-2.01074-1.14258-.10938-.32813-1.81543-6.91211-1.69043-7.65918.05664-.543-.52051-10.72266-.83008-16.19043-.13184-2.31152-.2334-4.10254-.25976-4.67187-.0918-1.92383-5.73243-17.24415-7.36036-19.99122-.96386-1.626-4.47168-4.72949-7.0332-6.99609a23.88743,23.88743,0,0,1-3.042-2.88574,11.03,11.03,0,0,0-2.48242-2.665c-.70215-.54688-6.10352-2.93457-8.125-3.80957l-.19629-.084V-4.27832l.32715.00146,268.127,1.32959-.05371.37012c-.73535,5.05518-2.28906,6.79492-3.792,8.47754l-.29883.33643c-1.416,1.60351-5.19922,6.73-5.73438,7.457v2.40722l2.59864,3.37842L257.8217,22.146h-3.26758l2.22265-2.40381-2.82031-3.68555-1.33886,1.08545,3.64257,3.05371-2.41992.80664L250.76017,18.477c-4.87109,3.64844-13.791,10.3335-13.99316,10.49365-.39844.32032-5.61035.792-5.65723.792-.2666,0-8.15429-1.36231-8.43945-1.458a13.97353,13.97353,0,0,1-1.8877-1.32715c-.77636-.58057-1.84179-1.37549-2.03711-1.45654a31.07967,31.07967,0,0,0-3.8955-.34327l-.63965.16358c-11.29688,2.86914-17.22949,4.355-17.63379,4.41748-.52051.10449-6.77539,3.082-10.71,4.98828-.07031.583-.24707,2.041-.29492,2.23145-.02539.10253-.07227.293-1.87793,1.86328l1.5039,3.4624,3.67969-.5708,1.02734,3.20654-5.16406.70459L182.142,39.19922l-3.30176-.52149.61035,4.77393H175.849l-3.97656,3.16162c.89453,1.80029.89453,1.937.89453,2.02,0,.23535,0,.333-11.72949,7.7876l-.08008.05078H157.4506L154.311,58.273h-1.19726c-2.63281,2.3584-6.80078,6.13916-7.06055,6.49609-.21191.31934-1.97363,4.043-3.1289,6.51709l.417,5.95362-3.77149,3.00732a19.17554,19.17554,0,0,1,.668,2.51367v.16114l-.13672.11279c-.12207.09228-.25683.19678-2.05761-.29688l-3.5,1.96582,1.68359,3.75-3.67285-3.33252-.64746,1.53858L128.66252,89.749V92.294l-4.03223,3.97753-.08105.02247c-2.94825.82128-7.42383,2.07617-7.668,2.1665-.27832.14307-5.07422,3.24365-7.65039,4.90967-1.23926.80127-2.14844,1.38916-2.22754,1.437a42.2542,42.2542,0,0,1-5.22071.81836l.8545,1.02441-2.1709,2.68018L97.03459,106.771l1.668-2.207-.65332-.62158-3.041,3.65918-1.36914-.34228,2.13379,2.602-3.57715-.72852-7.706,8.897v4.33544l-.12207.09717s-6.42481,5.15088-6.69043,5.36328c-.26368.34668-3.46387,6.54493-5.542,10.61817l-4.60644,5.47754-4.80762,4.13379v6.43457l.52246,4.94775c.21387.40527,1.53418,2.91357,1.7793,3.40186.168.27929,2.00488,1.84228,3.21973,2.87695a20.15148,20.15148,0,0,1,2.39941,2.15137c.19824.34521,1.86523,3.31,2.09863,3.72363,1.01172.894,4.09766,3.63183,4.31446,3.95508a6.44492,6.44492,0,0,0,1.04.89111c3.89649,1.04443,3.94239,1.22852,3.99512,1.44141.02149.085.10742.59765.31348,1.83447.21387,1.2749.52734,3.15283.62109,3.59668.97363.67236,10.69922,4.62207,14.78418,4.62207,4.04981,0,14.76172-1.62207,17.94922-2.11963,1.63086-.25488,12.16406-.28027,13.26758-.106,1.05859.167,16.64941,4.05469,16.80566,4.09375a20.16157,20.16157,0,0,1,4.752,2.40918c.12011.15235,1.1455,1.02,2.05078,1.78516a22.72887,22.72887,0,0,1,3.07226,2.772c.24707.48486,9.85352,16.52832,10.2793,17.166a22.80113,22.80113,0,0,0,4.54492,3.90918,11.69362,11.69362,0,0,0,1.4668.36328,6.9685,6.9685,0,0,1,1.11328.2793c.5332.21289,5.28418,2.46,5.48633,2.55566l.10742.05078.72363,1.584,2.63086-2.14355h1.665l5.62109,4.63281H186.934l-3.64941-3.28027-.86328.083-2.22754,2.07812c-.05469.32129-.21485,1.25293-.30567,1.61621a15.745,15.745,0,0,0,.15625,1.99512,8.68708,8.68708,0,0,1,.11426,1.48242c-.04883.29688-.54492,2.3711-.6709,2.89942l.95117,2.51562-.18359.14746c-.52637.42383-1.95312,1.59473-2.24219,1.92578a5.08565,5.08565,0,0,0-.58691,1.53125c.1875.293.667,1.04688.84473,1.40137a6.83112,6.83112,0,0,0,1.81738,1.05078l1.92969.27539,1.26367,1.3916-.05274.17579c-.07129.23535-.70019,2.31152-.86132,2.68847a19.774,19.774,0,0,0,.28027,3.12012,45.047,45.047,0,0,1,2.45312,5.46c0,.43457-1.22265,6.17578-1.40625,6.60547a23.72425,23.72425,0,0,1-2.64648,2.73633,14.0796,14.0796,0,0,1-1.70606,5.251l.88868,1.13575-.42774,3.22168a69.41714,69.41714,0,0,0,7.502,11.73828c1.43457,1.667,2.76367,3.47265,4.04785,5.21777a44.825,44.825,0,0,0,7.27441,8.3877,5.10936,5.10936,0,0,1,1.86426,4.29687c-.041.207-.31641.90527-.83887,2.22363a52.46806,52.46806,0,0,0-2.0791,5.78516,9.11666,9.11666,0,0,0,.86523,5.41309c.95215,1.6914,2.01954,4.03613,2.03028,4.05957l.71582,1.57617-1.23828-1.209c-.25489-.248-.52539-.5039-.793-.749l-3.52051.28809-.041.35351,3.15137.77051-3.72558,1.35351-.02735.56348,1.30176.24024,1.15625,2.00878-2.24512,6.67872h-2.54c-.123.416-.31152,1.08105-.3457,1.31445-.01465.24512.27637,2.251.46973,3.57812.19726,1.3545.27734,1.91993.27734,2.05664a27.58638,27.58638,0,0,1-1.53516,3.90235c-.51464,1.22656-1.04688,2.49414-1.13378,2.77637a19.40725,19.40725,0,0,0-.14649,3.27929l.002.28906a19.89183,19.89183,0,0,0,.46875,2.47266,16.86105,16.86105,0,0,1-.05371,1.959c-.02929.11914-.30371.73632-1.168,2.65722-.45605,1.01172-1.02246,2.27149-1.06933,2.41113-.08008.27149-.14258,2.5-.14258,2.87012a43.57645,43.57645,0,0,1-3.31152,5.249,20.146,20.146,0,0,1-1.45117,1.50488,10.19138,10.19138,0,0,0-.9004.93262c-.05371.10742-.21582.43261-2.08789.86816a9.53944,9.53944,0,0,1-.57226,1.85059c-.27051.48632-1.58008,2.13964-1.72852,2.32714l-.26562.333-1.34864-1.83887-1.35156-.31543-.96289.54395c-.18164,1.9707-.27051,2.92773-.36035,3.38965a.612.612,0,0,1,.00586.07519h-.02148C173.86076,376.46777,173.78752,376.50586,173.67033,376.50586Zm-29.876-2.74707,1.78125,1.03223,1.84571-.63086.03808-.28418-3.54687-.582.15722-1.56836,2.11426-.78516,3.02832.2373.22949,1.24219,2.77832-1.48437.10254.01269c3.49414.43946,10.3916,1.24317,11.50586,1.11328,1.43946-.15918,8.43457-.26172,8.73145-.2666l.248-.00293.06934.23731c.125.43359.3916,1.36133.62793,2.23144.05957-.61426.12109-1.27344.16992-1.7998l.01563-.16895,1.47851-.83691,1.834.42871.98535,1.34473c.48144-.61426,1.23535-1.59766,1.40625-1.9043a10.6087,10.6087,0,0,0,.55078-1.874l.043-.20313.2041-.0459a7.25986,7.25986,0,0,0,1.87305-.60644,6.73418,6.73418,0,0,1,1.00488-1.07129,19.7829,19.7829,0,0,0,1.40039-1.44922,56.05546,56.05546,0,0,0,3.17578-4.915h0a24.57939,24.57939,0,0,1,.165-2.999c.05469-.16211.45117-1.04493,1.09375-2.47266.48242-1.07324,1.084-2.4082,1.13281-2.55859.02344-.12207.04-.97266.04-1.71582a18.88714,18.88714,0,0,1-.47754-2.54786l-.00195-.28418a17.14965,17.14965,0,0,1,.17578-3.47558c.09668-.31348.58789-1.48242,1.15625-2.83692.60645-1.44531,1.4375-3.42382,1.48633-3.68359-.00586-.09375-.1416-1.02734-.27344-1.92969a34.29314,34.29314,0,0,1-.46875-3.76464c.05567-.38477.39649-1.51368.43555-1.64161l.06934-.23047h2.55664l2.00293-5.958-.86133-1.49512-1.56543-.28906.07812-1.56153,2.11426-.76953-1.626-.39746.16993-1.45117,1.28222-.10547-1.15527-.38476.33691-1.60157.31055.05664s1.17285.21192,1.70508.31934a5.71145,5.71145,0,0,1,1.626,1.1543c-.37207-.76661-.84082-1.69727-1.28222-2.48243A9.69373,9.69373,0,0,1,196.933,310.21a50.83968,50.83968,0,0,1,2.11524-5.91308c.38086-.96.77441-1.95215.80664-2.11133a4.48962,4.48962,0,0,0-1.64355-3.6709,46.02838,46.02838,0,0,1-7.38184-8.501c-1.27734-1.73633-2.59863-3.53125-4.0166-5.17969-3.91016-4.54394-7.59961-11.88671-7.63672-11.96l-.04395-.08984.41895-3.14844-1.02637-1.31152.15332-.19922c1.31055-1.71484,1.73535-5.22168,1.73926-5.25684l.01465-.11816.08691-.08105a30.20863,30.20863,0,0,0,2.58106-2.6045c.16211-.4082,1.33984-5.92871,1.35058-6.34472-.05468-.34473-1.4414-3.26172-2.4082-5.21582l-.03027-.09864a14.33688,14.33688,0,0,1-.24219-3.5205c.11426-.26563.5625-1.71875.7832-2.44336l-.85937-.94434-1.82715-.27344c-.5752-.2539-1.9375-.8955-2.17774-1.373-.20117-.4043-.877-1.44532-.88378-1.45606l-.0752-.11523.03125-.13477a6.0675,6.0675,0,0,1,.7627-1.94531c.32128-.36914,1.63281-1.44434,2.14062-1.85547l-.85645-2.2627.02344-.09765c.17676-.73535.64453-2.69922.68653-2.9502.01171-.12207-.06153-.77832-.12012-1.30468a10.36169,10.36169,0,0,1-.14063-2.22461c.10254-.40821.31153-1.66211.31348-1.67481l.01758-.1084,2.55176-2.38086,1.36718-.12988,3.67676,3.30371h.35059l-4.043-3.332h-1.20215L179.186,223.71l-.97363-2.13281c-.72461-.34277-4.87109-2.30078-5.34375-2.48926a6.94351,6.94351,0,0,0-.999-.24609,11.92477,11.92477,0,0,1-1.55176-.38672c-1.02246-.35352-4.417-3.47656-4.87305-4.16113-.44629-.66895-10.09179-16.77881-10.32031-17.23731-.15625-.23633-1.81348-1.63818-2.91016-2.56543a25.74461,25.74461,0,0,1-2.16015-1.90381,23.17127,23.17127,0,0,0-4.38086-2.15625c-2.42676-.60693-15.82324-3.93652-16.749-4.083-1.085-.17041-11.457-.14453-13.06642.10694-3.19823.499-13.95214,2.12744-18.04882,2.12744-3.835,0-15.15234-4.17334-15.39062-5.01465-.06543-.228-.32422-1.76367-.65528-3.74756-.11523-.68945-.2334-1.398-.2832-1.67383-.41406-.19287-2.0957-.6914-3.61133-1.09668l-.10644-.05029a7.04619,7.04619,0,0,1-1.248-1.09277c-.19238-.25342-2.707-2.50586-4.24512-3.86475l-.06836-.08447s-1.91015-3.396-2.123-3.76709c-.12305-.16406-1.25586-1.12842-2.25586-1.97949a25.7545,25.7545,0,0,1-3.38086-3.08057c-.26465-.52978-1.80078-3.44531-1.80078-3.44531l-.03614-.11719-.53125-5.04394-.002-6.76709,4.998-4.29151,4.52929-5.37842c3.53809-6.95556,5.46094-10.59961,5.67286-10.769.24414-.19482,5.68164-4.5542,6.56835-5.26514V117.7876l8.11426-9.36768,2.15723.43946L91.891,106.15283l2.87891.71924,3.22461-3.87988,1.57617,1.50146-1.624,2.14746,2.4082,1.79444,1.44043-1.77979-1.27148-1.5249.58886-.07471c1.98828-.25342,5.26172-.70019,5.584-.82031.05078-.0332.95215-.61621,2.18164-1.41162,5.71484-3.6958,7.60156-4.90283,7.76367-4.96777.26367-.10547,6.24121-1.77295,7.65234-2.166l3.71778-3.668V89.4707l3.3955-3.23291.89063-2.22705,2.06152,1.87061-.65234-1.45313,4.251-2.38818.1289.03613c.49024.13574,1.0586.27588,1.416.34522-.13672-.51416-.41114-1.48828-.61817-2.20264l-.06054-.209,3.84472-3.06495-.40527-5.78076.03516-.07617c.29687-.63476,2.90136-6.21143,3.21484-6.68164.31543-.47314,6.10156-5.66455,7.25879-6.70068l.09277-.083h1.27149l3.13964-1.80127H160.768c4.1582-2.64258,10.26757-6.55762,11.30078-7.30127-.1377-.30469-.53028-1.12256-.89551-1.85156l-.11719-.23584,4.56641-3.63135h3.08984l-.626-4.90088,4.5205.71387,2.54785,6.31738,3.89454-.53076-.6211-1.93994-3.627.562-1.89356-4.35986.18067-.15625a22.76209,22.76209,0,0,0,1.876-1.74561c.00879-.07519.15528-1.23975.27833-2.26758l.0205-.17627.16016-.07763c1.72559-.83692,10.37109-5.01856,11.05371-5.12354.2168-.0332,2.78711-.6499,17.57324-4.40478l.668-.16944a25.88846,25.88846,0,0,1,4.25781.3711,18.54327,18.54327,0,0,1,2.19629,1.54345c.69434.51856,1.5586,1.16358,1.7168,1.23682.32129.09131,7.80371,1.38428,8.23633,1.41943.37793-.01172,4.876-.50488,5.27832-.67627.21679-.18017,13.60058-10.20605,14.16992-10.63281l.2041-.15283L253.975,20.272l.97656-.32519-3.35547-2.81348,2.46973-2.00244,3.56054,4.65137-1.58593,1.71338h1.26172l.42382-1.86182-2.54785-3.312V13.48047l.06348-.08594c.1748-.23779,4.29785-5.84717,5.833-7.5874l.30273-.33984c1.40137-1.56934,2.84961-3.19092,3.57715-7.76807L-2.09627-3.625V230.501c1.19629.51953,7.23242,3.15527,8.06933,3.80664a11.55614,11.55614,0,0,1,2.65235,2.86328,32.515,32.515,0,0,0,2.90429,2.71484c2.59375,2.29492,6.14649,5.4375,7.16114,7.15039,1.53027,2.58106,7.34375,18.04492,7.45019,20.292.02735.56933.12891,2.35742.25977,4.666.584,10.292.88769,15.94336.82226,16.335a72.71041,72.71041,0,0,0,1.667,7.3457,10.50669,10.50669,0,0,0,1.63964.74708,16.578,16.578,0,0,1,5.291,2.97753c2.0332,2.03321,6.77344,3.42774,7.83789,3.66407.457.10156,3.17578,1.98632,9.73926,6.58886,5.27832,3.70118,11.26074,7.89551,15.34668,10.53614,6.68652,4.32226,24.86523,18.73535,32.62793,24.88965,1.65234,1.30957,2.83105,2.24511,3.32519,2.627a71.79973,71.79973,0,0,1,5.59668,5.35449c2.50879,2.54492,5.35157,5.42871,7.84473,7.501,4.5166,3.75488,8.084,6.7207,13.71874,6.9873,5.17774.24414,9.99415,1.26953,10.51759,2.24024C142.72013,370.42969,143.59709,373.14355,143.79435,373.75879Zm52.1377-55.58594,2.93164.97656a7.39828,7.39828,0,0,0-1.46289-1.13183c-.35547-.07129-.999-.19043-1.38184-.25977Z" style="fill:#935e2a"/><path d="M198.42109,298.26678c-4.4068-3.61035-7.4331-9.079-11.362-13.645a70.043,70.043,0,0,1-7.59234-11.89289l.42474-3.18561-.95569-1.22119c1.38043-1.80517,1.80518-5.41552,1.80518-5.41552a32.56971,32.56971,0,0,0,2.65466-2.70777c.1593-.37164,1.38043-6.05261,1.38043-6.47735s-2.44232-5.36243-2.44232-5.36243a19.84945,19.84945,0,0,1-.26544-3.34491c.1593-.37164.84949-2.65466.84949-2.65466l-1.06189-1.168-1.85822-.26551s-1.80517-.79638-2.01758-1.22113-.90258-1.48663-.90258-1.48663a6.13986,6.13986,0,0,1,.69024-1.80518c.37165-.42474,2.283-1.96441,2.283-1.96441l-.90259-2.38922s.63715-2.65467.69025-2.97327-.37164-3.07941-.2655-3.50415.3186-1.699.3186-1.699l2.38916-2.22991,1.115-.10621,3.66345,3.29181h1.38044l-4.83149-3.982h-1.43353l-2.86706,2.33612-.84949-1.85828s-4.93769-2.33612-5.46863-2.54852-1.64587-.31854-2.56519-.63709a22.83671,22.83671,0,0,1-4.70861-4.03509c-.42475-.63715-10.08771-16.77753-10.30011-17.20227s-4.83149-4.1413-5.097-4.51294a21.50082,21.50082,0,0,0-4.566-2.283c-.84955-.2124-15.76874-3.92889-16.77752-4.0882s-11.46821-.1593-13.16718.1062-13.645,2.12372-17.99866,2.12372-14.97235-4.40674-15.07849-4.77838-.90259-5.30939-.95569-5.52173a28.85645,28.85645,0,0,0-3.82275-1.22113,7.53309,7.53309,0,0,1-1.168-1.00879c-.2124-.31854-4.3006-3.92889-4.3006-3.92889s-1.91131-3.398-2.12372-3.76965-5.36242-4.51294-5.62793-5.04389-1.80517-3.45105-1.80517-3.45105l-.53089-5.04388v-6.58356l4.88459-4.1944,4.566-5.41552s5.36242-10.51252,5.62787-10.72486c.09179-.07342.92523-.74145,1.96948-1.57855l-8.635-8.13684L62.6316,129.3042s-21.05621-3.06641-21.66949-3.67969a25.85409,25.85409,0,0,0-3.06647-2.04431L25.221,132.984s-9.19934,23.305-10.83478,26.57586-6.95062,6.33735-7.76831,6.95063c-.5769.43268-5.93243,1.98346-9.039,2.86v61.34308s7.30621,3.15949,8.19482,3.85059a11.26871,11.26871,0,0,1,2.56708,2.76452c.49365.88862,8.491,7.20752,10.07074,9.87336s7.30628,18.06811,7.405,20.14148,1.18481,20.33905,1.08606,20.93139a68.24247,68.24247,0,0,0,1.67847,7.50373c.19751.5924,4.838,1.67846,7.01007,3.85058s7.10876,3.55438,7.99737,3.75189,16.8833,11.8479,24.97943,17.08075,33.117,25.32349,35.93091,27.50031,8.70734,8.91974,13.43262,12.84863,8.28259,6.796,13.91046,7.0614,9.87543,1.38043,10.24707,2.07068,1.43353,4.0351,1.43353,4.0351l2.01752,1.168,2.17682-.74329.1062-.79639-3.55725-.584.1062-1.06189,1.85828-.69019,2.70776.21234.26544,1.43354,3.07941-1.64588s10.14087,1.27423,11.58136,1.11493,8.70032-.26544,8.70032-.26544,1.06189,3.66345,1.06189,4.0351.37164-3.66346.37164-3.66346l1.22113-.69018,1.59283.37164,1.168,1.59277s1.43354-1.80517,1.699-2.283a11.40544,11.40544,0,0,0,.584-1.96441s1.91138-.42475,2.07062-.74335,1.699-1.64587,2.38922-2.49536a50.01041,50.01041,0,0,0,3.23871-5.04389,29.43783,29.43783,0,0,1,.1593-2.9732c.10614-.3186,2.17682-4.83154,2.22992-5.04389s.053-1.80517.053-1.80517a22.40448,22.40448,0,0,1-.47778-2.54852,21.85222,21.85222,0,0,1,.15924-3.6634c.2124-.69024,2.65466-6.265,2.65466-6.58361s-.79638-5.30933-.74328-5.681.42474-1.59284.42474-1.59284H194.97l2.12378-6.31811-1.00879-1.75208-1.43353-.26544.0531-1.06189,2.9201-1.06183-2.38916-.584.10614-.90259,2.60163-.2124-2.38922-.79639.2124-1.00879s1.168.2124,1.699.3186a15.92872,15.92872,0,0,1,2.70777,2.22992s-1.06189-2.33612-2.01758-4.03509a9.37636,9.37636,0,0,1-.90259-5.62793c.2655-1.53967,2.814-7.48615,2.92017-8.01709A4.821,4.821,0,0,0,198.42109,298.26678Z" style="fill:#a8731e;opacity:0.30000000000000004"/><g style="opacity:0.2;mix-blend-mode:multiply"><path d="M198.42106,298.26678c-3.28918-2.69476-5.80957-6.42468-8.51-10.04193-1.33545,9.33582-2.9599,20.14911-4.78375,31.19733-5.08362,30.79474-29.50067,32.36731-48.56635,24.38635s-80.25323-48.7727-89.56439-73.081c-7.98462-20.84516-17.29577-52.606-49.41766-68.22418v28.21026s7.30627,3.15949,8.19488,3.85059a11.26958,11.26958,0,0,1,2.567,2.76452c.49371.88862,8.49109,7.20752,10.0708,9.87336s7.30622,18.06811,7.405,20.14148,1.18481,20.33905,1.08606,20.93139a68.22867,68.22867,0,0,0,1.67847,7.50373c.19745.5924,4.83789,1.67846,7.01,3.85058s7.10882,3.55438,7.99737,3.75189S60.47184,315.229,68.568,320.46185s33.117,25.32349,35.93091,27.50031,8.70728,8.91974,13.43262,12.84863,8.28253,6.796,13.91046,7.0614,9.87537,1.38043,10.247,2.07068,1.43353,4.0351,1.43353,4.0351l2.01758,1.168,2.17682-.74329.10614-.79639-3.55725-.584.1062-1.06189,1.85828-.69019,2.70776.21234.26544,1.43354,3.07947-1.64588s10.14081,1.27423,11.58136,1.11493,8.70032-.26544,8.70032-.26544,1.06183,3.66345,1.06183,4.0351.37164-3.66346.37164-3.66346l1.22119-.69018,1.59277.37164,1.16809,1.59277s1.43348-1.80517,1.699-2.283a11.40937,11.40937,0,0,0,.584-1.96441s1.91138-.42475,2.07068-.74335,1.699-1.64587,2.38922-2.49536a50.01895,50.01895,0,0,0,3.23865-5.04389,29.43783,29.43783,0,0,1,.1593-2.9732c.1062-.3186,2.17682-4.83154,2.22992-5.04389s.0531-1.80517.0531-1.80517a22.402,22.402,0,0,1-.47784-2.54852,21.84619,21.84619,0,0,1,.1593-3.6634c.21234-.69024,2.65466-6.265,2.65466-6.58361s-.79638-5.30933-.74334-5.681.42474-1.59284.42474-1.59284H194.97l2.12372-6.31811-1.00879-1.75208-1.43347-.26544.053-1.06189,2.92017-1.06183-2.38923-.584.10621-.90259,2.60156-.2124-2.38916-.79639.21234-1.00879s1.168.2124,1.699.3186a15.92872,15.92872,0,0,1,2.70777,2.22992s-1.06183-2.33612-2.01752-4.03509a9.37591,9.37591,0,0,1-.90259-5.62793c.26544-1.53967,2.81391-7.48615,2.92011-8.01709A4.821,4.821,0,0,0,198.42106,298.26678Z" style="fill:#dd9f33"/><path d="M261.31865,6.02179c1.54388-1.74976,3.24218-3.34509,4.01416-8.64575L260.27146-2.649c-19.60363,31.648-20.97637,14.48725-41.24035,17.02027-8.79926,1.09985-29.707,5.764-45.22559,15.07519S143.65519,50.729,133.01384,72.455s-30.59375,13.745-39.46155,21.726c-7.04041,6.33643-11.84473,14.92035-16.41046,33.93842a4.09925,4.09925,0,0,1,.33252-.54792c.26544-.2124,6.68975-5.36242,6.68975-5.36242v-4.3006l7.91089-9.132,2.86707.584-2.17682-2.65466,2.12372.531,3.1325-3.76966,1.115,1.06189-1.64594,2.17682,2.92017,2.17682,1.80517-2.22992-1.06189-1.27423s5.41553-.69019,5.681-.84949,9.663-6.265,9.92847-6.37121S124.462,95.981,124.462,95.981l3.87585-3.82276V89.60974l3.34485-3.18561.74335-1.85827,2.867,2.60162-1.168-2.60162,3.87579-2.17682s1.91138.53094,1.91138.37164-.7149-2.63232-.7149-2.63232l3.80822-3.03632-.41168-5.86676s2.882-6.17554,3.19074-6.63873,7.20477-6.63874,7.20477-6.63874h1.23511l3.13922-1.80114h3.49951s11.5791-7.35919,11.5791-7.51361-.97778-2.11-.97778-2.11l4.27142-3.39654H179.081l-.61755-4.83753,3.91119.61756,2.57312,6.3814,4.52875-.61755-.82342-2.57312-3.65387.5661-1.69825-3.91119a21.18269,21.18269,0,0,0,1.95557-1.85266c.05145-.20588.30878-2.36731.30878-2.36731s10.2926-4.99189,10.96161-5.09485,18.06347-4.52869,18.26935-4.58014a29.68649,29.68649,0,0,1,4.06555.36023c.41168.15436,3.60241,2.676,3.91119,2.779s8.1311,1.44092,8.337,1.44092a51.16738,51.16738,0,0,0,5.45507-.72046c.25733-.20587,14.20374-10.65283,14.20374-10.65283l3.13922,2.57318,1.6983-.5661-3.49951-2.93341,1.90418-1.54389,3.19067,4.16852-1.90411,2.05853h2.26434l.51465-2.2644-2.57318-3.34509V13.58685S259.77476,7.77155,261.31865,6.02179Z" style="fill:#dd9f33"/></g></g><circle cx="153.52546" cy="247.50421" r="12.08724" style="fill:#fff"/><path d="M153.5258,260.0918a12.58741,12.58741,0,1,1,12.58691-12.58789A12.60161,12.60161,0,0,1,153.5258,260.0918Zm0-24.17481a11.58741,11.58741,0,1,0,11.58691,11.58692A11.60072,11.60072,0,0,0,153.5258,235.917Z" style="fill:#935e2a"/><path d="M155.59611,255.4707h-4.1416v-6.7539l2.07129-2.09766,2.07031,2.09766Zm-3.1416-1h2.1416V249.127l-1.07031-1.084-1.07129,1.084Z"/><path d="M153.52546,253.35632h0a.3723.3723,0,0,1,.3723.3723v1.40248a0,0,0,0,1,0,0h-.7446a0,0,0,0,1,0,0v-1.40248A.3723.3723,0,0,1,153.52546,253.35632Z"/><path d="M153.52546,250.35787h0a.3723.3723,0,0,1,.3723.3723v1.40248a0,0,0,0,1,0,0h-.7446a0,0,0,0,1,0,0v-1.40248A.3723.3723,0,0,1,153.52546,250.35787Z"/><path d="M152.45451,255.4707h-4.14063V244.39063L150.3842,240.25l2.07031,4.14063Zm-3.14063-1h2.14063V244.627l-1.07031-2.14062-1.07032,2.14062Z"/><rect x="148.81388" y="244.00879" width="3.14063" height="1"/><rect x="149.8842" y="239.87695" width="1" height="1.49121"/><rect x="149.88908" y="239.90039" width="0.99023" height="1"/><path d="M150.38447,245.27639h0a.3723.3723,0,0,1,.3723.3723v1.40248a0,0,0,0,1,0,0h-.7446a0,0,0,0,1,0,0v-1.40248a.3723.3723,0,0,1,.3723-.3723Z"/><circle cx="150.38447" cy="251.01574" r="0.43368"/><path d="M158.73674,255.4707h-4.14063V244.39063l2.07031-4.14063,2.07032,4.14063Zm-3.14063-1h2.14063V244.627l-1.07032-2.14062-1.07031,2.14062Z"/><rect x="155.09611" y="244.00879" width="3.14063" height="1"/><rect x="156.16642" y="239.87695" width="1" height="1.49121"/><rect x="156.17131" y="239.90039" width="0.99023" height="1"/><path d="M156.66646,245.27639h0a.3723.3723,0,0,1,.3723.3723v1.40248a0,0,0,0,1,0,0h-.7446a0,0,0,0,1,0,0v-1.40248A.3723.3723,0,0,1,156.66646,245.27639Z"/><circle cx="156.66646" cy="251.01574" r="0.43368"/><rect x="148.81388" y="249.25977" width="9.42285" height="1"/><circle cx="187.70704" cy="53.44808" r="12.08724" style="fill:#fff"/><path d="M187.70744,66.03516a12.58716,12.58716,0,1,1,12.58691-12.58692A12.6014,12.6014,0,0,1,187.70744,66.03516Zm0-24.17432a11.58716,11.58716,0,1,0,11.58691,11.5874A11.60083,11.60083,0,0,0,187.70744,41.86084Z" style="fill:#935e2a"/><polygon points="182.044 57.738 178.747 52.948 196.494 52.948 196.494 56.951 195.494 56.951 195.494 53.948 180.65 53.948 182.869 57.171 182.044 57.738"/><path d="M191.92131,57.17969h-1a2.647,2.647,0,1,0-5.29395,0h-1a3.647,3.647,0,1,1,7.29395,0Z"/><polygon points="189.177 52.96 188.177 52.96 188.177 50.052 185.627 50.052 185.627 52.96 184.627 52.96 184.627 49.052 189.177 49.052 189.177 52.96"/><polygon points="196.494 53.448 195.494 53.448 195.494 51.756 188.677 51.756 188.677 50.756 196.494 50.756 196.494 53.448"/><path d="M193.82853,58.17969a6.42876,6.42876,0,0,1-2.72168-.53467,6.18191,6.18191,0,0,0-4.70605,0,7.17413,7.17413,0,0,1-5.43653-.00049,5.4863,5.4863,0,0,0-2.3496-.46484v-1a6.40623,6.40623,0,0,1,2.71679.53467,6.175,6.175,0,0,0,4.70215.00048,7.1841,7.1841,0,0,1,5.44043-.00048,6.18687,6.18687,0,0,0,4.708,0,6.4234,6.4234,0,0,1,2.7207-.53467v1a5.49105,5.49105,0,0,0-2.35351.46533A6.42364,6.42364,0,0,1,193.82853,58.17969Z"/><rect x="185.12736" y="50.75635" width="2.13965" height="1"/><text transform="translate(56.01283 48.26352)" style="font-size:16px;font-family:Lato-Black, Lato;font-weight:800"><tspan style="letter-spacing:-0.00750732421875em">B</tspan><tspan x="10.5918" y="0" style="letter-spacing:0.00006103515625em">al</tspan><tspan x="23.03223" y="0" style="letter-spacing:-0.00799560546875em">a</tspan><tspan x="31.18359" y="0" style="letter-spacing:-0.0050048828125em">t</tspan><tspan x="37.24707" y="0" style="letter-spacing:0.00006103515625em">o</tspan><tspan x="46.54395" y="0" style="letter-spacing:-0.01007080078125em">n</tspan><tspan x="55.50293" y="0">fü</tspan><tspan x="70.47949" y="0" style="letter-spacing:-0.00897216796875em">r</tspan><tspan x="76.43945" y="0">ed</tspan></text><text transform="translate(86.16261 252.13278)" style="font-size:16px;font-family:Lato-Black, Lato;font-weight:800;letter-spacing:-0.0054931640625em">T<tspan x="9.65625" y="0" style="letter-spacing:-0.00006103515625em">iha</tspan><tspan x="31.32715" y="0" style="letter-spacing:-0.01544189453125em">n</tspan><tspan x="40.2002" y="0" style="letter-spacing:-0.02508544921875em">y</tspan></text><text transform="translate(203.99324 52.13718)" style="font-size:12px;font-family:Lato-Regular, Lato;letter-spacing:-0.007486979166666667em">I<tspan x="3.27051" y="0" style="letter-spacing:-0.00008138020833333333em">ndulás</tspan></text><text transform="translate(203.99324 62.22163)" style="font-size:8px;font-family:Lato-Regular, Lato"><tspan style="letter-spacing:-0.0069580078125em">D</tspan><tspan x="6.02832" y="0">epartu</tspan><tspan x="28.95215" y="0" style="letter-spacing:-0.0205078125em">r</tspan><tspan x="31.7002" y="0">e</tspan></text><path d="M177.99845,71.02979a.79968.79968,0,0,1-.49414-1.42969c1.50489-1.17969,2.38379-1.80371,2.41993-1.82959A.79989.79989,0,0,1,180.85,69.0752c-.00879.00634-.8877.63085-2.35938,1.78466A.79567.79567,0,0,1,177.99845,71.02979Z"/><path d="M193.69767,217.73926a10.43,10.43,0,0,1-1.9248-.17481,18.46276,18.46276,0,0,1-3.97656-1.30371.80008.80008,0,1,1,.64843-1.46289,16.83832,16.83832,0,0,0,3.625,1.19434,8.82388,8.82388,0,0,0,1.62793.14746l.26953-.00391a.82234.82234,0,0,1,.82325.77637.80052.80052,0,0,1-.77637.82324Zm6.14649-1.50879a.79975.79975,0,0,1-.335-1.52637,25.72728,25.72728,0,0,0,5.00488-3.10644.80014.80014,0,1,1,.98437,1.26172,27.29581,27.29581,0,0,1-5.32128,3.29785A.79561.79561,0,0,1,199.84416,216.23047Zm-17.043-2.86524a.79774.79774,0,0,1-.43848-.13085c-1.60351-1.05274-3.27929-2.2793-4.98047-3.64356a.80024.80024,0,0,1,1.002-1.24805c1.66113,1.333,3.2959,2.52832,4.85742,3.55371a.79993.79993,0,0,1-.44043,1.46875Zm26.67676-4.46191a.79979.79979,0,0,1-.58594-1.34473,48.03987,48.03987,0,0,0,3.78613-4.63671.80034.80034,0,1,1,1.29883.93554,49.80073,49.80073,0,0,1-3.91309,4.791A.80131.80131,0,0,1,209.478,208.90332Zm-36.207-3.12207a.80035.80035,0,0,1-.543-.21191c-1.46289-1.35157-2.9375-2.79883-4.38379-4.30176a.79978.79978,0,0,1,1.15234-1.10938c1.42481,1.48047,2.87793,2.90528,4.31738,4.23535a.79983.79983,0,0,1-.543,1.3877Zm43.33593-6.71924a.80051.80051,0,0,1-.69433-1.1958c.96972-1.70508,1.88476-3.50928,2.71777-5.3623a.79989.79989,0,1,1,1.459.65625c-.85351,1.89892-1.791,3.748-2.78613,5.49707A.8.8,0,0,1,216.60685,199.062Zm-51.7959-2.0498a.79654.79654,0,0,1-.60351-.27539c-1.32129-1.521-2.63574-3.11328-3.90625-4.73291a.80028.80028,0,0,1,1.25976-.98731c1.25293,1.59863,2.54981,3.17041,3.85352,4.67139a.79953.79953,0,0,1-.60352,1.32422Zm56.80274-9.03516a.80073.80073,0,0,1-.75488-1.06445c.65039-1.85938,1.24316-3.79785,1.76074-5.76123a.79979.79979,0,1,1,1.54687.40722c-.52832,2.0044-1.13281,3.9834-1.79785,5.88233A.80051.80051,0,0,1,221.61369,187.97705Zm-64.32617-.55273a.80055.80055,0,0,1-.6543-.33789c-1.18555-1.6753-2.33691-3.3877-3.42187-5.09034a.8.8,0,1,1,1.3496-.85937c1.07032,1.68017,2.207,3.37109,3.37891,5.0249a.801.801,0,0,1-.65234,1.2627Zm-6.541-10.28028a.8003.8003,0,0,1-.69726-.40576c-1.01661-1.79346-1.98633-3.61767-2.88379-5.42334a.80031.80031,0,0,1,1.43359-.71191c.88378,1.77929,1.83984,3.57812,2.84277,5.34619a.80088.80088,0,0,1-.69531,1.19482Zm73.97559-.9292a.80036.80036,0,0,1-.78711-.94629c.3623-1.95361.66211-3.96044.8916-5.96533a.80009.80009,0,1,1,1.58984.18164c-.2334,2.04151-.53906,4.08594-.90918,6.07569A.79958.79958,0,0,1,224.72209,176.21484Zm-79.39063-9.99121a.80109.80109,0,0,1-.73633-.48681c-.80957-1.90235-1.55859-3.82813-2.22558-5.7251a.80009.80009,0,1,1,1.50976-.53027c.65528,1.86425,1.39161,3.75781,2.18848,5.62841a.80118.80118,0,0,1-.73633,1.11377Zm80.78711-2.09668c-.01367,0-.02734,0-.041-.001a.79916.79916,0,0,1-.75879-.83838c.0791-1.60108.11914-3.23.11816-4.8418l-.001-.52344q-.00145-.32812-.00976-.66259a.79985.79985,0,0,1,.7793-.82032.78944.78944,0,0,1,.82031.7793c.00586.23486.00879.46631.00976.6958l.001.53076c.001,1.63819-.03906,3.29395-.12012,4.92139A.8002.8002,0,0,1,226.11857,164.127Zm-84.81347-9.38916a.80094.80094,0,0,1-.77149-.58886c-.5498-2.00342-1.02051-4.01758-1.39941-5.98584a.79961.79961,0,1,1,1.57031-.30274c.37207,1.92822.833,3.90137,1.37207,5.86572a.80073.80073,0,0,1-.77148,1.01172Zm84.40332-2.76855a.80051.80051,0,0,1-.792-.69287c-.25-1.84326-.59472-3.84668-1.02539-5.95459a.80027.80027,0,0,1,1.56836-.31934c.43653,2.14209.78809,4.18067,1.043,6.05908a.79931.79931,0,0,1-.68555.89991A.736.736,0,0,1,225.70842,151.96924Zm-86.68653-9.17481a.80039.80039,0,0,1-.79492-.71679c-.21582-2.06348-.33594-4.13184-.35645-6.14844a.79942.79942,0,0,1,.792-.80811.827.827,0,0,1,.80761.79151c.02051,1.96679.13769,3.98486.34864,5.998a.80035.80035,0,0,1-.71289.87891A.69168.69168,0,0,1,139.02189,142.79443Zm84.2959-2.7749a.80108.80108,0,0,1-.77539-.606c-.46484-1.85644-.99512-3.8291-1.5752-5.86328a.80016.80016,0,1,1,1.53907-.43847c.585,2.05029,1.11914,4.03955,1.58886,5.91308a.80189.80189,0,0,1-.77734.99463Zm-84.39453-9.3789c-.02637,0-.05274-.00147-.0791-.00391a.79989.79989,0,0,1-.71778-.874,54.15446,54.15446,0,0,1,.95606-6.09961A.80016.80016,0,0,1,140.64689,124a52.5461,52.5461,0,0,0-.92871,5.918A.79934.79934,0,0,1,138.92326,130.64063Zm81.06543-2.34961a.80094.80094,0,0,1-.76367-.56153q-.898-2.8733-1.875-5.78515a.80015.80015,0,1,1,1.51758-.50782q.97851,2.92164,1.88476,5.81543a.80022.80022,0,0,1-.76367,1.03907Zm-78.53223-9.53125a.80056.80056,0,0,1-.76074-1.04834c.62012-1.90039,1.35449-3.83789,2.18359-5.75977a.79983.79983,0,1,1,1.46875.63379c-.80859,1.877-1.52636,3.76855-2.13086,5.62207A.80072.80072,0,0,1,141.45646,118.75977Zm74.665-2.03223a.80043.80043,0,0,1-.7539-.5332q-1.01808-2.87622-2.07422-5.72266a.8.8,0,1,1,1.5-.55664q1.0576,2.85277,2.082,5.74512a.80032.80032,0,0,1-.75391,1.06738Zm-69.87109-9.145a.80009.80009,0,0,1-.70606-1.17481c.93555-1.76513,1.96875-3.55517,3.07129-5.32128a.79992.79992,0,1,1,1.35742.84668c-1.082,1.73486-2.09668,3.49218-3.01464,5.22363A.80029.80029,0,0,1,146.25041,107.58252Zm65.63965-2.29395a.8017.8017,0,0,1-.74707-.51318q-1.10889-2.88648-2.21778-5.66992a.79973.79973,0,1,1,1.48633-.59082c.73828,1.85644,1.48242,3.75635,2.22559,5.68652a.80123.80123,0,0,1-.74707,1.0874Zm-59.209-8.0415a.80032.80032,0,0,1-.65039-1.26514c1.15918-1.62451,2.40625-3.2705,3.70508-4.8916a.79963.79963,0,1,1,1.24805,1c-1.28028,1.59815-2.50879,3.22022-3.65039,4.82129A.79982.79982,0,0,1,152.68107,97.24707Zm54.70215-3.29A.80068.80068,0,0,1,206.643,93.46c-.79883-1.94922-1.58106-3.82959-2.33692-5.624a.8.8,0,0,1,1.47461-.6211c.75781,1.79932,1.542,3.68457,2.34277,5.63868a.80035.80035,0,0,1-.74023,1.10351Zm-47.09375-6.22412a.79952.79952,0,0,1-.59863-1.33057c1.334-1.50439,2.73828-3.01562,4.17285-4.49121a.79972.79972,0,1,1,1.14648,1.11524c-1.417,1.458-2.80371,2.95117-4.12207,4.4375A.79805.79805,0,0,1,160.28947,87.73291Zm42.3623-5.0166a.79952.79952,0,0,1-.73437-.4834c-.88477-2.04883-1.706-3.92236-2.44141-5.582a.80008.80008,0,1,1,1.46289-.64844c.73731,1.66455,1.56055,3.542,2.44727,5.59668a.80043.80043,0,0,1-.73438,1.11719Zm-33.873-3.72461a.79982.79982,0,0,1-.54883-1.38184c1.48926-1.40478,3.02051-2.78711,4.54883-4.10937a.8.8,0,1,1,1.04687,1.21c-1.51172,1.30762-3.02539,2.67432-4.498,4.06348A.79729.79729,0,0,1,168.77873,78.9917Z"/><path d="M197.74748,71.65332a.79807.79807,0,0,1-.72754-.46875c-.79492-1.74316-1.249-2.71-1.25-2.7124a.79967.79967,0,1,1,1.44726-.68067s.458.97315,1.25782,2.73a.79989.79989,0,0,1-.72754,1.13184Z"/></g></svg>